G04 start of page 5 for group 3 idx 3 *
G04 Title: (unknown), bottom *
G04 Creator: pcb 20140316 *
G04 CreationDate: Thu 01 Jun 2017 04:27:31 PM GMT UTC *
G04 For: sumit *
G04 Format: Gerber/RS-274X *
G04 PCB-Dimensions (mm): 381.00 381.00 *
G04 PCB-Coordinate-Origin: lower left *
%MOMM*%
%FSLAX43Y43*%
%LNBOTTOM*%
%ADD115C,1.803*%
%ADD114C,1.295*%
%ADD113C,0.965*%
%ADD112C,2.540*%
%ADD111C,1.314*%
%ADD110C,1.168*%
%ADD109C,1.422*%
%ADD108C,3.581*%
%ADD107C,0.914*%
%ADD106R,1.240X1.240*%
%ADD105R,0.940X0.940*%
%ADD104R,1.549X1.549*%
%ADD103R,1.300X1.300*%
%ADD102R,0.864X0.864*%
%ADD101R,0.550X0.550*%
%ADD100C,2.743*%
%ADD99C,1.778*%
%ADD98C,0.002*%
%ADD97C,1.270*%
%ADD96C,1.524*%
%ADD95C,0.654*%
%ADD94C,1.016*%
%ADD93C,0.454*%
%ADD92C,1.143*%
%ADD91C,0.508*%
%ADD90C,0.762*%
%ADD89C,0.889*%
%ADD88C,0.381*%
%ADD87C,0.635*%
%ADD86C,0.254*%
G54D86*X192943Y219707D02*Y369791D01*
X192824Y369910D01*
X40488D01*
X40389Y219781D02*X40564Y219606D01*
X192781D01*
X192783Y219608D01*
X192842Y219606D02*X192943Y219707D01*
X40488Y369910D02*X40348Y369771D01*
Y219822D01*
X40419Y219751D01*
X93980Y320167D02*X96266D01*
X98044Y318516D02*Y320145D01*
X93853Y315214D02*X96382D01*
X95250Y316611D02*X97917D01*
X98171Y316357D01*
Y315225D01*
X98182Y315214D01*
X98000Y322580D02*X96266D01*
X101854D02*X103621D01*
X96266D02*X95885Y322961D01*
Y324104D01*
X96139Y324358D01*
X97663D01*
X99822D02*Y322602D01*
X99800Y322580D01*
X105243Y315224D02*X103668D01*
X107043D02*X108301D01*
X108471Y315054D01*
Y314310D01*
X108478Y314302D01*
X109548Y315694D02*X109433Y315580D01*
X93928Y312218D02*X96192D01*
X98044Y312166D02*Y311023D01*
X98055Y307975D02*Y306462D01*
X98044Y306451D01*
X94849Y308988D02*Y307985D01*
X94074Y306161D02*X93182Y305270D01*
X97536Y310515D02*X94742D01*
X96255Y310145D02*X95885Y310515D01*
G54D87*X93980Y309753D02*X94742Y310515D01*
G54D86*X103124Y310388D02*X101981D01*
X101473Y309880D01*
Y307594D01*
G54D87*X88011Y309753D02*X93980D01*
G54D86*X87851Y307188D02*X86101Y305438D01*
X86093Y305435D02*X86274Y305615D01*
X94849Y307985D02*X92311Y305448D01*
G54D87*X89662Y315722D02*X86378D01*
X89662Y318135D02*Y315722D01*
G54D88*Y316738D02*Y316484D01*
X88900Y315722D01*
G54D89*X86378Y313182D02*X84128D01*
G54D88*X86211Y313160D02*X86233Y313182D01*
G54D89*X86487D02*X92964D01*
G54D86*X84112D02*X84064Y313230D01*
G54D88*X84074Y315776D02*X84128Y315722D01*
G54D89*X84038Y315813D02*Y318480D01*
X85471Y319913D01*
G54D88*X84038Y316956D02*Y316702D01*
G54D89*X85471Y319913D02*X91948D01*
X95250Y316611D01*
G54D90*X84100Y315750D02*X83178D01*
G54D86*X98044Y311023D02*X97536Y310515D01*
X96255Y307975D02*Y310504D01*
X96266Y310515D01*
X96255Y310123D02*X96647Y310515D01*
X96255Y310123D02*Y310145D01*
X95067Y306796D02*Y300540D01*
X94785Y300258D01*
X94592Y298226D02*Y300065D01*
X94878Y300351D01*
X101432Y301595D02*X101681Y301346D01*
X101432Y301595D02*X102080Y300947D01*
X100409Y300464D02*X101666Y299207D01*
X99464Y301622D02*Y300071D01*
X99065Y300792D02*Y299883D01*
X99464Y300071D02*X101191Y298343D01*
X99065Y299883D02*X100757Y298191D01*
X97846Y300071D02*X100333Y297584D01*
X96937Y300314D02*X99921Y297330D01*
X98397Y302468D02*Y301460D01*
X99065Y300792D01*
X96121Y295338D02*Y306413D01*
X97846Y300848D02*Y300071D01*
X96937Y302072D02*Y300314D01*
X92311Y305448D02*Y300779D01*
X93182Y305270D02*Y300078D01*
X92680Y299575D01*
Y298247D01*
X84712Y296875D02*X84225Y297362D01*
Y298544D01*
X85819Y301531D02*X85743Y301455D01*
G54D87*X86211Y309753D02*Y313160D01*
Y311934D02*X84963Y313182D01*
G54D89*X92964D02*X93928Y312218D01*
G54D88*X86211Y312420D02*X86487D01*
X87249Y313182D01*
G54D86*X90297Y305943D02*X87503D01*
X85725Y304165D01*
X85743Y301607D02*X85725Y301625D01*
X83017Y305435D02*X86093D01*
G54D90*X84064Y313230D02*X81417D01*
G54D86*X83185Y305435D02*X79375D01*
X78105Y304165D01*
X77808Y310848D02*X76355Y309395D01*
X79228Y310838D02*Y309964D01*
X79398Y312387D02*X80030Y311755D01*
Y309857D01*
X81056Y311848D02*Y310269D01*
X79228Y309964D02*X78237Y308973D01*
X80030Y309857D02*X78697Y308524D01*
X81056Y310269D02*X78885Y308097D01*
X78237Y308973D02*X77340D01*
X112522Y309690D02*Y298602D01*
X110505Y296586D01*
X112522Y309428D02*Y309903D01*
X112916Y298450D02*X110889Y296423D01*
X107061Y308599D02*Y306705D01*
X108712Y309753D02*Y307213D01*
X110236Y307594D02*X109855Y307213D01*
X108839D01*
X108712Y307340D01*
X110236Y309604D02*Y307594D01*
X107061Y310399D02*X108066D01*
X108712Y309753D01*
X113774Y309827D02*X113297Y309349D01*
X113934Y309438D02*X113690Y309194D01*
X113906Y309410D02*X114094Y309598D01*
X113988Y310601D02*X112916Y309529D01*
X115722Y309997D02*X116091Y310365D01*
X114094Y309598D02*X115903D01*
X116500Y310195D01*
X117508Y309961D02*X117772Y309697D01*
X117568Y309902D02*X117820Y309649D01*
X123375Y304818D02*X124978Y303215D01*
G54D91*X123571Y316495D02*Y311658D01*
G54D86*X122949Y304632D02*X124536Y303045D01*
X122466Y308818D02*Y305496D01*
Y304462D02*X124066Y302862D01*
X110236Y313436D02*Y311404D01*
D03*
X112400Y314272D02*X111440D01*
X112222D02*X112977D01*
X113741Y315036D01*
X115143D01*
X115760Y314419D01*
Y312341D02*Y314305D01*
Y314419D02*Y314063D01*
X114699Y314231D02*Y312933D01*
X115166Y312466D01*
X116522Y313522D02*X117508Y312537D01*
X114140Y310754D02*X115402D01*
X113944Y309997D02*X115722D01*
X115166Y312466D02*Y311732D01*
X115390Y311508D01*
X115760Y312583D02*Y312075D01*
X115390Y311508D02*X115778D01*
X116101Y311186D01*
Y310375D01*
X115760Y312075D02*X116500Y311335D01*
Y310845D01*
Y310195D02*Y310960D01*
X117508Y312537D02*Y309961D01*
X116665Y312242D02*Y311798D01*
X117069Y311394D01*
G54D92*X117856Y321288D02*Y318280D01*
G54D86*X112916Y309529D02*Y298450D01*
X113297Y309349D02*Y298282D01*
X113690Y309194D02*Y298125D01*
X112522Y309903D02*X114366Y311747D01*
X113847Y310460D02*X114140Y310754D01*
X113567Y309620D02*X113944Y309997D01*
X124257Y305044D02*X125410Y303891D01*
X120371Y302318D02*X120391Y302339D01*
X119944Y300571D02*X119568Y300947D01*
X119482Y297315D02*X119088Y297708D01*
Y299227D01*
X123932Y306626D02*X123375Y306070D01*
Y304818D01*
X123533Y308145D02*X122949Y307561D01*
Y304632D01*
X123101Y309453D02*X122466Y308818D01*
Y304462D01*
X117820Y309649D02*Y298176D01*
X117483Y297838D01*
X117069Y298353D02*X116624Y297909D01*
X117483Y297838D02*Y297228D01*
X116624Y297909D02*Y296824D01*
X117069Y311394D02*Y298353D01*
X128935Y286210D02*X129525Y285620D01*
X118247Y289420D02*Y284010D01*
X111709Y284038D02*X107805Y280134D01*
X107386D01*
X129525Y285620D02*X131864D01*
X117511Y289806D02*Y278643D01*
X118684Y277470D01*
X118247Y284010D02*X118280Y283977D01*
X117117Y289982D02*Y272379D01*
X117899Y271597D01*
G54D93*X107632Y266258D02*X108242Y266868D01*
G54D86*X108255Y266880D02*X108101Y266727D01*
G54D93*X108255Y268638D02*Y266880D01*
G54D86*X88265Y290746D02*X88268Y290744D01*
X116689Y290143D02*Y265997D01*
X117993Y264693D01*
X116294Y260388D02*X118110Y258572D01*
X116294Y290316D02*Y260388D01*
X116736Y255852D02*X115898Y256690D01*
X114747Y252677D02*Y254064D01*
X115105Y254422D01*
X113995Y246129D02*Y253888D01*
X114704Y254597D01*
X115898Y256690D02*Y290482D01*
X115494Y251130D02*Y290640D01*
X115105Y254422D02*Y290827D01*
X114704Y254597D02*Y291046D01*
X117160Y249464D02*X115494Y251130D01*
X131016Y276728D02*X128781Y274493D01*
Y271419D01*
X131016Y274188D02*X132296Y275468D01*
Y267757D02*Y266454D01*
X137254Y273312D02*Y258049D01*
X132296Y266827D02*Y256085D01*
X128781Y271419D02*X129830Y270370D01*
X131806D01*
X132296Y269880D01*
Y267490D01*
X132278Y256103D02*X132291Y256090D01*
X132296Y256085D02*X132328Y256054D01*
X132738Y254330D02*X132715Y254353D01*
X137254Y247716D02*Y258308D01*
X135711Y252030D02*X136357Y252677D01*
X134538Y254330D02*X135583D01*
X136357Y253556D01*
Y252677D01*
X138821Y258983D02*Y249735D01*
X132715Y254353D02*X129639D01*
X141237Y261196D02*Y260431D01*
X140416Y259611D01*
X139449D01*
X138821Y258983D01*
X143767Y256705D02*X143347Y256286D01*
Y255577D01*
X141864D02*X140155D01*
X140152Y255580D01*
X141315Y258635D02*X140518D01*
X140111Y258229D01*
Y257490D01*
G54D90*X141280Y267680D02*X145654Y263307D01*
G54D86*X146417Y256705D02*X147411D01*
X147886Y256230D01*
Y255588D01*
X144617Y256705D02*X143767D01*
X152574Y255580D02*X150089D01*
X150063Y255605D01*
X154374Y255580D02*X154402Y255552D01*
Y253637D01*
X148859Y261242D02*Y250838D01*
G54D91*X104671Y266212D02*X102702D01*
G54D86*X102690Y266225D01*
G54D91*X101915Y267480D02*X94633D01*
G54D86*X104742Y268018D02*X104748Y268012D01*
G54D91*X106700D01*
X104706Y266212D02*X106700D01*
X102690Y266225D02*X102147Y265682D01*
X102423Y268018D02*X101884Y267480D01*
X102147Y265682D02*X95527D01*
G54D93*X106744Y266258D02*X107632D01*
G54D88*X106744Y266211D02*Y260891D01*
G54D91*X94633Y267480D02*X93365Y266212D01*
G54D86*X93302Y266202D02*X93312Y266212D01*
G54D91*X92202Y270825D02*X92796Y270231D01*
X90988Y266202D02*X93302D01*
X90932Y270825D02*X92202D01*
X90968Y269038D02*Y266210D01*
G54D86*X90975Y266202D01*
X90988Y264402D02*X90980Y264395D01*
G54D91*Y262420D01*
X93662Y260627D02*X90987D01*
G54D86*X90980Y260620D01*
G54D91*X90956Y264370D02*X95165D01*
X95537Y264742D01*
Y265651D01*
G54D86*X86571Y257457D02*X87104Y257990D01*
X86992Y261221D02*X94638Y253576D01*
X87142Y261696D02*X95085Y253754D01*
G54D88*X107168Y242453D02*Y260479D01*
G54D86*X88994Y257990D02*X93543Y253441D01*
X95085Y253754D02*Y252943D01*
X93543Y253441D02*Y238194D01*
X96637Y235100D01*
X94638Y253576D02*Y238696D01*
X95547Y237787D01*
X95085Y253467D02*Y238862D01*
X95694Y238252D01*
X97117D01*
X97150Y238285D01*
X105253Y230584D02*X86083D01*
X85522Y252531D02*X87449D01*
X87452Y252534D01*
X86233Y247348D02*X86985Y248100D01*
Y249415D01*
X87452Y249883D01*
Y250735D01*
X89634Y233690D02*X130848D01*
X131313D02*X129748D01*
X90569Y234188D02*X132362D01*
X96637Y235100D02*X111841D01*
X110762Y244013D02*X113502Y241272D01*
X110338Y243827D02*X113322Y240843D01*
X109906Y243650D02*X113170Y240386D01*
X132667Y232336D02*X131313Y233690D01*
X128900Y229832D02*X128905Y229837D01*
X132450Y232554D02*X132847Y232156D01*
X104249Y229832D02*X128900D01*
X131399Y228503D02*X117071D01*
X116441Y229133D01*
X115936D01*
G54D88*X111841Y224777D02*X111879Y224739D01*
G54D86*X119187Y227239D02*X120081Y226344D01*
X122098D01*
X123716Y224726D01*
X125222D01*
X121149Y227621D02*X128703D01*
X130302Y226022D01*
X95547Y237787D02*X143271D01*
X97150Y238285D02*X143495D01*
X114064Y242560D02*X138422D01*
X113502Y241272D02*X141013D01*
X113322Y240843D02*X144859D01*
X113170Y240386D02*X146804D01*
X132296Y275468D02*X135098D01*
X137000Y273566D01*
X136797Y273769D02*X137254Y273312D01*
G54D90*X141280Y295209D02*Y267680D01*
G54D86*X126187Y271097D02*X128176Y269108D01*
X128821D01*
X123904Y266984D02*X119918D01*
X126128Y264682D02*X126149Y264704D01*
X125704Y266984D02*Y265721D01*
X126149Y265275D01*
X124028Y264682D02*X126128D01*
X124028Y262882D02*X125252D01*
X125476Y263106D01*
X126131D01*
X126149Y265275D02*Y264655D01*
X124369Y260967D02*X124363Y260972D01*
X119952D01*
X124374Y257297D02*X125776D01*
X126144Y256929D01*
X124374Y259097D02*X125454D01*
X126197Y258354D01*
X126168Y260967D02*Y258382D01*
X126197Y258354D01*
X124135Y252798D02*X125883D01*
X126223Y252458D01*
X124292Y254658D02*X125362D01*
X125720Y254300D01*
Y252961D01*
X126086Y252595D01*
X122492Y254658D02*X120233D01*
X119901Y254991D01*
X124135Y250998D02*X124158Y250975D01*
X124071Y246176D02*X125185D01*
X124181Y248067D02*X125603D01*
X126223Y247447D01*
X122381Y248067D02*X120508D01*
X120012Y248562D01*
X124158Y250975D02*X126213D01*
X132368Y248333D02*X132366Y248331D01*
X130680D01*
X134168Y248333D02*X134851D01*
X134424Y250231D02*X134430Y250226D01*
X136357D01*
X134424Y252030D02*X135711D01*
X129639Y252669D02*X128399D01*
X129675Y245961D02*X126172Y249464D01*
X126223Y247447D02*Y245971D01*
X128399Y252669D02*X125217Y255852D01*
X116736D01*
X126172Y249464D02*X117160D01*
X124071Y244376D02*X126201D01*
X126254Y244430D01*
X125185Y246176D02*X125349Y246012D01*
X126279D01*
X137236Y247698D02*X137254Y247716D01*
X134910Y243606D02*X136576D01*
X137249Y244279D01*
X134910Y245406D02*X136694D01*
X137236Y245948D01*
X134851Y248333D02*X137236Y245948D01*
X113711Y241684D02*X138930D01*
X138659Y242115D02*X113886D01*
G54D88*X106744Y260891D02*X107168Y260467D01*
G54D86*X112111Y276573D02*Y244513D01*
X111656Y276316D02*Y244345D01*
X111194Y276121D02*Y244201D01*
X112111Y244513D02*X113670Y242954D01*
X111656Y244345D02*X113487Y242514D01*
X111194Y244201D02*X113322Y242072D01*
X112974Y242420D02*X113711Y241684D01*
X113886Y242115D02*X113443Y242559D01*
X113519Y243105D02*X114064Y242560D01*
X110762Y275935D02*Y244013D01*
X110338Y275763D02*Y243827D01*
X109906Y275582D02*Y243650D01*
X132847Y232156D02*Y224620D01*
X130302Y226022D02*Y224726D01*
X132362Y234188D02*X133721Y232829D01*
X140284Y230716D02*X140251Y230683D01*
Y224757D01*
X145245Y230693D02*X145331Y230607D01*
Y224757D01*
X143271Y237787D02*X153789Y227269D01*
Y224749D01*
X146312Y237307D02*X158869Y224749D01*
X154041Y233853D02*X156615D01*
X156658Y233810D01*
X154043Y231818D02*X155011D01*
X155222Y232029D01*
X156654D01*
X146421Y237198D02*X145334Y238285D01*
X143325D01*
X156886Y239738D02*X156007Y238859D01*
X154282D01*
X156886Y241834D02*Y239738D01*
X140861Y248638D02*X145202D01*
X144920D02*X145202D01*
X139852Y247393D02*Y247952D01*
Y247647D02*Y248082D01*
X140406Y248636D01*
X141051Y248638D02*X140411D01*
X140358Y248585D01*
X140307Y247851D02*X140642Y248186D01*
X143111D01*
X146347Y244950D01*
X142227Y244980D02*X143779D01*
X145202Y248638D02*X148859Y244980D01*
X154866Y243634D02*X156886D01*
X156360Y249622D02*X156351Y249631D01*
X150084Y249855D02*X151844Y251615D01*
X148859Y250838D02*X147709Y249687D01*
X144559D01*
X156351Y249631D02*X154541D01*
X156360Y247822D02*X154766D01*
X154562Y247617D01*
X138816Y242954D02*X139852Y243990D01*
X139057Y242514D02*X140307Y243764D01*
Y243997D01*
X139319Y242072D02*X142227Y244980D01*
X139852Y243990D02*Y247762D01*
X140307Y243970D02*Y247851D01*
X138930Y241684D02*X139635Y242388D01*
X139511Y242968D02*X138659Y242115D01*
X138422Y242560D02*X138954Y243092D01*
X141013Y241272D02*X142204Y242463D01*
X143754D01*
X144859Y240843D02*X146370Y242354D01*
X146804Y240386D02*X148859Y242440D01*
X63754Y271163D02*X63759Y271158D01*
Y269545D01*
X66314Y271173D02*Y269540D01*
X66302Y269527D01*
X67582Y272212D02*Y274288D01*
X70117Y274294D02*Y272240D01*
X70109Y272232D01*
X72674Y274290D02*Y272240D01*
X72657Y272222D01*
X67582Y274288D02*X67577Y274294D01*
G54D91*X65037Y276093D02*X72670D01*
G54D86*X72674Y276089D01*
X65024Y272212D02*X65037Y272224D01*
Y274294D01*
G54D91*X74135Y276680D02*X74823D01*
X75334Y276169D01*
Y274942D01*
G54D86*X81250Y274304D02*Y271927D01*
X82522Y269420D02*Y272552D01*
X82527Y272557D01*
X83782Y271917D02*X83790Y271925D01*
Y274304D01*
X85032Y269405D02*Y272572D01*
X85039Y272580D01*
G54D91*X78710Y276104D02*X87348D01*
X87620Y275831D01*
G54D86*X77440Y272575D02*X77460Y272555D01*
X78707Y274301D02*X78710Y274304D01*
X79980Y272575D02*X79996Y272559D01*
X86319Y271917D02*X86330Y271927D01*
Y274304D01*
X79996Y272559D02*Y269468D01*
X68852Y271186D02*X68882Y271155D01*
Y269512D01*
X74192Y267745D02*X63759D01*
X71379Y271186D02*X71351Y271158D01*
Y269504D01*
X74196Y267741D02*X74192Y267745D01*
G54D91*X73942Y271374D02*X74816D01*
X75075Y271633D01*
X75324Y273121D02*Y271882D01*
X74921Y271479D01*
G54D86*X56764Y277076D02*X58682Y275158D01*
X49416Y279557D02*X46728Y276870D01*
X44600Y281859D02*X46680D01*
X48992Y284170D01*
X44600Y276779D02*X46634D01*
X47104Y277249D01*
X44633Y270302D02*X47455D01*
X49858Y272705D01*
Y273850D01*
X50292Y268399D02*Y269159D01*
X86568Y267668D02*X77461D01*
X77464Y267673D02*X77460Y267669D01*
X77461Y267668D02*X77460Y267669D01*
X66650Y258788D02*X70185Y255252D01*
X69289Y257023D02*X75260D01*
X73896Y258409D02*X74849Y257457D01*
X69720Y261221D02*X86992D01*
X67211Y261696D02*X87142D01*
X58682Y275158D02*Y254079D01*
X55684Y279616D02*Y260449D01*
X52385Y290126D02*Y257434D01*
X52803Y256394D02*X53701Y257292D01*
Y259565D01*
X52804Y289507D02*Y257261D01*
X77460Y272555D02*Y269469D01*
X78707Y271927D02*Y274301D01*
X65255Y261056D02*X69289Y257023D01*
X62423Y265905D02*X67704Y260624D01*
X69124D01*
X69720Y261221D01*
X61620Y267287D02*X67211Y261696D01*
X62413Y265270D02*X60678Y267005D01*
X61135Y267193D02*X62704Y265624D01*
X69451Y286451D02*X66243D01*
X62423Y282631D01*
X70289Y285455D02*X65842D01*
X66001Y286859D02*X66385Y287244D01*
X60678Y267005D02*Y281536D01*
X61135Y281343D02*Y267193D01*
X61620Y281234D02*Y267287D01*
X60678Y281536D02*X62108Y282966D01*
X62714Y282922D02*X61135Y281343D01*
X63091Y282705D02*X61620Y281234D01*
X71285Y286451D02*X70289Y285455D01*
X66385Y287244D02*X74186D01*
X76584Y284846D01*
X65842Y285455D02*X62852Y282466D01*
G54D93*X79045Y287335D02*X79334Y287045D01*
Y286065D01*
X81493D02*X79339D01*
G54D86*X79334Y286060D01*
G54D93*X81585Y288514D02*X82733D01*
X83276Y287970D01*
Y286068D01*
G54D86*X55131Y256944D02*X55105Y256969D01*
X55684Y260449D02*X54168Y258933D01*
Y256299D01*
X63523Y257175D02*X65768Y254930D01*
X63889Y255532D02*X64549D01*
X65029Y255052D01*
Y252481D01*
X65768Y254930D02*Y252430D01*
X69675Y248524D01*
X69154Y240647D02*X58682Y251120D01*
X64582Y252275D02*X69243Y247614D01*
X69675Y248524D02*X76157D01*
X76772Y248526D02*X76152D01*
X69459Y248051D02*X75855D01*
X69243Y247614D02*X75710D01*
X75613Y248051D02*X75921D01*
X65029Y252481D02*X69459Y248051D01*
X76801Y239866D02*X76327Y240340D01*
X76627Y240040D02*X76020Y240647D01*
X69154D01*
X61438Y260655D02*X61430Y260647D01*
G54D91*Y259065D01*
X61438Y262455D02*Y264076D01*
G54D86*X61427Y264086D01*
G54D88*X53497Y249880D02*X53495Y249878D01*
X56698Y252329D02*X61090Y247937D01*
G54D86*X58682Y251120D02*Y254241D01*
X63848Y253888D02*X64582Y253154D01*
Y252275D01*
G54D91*X55131Y255164D02*Y256944D01*
G54D86*Y253364D02*X55133Y253362D01*
G54D91*Y251574D01*
G54D86*X54168Y256299D02*X53497Y255628D01*
G54D88*X61090Y247937D02*Y239502D01*
X62438Y238153D01*
G54D86*X62074Y238517D02*X62471Y238120D01*
Y233464D01*
X65781Y230154D01*
X59911Y235684D02*Y232072D01*
X62850Y229133D01*
X59911Y235184D02*Y238153D01*
X59908Y238155D01*
G54D88*X53497Y255628D02*Y249880D01*
G54D86*X53315Y248143D02*Y247002D01*
X51107Y250457D02*X53315Y248249D01*
Y247995D01*
G54D88*X49210Y249547D02*X50165Y248592D01*
G54D86*X53734Y248409D02*X51521Y250622D01*
X50493Y249398D02*X51090Y248801D01*
X51521Y250622D02*Y253815D01*
X51107Y254698D02*Y250457D01*
X50493Y254950D02*Y249398D01*
X50711Y262623D02*X46350Y258262D01*
X44663Y258074D02*X46162D01*
X46699Y258611D01*
X51145Y257978D02*X46350Y253182D01*
X44663Y252994D02*X46162D01*
X46585Y253417D01*
X51549Y257795D02*X47640Y253886D01*
X51976Y257627D02*X48075Y253726D01*
X52385Y257434D02*X48484Y253533D01*
X51976Y257904D02*Y257627D01*
X52415Y254709D02*X52408D01*
X51521Y253822D01*
X53345Y256936D02*X51107Y254698D01*
X52804Y257261D02*X50493Y254950D01*
X44633Y265222D02*X47114D01*
X50292Y268399D01*
G54D88*X49210Y251752D02*Y249547D01*
G54D86*X47640Y253886D02*Y246484D01*
X46302Y245146D01*
X48075Y253726D02*Y241770D01*
X48484Y253533D02*Y234472D01*
X53734Y248308D02*Y238557D01*
Y238900D02*Y238404D01*
X53980Y238158D01*
X54859Y238036D02*X54102D01*
X53910Y238228D01*
X53734Y248036D02*Y248409D01*
X53315Y247239D02*Y239011D01*
X51090Y248801D02*Y231999D01*
X48163Y233568D02*X48484Y233888D01*
Y234688D01*
X53315Y239011D02*X52342Y238039D01*
X44536Y227668D02*X46764D01*
X51090Y231993D01*
X44536Y232748D02*X47343D01*
X48075Y241770D02*X46292Y239987D01*
X47343Y232748D02*X48265Y233670D01*
X44620Y239773D02*X46081D01*
X46459Y240152D01*
X44620Y244853D02*X46010D01*
X46537Y245380D01*
X86083Y230584D02*X76703Y239964D01*
X65781Y230154D02*X103927D01*
X104249Y229832D01*
X62850Y229133D02*X116243D01*
X89789Y234183D02*X90564D01*
X96584Y235824D02*X112817D01*
X90564Y234183D02*X90569Y234188D01*
X93993Y238415D02*X96584Y235824D01*
X77800Y247498D02*X76772Y248526D01*
X85430Y248722D02*X85418Y248735D01*
Y250736D01*
X75710Y247614D02*X89634Y233690D01*
X75921Y248051D02*X89789Y234183D01*
X93993Y253601D02*Y238415D01*
X77795Y249029D02*Y250713D01*
X77813Y252531D02*X79097D01*
X79593Y253027D01*
Y253042D02*X80038Y252598D01*
X79583Y253017D02*Y252541D01*
X79593Y252531D01*
Y252867D02*X79764Y252697D01*
X79593Y252847D02*X79446Y252700D01*
X79593Y253027D02*Y254010D01*
Y253296D02*Y253042D01*
Y253228D02*Y252867D01*
Y253352D02*Y252847D01*
X78999Y252531D02*X85413D01*
X85418Y252536D01*
X88552Y259042D02*X93993Y253601D01*
X70185Y255252D02*X87820D01*
X74943Y257023D02*X87831D01*
X74849Y257457D02*X86571D01*
X76297Y316540D02*X76289Y316548D01*
X76248Y315275D02*X72075D01*
X71145Y314345D01*
X76370Y313992D02*X72583D01*
X71552Y312961D01*
X77610Y316487D02*X76274D01*
X78303Y315275D02*X76309D01*
Y313992D02*X76863D01*
X76309D02*X77760D01*
X77772Y314005D01*
X79572Y315457D02*Y314005D01*
X79843Y320396D02*X78890D01*
X79842Y322209D02*X78961D01*
X77998Y321246D01*
X78890Y320396D02*X78428Y319933D01*
Y318574D01*
X77998Y321246D02*Y319326D01*
X77747Y319075D01*
X79850Y323952D02*X78994D01*
G54D91*X81612Y316997D02*Y328685D01*
X78219Y328610D02*Y326154D01*
G54D86*X79083Y327584D02*X78918Y327419D01*
Y325377D01*
X78603Y325062D01*
X77511Y320678D02*X77165Y320332D01*
X77511Y320678D02*X77180Y320347D01*
X78994Y323952D02*X77511Y322468D01*
X79855Y325745D02*X77074Y322964D01*
X77511Y322468D02*Y320678D01*
X77074Y322964D02*Y321826D01*
X76886Y321638D01*
X76279D01*
X76909Y323548D02*X76269Y322908D01*
X78687Y325145D02*X77089Y323548D01*
X76909D01*
G54D91*X76078Y324155D02*X76660Y324736D01*
Y325511D01*
X78219Y326154D02*X77597Y325531D01*
X76685D01*
G54D86*X76660Y327311D02*X76672Y327324D01*
G54D91*Y329004D01*
G54D86*X76269Y322908D02*X70757D01*
X69832Y323832D01*
X70221Y323444D02*X69825Y323840D01*
X76284Y321638D02*X71270D01*
X70533Y320901D01*
X79865Y316713D02*X79037D01*
X78735Y316410D01*
X78740Y316415D02*Y315712D01*
X78303Y315275D01*
X80152Y316037D02*X79572Y315457D01*
X79851Y318546D02*X79002D01*
X78255Y317800D01*
Y317132D01*
X77610Y316487D01*
X78428Y318574D02*X77663Y317810D01*
X76289D01*
X77747Y319075D02*X76284D01*
X77165Y320332D02*X76210D01*
G54D90*X83178Y315750D02*X82423Y314996D01*
X81430D01*
G54D86*X81612Y317325D02*Y316163D01*
X81486Y316037D01*
X80152D01*
X66690Y301120D02*Y299728D01*
X65811Y301498D02*Y300845D01*
X65649Y300454D02*X65811Y300617D01*
Y301005D01*
X66690Y299728D02*X65966Y299004D01*
X65664Y298701D02*X66137Y299174D01*
X64798Y296959D02*X63556Y295717D01*
X64265Y294523D02*X62870Y293129D01*
X67490Y297754D02*X64077Y294340D01*
X66690Y302377D02*X65908Y301595D01*
X66690Y302377D02*X65811Y301498D01*
X66690Y303657D02*X65893Y302859D01*
Y302417D01*
X65644Y302169D01*
X64706D01*
X64700Y302174D01*
X65689Y303926D02*X64700D01*
X66149Y305671D02*X64699D01*
X64798Y298701D02*Y296959D01*
X66667Y302354D02*X67490Y301531D01*
X72067Y308686D02*Y294140D01*
X72499Y308541D02*Y293091D01*
X67490Y301531D02*Y299060D01*
Y299197D02*Y297749D01*
Y299204D02*Y297754D01*
X63556Y295717D02*X52243D01*
X62870Y293129D02*X52479D01*
X63503Y293025D02*X61514Y291036D01*
X52243Y295717D02*X51549Y295024D01*
X52479Y293129D02*X51976Y292626D01*
X61514Y291036D02*X52776D01*
X52385Y290645D01*
Y289796D01*
X61707Y290629D02*X53266D01*
X52804Y290167D01*
Y289217D01*
X66688Y308734D02*X67615D01*
X76355Y309395D02*X72776D01*
X72067Y308686D01*
X77617Y308973D02*X72931D01*
X72499Y308541D01*
X78697Y308524D02*X73558D01*
X72934Y307899D01*
X73769Y308097D02*X73383Y307711D01*
X72934Y307899D02*Y291968D01*
X73383Y307711D02*Y290614D01*
G54D91*X78105Y301625D02*X76066Y299586D01*
X77264Y291216D02*X76457Y292024D01*
Y292877D01*
X76066Y299586D02*Y298463D01*
G54D86*Y298516D02*X75209D01*
X74193Y297500D01*
Y294744D01*
X74866Y294071D01*
Y292811D01*
G54D93*X77460Y290098D02*X75550D01*
G54D86*X66680Y304917D02*X65689Y303926D01*
X66688Y306210D02*X66149Y305671D01*
X66688Y307452D02*X66672Y307437D01*
X64685D01*
X54651Y315123D02*X48992Y309463D01*
X55080Y314965D02*X49416Y309301D01*
X55509Y314782D02*X49858Y309131D01*
X55916Y314574D02*X50292Y308950D01*
X56312Y314340D02*X50711Y308740D01*
X56721Y314129D02*X51145Y308554D01*
X54651Y330154D02*Y315123D01*
X55080Y328214D02*Y314965D01*
X55509Y327022D02*Y314782D01*
X55916Y326751D02*Y314574D01*
X56881Y323840D02*X56312Y323271D01*
Y314340D01*
X70533Y320901D02*X60274D01*
X69825Y323840D02*X56881D01*
X60274Y320901D02*X59886Y321290D01*
X57285D01*
X56721Y320726D01*
Y314129D01*
X66688Y308734D02*X66236Y309187D01*
X66670Y310002D02*X65753Y310919D01*
X64701D01*
X68279Y311245D02*X68278Y311247D01*
X66236Y309187D02*X64668D01*
X71145Y300667D02*X63175Y292697D01*
X71552Y300474D02*X61707Y290629D01*
G54D91*X62902Y312324D02*Y298701D01*
X68189Y313045D02*X69982D01*
Y311245D02*X68279D01*
X68262Y313042D02*X63619D01*
X62902Y312324D01*
G54D86*X68186Y313042D02*X68189Y313045D01*
X71145Y314345D02*Y300667D01*
X71552Y312961D02*Y300474D01*
X49416Y309301D02*Y279557D01*
X49858Y309131D02*Y273647D01*
X50292Y308950D02*Y268849D01*
X50711Y308740D02*Y262623D01*
X51145Y308554D02*Y257978D01*
X48992Y309463D02*Y284178D01*
X51549Y295024D02*Y257795D01*
X51976Y292626D02*Y257660D01*
X53701Y259565D02*X54252Y260116D01*
X63746Y260472D02*X65430Y258788D01*
X66935Y260748D02*X62017Y265666D01*
X65430Y258788D02*X66650D01*
X67518Y260165D02*X66632Y261051D01*
X75936Y258465D02*X85133D01*
X85710Y259042D01*
X88372D01*
X85695Y260165D02*X67518D01*
X87894Y259042D02*X88552D01*
X87104Y257990D02*X88994D01*
X64701Y298701D02*X65664D01*
X64684Y300454D02*X65649D01*
G54D91*X65042Y278714D02*Y276093D01*
G54D86*X72009Y281996D02*X75621Y278384D01*
Y277228D01*
X73939Y281993D02*X76871Y279062D01*
Y277376D01*
G54D88*X75822Y281991D02*X78585Y279227D01*
X89075D01*
G54D86*X62017Y282875D02*X66332Y287190D01*
X72067Y294140D02*X65982Y288054D01*
X72499Y293091D02*X67737Y288328D01*
X72934Y291968D02*X69477Y288511D01*
X78885Y308097D02*X73769D01*
X73383Y290614D02*X71267Y288498D01*
G54D93*X75550Y290098D02*X73965Y288514D01*
X79299Y288260D02*X77460Y290098D01*
G54D94*X88265Y301625D02*Y290746D01*
X85743Y301455D02*Y290713D01*
G54D86*X103124Y308588D02*Y306705D01*
X102080Y300947D02*Y294150D01*
X101666Y299207D02*Y294373D01*
X101191Y298343D02*Y294503D01*
X100757Y298191D02*Y294691D01*
X100333Y297584D02*Y294891D01*
X99921Y297330D02*Y295123D01*
G54D91*X87500Y275951D02*X87937Y275514D01*
G54D86*X89207Y276581D02*X88765Y277023D01*
X88080D01*
X89207Y275556D02*Y276581D01*
G54D88*X89075Y279227D02*X90477Y277825D01*
G54D91*X87937Y275514D02*Y274460D01*
G54D86*Y274206D02*Y274909D01*
G54D91*Y274460D02*X87635Y274157D01*
Y272405D01*
X89207Y273756D02*X88006D01*
G54D86*X88295D02*X87643D01*
X87635Y273764D01*
G54D91*X88387Y273756D02*X87937Y274206D01*
G54D86*X92337Y268994D02*X93553D01*
X94656Y270096D01*
X93279Y267848D02*X95136Y269705D01*
X94656Y278752D02*Y270088D01*
X95136Y269705D02*Y278935D01*
X94877Y279194D01*
X94656Y278707D02*Y278328D01*
X94658Y278768D02*Y278572D01*
X87973Y287190D02*X96121Y295338D01*
X92680Y293632D02*X88717Y289669D01*
X94592Y294930D02*X88925Y289263D01*
X90528Y281562D02*X92263Y279827D01*
X91651Y282420D02*X94973Y279098D01*
X91412Y282014D02*X94658Y278768D01*
X94592Y296427D02*Y294930D01*
X98867Y280190D02*Y290937D01*
X98435Y291142D02*Y279964D01*
X97991Y291302D02*Y279796D01*
X97574Y291508D02*Y279565D01*
X97132Y291691D02*Y279387D01*
X96695Y291897D02*Y279187D01*
X98867Y290937D02*X101432Y293502D01*
X102080Y294150D02*X101007Y293077D01*
X101666Y294373D02*X98435Y291142D01*
X101191Y294503D02*X97991Y291302D01*
X100757Y294691D02*X97574Y291508D01*
X100333Y294891D02*X97132Y291691D01*
X99921Y295123D02*X96695Y291897D01*
X110889Y296423D02*Y284383D01*
X110505Y296586D02*Y284544D01*
X107264Y281302D01*
X110889Y284383D02*X107422Y280916D01*
X107620Y280528D02*X111305Y284213D01*
Y296291D01*
X111709Y296121D02*Y284038D01*
X114272Y293088D02*Y272844D01*
X113830Y293291D02*Y272164D01*
X107836Y278562D02*X110122D01*
X107683Y278117D02*X109855D01*
X107752Y277660D02*X109654D01*
X110122Y278562D02*X112111Y276573D01*
X109855Y278117D02*X111656Y276316D01*
X109654Y277660D02*X111194Y276121D01*
X109459Y277238D02*X110762Y275935D01*
X109301Y276799D02*X110338Y275763D01*
X109108Y276380D02*X109906Y275582D01*
X114272Y273408D02*Y271211D01*
X113688Y270627D01*
X113830Y272164D02*X112885Y271219D01*
Y270637D01*
X113769Y268978D02*X112893Y269855D01*
Y270782D01*
G54D91*X104742Y268018D02*X102423D01*
G54D93*X108255Y268402D02*Y270576D01*
G54D86*X108242Y270589D01*
X107264Y281302D02*X101341D01*
X107422Y280916D02*X102705D01*
X107582Y280528D02*X104224D01*
X107318D02*X107620D01*
X104772D02*X104234D01*
X107643Y280134D02*X105545D01*
X102210Y281302D02*X101354D01*
X100480Y280429D01*
X103568Y280916D02*X102715D01*
X102098Y280299D01*
X104234Y280528D02*X103751Y280045D01*
X105545Y280134D02*X105108Y279697D01*
X108039Y278562D02*X100495D01*
X100282Y278117D02*X107826D01*
X100127Y277660D02*X107762D01*
X99901Y277238D02*X109459D01*
X99720Y276799D02*X109301D01*
X99502Y276380D02*X109108D01*
X100495Y278562D02*X98867Y280190D01*
X98435Y279964D02*X100282Y278117D01*
X97991Y279796D02*X100127Y277660D01*
X97574Y279565D02*X99901Y277238D01*
X97132Y279387D02*X99720Y276799D01*
X96695Y279187D02*X99502Y276380D01*
X125410Y303891D02*Y296537D01*
X124978Y303215D02*Y296103D01*
X124536Y303045D02*Y295907D01*
X124066Y302862D02*Y295747D01*
X125410Y296537D02*X127605Y294343D01*
X124978Y296103D02*X127249Y293832D01*
X124536Y295907D02*X126591Y293853D01*
Y292519D01*
X125613Y294201D02*X126187Y293627D01*
X124066Y295747D02*X125964Y293850D01*
X122179Y292280D02*X123403Y293505D01*
Y295087D01*
X121442Y292758D02*X122243Y293558D01*
Y295986D01*
X122918Y296662D01*
X121671Y293748D02*Y297472D01*
X122278Y298079D01*
X121260Y293954D02*Y298920D01*
X120851Y294853D02*Y300566D01*
X121234Y300949D01*
X120371Y294980D02*Y302318D01*
X119944Y295420D02*Y300571D01*
X119482Y296400D02*Y297315D01*
X121260Y298920D02*X121770Y299430D01*
X119299Y292280D02*X122179D01*
X119103Y292758D02*X121442D01*
X118943Y293164D02*X121087D01*
X121671Y293748D01*
X120907Y293601D02*X121260Y293954D01*
X118778Y293601D02*X120907D01*
X118819Y294246D02*X120244D01*
X120851Y294853D01*
X120043Y294653D02*X120371Y294980D01*
X123210Y291308D02*X121717D01*
X120129Y291506D02*X121509D01*
X121699Y291315D01*
X116689Y291512D02*X118778Y293601D01*
X116294Y291722D02*X118819Y294246D01*
X115898Y291912D02*X118638Y294653D01*
X115494Y292105D02*X118486Y295097D01*
X115105Y292369D02*X118311Y295575D01*
X118656D01*
X118638Y294653D02*X120043D01*
X118486Y295097D02*X119621D01*
X119944Y295420D01*
X118656Y295575D02*X119482Y296400D01*
X114704Y292875D02*X118656Y296827D01*
X117483Y296299D02*X116999Y295815D01*
X117183Y295999D02*X114272Y293088D01*
X116624Y296085D02*X113830Y293291D01*
X117483Y297551D02*Y296299D01*
X116624Y297292D02*Y296085D01*
X118247Y289209D02*Y291229D01*
X119299Y292280D01*
X117511Y289606D02*Y291165D01*
X117117Y289804D02*Y291338D01*
X117511Y291165D02*X119103Y292758D01*
X117117Y291338D02*X118943Y293164D01*
X116689Y289964D02*Y291512D01*
X116294Y290253D02*Y291722D01*
X115898Y290398D02*Y291912D01*
X115494Y290396D02*Y292105D01*
X115105Y290538D02*Y292369D01*
X114704Y290759D02*Y292875D01*
X125011Y287609D02*X125004Y287617D01*
X126187Y293627D02*Y271097D01*
X125004Y287617D02*X123129D01*
Y289417D02*X124636D01*
X125021Y289032D01*
X125010Y291308D02*X125021Y291296D01*
Y289032D01*
X125125Y281887D02*X123360D01*
X123342Y281904D01*
Y283704D02*X124680D01*
X125100Y283284D01*
X125103Y285412D02*Y283337D01*
X125123Y283317D01*
X123303Y285412D02*X120472D01*
X119959Y285925D01*
X123383Y275847D02*X125103D01*
X123208Y269433D02*X125169D01*
X123208Y271233D02*X124911D01*
X125166Y270977D01*
X125153Y273042D02*Y270990D01*
X125166Y270977D01*
X125103Y275847D02*X125113Y275857D01*
X123354Y273042D02*X120480D01*
X119842Y273680D01*
X123383Y277646D02*X124276D01*
X123331Y279608D02*X121392D01*
X121173Y279827D01*
X119924D01*
X124276Y277646D02*X124445Y277477D01*
X125123D01*
X125131Y279608D02*X125128Y279606D01*
Y277472D01*
X88265Y290741D02*X88257Y290733D01*
X92680Y296447D02*Y293632D01*
X88717Y289669D02*X84874D01*
X88925Y289263D02*X83276D01*
X84874Y289669D02*X84148Y290396D01*
Y294211D01*
X84712Y294775D01*
Y296875D01*
X83276Y289263D02*X82360Y290180D01*
X85628Y284846D02*X88174Y287391D01*
X77747Y281562D02*X90528D01*
X79355Y282014D02*X91349D01*
X82174Y282420D02*X91651D01*
X90965Y282014D02*X91412D01*
X79116Y290180D02*X78006Y291290D01*
Y292877D01*
X78783Y294742D02*Y296601D01*
X79505Y297467D02*Y294223D01*
X78783Y296601D02*X78753D01*
X77866Y297487D01*
Y298463D01*
X82425Y298544D02*X80582D01*
X79505Y297467D01*
X78006Y292981D02*Y293964D01*
X78575Y294533D01*
X78492Y294451D02*X78783Y294742D01*
G54D91*X79505Y294244D02*X80726D01*
X81049Y292913D02*Y293926D01*
X80726Y294244D02*X81049Y293921D01*
G54D86*X82598Y292913D02*Y291694D01*
X81900Y290995D01*
X81283D01*
X77307Y282001D02*X77747Y281562D01*
X78892Y282476D02*X79355Y282014D01*
X80554Y282801D02*X81793D01*
X82174Y282420D01*
X82360Y290180D02*X79116D01*
X76584Y284846D02*X85628D01*
G54D93*X76505Y288514D02*Y287095D01*
X77534Y286065D01*
X79045Y288514D02*Y287335D01*
G54D86*X121285Y343408D02*X123190D01*
X122250Y342621D02*X121742Y342113D01*
X115316Y349990D02*X117823D01*
X117845Y350012D01*
X117856Y349656D02*X117526Y349987D01*
X117424D01*
X119645Y348107D02*X120523D01*
X120904Y347726D01*
Y343789D01*
X117845Y350012D02*Y345983D01*
X119645Y350012D02*Y348107D01*
X117845Y345983D02*X117880Y345948D01*
X115546D01*
Y344771D01*
X115918Y344399D01*
X120000D01*
X120490Y343908D01*
X119253Y351790D02*X125628D01*
Y349990D02*X127766D01*
X129613Y350037D02*Y348005D01*
X129638Y347980D01*
X118021Y351790D02*X119931D01*
X127813Y349990D02*Y342875D01*
Y349631D02*X127457Y349987D01*
X127381D01*
X127813Y343789D02*Y342875D01*
X127559Y342621D01*
X127681Y341500D02*X128948Y340233D01*
X127559Y342621D02*X122250D01*
X124790Y341528D02*X124485Y341833D01*
X123165D01*
X124698Y341621D02*X124818Y341500D01*
X127681D01*
X123215Y337871D02*X128473D01*
G54D91*X122494Y335465D02*X123739Y336710D01*
X126939D01*
G54D86*X128473Y337871D02*X129565Y338963D01*
X129337Y337261D02*X129845Y337769D01*
X124339Y332050D02*X125006Y332717D01*
X125019Y332704D01*
X126017Y334805D02*X124866Y333654D01*
X125019Y332704D02*X131116D01*
G54D91*X126939Y336710D02*X127780Y335869D01*
X130807D01*
G54D86*X130777D02*X130673D01*
X124866Y333654D02*X118300D01*
X117236Y332590D01*
X121742Y342113D02*Y338125D01*
X120675Y337058D01*
G54D91*X117173Y335465D02*X122494D01*
G54D86*X120490Y343908D02*Y341843D01*
X120904Y343789D02*X121285Y343408D01*
X120675Y337058D02*X114351D01*
X120490Y341843D02*X120007Y341361D01*
X114877Y343403D02*X119629D01*
X119634Y343408D01*
X147070Y349990D02*X146761Y349682D01*
X139065Y349961D02*X139040Y349936D01*
X144907Y347828D02*X143782D01*
X146761Y348209D02*Y342849D01*
Y343129D02*X146787Y343103D01*
X146761Y349987D02*Y348056D01*
X144936Y350012D02*Y347857D01*
X143782Y347828D02*X143175Y347221D01*
X143761Y345516D02*Y346652D01*
X143192Y347221D01*
X143236Y349946D02*X140279Y346989D01*
Y344254D01*
X129565Y338963D02*X146964D01*
X129845Y337769D02*X148895D01*
X148438D02*X148920D01*
X146014Y340241D02*X146769Y340995D01*
Y343367D01*
X146126Y331394D02*X144424D01*
X142625D02*Y333455D01*
X143129Y333959D01*
X146558D01*
X130787Y342849D02*X130797Y342859D01*
X133977D01*
X143761Y342849D02*X141681D01*
X141674Y342842D01*
X132865Y340233D02*X132872Y340241D01*
X146014D01*
X129466Y331572D02*X127908D01*
X131393Y331597D02*Y332429D01*
X131116Y332704D02*X131393Y332428D01*
G54D91*X131376Y336469D02*X131816Y336908D01*
X131491Y336583D02*X130777Y335869D01*
G54D86*X127908Y331572D02*X127898Y331561D01*
G54D91*X131816Y336908D02*X140500D01*
X141036Y332417D02*Y336367D01*
X140495Y336908D01*
G54D86*X137516Y334786D02*X137534Y334805D01*
X139334Y331948D02*Y334805D01*
X137534D02*X126017D01*
X137516Y332186D02*Y334786D01*
X129638Y347980D02*X131895D01*
X132954Y346921D01*
X130787Y345719D02*X131806D01*
X132979Y346893D01*
X128948Y340233D02*X132865D01*
X133993Y341252D02*X134005Y341264D01*
X139525D01*
X137213Y342849D02*X137203Y342859D01*
X133967D01*
X139525Y341264D02*X140279Y342019D01*
Y344820D01*
X137213Y344649D02*X135805D01*
X135481Y344325D01*
X134699D01*
X152273Y362204D02*X152248D01*
X151003Y360959D01*
Y354863D01*
X152816Y353050D01*
X162433Y359664D02*Y353197D01*
X168755Y356476D02*X165473Y353195D01*
X166167Y352501D01*
X165960Y352708D02*X166167Y352501D01*
X162433Y353197D02*X162852Y352778D01*
X158171Y360995D02*X158102Y360926D01*
X156192D01*
X152816Y353050D02*Y351736D01*
X152756Y344221D02*Y340665D01*
X152816Y349936D02*X152781Y349901D01*
Y343408D01*
Y344246D02*X152756Y344221D01*
X154581Y347802D02*Y345770D01*
X159893Y359664D02*Y348564D01*
X157353Y359664D02*Y357403D01*
X158979Y355778D01*
Y351841D01*
Y352153D02*Y349936D01*
X159893Y359664D02*Y347878D01*
X154581Y345770D02*X159969D01*
X159995Y345796D01*
X158979Y349936D02*X158984Y349931D01*
X159995Y345796D02*X157582Y343383D01*
X159995Y345796D02*X160909Y344881D01*
X159893Y347878D02*X161442Y346329D01*
X157582Y343383D02*X155755D01*
X158547Y340665D02*X155755D01*
X160045Y342138D02*X160020D01*
X158547Y340665D01*
X160909Y344881D02*Y339344D01*
X160299Y338734D01*
X161442Y346329D02*Y338988D01*
X162852Y352778D02*Y337248D01*
X146964Y338963D02*X148666Y340665D01*
X148272Y340271D02*X148666Y340665D01*
X148920Y337769D02*X150139Y336550D01*
X151663D01*
X148666Y340665D02*X152705D01*
X149733Y359664D02*Y351790D01*
Y349990D02*X146758D01*
X147244D02*X147070D01*
X158618Y364015D02*Y361417D01*
X158140Y360939D01*
X154242Y365316D02*X157353Y362204D01*
X156192Y360926D02*X154841Y362278D01*
X137947Y362204D02*X138786Y361366D01*
X138303Y364109D02*X139649Y362763D01*
X141798Y363108D02*X145705D01*
X146177Y363581D01*
X143142Y363934D02*X143647Y364439D01*
X138786Y361366D02*Y356667D01*
X139649Y362763D02*Y352958D01*
X139065Y352374D01*
X140741Y349936D02*Y363423D01*
X139319Y364846D01*
X138786Y356667D02*X137389Y355270D01*
Y350012D02*X137312Y349936D01*
X138024Y355905D02*X137312Y355194D01*
Y349936D01*
X139065Y352374D02*Y349961D01*
X133629Y364109D02*X138303D01*
X139319Y364846D02*X131826D01*
X114739Y365724D02*X156908D01*
X117381Y365316D02*X154242D01*
X117253Y365187D02*X116749Y364683D01*
X146177Y363581D02*X153827D01*
X154371Y364124D01*
X156908Y365724D02*X158618Y364015D01*
X143647Y364439D02*X151978D01*
X135636Y362204D02*X137947D01*
X120533Y364846D02*X117976Y362288D01*
X134315Y364109D02*X122390D01*
X120523Y362242D01*
X136355Y362204D02*X123140D01*
X123056Y362288D01*
X115316Y353098D02*Y351790D01*
X114719Y355092D02*X115824Y353987D01*
X115462Y354349D02*X118021Y351790D01*
X117170Y365105D02*X117381Y365316D01*
X132481Y364846D02*X120533D01*
X114493Y365724D02*X115273D01*
X120584Y352803D02*X117622D01*
X114892Y355534D01*
X119207Y357680D02*X116573Y355046D01*
X116749Y364683D02*Y361767D01*
X117467Y361048D01*
X118608D01*
X119207Y360449D01*
Y357680D01*
X171323Y360934D02*Y338049D01*
X173863Y360934D02*Y339674D01*
X176403Y360934D02*Y341351D01*
X171323Y338049D02*X167030Y333756D01*
X173863Y339674D02*X167716Y333527D01*
X176403Y341351D02*X168275Y333223D01*
X166167Y352501D02*Y339504D01*
X172593Y362204D02*X171323Y360934D01*
X170053Y362204D02*X168836Y360987D01*
X168755D01*
Y356476D01*
X177673Y362204D02*X176403Y360934D01*
X175133Y362204D02*X173863Y360934D01*
X188265Y361363D02*X188275Y361353D01*
X185384Y362947D02*X185382Y362950D01*
G54D95*Y364670D01*
G54D91*X185308Y350883D02*Y349146D01*
G54D86*X185301Y349138D01*
G54D95*X186375Y354453D02*X184009D01*
G54D86*X183960Y354404D01*
G54D95*X185308Y352683D02*X184367D01*
X183960Y353090D01*
Y354350D01*
X188262Y354441D02*Y352501D01*
G54D93*X187325Y354453D02*Y355536D01*
X186919Y355943D01*
X184440D01*
X183970Y356413D01*
G54D86*X188275Y354453D02*X188262Y354441D01*
G54D95*X188275Y361353D02*Y357153D01*
X186375Y358209D02*X185395Y359189D01*
Y361135D01*
G54D86*X190754Y357033D02*X190746Y357040D01*
G54D95*X186375Y357153D02*Y358209D01*
X190746Y357040D02*X188275D01*
G54D86*X190256Y358468D02*X190249Y358460D01*
X190246Y358534D02*X190284Y358496D01*
G54D90*X190246Y361363D02*Y358534D01*
X72898Y338676D02*X74770D01*
X75565Y339471D01*
Y341376D01*
G54D86*X75819Y341249D02*X75565Y341503D01*
X76454Y341249D02*X75565Y340360D01*
G54D91*X75869Y332200D02*X74440Y333629D01*
G54D96*X52578Y344678D02*X58674D01*
G54D94*X52578Y339598D02*X58630D01*
G54D86*X57282Y332786D02*X54651Y330154D01*
G54D95*X52873Y329468D02*X55489Y332085D01*
Y333223D01*
X56784Y334518D01*
X58733D01*
G54D86*X58402Y331536D02*X55080Y328214D01*
X59474Y332786D02*Y330987D01*
X55509Y327022D01*
X60681Y331516D02*X55916Y326751D01*
G54D94*X60557Y339471D02*X63627D01*
X64389Y338709D01*
Y335534D01*
G54D86*X60549Y336542D02*X60554Y336537D01*
X60533Y334518D02*X60554Y334497D01*
G54D90*Y333019D01*
X61620Y331953D01*
X66472D01*
X68453Y333934D01*
G54D96*X60601Y344551D02*X68199D01*
G54D90*X68453Y333934D02*Y340919D01*
X60554Y336537D02*Y334475D01*
G54D94*X76835Y343027D02*X79353D01*
G54D90*X79375Y341249D02*X75819D01*
G54D86*X76581D02*X76454D01*
X79353Y343027D02*X79375Y343049D01*
G54D94*X79248Y343027D02*X83058D01*
G54D90*X79375Y341249D02*X80899D01*
X81407Y340741D01*
X83058D01*
X73276Y351368D02*X83312D01*
G54D86*X80521Y337563D02*X77620D01*
X81793Y337571D02*Y337137D01*
X81417Y336761D01*
X79479D01*
X77620Y337563D02*X76982Y336926D01*
Y334068D01*
X79479Y336761D02*X78765Y336047D01*
Y334071D01*
X80559Y335895D02*X81018Y336354D01*
X83055Y337579D02*Y337010D01*
X82311Y335554D02*Y334046D01*
X83055Y337010D02*X82400Y336354D01*
X81013D01*
X80559Y334053D02*Y335895D01*
G54D91*X75869Y332200D02*X90346D01*
X74460Y330365D02*X92253D01*
G54D94*X72898Y340476D02*Y342519D01*
G54D90*X68453Y340919D02*X70612Y343078D01*
Y345491D01*
Y345191D02*Y348704D01*
X73276Y351368D01*
G54D86*X104902Y349885D02*Y345083D01*
X104878Y345059D01*
X105283Y349885D02*X104902Y349504D01*
X103102Y349885D02*Y347599D01*
X102235D01*
X101854Y347218D01*
X112546Y345948D02*X110617D01*
X107696Y351685D02*X103564D01*
X106921Y354388D02*X114026D01*
X115316Y353098D01*
X107231Y355092D02*X114719D01*
X104170Y351685D02*X103082D01*
X107696Y349885D02*X104902D01*
X98298Y349146D02*X98659Y348785D01*
X98806Y348635D02*X98506Y348935D01*
X101854Y347218D02*Y345083D01*
X101878Y345059D01*
X101346Y346456D02*X101600D01*
X101854Y346710D01*
X101473Y346456D02*X101600D01*
X101854Y346202D01*
X96469Y347599D02*X96825Y347243D01*
X101854Y346456D02*X96825D01*
X97257D02*X97180D01*
X96825Y346812D01*
X97231Y346456D02*X97079D01*
X98806D02*Y348635D01*
X90424Y349863D02*X93831D01*
X93853Y349885D01*
G54D91*X85115Y349682D02*X86634Y348163D01*
X90818D01*
G54D86*X98543Y348901D02*X98262Y349181D01*
X93853Y349885D02*Y347610D01*
X93842Y347599D01*
X93853Y348361D02*Y342265D01*
X95653Y349885D02*Y347610D01*
X95642Y347599D01*
X96469D01*
X96825Y347243D02*Y345060D01*
X97079Y346456D02*X96825Y346202D01*
Y345060D02*X96826Y345059D01*
X98400Y342240D02*X96853D01*
X98171D02*X98781D01*
X98247D02*X98425D01*
G54D91*X90818Y348163D02*X91694Y347287D01*
X91604Y347377D02*X92596Y346385D01*
Y339212D01*
G54D86*X98262Y349181D02*Y351419D01*
G54D94*X82931Y343027D02*X87122D01*
G54D86*X84336Y337579D02*X82311Y335554D01*
X84082Y334051D02*Y336056D01*
X85598Y337571D01*
X86893D02*X85860Y336537D01*
X87561Y336994D02*X88138Y337571D01*
X89411Y337569D02*Y335676D01*
X89337Y335603D01*
X89306Y335572D02*X89418Y335684D01*
X85860Y336537D02*Y334033D01*
X87561Y333997D02*Y336994D01*
X89306Y334000D02*Y335572D01*
G54D91*X92652Y331716D02*X92850Y331518D01*
G54D86*X92991Y331377D02*X92754Y331614D01*
G54D91*X92652Y332278D02*Y330764D01*
X92250Y330363D01*
G54D86*X93228Y331377D02*X92886D01*
G54D91*X92652Y331142D01*
X81612Y328685D02*X80912Y329385D01*
X78994D01*
X78219Y328610D01*
G54D86*X79936Y327584D02*X79083D01*
X92278Y365125D02*X90424Y363271D01*
G54D90*X82428Y358828D02*X90373Y366773D01*
G54D86*X90424Y363271D02*Y351663D01*
X102842Y363985D02*X101252Y362394D01*
G54D90*X90373Y366773D02*X104229D01*
G54D86*X91929Y364776D02*X92433Y365280D01*
X96462D01*
X97676Y364066D01*
Y362344D01*
G54D90*X80769Y353911D02*Y357170D01*
X82746Y359146D01*
X83312Y353908D02*X89413D01*
G54D86*X89423Y353919D01*
X96327Y356867D02*X95118Y358076D01*
Y359755D01*
X103998Y361620D02*Y363268D01*
X101252Y362394D02*Y359326D01*
X102492Y358087D01*
X103406Y353228D02*Y357172D01*
X102489Y356159D02*X101780Y356867D01*
X96327D01*
X103406Y357172D02*X102276Y358303D01*
X103082Y351685D02*X102489Y352278D01*
Y356159D01*
X102736Y359748D02*Y358574D01*
X106561Y361003D02*X104615D01*
X103998Y361620D01*
Y363268D02*X104704Y363974D01*
X114160Y363471D02*Y365392D01*
X114493Y365724D01*
X104704Y363974D02*X112652D01*
X107816Y359748D02*X106561Y361003D01*
X102736Y358574D02*X106921Y354388D01*
X105276Y359748D02*Y357048D01*
X107231Y355092D01*
X114892Y355534D02*X110129D01*
X107816Y357848D01*
Y359748D01*
X104878Y342138D02*X107315D01*
X104878Y345059D02*Y342289D01*
X104902Y342265D01*
X104878Y342749D02*Y342162D01*
X104902Y342138D01*
X104878Y342543D02*X105283Y342138D01*
X101878D02*X99187D01*
X94945Y338353D02*X108026D01*
G54D91*X94724Y337083D02*X112072D01*
G54D86*X102189Y336029D02*X107457D01*
X100922D02*X101643Y335308D01*
X106703D01*
X99187Y342138D02*X98806Y342519D01*
Y342138D02*Y342722D01*
X98577Y342163D02*X98870Y342456D01*
X98781Y342240D02*X98806Y342265D01*
X98425Y342240D02*X98755Y342570D01*
X98806Y342519D02*Y343535D01*
X99619Y342138D02*X98501D01*
X98577D02*Y342163D01*
X98501Y342138D02*X98400Y342240D01*
X108026Y338353D02*X108052Y338328D01*
G54D91*X112072Y337083D02*X113284Y335872D01*
X113040Y336116D02*X113690Y335465D01*
X118029D01*
G54D86*X107457Y336029D02*X109535Y333952D01*
Y333232D01*
X106703Y335308D02*X107061Y334950D01*
X107582Y333232D02*Y334429D01*
X106992Y335018D01*
X103818Y333806D02*X105326D01*
X103497Y333085D02*X103927D01*
X104198Y332814D01*
X103076Y334548D02*X103818Y333806D01*
X103351Y334273D02*X103007Y334617D01*
X101079D01*
X101300Y334211D02*X100538D01*
X99896Y334853D01*
X98610D01*
X98372Y335092D01*
X113077Y343403D02*X113072Y343408D01*
X109220D01*
X93853Y343078D02*Y339446D01*
X94945Y338353D01*
G54D91*X92596Y339212D02*X94724Y337083D01*
G54D86*X95895Y333174D02*Y333977D01*
X95735Y334137D01*
X95844Y336014D02*Y334658D01*
X96154Y334348D01*
X97125Y336027D02*Y334856D01*
X97224Y334757D01*
X97622D01*
X95735Y334137D02*X94833D01*
X96154Y334348D02*X97412D01*
X97729Y334030D01*
X93309Y336055D02*Y334734D01*
X94059Y333985D01*
Y333177D01*
X94833Y334137D02*X94564Y334406D01*
Y336042D01*
G54D91*X92652Y333228D02*Y331716D01*
X91745Y336629D02*X90234D01*
Y335186D01*
X90576Y334843D01*
G54D86*X90482Y334937D02*X90607Y334813D01*
G54D91*X91745Y334829D02*Y332062D01*
G54D86*X91722Y332039D01*
G54D91*X90599Y332453D02*X90346Y332200D01*
X90607Y334813D02*Y332478D01*
G54D86*X99662Y336029D02*X101072Y334620D01*
X101448Y334063D02*X101300Y334211D01*
X103045Y333538D02*X103497Y333085D01*
X103045Y333538D02*X102738Y333230D01*
X98372Y335092D02*Y336019D01*
X97729Y334030D02*Y333164D01*
X99604Y333187D02*Y333987D01*
X99487Y334104D01*
X99604Y334013D02*X99271Y334345D01*
X98278D01*
X101564Y333177D02*Y333946D01*
X101341Y334170D01*
X98278Y334345D02*X97889Y334734D01*
X97864Y334757D02*X97902Y334719D01*
X97450Y334757D02*X97864D01*
G54D91*X101564Y331377D02*X92991D01*
G54D86*X101572Y327580D02*X102693D01*
X103477Y328364D01*
X104198Y332814D02*Y332235D01*
X102738Y333230D02*Y331714D01*
X101572Y329380D02*X101570Y329382D01*
G54D91*Y331377D01*
G54D86*X103477Y328364D02*Y332257D01*
X102738Y331714D02*X102408Y331384D01*
X101570D01*
X155755Y340665D02*Y338889D01*
X155400Y338534D01*
X154663Y337797D02*X155384Y338518D01*
X154663Y336550D02*X154661Y336553D01*
Y337795D01*
X160299Y338734D02*X156693D01*
X160553Y338099D02*X156947D01*
X156540Y337693D01*
X161442Y338988D02*X160757Y338303D01*
X161442Y338988D02*X160553Y338099D01*
X156693Y338734D02*X155981Y338023D01*
Y330327D01*
X156540Y337693D02*Y329159D01*
X155981Y330327D02*X155804Y330149D01*
X154686D01*
X154657Y330222D02*Y334067D01*
X156540Y329159D02*X155778Y328397D01*
X154657D01*
X161820Y332490D02*X161823Y332486D01*
X163957D01*
X159766Y332490D02*X158093D01*
X158090Y332486D01*
X163957D02*Y330759D01*
X159766Y332490D02*Y330654D01*
X163932Y334289D02*X161820D01*
X159766D02*X162128D01*
X159915Y336423D02*X163500D01*
X163957Y335966D01*
Y334315D01*
X159791Y326238D02*X159766Y326263D01*
Y328854D01*
X159791Y326238D02*X162966D01*
X163932Y327203D01*
Y328934D01*
X158064Y334010D02*X158140Y333934D01*
X158115Y333959D02*Y336423D01*
X163957Y334315D02*X163932Y334289D01*
X163957Y318922D02*Y320878D01*
Y317123D02*Y315798D01*
X163500Y315341D01*
X163953Y320882D02*X163957Y320878D01*
X161798Y322682D02*Y326238D01*
Y325882D02*X162154Y326238D01*
X161760Y325844D02*X161366Y326238D01*
X163500Y315341D02*X159766D01*
X163017D02*X163043D01*
X161823Y314985D02*X161849D01*
X162204Y315341D01*
X161849Y314985D02*X161493Y315341D01*
X159791Y322678D02*X159795Y322682D01*
X161798D01*
X159791Y320878D02*X158115D01*
X158572Y324460D02*X158090Y323977D01*
Y322478D01*
X161798Y320882D02*X163953D01*
X159791Y320878D02*Y319278D01*
Y317478D02*Y315366D01*
X159766Y315341D01*
X161493D02*X161442D01*
X161823Y310036D02*X163928D01*
X163932Y310032D01*
Y307823D02*Y310032D01*
Y306023D02*Y305079D01*
X163093Y304241D01*
X159817D01*
X159791Y304267D01*
X157886Y300482D02*Y301777D01*
Y301625D02*Y301803D01*
Y301673D02*Y302143D01*
Y301574D02*Y302278D01*
X157894Y302285D01*
X157886Y301747D02*Y301882D01*
X158394Y302285D02*X159922D01*
X159817Y300406D02*X161823D01*
Y304241D01*
X157886Y301882D02*X158290Y302285D01*
X157912Y298577D02*X157941Y298606D01*
X159817D01*
Y296875D02*Y298606D01*
X161845Y298628D02*X163881D01*
X163906Y296443D02*Y298602D01*
X163881Y298628D01*
X163906Y294644D02*Y293446D01*
X163246Y292786D01*
X159842D01*
X159817Y292811D01*
X161823Y292532D02*X162077Y292786D01*
X161823Y292532D02*X161569Y292786D01*
X159817Y295075D02*Y292811D01*
X161823Y286552D02*X163892D01*
X163906Y286537D01*
X159817Y286541D02*Y284175D01*
X163906Y284201D02*Y286537D01*
Y282401D02*Y281280D01*
X163881Y274853D02*Y272872D01*
Y271072D02*Y269951D01*
Y270205D02*Y269545D01*
X163474Y269138D01*
X163906Y281280D02*X163068Y280441D01*
X159791D01*
X159817Y282375D02*X159791Y282350D01*
X160024Y278587D02*X158394D01*
X159791Y282350D02*Y280441D01*
X159893Y271022D02*Y269138D01*
X159906Y269151D01*
X163487D01*
X159893Y272821D02*Y274866D01*
X159880Y274879D01*
X159817Y286541D02*X159813Y286537D01*
X157912D01*
X159817Y288341D02*X159828Y288352D01*
X161823D01*
Y292786D01*
Y292379D02*Y292532D01*
Y292354D02*Y292532D01*
X160034Y290601D02*X158598D01*
X157937Y289941D01*
Y288188D01*
X152857Y328397D02*Y330178D01*
X152835Y330200D01*
X152857Y330222D01*
Y332156D01*
X151663Y336550D02*Y332283D01*
X151790Y332156D01*
X152857D01*
X148692Y324180D02*Y336372D01*
X150012Y335458D02*Y314046D01*
X158674Y302285D02*X148234D01*
G54D91*X157886Y302108D02*Y302082D01*
G54D86*Y301798D02*X157429Y302255D01*
Y302285D01*
X146482Y309169D02*X146456Y309143D01*
X144577D01*
X142777Y309118D02*Y310747D01*
X143764Y311734D01*
X143789D02*X146482D01*
X148234Y302285D02*X145339Y305181D01*
X143586D01*
X159995Y324460D02*X158572D01*
X160024Y313690D02*X158572D01*
X161823Y315341D02*Y311836D01*
X167030Y333756D02*Y306629D01*
X167716Y333527D02*Y294462D01*
Y294843D02*Y293040D01*
X168275Y333223D02*Y284378D01*
X146482Y319964D02*X144628D01*
X146482Y322504D02*X146507Y322478D01*
Y322054D01*
X146232Y321779D01*
X144592D01*
G54D91*X143099Y323670D02*X141399Y321970D01*
X144051Y324622D02*X143158Y323729D01*
G54D86*X142291Y317017D02*X142288D01*
X140332Y315062D01*
G54D91*X147731Y325321D02*X147033Y324622D01*
X144051D01*
X147654Y325243D02*X148018Y325608D01*
G54D86*X140879Y328605D02*X145951D01*
X146528Y328028D01*
Y326039D01*
G54D91*X148018Y325608D02*Y328826D01*
X147188Y329656D01*
X142395D01*
X141036Y331015D01*
G54D86*X158572Y313690D02*X158064Y313182D01*
Y311709D01*
X158039Y310058D02*X159791D01*
Y308178D01*
Y306378D02*Y304267D01*
X159813Y311836D02*X161823D01*
X167030Y307543D02*Y305079D01*
X165227Y303276D01*
X161823Y303784D02*Y303962D01*
X162103Y304241D01*
X161823Y303759D02*Y303936D01*
X161519Y304241D01*
X167716Y293040D02*X165303Y290627D01*
X144577Y297942D02*X146507D01*
X146482Y297967D02*Y291744D01*
X142777Y297942D02*Y299292D01*
X143967Y300482D01*
X146482D01*
X139167Y305181D02*X144729D01*
X139167Y307979D02*Y305181D01*
X136710Y297020D02*Y283952D01*
X168275Y285572D02*Y279400D01*
X167107Y278282D02*X165329D01*
X166675D02*X167183D01*
X168275Y279375D01*
X157734Y274879D02*X159889D01*
X159893Y274882D01*
X163881Y274853D02*X161827D01*
X161823Y274857D01*
G54D90*X145654Y263307D02*X187206D01*
G54D86*X159893Y276682D02*X161798D01*
X158394Y278587D02*X157734Y277927D01*
Y276657D01*
X161798Y276682D02*X161823Y276657D01*
Y280441D01*
Y279883D02*Y280060D01*
X162128Y280365D01*
X161823Y279883D02*Y280086D01*
X161468Y280441D01*
X146482Y291744D02*X147904Y290322D01*
X150851D01*
X150368D02*X151435D01*
X151943Y289814D01*
Y285623D02*X146837D01*
X145012Y285648D02*X145009Y285652D01*
Y287909D01*
X145288Y288188D01*
X146456D01*
X151943Y289814D02*Y273355D01*
X146863D02*X151943D01*
X146431Y275920D02*X145339D01*
X151844Y251615D02*X159525D01*
X160462Y252552D01*
Y261234D01*
X145339Y275920D02*X145059Y275641D01*
X145063Y275637D01*
Y273355D01*
X132283Y285201D02*Y275466D01*
X131011Y274193D01*
X128201Y277983D02*Y292872D01*
X131016Y276728D02*X127406D01*
X126591Y277543D01*
Y292694D01*
X128588Y269108D02*X131016D01*
G54D90*X187114Y263301D02*X190777Y259639D01*
Y253911D01*
X187371Y250505D01*
Y237841D02*X190777Y241247D01*
G54D95*Y228697D02*X187361Y225280D01*
G54D90*X190777Y241247D02*Y254724D01*
G54D95*Y242105D02*Y228697D01*
G54D86*X183104Y235301D02*X177074Y241330D01*
X187371Y235301D02*X183104D01*
X177074Y241330D02*Y261320D01*
X110871Y320167D02*X109220D01*
X107420D02*X105537D01*
X105421Y322580D02*Y321426D01*
X105537Y321310D01*
Y320167D01*
X107569Y324231D02*Y322834D01*
X107950Y322453D01*
X108944D01*
X111305Y296291D02*X111619Y296605D01*
X111479Y296465D02*X113297Y298282D01*
X113690Y298102D02*X111709Y296121D01*
X113297Y298282D02*Y298343D01*
X113690Y298384D02*Y298102D01*
G54D88*X117878Y315718D02*X117874Y315722D01*
X117856Y318280D02*X117874Y318262D01*
X117856Y319278D02*X118237D01*
X119253Y318262D01*
G54D86*X117841Y318280D02*X117856Y318295D01*
X117878Y315745D02*X117875Y315742D01*
G54D90*X117878Y315694D02*X109548D01*
G54D91*X110617Y324231D02*Y322580D01*
G54D87*X117856Y323088D02*X115443D01*
X114808Y322453D01*
X110744D01*
G54D86*X106055Y329082D02*X119927D01*
X117521Y328298D02*X105600D01*
X106454Y329082D02*X105819D01*
X105811Y329090D01*
X105288Y330540D02*X104521Y329773D01*
X104427Y332006D02*X106236D01*
X106810Y331432D01*
X109535D01*
X104521Y329773D02*Y328737D01*
X104201Y332232D02*X104427Y332006D01*
X104521Y328737D02*X104960Y328298D01*
X106022D01*
G54D92*X120124Y318262D02*X123560D01*
G54D88*X123571Y318273D01*
G54D92*X117874Y318262D02*X120650D01*
G54D86*X123076D02*X123096Y318282D01*
G54D97*X125095D01*
G54D91*X123571Y316469D02*X124859D01*
X125240Y316088D01*
X122744Y310831D02*X118580D01*
Y312631D02*Y313726D01*
X117902Y314404D01*
Y315686D01*
X120124Y315722D02*Y310866D01*
G54D86*X120124Y310866D01*
G54D91*X123571Y311658D02*X123029Y311116D01*
G54D86*X121727Y329082D02*X124306D01*
X124339Y329049D02*Y332050D01*
X126139Y329032D02*X126977D01*
X127272Y329326D01*
X127274Y329324D01*
X128311D01*
X126098Y329090D02*X126139Y329049D01*
X117627Y328191D02*X118384Y327434D01*
Y326532D01*
X117236Y332590D02*Y330604D01*
X117784Y328035D02*X117693Y328125D01*
X117800Y328018D02*X117521Y328298D01*
X118384Y326532D02*X118781Y326136D01*
X118786Y326141D01*
X119865D01*
X121665D02*X124325D01*
X124338Y326154D01*
X129134Y317017D02*Y315138D01*
Y313338D02*Y310134D01*
X127127Y310614D02*Y318999D01*
X131318Y311120D02*Y308907D01*
X132220Y308005D01*
G54D91*X130124Y321970D02*X132994D01*
G54D86*X133782Y321183D01*
Y312725D01*
X134468Y312039D01*
X136627D01*
X135854Y323939D02*X135336Y324457D01*
X139167Y313262D02*Y309778D01*
X133200Y331589D02*Y329103D01*
X126098Y331561D02*Y329090D01*
X136823Y329237D02*Y330694D01*
X136428Y331089D01*
X133843Y327160D02*X133835Y327152D01*
X135755Y327170D02*X134805Y328120D01*
X132969D01*
X130998Y326149D01*
X133850Y327167D02*X133877Y327194D01*
G54D91*X125240Y316088D02*Y314866D01*
X123072Y311159D02*X122744Y310831D01*
G54D86*X127127Y318999D02*X130099Y321970D01*
X127127Y318999D02*X127340Y319212D01*
X129929Y324612D02*X129949Y324592D01*
X132050D01*
X124325Y324211D02*Y326141D01*
X128692Y323398D02*X127879Y324211D01*
X126125D01*
G54D91*X141399Y321970D02*X132324D01*
G54D86*X140721Y325849D02*X138270Y323398D01*
X128692D01*
X137039Y325360D02*Y324214D01*
X136764Y323939D01*
X135854D01*
X133419Y321546D02*X133754Y321882D01*
X133850Y324592D02*Y327167D01*
X140719Y327182D02*X139713D01*
X139700Y327170D01*
X135755D01*
X130998Y326149D02*X130993Y326154D01*
X126138D01*
X140332Y315062D02*X139167D01*
X138623Y329237D02*X138626Y329235D01*
X138623Y329237D02*X139786D01*
X140508Y329959D01*
G54D91*X141036Y331015D02*Y332585D01*
G54D86*Y331015D02*Y332567D01*
X136428Y331089D02*X138476D01*
X139334Y331948D01*
X129134Y306527D02*Y304724D01*
Y308327D02*Y310286D01*
X127127Y298602D02*Y310591D01*
X127102Y298577D02*X127127Y298602D01*
X127315Y294632D02*X128684Y293263D01*
X128073Y293874D02*X128935Y293012D01*
Y286210D01*
X128201Y292872D02*X127406Y293667D01*
X131864Y285620D02*X132283Y285201D01*
X131016Y286888D02*X132237Y288110D01*
Y307988D01*
X132050Y308176D01*
X127046Y294028D02*X127826Y293248D01*
X136718Y297028D02*X136710Y297020D01*
X169534Y226059D02*X170378D01*
X169534D02*X169323Y226270D01*
Y226776D01*
X169534Y226987D02*X169323Y226776D01*
X169534Y226987D02*X170167D01*
Y226059D02*Y227746D01*
X169534D02*X170378D01*
X169534D02*X169323Y227535D01*
Y227198D02*Y227535D01*
X169534Y226987D02*X169323Y227198D01*
X168817Y226270D02*Y227535D01*
X168607Y227746D01*
X168185D02*X168607D01*
X168185D02*X167974Y227535D01*
Y226270D02*Y227535D01*
X168185Y226059D02*X167974Y226270D01*
X168185Y226059D02*X168607D01*
X168817Y226270D02*X168607Y226059D01*
X166625Y227746D02*X167468D01*
X167047Y226059D02*Y227746D01*
G54D96*X83185Y304165D03*
Y301625D03*
X80645Y304165D03*
Y301625D03*
G54D98*G36*
X87503Y304927D02*Y303403D01*
X89027D01*
Y304927D01*
X87503D01*
G37*
G54D96*X88265Y301625D03*
X85725Y304165D03*
Y301625D03*
X78105Y304165D03*
Y301625D03*
G54D98*G36*
X73076Y289403D02*Y287625D01*
X74854D01*
Y289403D01*
X73076D01*
G37*
G54D99*X76505Y288514D03*
X79045D03*
X81585D03*
G54D96*X187114Y263301D03*
Y265841D03*
Y268381D03*
G54D98*G36*
X186159Y274681D02*Y273157D01*
X187683D01*
Y274681D01*
X186159D01*
G37*
G54D96*X186921Y276459D03*
Y278999D03*
Y281539D03*
G54D98*G36*
X186185Y287617D02*Y286093D01*
X187709D01*
Y287617D01*
X186185D01*
G37*
G36*
X130254Y292730D02*Y291206D01*
X131778D01*
Y292730D01*
X130254D01*
G37*
G54D96*X133556Y291968D03*
Y289428D03*
Y286888D03*
X131016Y289428D03*
Y286888D03*
Y284348D03*
Y281808D03*
Y279268D03*
Y276728D03*
X133556Y284348D03*
Y281808D03*
Y279268D03*
Y276728D03*
X131016Y274188D03*
Y271648D03*
Y269108D03*
X133556Y274188D03*
Y271648D03*
Y269108D03*
G54D98*G36*
X93505Y228166D02*Y226642D01*
X95029D01*
Y228166D01*
X93505D01*
G37*
G54D96*X91727Y227404D03*
X89187D03*
X94267Y224864D03*
X91727D03*
X89187D03*
X86647D03*
X84107D03*
X81567D03*
X86647Y227404D03*
X84107D03*
X81567D03*
X79027D03*
G54D98*G36*
X97980Y225588D02*Y223810D01*
X99758D01*
Y225588D01*
X97980D01*
G37*
G54D99*X101410Y224699D03*
X103950D03*
X106490D03*
G54D96*X79027Y224864D03*
X76487Y227404D03*
X73947D03*
X71407D03*
X76487Y224864D03*
X73947D03*
X71407D03*
X68867D03*
X66327D03*
X63787D03*
X68867Y227404D03*
X66327D03*
X63787D03*
X61247D03*
G54D98*G36*
X124333Y225616D02*Y223838D01*
X126111D01*
Y225616D01*
X124333D01*
G37*
G36*
X110990Y225628D02*Y223850D01*
X112768D01*
Y225628D01*
X110990D01*
G37*
G54D99*X114419Y224739D03*
X116959D03*
X119499D03*
X127762Y224726D03*
X130302D03*
X132842D03*
G54D98*G36*
X139362Y225646D02*Y223868D01*
X141140D01*
Y225646D01*
X139362D01*
G37*
G54D99*X142791Y224757D03*
X145331D03*
X147871D03*
G54D96*X61247Y224864D03*
X58707D03*
X56167D03*
X53627D03*
X51087D03*
X58707Y227404D03*
X56167D03*
X53627D03*
X51087D03*
G54D98*G36*
X43647Y233637D02*Y231859D01*
X45425D01*
Y233637D01*
X43647D01*
G37*
G54D99*X44536Y230208D03*
Y227668D03*
Y225128D03*
G54D98*G36*
X152900Y225638D02*Y223860D01*
X154678D01*
Y225638D01*
X152900D01*
G37*
G54D99*X156329Y224749D03*
X158869D03*
X161409D03*
G54D98*G36*
X186616Y223568D02*Y222044D01*
X188140D01*
Y223568D01*
X186616D01*
G37*
G54D96*X187378Y225346D03*
Y227886D03*
Y230426D03*
X186947Y289395D03*
Y291935D03*
Y294475D03*
G54D98*G36*
X186251Y300835D02*Y299311D01*
X187775D01*
Y300835D01*
X186251D01*
G37*
G54D96*X187013Y302613D03*
Y305153D03*
Y307693D03*
G54D98*G36*
X186276Y313230D02*Y311706D01*
X187800D01*
Y313230D01*
X186276D01*
G37*
G54D96*X187038Y315008D03*
Y317548D03*
Y320088D03*
G54D98*G36*
X186152Y325948D02*Y324424D01*
X187676D01*
Y325948D01*
X186152D01*
G37*
G54D96*X186914Y327726D03*
Y330266D03*
Y332806D03*
G54D98*G36*
X186205Y338943D02*Y337419D01*
X187729D01*
Y338943D01*
X186205D01*
G37*
G54D96*X186967Y340721D03*
Y343261D03*
Y345801D03*
G54D98*G36*
X146431Y360525D02*Y359001D01*
X147955D01*
Y360525D01*
X146431D01*
G37*
G54D96*X147193Y362303D03*
X149733Y359763D03*
Y362303D03*
X152273Y359763D03*
Y362303D03*
X154813Y359763D03*
Y362303D03*
X157353D03*
X159893D03*
X157353Y359763D03*
X159893D03*
X162433D03*
X164973D03*
X167513D03*
X170053D03*
X162433Y362303D03*
X164973D03*
X167513D03*
X170053D03*
X172593Y359763D03*
Y362303D03*
X175133D03*
X177673D03*
X175133Y359763D03*
X177673D03*
G54D98*G36*
X186609Y248727D02*Y247203D01*
X188133D01*
Y248727D01*
X186609D01*
G37*
G54D96*X187371Y250505D03*
Y253045D03*
Y255585D03*
G54D98*G36*
X186352Y261523D02*Y259999D01*
X187876D01*
Y261523D01*
X186352D01*
G37*
G36*
X186609Y236063D02*Y234539D01*
X188133D01*
Y236063D01*
X186609D01*
G37*
G54D96*X187371Y237841D03*
Y240381D03*
Y242921D03*
G54D98*G36*
X143017Y243202D02*Y241678D01*
X144541D01*
Y243202D01*
X143017D01*
G37*
G54D96*X143779Y244980D03*
X146319Y242440D03*
Y244980D03*
X148859Y242440D03*
X151399D03*
Y244980D03*
X148859D03*
G54D98*G36*
X43731Y245742D02*Y243964D01*
X45509D01*
Y245742D01*
X43731D01*
G37*
G36*
X96246Y243215D02*Y241691D01*
X97770D01*
Y243215D01*
X96246D01*
G37*
G54D96*X99548Y242453D03*
X102088D03*
X104628D03*
X107168D03*
G54D99*X44620Y242313D03*
Y239773D03*
Y237233D03*
G54D98*G36*
X43711Y282748D02*Y280970D01*
X45489D01*
Y282748D01*
X43711D01*
G37*
G54D99*X44600Y279319D03*
Y276779D03*
Y274239D03*
G54D98*G36*
X43744Y271191D02*Y269413D01*
X45522D01*
Y271191D01*
X43744D01*
G37*
G54D99*X44633Y267762D03*
Y265222D03*
Y262682D03*
G54D98*G36*
X43774Y258963D02*Y257185D01*
X45552D01*
Y258963D01*
X43774D01*
G37*
G54D99*X44663Y255534D03*
Y252994D03*
Y250454D03*
G54D98*G36*
X73678Y334391D02*Y332867D01*
X75202D01*
Y334391D01*
X73678D01*
G37*
G54D96*X71900Y333629D03*
G54D98*G36*
X73673Y336913D02*Y335389D01*
X75197D01*
Y336913D01*
X73673D01*
G37*
G54D96*X71895Y336151D03*
G54D98*G36*
X73698Y328590D02*Y327066D01*
X75222D01*
Y328590D01*
X73698D01*
G37*
G54D96*X71920Y327828D03*
G54D98*G36*
X73698Y331127D02*Y329603D01*
X75222D01*
Y331127D01*
X73698D01*
G37*
G54D96*X71920Y330365D03*
G54D98*G36*
X67513Y323314D02*Y321790D01*
X69037D01*
Y323314D01*
X67513D01*
G37*
G36*
X67516Y325869D02*Y324345D01*
X69040D01*
Y325869D01*
X67516D01*
G37*
G36*
X67498Y317370D02*Y315846D01*
X69022D01*
Y317370D01*
X67498D01*
G37*
G36*
X67495Y319921D02*Y318397D01*
X69019D01*
Y319921D01*
X67495D01*
G37*
G54D96*X65735Y322552D03*
X65738Y325107D03*
X65720Y316608D03*
X65717Y319159D03*
G54D98*G36*
X80007Y354673D02*Y353149D01*
X81531D01*
Y354673D01*
X80007D01*
G37*
G36*
X82550Y354670D02*Y353146D01*
X84074D01*
Y354670D01*
X82550D01*
G37*
G54D96*X80769Y351371D03*
X83312Y351368D03*
G54D98*G36*
X100030Y352240D02*Y350716D01*
X101554D01*
Y352240D01*
X100030D01*
G37*
G54D96*X98252Y351478D03*
G54D98*G36*
X51701Y345880D02*Y343537D01*
X54044D01*
Y345880D01*
X51701D01*
G37*
G54D100*X52873Y339628D03*
Y334548D03*
Y329468D03*
G54D98*G36*
X100035Y354777D02*Y353253D01*
X101559D01*
Y354777D01*
X100035D01*
G37*
G54D96*X98257Y354015D03*
G54D98*G36*
X91814Y360510D02*Y358986D01*
X93338D01*
Y360510D01*
X91814D01*
G37*
G54D96*X92576Y362288D03*
X95116Y359748D03*
Y362288D03*
X97656Y359748D03*
Y362288D03*
X100196Y359748D03*
X102736D03*
X105276D03*
X100196Y362288D03*
X102736D03*
X105276D03*
X107816D03*
X110356D03*
X112896D03*
X107816Y359748D03*
X110356D03*
X112896D03*
X115436Y362288D03*
X117976D03*
X120516D03*
X115436Y359748D03*
X117976D03*
X120516D03*
X123056D03*
Y362288D03*
G54D101*X188275Y354678D02*Y354228D01*
X187325Y354678D02*Y354228D01*
X186375Y354678D02*Y354228D01*
Y357378D02*Y356928D01*
X188275Y357378D02*Y356928D01*
G54D102*X190246Y361439D02*Y361287D01*
X188265Y361439D02*Y361287D01*
X189255Y363522D02*Y363370D01*
G54D103*X185208Y350883D02*X185408D01*
X185208Y352683D02*X185408D01*
X185285Y362947D02*X185484D01*
X185285Y361147D02*X185484D01*
X130787Y346019D02*Y345419D01*
X127787Y346019D02*Y345419D01*
X130787Y343149D02*Y342549D01*
X127838Y348080D02*Y347880D01*
X129638Y348080D02*Y347880D01*
X129613Y350137D02*Y349938D01*
X127813Y350137D02*Y349938D01*
X107596Y351685D02*X107796D01*
X107596Y349885D02*X107796D01*
X104878Y342438D02*Y341838D01*
Y345359D02*Y344759D01*
X104902Y347699D02*Y347499D01*
Y349985D02*Y349785D01*
X103102Y347699D02*Y347499D01*
Y349985D02*Y349785D01*
X119645Y350112D02*Y349912D01*
X117845Y350112D02*Y349912D01*
Y348207D02*Y348007D01*
X119645Y348207D02*Y348007D01*
X115216Y349990D02*X115416D01*
X115216Y351790D02*X115416D01*
X115546Y346248D02*Y345648D01*
X120880Y346248D02*Y345648D01*
X117880Y346248D02*Y345648D01*
X127787Y343149D02*Y342549D01*
X125529Y349990D02*X125728D01*
X125529Y351790D02*X125728D01*
X149633D02*X149833D01*
X149633Y349990D02*X149833D01*
X146761Y343149D02*Y342549D01*
X143761Y343149D02*Y342549D01*
Y345816D02*Y345216D01*
X146761Y345816D02*Y345216D01*
X146707Y347927D02*Y347728D01*
X146736Y350112D02*Y349912D01*
X144907Y347927D02*Y347728D01*
X144936Y350112D02*Y349912D01*
X154581Y347902D02*Y347702D01*
X152781Y347902D02*Y347702D01*
X155727Y343683D02*Y343083D01*
X152728Y343683D02*Y343083D01*
X152781Y345870D02*Y345670D01*
X154581Y345870D02*Y345670D01*
X152716Y351736D02*X152916D01*
X152716Y349936D02*X152916D01*
X154663Y336850D02*Y336250D01*
X158115Y336523D02*Y336323D01*
X152756Y340965D02*Y340365D01*
X155755Y340965D02*Y340365D01*
X154638Y334386D02*Y333786D01*
X151638Y334386D02*Y333786D01*
X151663Y336850D02*Y336250D01*
X159915Y336523D02*Y336323D01*
X159666Y334289D02*X159866D01*
X161720D02*X161920D01*
X113077Y343503D02*Y343303D01*
X114877Y343503D02*Y343303D01*
X112546Y346248D02*Y345648D01*
X127898Y331661D02*Y331462D01*
X126098Y331661D02*Y331462D01*
X126139Y329149D02*Y328950D01*
X124339Y329149D02*Y328950D01*
X119927Y329182D02*Y328983D01*
X121727Y329182D02*Y328983D01*
X131393Y331697D02*Y331497D01*
X133193Y331697D02*Y331497D01*
X109435Y331432D02*X109635D01*
X109435Y333232D02*X109635D01*
X107482Y331432D02*X107682D01*
X107482Y333232D02*X107682D01*
X105226Y332006D02*X105426D01*
X105226Y333806D02*X105426D01*
X154635Y330300D02*Y330100D01*
X152835Y330300D02*Y330100D01*
X152857Y332256D02*Y332056D01*
X154657Y332256D02*Y332056D01*
X152857Y328496D02*Y328297D01*
X154657Y328496D02*Y328297D01*
X163832Y328934D02*X164031D01*
X159666Y328854D02*X159866D01*
X163832Y330733D02*X164031D01*
X159666Y330654D02*X159866D01*
X142625Y331494D02*Y331294D01*
X144424Y331494D02*Y331294D01*
X159666Y332490D02*X159866D01*
X161720D02*X161920D01*
X137114Y344649D02*X137313D01*
X137114Y342849D02*X137313D01*
X136939Y327160D02*X137139D01*
X139334Y334905D02*Y334705D01*
X137534Y334905D02*Y334705D01*
X136823Y329337D02*Y329138D01*
X138623Y329337D02*Y329138D01*
X64937Y276093D02*X65137D01*
X64937Y274293D02*X65137D01*
X62884Y300554D02*Y300354D01*
X64684Y300554D02*Y300354D01*
X62902Y298801D02*Y298602D01*
X64701Y298801D02*Y298602D01*
X63659Y269545D02*X63859D01*
X85318Y250736D02*X85517D01*
X85318Y252536D02*X85517D01*
X87352Y250735D02*X87552D01*
X87352Y252534D02*X87552D01*
X77713Y250731D02*X77913D01*
X77713Y252531D02*X77913D01*
X63659Y267745D02*X63859D01*
X61338Y260655D02*X61537D01*
X61338Y262455D02*X61537D01*
X55031Y255164D02*X55231D01*
X55031Y253364D02*X55231D01*
X71249Y267693D02*X71448D01*
X68782Y267712D02*X68982D01*
X66202Y267727D02*X66401D01*
X84225Y298644D02*Y298444D01*
X82425Y298644D02*Y298444D01*
X92580Y298247D02*X92779D01*
X92580Y296447D02*X92779D01*
X94492Y298227D02*X94692D01*
X94492Y296427D02*X94692D01*
X71249Y269493D02*X71448D01*
X68782Y269512D02*X68982D01*
X66202Y269527D02*X66401D01*
X75224Y274921D02*X75424D01*
X78610Y276103D02*X78809D01*
X78610Y274304D02*X78809D01*
X75224Y273121D02*X75424D01*
X84932Y267605D02*X85131D01*
X82422Y267620D02*X82622D01*
X79896Y267668D02*X80096D01*
X77360Y267669D02*X77560D01*
X84932Y269405D02*X85131D01*
X82422Y269420D02*X82622D01*
X79896Y269468D02*X80096D01*
X77360Y269469D02*X77560D01*
X76066Y298563D02*Y298363D01*
X77866Y298563D02*Y298363D01*
G54D104*X75695Y295976D02*X77219D01*
G54D105*X84148Y293218D02*Y292608D01*
X82598Y293218D02*Y292608D01*
X81049Y293218D02*Y292608D01*
G54D104*X81836Y296012D02*X83360D01*
G54D103*X79334Y286165D02*Y285965D01*
X77534Y286165D02*Y285965D01*
G54D105*X78006Y293182D02*Y292572D01*
X76457Y293182D02*Y292572D01*
X74907Y293182D02*Y292572D01*
G54D103*X81493Y286165D02*Y285965D01*
X83293Y286165D02*Y285965D01*
X70017Y276093D02*X70217D01*
X70017Y274293D02*X70217D01*
X72572Y276077D02*X72772D01*
X72572Y274277D02*X72772D01*
X67477Y276093D02*X67677D01*
X67477Y274293D02*X67677D01*
X89108Y275556D02*X89307D01*
X86230Y276103D02*X86429D01*
X86230Y274304D02*X86429D01*
X89108Y273756D02*X89307D01*
X97251Y265674D02*X97450D01*
X97251Y267474D02*X97450D01*
X95427Y265682D02*X95627D01*
X95427Y267482D02*X95627D01*
X99433Y265680D02*X99632D01*
X99433Y267480D02*X99632D01*
X104642Y266218D02*X104842D01*
X106644Y266211D02*X106843D01*
X104642Y268018D02*X104842D01*
X106644Y268011D02*X106843D01*
X90888Y264402D02*X91088D01*
X90888Y266202D02*X91088D01*
X90868Y270838D02*X91067D01*
X90868Y269038D02*X91067D01*
X90880Y260620D02*X91080D01*
X90880Y262420D02*X91080D01*
X83690Y276103D02*X83889D01*
X83690Y274304D02*X83889D01*
X81150Y276103D02*X81349D01*
X81150Y274304D02*X81349D01*
X89562Y319935D02*X89762D01*
X89562Y318135D02*X89762D01*
X82211Y332246D02*X82411D01*
X80459Y332253D02*X80658D01*
X78666Y332271D02*X78865D01*
X82211Y334046D02*X82411D01*
X80459Y334053D02*X80658D01*
X78666Y334071D02*X78865D01*
X76882Y334068D02*X77082D01*
X76882Y332269D02*X77082D01*
X76560Y325511D02*X76760D01*
X76560Y327311D02*X76760D01*
X81676Y327658D02*Y327459D01*
X79876Y327658D02*Y327459D01*
X81676Y325847D02*Y325648D01*
X79876Y325847D02*Y325648D01*
X81656Y324016D02*Y323816D01*
X79856Y324016D02*Y323816D01*
X81642Y322309D02*Y322109D01*
X81636Y320564D02*Y320364D01*
X81625Y318875D02*Y318675D01*
X79842Y322309D02*Y322109D01*
X79836Y320564D02*Y320364D01*
X79826Y318875D02*Y318675D01*
X83983Y332251D02*X84182D01*
X89207Y332200D02*X89406D01*
X87462Y332197D02*X87661D01*
X85760Y332233D02*X85959D01*
X83983Y334051D02*X84182D01*
X89207Y334000D02*X89406D01*
X87462Y333997D02*X87661D01*
X85760Y334033D02*X85959D01*
X62902Y311019D02*Y310819D01*
X64701Y311019D02*Y310819D01*
X62886Y309297D02*Y309097D01*
X64686Y309297D02*Y309097D01*
X62885Y307536D02*Y307337D01*
X64685Y307536D02*Y307337D01*
X62883Y305794D02*Y305594D01*
X64683Y305794D02*Y305594D01*
X62900Y304026D02*Y303826D01*
X64700Y304026D02*Y303826D01*
X62901Y302273D02*Y302074D01*
X64700Y302273D02*Y302074D01*
X58801Y344651D02*Y344451D01*
X60601Y344651D02*Y344451D01*
X58757Y339571D02*Y339371D01*
X60557Y339571D02*Y339371D01*
X58733Y334618D02*Y334418D01*
X60533Y334618D02*Y334418D01*
X79275Y341249D02*X79475D01*
X72798Y338676D02*X72998D01*
X72798Y340476D02*X72998D01*
G54D102*X82931Y340741D02*X83185D01*
G54D103*X79275Y343049D02*X79475D01*
G54D102*X82931Y343027D02*X83185D01*
G54D103*X101472Y329380D02*X101672D01*
X101472Y327580D02*X101672D01*
X99800Y322680D02*Y322480D01*
G54D106*X83984Y313177D02*X84034D01*
X86233D02*X86283D01*
G54D103*X81317Y315030D02*X81517D01*
X81317Y313230D02*X81517D01*
X79572Y314105D02*Y313905D01*
X77772Y314105D02*Y313905D01*
X81624Y317209D02*Y317009D01*
X79824Y317209D02*Y317009D01*
G54D106*X83984Y315717D02*X84034D01*
X86233D02*X86283D01*
G54D103*X69882Y313045D02*X70082D01*
X69882Y311245D02*X70082D01*
X101878Y342438D02*Y341838D01*
Y345359D02*Y344759D01*
X96826Y345359D02*Y344759D01*
X96853Y342540D02*Y341940D01*
X91673Y336664D02*X91873D01*
X91673Y334864D02*X91873D01*
X93959Y333197D02*X94159D01*
X99504Y331387D02*X99703D01*
X99504Y333187D02*X99703D01*
X97642Y331409D02*X97842D01*
X97642Y333209D02*X97842D01*
X95795Y331374D02*X95995D01*
X95795Y333174D02*X95995D01*
X93959Y331397D02*X94159D01*
X101465Y331377D02*X101664D01*
X101465Y333177D02*X101664D01*
X93842Y347699D02*Y347499D01*
X93853Y349985D02*Y349785D01*
X93826Y345359D02*Y344759D01*
X93853Y342540D02*Y341940D01*
X95642Y347699D02*Y347499D01*
X95653Y349985D02*Y349785D01*
X90324Y351663D02*X90524D01*
X90324Y349863D02*X90524D01*
X118480Y310831D02*X118680D01*
X118480Y312631D02*X118680D01*
G54D106*X117844Y315725D02*X117894D01*
G54D103*X117756Y323088D02*X117956D01*
X117756Y321288D02*X117956D01*
G54D106*X117844Y318265D02*X117894D01*
G54D103*X119865Y326241D02*Y326041D01*
G54D106*X120093Y318265D02*X120143D01*
X120093Y315725D02*X120143D01*
G54D103*X121665Y326241D02*Y326041D01*
X107420Y320267D02*Y320067D01*
X98066Y320267D02*Y320067D01*
X96266Y320267D02*Y320067D01*
X98000Y322680D02*Y322480D01*
X105421Y322680D02*Y322480D01*
X103621Y322680D02*Y322480D01*
X96382Y315314D02*Y315114D01*
X96244Y312266D02*Y312066D01*
X103024Y310388D02*X103224D01*
X103024Y308588D02*X103224D01*
X96255Y308075D02*Y307875D01*
X98055Y308075D02*Y307875D01*
X106961Y310399D02*X107161D01*
X106961Y308599D02*X107161D01*
X110136Y309604D02*X110336D01*
X110136Y311404D02*X110336D01*
X109220Y320267D02*Y320067D01*
X108944Y322553D02*Y322353D01*
X105243Y315324D02*Y315124D01*
X107043Y315324D02*Y315124D01*
X98182Y315314D02*Y315114D01*
X98044Y312266D02*Y312066D01*
X110744Y322553D02*Y322353D01*
X88011Y309853D02*Y309653D01*
X86211Y309853D02*Y309653D01*
X129034Y306527D02*X129233D01*
X129034Y308327D02*X129233D01*
X129034Y315138D02*X129233D01*
X129034Y313338D02*X129233D01*
X139067Y313262D02*X139266D01*
X139067Y315062D02*X139266D01*
X139067Y309778D02*X139266D01*
X139067Y307979D02*X139266D01*
X142777Y309243D02*Y309044D01*
X144577Y309243D02*Y309044D01*
X159995Y324559D02*Y324360D01*
X161794Y324559D02*Y324360D01*
X161698Y322682D02*X161898D01*
X159692Y319278D02*X159891D01*
X159692Y317478D02*X159891D01*
X161698Y320882D02*X161898D01*
X163857Y317123D02*X164057D01*
X163857Y318922D02*X164057D01*
X159692Y320878D02*X159891D01*
X159692Y322678D02*X159891D01*
X160024Y313790D02*Y313590D01*
X161823Y313790D02*Y313590D01*
X161724Y311836D02*X161923D01*
X161724Y310036D02*X161923D01*
X159692Y310058D02*X159891D01*
X159692Y311858D02*X159891D01*
X163832Y306023D02*X164031D01*
X163832Y307823D02*X164031D01*
X159692Y308178D02*X159891D01*
X159692Y306378D02*X159891D01*
X159998Y302360D02*Y302160D01*
X161798Y302360D02*Y302160D01*
X123471Y316495D02*X123671D01*
X123471Y318295D02*X123671D01*
X144492Y321779D02*X144692D01*
X144492Y319979D02*X144692D01*
X132051Y324692D02*Y324492D01*
X133850Y324692D02*Y324492D01*
X136939Y325360D02*X137139D01*
X124325Y324311D02*Y324111D01*
X126125Y324311D02*Y324111D01*
X124338Y326254D02*Y326054D01*
X126138Y326254D02*Y326054D01*
X145012Y285748D02*Y285549D01*
X145063Y273455D02*Y273255D01*
X142777Y298042D02*Y297842D01*
X144577Y298042D02*Y297842D01*
X146812Y285748D02*Y285549D01*
X152574Y255680D02*Y255480D01*
X154374Y255680D02*Y255480D01*
X146863Y273455D02*Y273255D01*
X144617Y256805D02*Y256605D01*
X146417Y256805D02*Y256605D01*
X160034Y290701D02*Y290502D01*
X161834Y290701D02*Y290502D01*
X159717Y284175D02*X159917D01*
X159717Y282375D02*X159917D01*
X159717Y286541D02*X159917D01*
X161724Y286552D02*X161923D01*
X159717Y288341D02*X159917D01*
X161724Y288352D02*X161923D01*
X163806Y282401D02*X164006D01*
X163806Y284201D02*X164006D01*
X160024Y278687D02*Y278487D01*
X159793Y276682D02*X159993D01*
X159793Y274882D02*X159993D01*
X159793Y272821D02*X159993D01*
X159793Y271022D02*X159993D01*
X161724Y274857D02*X161923D01*
X163781Y271072D02*X163981D01*
X163781Y272872D02*X163981D01*
X159717Y298606D02*X159917D01*
X159717Y296875D02*X159917D01*
X159717Y300406D02*X159917D01*
X161724D02*X161923D01*
X161724Y298606D02*X161923D01*
X163806Y294644D02*X164006D01*
X163806Y296443D02*X164006D01*
X159717Y295075D02*X159917D01*
X161823Y278687D02*Y278487D01*
X161724Y276657D02*X161923D01*
X156261Y247822D02*X156460D01*
X156261Y249622D02*X156460D01*
X156786Y241834D02*X156985D01*
X156786Y243634D02*X156985D01*
X156558Y232010D02*X156757D01*
X156558Y233810D02*X156757D01*
X123904Y267084D02*Y266885D01*
X125704Y267084D02*Y266885D01*
X123928Y262882D02*X124128D01*
X123928Y264682D02*X124128D01*
X124369Y261067D02*Y260867D01*
X126168Y261067D02*Y260867D01*
X123210Y291407D02*Y291208D01*
X125010Y291407D02*Y291208D01*
X123108Y269433D02*X123308D01*
X123243Y281904D02*X123442D01*
X123243Y283704D02*X123442D01*
X123331Y279708D02*Y279508D01*
X125131Y279708D02*Y279508D01*
X123354Y273142D02*Y272943D01*
X125153Y273142D02*Y272943D01*
X123108Y271233D02*X123308D01*
X123283Y275847D02*X123483D01*
X123283Y277646D02*X123483D01*
X123303Y285512D02*Y285312D01*
X125103Y285512D02*Y285312D01*
X123029Y287617D02*X123229D01*
X123029Y289417D02*X123229D01*
X132368Y248433D02*Y248233D01*
X132738Y254430D02*Y254230D01*
X134325Y250231D02*X134524D01*
X134325Y252031D02*X134524D01*
X122381Y248166D02*Y247967D01*
X124181Y248166D02*Y247967D01*
X123972Y244376D02*X124171D01*
X123972Y246176D02*X124171D01*
X122492Y254758D02*Y254558D01*
X124292Y254758D02*Y254558D01*
X124035Y250998D02*X124235D01*
X124035Y252798D02*X124235D01*
X134168Y248433D02*Y248233D01*
X134810Y243606D02*X135009D01*
X134810Y245406D02*X135009D01*
X134538Y254430D02*Y254230D01*
X140052Y257380D02*X140252D01*
X140052Y255580D02*X140252D01*
X124274Y257297D02*X124473D01*
X124274Y259097D02*X124473D01*
G54D107*X125113Y275857D03*
X125166Y270977D03*
X125169Y269433D03*
X126149Y264704D03*
X126169Y263136D03*
X119924Y279827D03*
X118684Y277470D03*
X119885Y273637D03*
X117899Y271597D03*
X119918Y266984D03*
X117993Y264693D03*
X119952Y260972D03*
X113751Y270655D03*
X113769Y268978D03*
X102032Y280238D03*
X103683Y280017D03*
X105095Y279664D03*
X118110Y258572D03*
X119954Y254952D03*
X114747Y252677D03*
X120023Y248533D03*
X126197Y258354D03*
X132291Y256090D03*
X129639Y254353D03*
X126215Y256847D03*
X126223Y252458D03*
X126213Y250975D03*
X126234Y245999D03*
X126254Y244430D03*
X141315Y258635D03*
X138821Y249735D03*
X141237Y261196D03*
X143866Y258643D03*
X141864Y255577D03*
X143347D03*
X137236Y247698D03*
X130680Y248331D03*
X136357Y252677D03*
X137236Y245948D03*
X136357Y250226D03*
X129675Y245961D03*
X137249Y244279D03*
X129639Y252669D03*
X129002Y229837D03*
X131399Y228503D03*
X133721Y232829D03*
X113995Y246129D03*
X119187Y227239D03*
X121149Y227621D03*
X140284Y230716D03*
X145245Y230693D03*
X144556Y249702D03*
X122799Y296548D03*
X118656Y296827D03*
X122278Y298079D03*
X121750Y299438D03*
X121234Y300949D03*
X120391Y302339D03*
X119510Y300985D03*
X119088Y299227D03*
X141280Y295209D03*
X111440Y314272D03*
X116522Y313522D03*
X116665Y312242D03*
X101432Y301595D03*
X100409Y300464D03*
X99464Y301622D03*
X96937Y302072D03*
X98397Y302468D03*
X97846Y300848D03*
X94742Y310515D03*
X92311Y300779D03*
X94849Y308988D03*
X95067Y306796D03*
X94074Y306161D03*
X71285Y288491D03*
X69451Y286451D03*
X71285D03*
X77264Y291216D03*
X79505Y294244D03*
X81283Y291013D03*
X46129Y286167D03*
X0Y137503D03*
Y140566D03*
X82527Y272557D03*
X83782Y271917D03*
X85039Y272580D03*
X83233Y290713D03*
X87975Y243383D03*
G54D108*X48250Y221833D03*
G54D107*X87963Y248326D03*
X87617Y262974D03*
X93312Y266212D03*
X92799Y270218D03*
X93662Y260627D03*
X81252Y271722D03*
X70109Y272232D03*
X68852Y271186D03*
X67582Y272212D03*
X66314Y271173D03*
X72657Y272222D03*
X71379Y271186D03*
X74196Y267741D03*
X73896Y258409D03*
X75936Y258465D03*
X73923Y262897D03*
X61427Y264086D03*
X79980Y272575D03*
X77800Y247498D03*
X63889Y255532D03*
X63848Y253888D03*
X63746Y260472D03*
X65255Y261056D03*
X59182Y320167D03*
X55161Y302887D03*
X53162Y296850D03*
X54153Y292075D03*
X46629Y290845D03*
X66688Y308734D03*
Y307452D03*
Y306210D03*
X66680Y304917D03*
X66690Y303657D03*
Y302377D03*
Y301120D03*
X49807Y321899D03*
X63424Y294970D03*
X66076Y288046D03*
X67716Y288323D03*
X69477Y288511D03*
X59802Y281846D03*
X55684Y279616D03*
X55105Y256969D03*
X61430Y259065D03*
X53497Y255628D03*
X63523Y257175D03*
X55133Y251574D03*
X60307Y252578D03*
X56698Y252329D03*
X58682Y254241D03*
X52301Y252237D03*
X53495Y249878D03*
X52311Y246924D03*
X49210Y251752D03*
X50165Y248592D03*
X52415Y254709D03*
X59908Y238155D03*
X54859Y238036D03*
X52311Y237985D03*
X62438Y238153D03*
X54239Y260048D03*
X73942Y271374D03*
X74181Y276695D03*
X77440Y272575D03*
X78707Y271927D03*
X56764Y277076D03*
X75621Y277228D03*
X73939Y281993D03*
X72009Y281996D03*
X75822Y281991D03*
X65024Y272212D03*
X63754Y271163D03*
X65042Y278714D03*
X119634Y343408D03*
X120015Y341376D03*
X123190Y343408D03*
Y339598D03*
X124206Y335280D03*
X123165Y341833D03*
X123215Y337871D03*
X129337Y337261D03*
X146126Y331394D03*
X146583Y333985D03*
X148692Y336372D03*
Y324180D03*
X129929Y324612D03*
X135336Y324457D03*
X140721Y325849D03*
X142291Y317017D03*
X116573Y355046D03*
X151978Y364439D03*
X154371Y364124D03*
X141798Y363108D03*
X143142Y363934D03*
X120584Y352803D03*
X128341Y327787D03*
X128311Y329324D03*
X129466Y331572D03*
X133200Y329103D03*
X133843Y327160D03*
X140508Y329959D03*
X117236Y330604D03*
X140719Y327182D03*
X140879Y328605D03*
X136428Y331089D03*
X137516Y332186D03*
X132979Y346893D03*
X141674Y342842D03*
X133977Y342859D03*
X133993Y341252D03*
X134699Y344325D03*
G54D109*X68199Y344551D03*
G54D107*X70500Y325709D03*
X72898Y342519D03*
X60549Y336542D03*
X76672Y329004D03*
X57282Y332786D03*
X59474D03*
X58402Y331536D03*
X60681Y331516D03*
X94564Y336042D03*
X92652Y333228D03*
X93309Y336055D03*
X89411Y337569D03*
X90234Y336629D03*
X88138Y337571D03*
X86893D03*
X85598D03*
X84336Y337579D03*
X83055D03*
X81793Y337571D03*
X80521Y337563D03*
X85783Y324147D03*
X64389Y335534D03*
X65603Y327795D03*
X66670Y310002D03*
X68262Y313042D03*
X68278Y311247D03*
X75565Y341376D03*
X76279Y321638D03*
X76020Y311290D03*
X76289Y317810D03*
Y316548D03*
X76309Y315275D03*
Y313992D03*
X77808Y310848D03*
X79228Y310838D03*
X79398Y312387D03*
X81056Y311848D03*
X76269Y322908D03*
X76289Y320358D03*
X76284Y319075D03*
X76078Y324155D03*
X63754Y353060D03*
X65278Y351663D03*
X68834Y349758D03*
X60325Y354203D03*
X73279Y354711D03*
X61905Y361881D03*
X70347Y364640D03*
X80216D03*
G54D108*X44107Y366207D03*
G54D110*X78194Y358912D03*
G54D107*X93853Y315214D03*
X93980Y320167D03*
X95250Y316611D03*
X93928Y312218D03*
X96121Y306413D03*
X98044Y318516D03*
X97663Y324358D03*
X99822D03*
X101854Y322580D03*
X100462Y280383D03*
X101915Y267480D03*
X89662Y315722D03*
X90297Y305943D03*
X87851Y307221D03*
G54D109*X85743Y290713D03*
X88257Y290733D03*
G54D107*X90302Y277889D03*
X92263Y279827D03*
X92337Y268994D03*
X93279Y267848D03*
X98044Y306451D03*
X98933Y309880D03*
X103124Y306705D03*
X101473Y307594D03*
X107061Y306705D03*
X108712Y307213D03*
X114343Y311724D03*
X110871Y320167D03*
X105537D03*
X107569Y324231D03*
X105811Y329090D03*
X105288Y330540D03*
X110617Y324231D03*
X108478Y314302D03*
X103668Y315224D03*
X110236Y313436D03*
X109426Y315562D03*
X111448Y312453D03*
X108242Y270589D03*
X105253Y230584D03*
X111841Y235100D03*
X112911Y235806D03*
X86319Y271917D03*
X87620Y272468D03*
X86568Y267668D03*
X88080Y277023D03*
X85430Y248722D03*
X86233Y247348D03*
X77795Y249029D03*
X79604Y253992D03*
X87820Y255252D03*
X87831Y257023D03*
X85695Y260165D03*
X76848Y277419D03*
X77307Y282001D03*
X78892Y282476D03*
X80554Y282801D03*
X150012Y314046D03*
X146482Y309169D03*
Y311734D03*
Y297967D03*
Y300482D03*
X146431Y275920D03*
X159766Y315341D03*
X158064Y311709D03*
X158039Y310058D03*
X163932Y310032D03*
X153787Y312976D03*
X156903Y314099D03*
X159791Y304267D03*
X157886Y300482D03*
X159817Y292811D03*
X157912Y298577D03*
X165278Y303378D03*
X163881Y298628D03*
X165303Y290627D03*
X163906Y286537D03*
X165329Y278282D03*
X163881Y274853D03*
X157912Y286537D03*
X151943Y285648D03*
X146456Y288188D03*
X157937D03*
X159791Y280441D03*
X157734Y274879D03*
X151943Y273355D03*
X157734Y276657D03*
X159893Y269138D03*
X129134Y317017D03*
X130124Y321970D03*
X131318Y311120D03*
X139167Y305181D03*
X136627Y312039D03*
X139164Y311485D03*
X136718Y297028D03*
X128201Y277983D03*
X136710Y283952D03*
X120129Y291506D03*
X120000Y285869D03*
X125021Y289032D03*
X125011Y287609D03*
X125123Y283317D03*
X125125Y281887D03*
X125128Y277472D03*
X118280Y283977D03*
X181496Y285730D03*
X181447Y272887D03*
X129134Y310591D03*
Y304724D03*
X127127Y310591D03*
X124257Y305044D03*
X123932Y306626D03*
X123533Y308145D03*
X125095Y318282D03*
X123101Y309453D03*
X115372Y310749D03*
X125240Y314866D03*
X114699Y314231D03*
X127102Y298577D03*
X123403Y295087D03*
X184193Y226411D03*
X183919Y231602D03*
X183556Y244582D03*
X183507Y257104D03*
G54D108*X178374Y229552D03*
G54D107*X177046Y261348D03*
X160462Y261234D03*
X148859Y261242D03*
X164833Y236271D03*
X164849Y244145D03*
X164876Y252110D03*
X154541Y249631D03*
X154866Y243634D03*
X154562Y247617D03*
X154402Y253637D03*
X150084Y249855D03*
X154386Y229078D03*
X154041Y233853D03*
X154269Y238872D03*
X154043Y231818D03*
X152839Y258689D03*
X164414Y258745D03*
X155103Y258689D03*
X166908Y258727D03*
X147886Y255588D03*
X150063Y255605D03*
X159995Y345796D03*
X160045Y342138D03*
X166167Y339504D03*
X162852Y337248D03*
X158984Y349931D03*
X137312Y349936D03*
X139040D03*
X140741D03*
X143192Y347221D03*
X143236Y349946D03*
X162446Y353184D03*
X165473Y353195D03*
X158115Y333959D03*
X158090Y332486D03*
X163957D03*
Y334315D03*
X150012Y335458D03*
X159791Y326238D03*
X158090Y322478D03*
X158115Y320878D03*
X163957D03*
X146507Y322478D03*
X146482Y319964D03*
X146528Y326039D03*
X159555Y339463D03*
X180340Y351663D03*
X185301Y349138D03*
X181646Y336946D03*
G54D108*X190807Y367566D03*
G54D111*X190754Y357033D03*
G54D107*X190249Y358460D03*
X185382Y364670D03*
X183960Y354404D03*
X188262Y352501D03*
X183970Y356413D03*
X155250Y326039D03*
X156908Y324820D03*
X181546Y324056D03*
X181488Y311193D03*
X181435Y298933D03*
X171907Y334373D03*
X175176Y330932D03*
G54D111*X76835Y343027D03*
X87122D03*
G54D107*X85115Y349682D03*
X79685Y346860D03*
X89423Y353919D03*
X91722Y332039D03*
X109220Y343408D03*
X107315Y342138D03*
X110617Y345948D03*
X98806Y343535D03*
G54D110*Y346456D03*
G54D107*X109220Y339598D03*
X108052Y338328D03*
X109601Y335153D03*
X114351Y337058D03*
X103477Y332257D03*
X102189Y336029D03*
X100922D03*
X99662D03*
X98372Y336019D03*
X103045Y333538D03*
X97125Y336027D03*
X95844Y336014D03*
X104229Y366773D03*
X103406Y353228D03*
X102842Y363985D03*
X112652Y363974D03*
X101229Y364914D03*
X114160Y363471D03*
G54D91*G54D112*G54D91*G54D112*G54D91*G54D112*G54D91*G54D112*G54D90*G54D91*G54D113*G54D114*G54D113*G54D114*G54D113*G54D114*G54D113*G54D114*G54D113*G54D94*G54D113*G54D114*G54D113*G54D114*G54D113*G54D115*G54D113*G54D94*M02*
