G04 start of page 9 for group -4062 idx -4062 *
G04 Title: (unknown), soldermask *
G04 Creator: pcb 20140316 *
G04 CreationDate: Thu 01 Jun 2017 04:27:31 PM GMT UTC *
G04 For: sumit *
G04 Format: Gerber/RS-274X *
G04 PCB-Dimensions (mm): 381.00 381.00 *
G04 PCB-Coordinate-Origin: lower left *
%MOMM*%
%FSLAX43Y43*%
%LNBOTTOMMASK*%
%ADD155R,1.545X1.545*%
%ADD154R,1.448X1.448*%
%ADD153R,1.092X1.092*%
%ADD152R,1.702X1.702*%
%ADD151R,1.452X1.452*%
%ADD150R,1.016X1.016*%
%ADD149R,0.750X0.750*%
%ADD148C,2.997*%
%ADD147C,1.930*%
%ADD146C,0.002*%
%ADD145C,1.676*%
%ADD144C,0.254*%
G54D144*X192943Y219707D02*Y369791D01*
X192824Y369910D01*
X40488D01*
X40389Y219781D02*X40564Y219606D01*
X192781D01*
X192783Y219608D01*
X192842Y219606D02*X192943Y219707D01*
X40488Y369910D02*X40348Y369771D01*
Y219822D01*
X40419Y219751D01*
G54D145*X83185Y304165D03*
Y301625D03*
X80645Y304165D03*
Y301625D03*
G54D146*G36*
X87427Y305003D02*Y303327D01*
X89103D01*
Y305003D01*
X87427D01*
G37*
G54D145*X88265Y301625D03*
X85725Y304165D03*
Y301625D03*
X78105Y304165D03*
Y301625D03*
G54D146*G36*
X73000Y289479D02*Y287548D01*
X74930D01*
Y289479D01*
X73000D01*
G37*
G54D147*X76505Y288514D03*
X79045D03*
X81585D03*
G54D145*X187114Y263301D03*
Y265841D03*
Y268381D03*
G54D146*G36*
X186083Y274757D02*Y273080D01*
X187759D01*
Y274757D01*
X186083D01*
G37*
G54D145*X186921Y276459D03*
Y278999D03*
Y281539D03*
G54D146*G36*
X186108Y287693D02*Y286017D01*
X187785D01*
Y287693D01*
X186108D01*
G37*
G36*
X130178Y292806D02*Y291130D01*
X131854D01*
Y292806D01*
X130178D01*
G37*
G54D145*X133556Y291968D03*
Y289428D03*
Y286888D03*
X131016Y289428D03*
Y286888D03*
Y284348D03*
Y281808D03*
Y279268D03*
Y276728D03*
X133556Y284348D03*
Y281808D03*
Y279268D03*
Y276728D03*
X131016Y274188D03*
Y271648D03*
Y269108D03*
X133556Y274188D03*
Y271648D03*
Y269108D03*
G54D146*G36*
X93429Y228242D02*Y226565D01*
X95105D01*
Y228242D01*
X93429D01*
G37*
G54D145*X91727Y227404D03*
X89187D03*
X94267Y224864D03*
X91727D03*
X89187D03*
X86647D03*
X84107D03*
X81567D03*
X86647Y227404D03*
X84107D03*
X81567D03*
X79027D03*
G54D146*G36*
X97904Y225664D02*Y223733D01*
X99835D01*
Y225664D01*
X97904D01*
G37*
G54D147*X101410Y224699D03*
X103950D03*
X106490D03*
G54D145*X79027Y224864D03*
X76487Y227404D03*
X73947D03*
X71407D03*
X76487Y224864D03*
X73947D03*
X71407D03*
X68867D03*
X66327D03*
X63787D03*
X68867Y227404D03*
X66327D03*
X63787D03*
X61247D03*
G54D146*G36*
X124257Y225692D02*Y223761D01*
X126187D01*
Y225692D01*
X124257D01*
G37*
G36*
X110914Y225704D02*Y223774D01*
X112845D01*
Y225704D01*
X110914D01*
G37*
G54D147*X114419Y224739D03*
X116959D03*
X119499D03*
X127762Y224726D03*
X130302D03*
X132842D03*
G54D146*G36*
X139286Y225722D02*Y223792D01*
X141216D01*
Y225722D01*
X139286D01*
G37*
G54D147*X142791Y224757D03*
X145331D03*
X147871D03*
G54D145*X61247Y224864D03*
X58707D03*
X56167D03*
X53627D03*
X51087D03*
X58707Y227404D03*
X56167D03*
X53627D03*
X51087D03*
G54D146*G36*
X43571Y233713D02*Y231783D01*
X45502D01*
Y233713D01*
X43571D01*
G37*
G54D147*X44536Y230208D03*
Y227668D03*
Y225128D03*
G54D146*G36*
X152824Y225715D02*Y223784D01*
X154755D01*
Y225715D01*
X152824D01*
G37*
G54D147*X156329Y224749D03*
X158869D03*
X161409D03*
G54D146*G36*
X186540Y223644D02*Y221968D01*
X188217D01*
Y223644D01*
X186540D01*
G37*
G54D145*X187378Y225346D03*
Y227886D03*
Y230426D03*
X186947Y289395D03*
Y291935D03*
Y294475D03*
G54D146*G36*
X186174Y300911D02*Y299235D01*
X187851D01*
Y300911D01*
X186174D01*
G37*
G54D145*X187013Y302613D03*
Y305153D03*
Y307693D03*
G54D146*G36*
X186200Y313306D02*Y311630D01*
X187876D01*
Y313306D01*
X186200D01*
G37*
G54D145*X187038Y315008D03*
Y317548D03*
Y320088D03*
G54D146*G36*
X186075Y326024D02*Y324348D01*
X187752D01*
Y326024D01*
X186075D01*
G37*
G54D145*X186914Y327726D03*
Y330266D03*
Y332806D03*
G54D146*G36*
X186129Y339019D02*Y337342D01*
X187805D01*
Y339019D01*
X186129D01*
G37*
G54D145*X186967Y340721D03*
Y343261D03*
Y345801D03*
G54D146*G36*
X146355Y360601D02*Y358925D01*
X148032D01*
Y360601D01*
X146355D01*
G37*
G54D145*X147193Y362303D03*
X149733Y359763D03*
Y362303D03*
X152273Y359763D03*
Y362303D03*
X154813Y359763D03*
Y362303D03*
X157353D03*
X159893D03*
X157353Y359763D03*
X159893D03*
X162433D03*
X164973D03*
X167513D03*
X170053D03*
X162433Y362303D03*
X164973D03*
X167513D03*
X170053D03*
X172593Y359763D03*
Y362303D03*
X175133D03*
X177673D03*
X175133Y359763D03*
X177673D03*
G54D146*G36*
X186533Y248803D02*Y247127D01*
X188209D01*
Y248803D01*
X186533D01*
G37*
G54D145*X187371Y250505D03*
Y253045D03*
Y255585D03*
G54D146*G36*
X186276Y261600D02*Y259923D01*
X187952D01*
Y261600D01*
X186276D01*
G37*
G36*
X186533Y236139D02*Y234462D01*
X188209D01*
Y236139D01*
X186533D01*
G37*
G54D145*X187371Y237841D03*
Y240381D03*
Y242921D03*
G54D146*G36*
X142941Y243279D02*Y241602D01*
X144617D01*
Y243279D01*
X142941D01*
G37*
G54D145*X143779Y244980D03*
X146319Y242440D03*
Y244980D03*
X148859Y242440D03*
X151399D03*
Y244980D03*
X148859D03*
G54D146*G36*
X43655Y245819D02*Y243888D01*
X45585D01*
Y245819D01*
X43655D01*
G37*
G36*
X96169Y243291D02*Y241615D01*
X97846D01*
Y243291D01*
X96169D01*
G37*
G54D145*X99548Y242453D03*
X102088D03*
X104628D03*
X107168D03*
G54D147*X44620Y242313D03*
Y239773D03*
Y237233D03*
G54D146*G36*
X43635Y282824D02*Y280894D01*
X45565D01*
Y282824D01*
X43635D01*
G37*
G54D147*X44600Y279319D03*
Y276779D03*
Y274239D03*
G54D146*G36*
X43668Y271267D02*Y269337D01*
X45598D01*
Y271267D01*
X43668D01*
G37*
G54D147*X44633Y267762D03*
Y265222D03*
Y262682D03*
G54D146*G36*
X43698Y259039D02*Y257109D01*
X45629D01*
Y259039D01*
X43698D01*
G37*
G54D147*X44663Y255534D03*
Y252994D03*
Y250454D03*
G54D146*G36*
X73602Y334467D02*Y332791D01*
X75278D01*
Y334467D01*
X73602D01*
G37*
G54D145*X71900Y333629D03*
G54D146*G36*
X73596Y336989D02*Y335313D01*
X75273D01*
Y336989D01*
X73596D01*
G37*
G54D145*X71895Y336151D03*
G54D146*G36*
X73622Y328666D02*Y326989D01*
X75298D01*
Y328666D01*
X73622D01*
G37*
G54D145*X71920Y327828D03*
G54D146*G36*
X73622Y331203D02*Y329527D01*
X75298D01*
Y331203D01*
X73622D01*
G37*
G54D145*X71920Y330365D03*
G54D146*G36*
X67437Y323390D02*Y321714D01*
X69113D01*
Y323390D01*
X67437D01*
G37*
G36*
X67440Y325946D02*Y324269D01*
X69116D01*
Y325946D01*
X67440D01*
G37*
G36*
X67422Y317447D02*Y315770D01*
X69098D01*
Y317447D01*
X67422D01*
G37*
G36*
X67419Y319997D02*Y318320D01*
X69096D01*
Y319997D01*
X67419D01*
G37*
G54D145*X65735Y322552D03*
X65738Y325107D03*
X65720Y316608D03*
X65717Y319159D03*
G54D146*G36*
X79931Y354749D02*Y353073D01*
X81608D01*
Y354749D01*
X79931D01*
G37*
G36*
X82474Y354747D02*Y353070D01*
X84150D01*
Y354747D01*
X82474D01*
G37*
G54D145*X80769Y351371D03*
X83312Y351368D03*
G54D146*G36*
X99954Y352316D02*Y350639D01*
X101630D01*
Y352316D01*
X99954D01*
G37*
G54D145*X98252Y351478D03*
G54D146*G36*
X51574Y346007D02*Y343410D01*
X54171D01*
Y346007D01*
X51574D01*
G37*
G54D148*X52873Y339628D03*
Y334548D03*
Y329468D03*
G54D146*G36*
X99959Y354853D02*Y353177D01*
X101636D01*
Y354853D01*
X99959D01*
G37*
G54D145*X98257Y354015D03*
G54D146*G36*
X91737Y360586D02*Y358910D01*
X93414D01*
Y360586D01*
X91737D01*
G37*
G54D145*X92576Y362288D03*
X95116Y359748D03*
Y362288D03*
X97656Y359748D03*
Y362288D03*
X100196Y359748D03*
X102736D03*
X105276D03*
X100196Y362288D03*
X102736D03*
X105276D03*
X107816D03*
X110356D03*
X112896D03*
X107816Y359748D03*
X110356D03*
X112896D03*
X115436Y362288D03*
X117976D03*
X120516D03*
X115436Y359748D03*
X117976D03*
X120516D03*
X123056D03*
Y362288D03*
G54D149*X188275Y354678D02*Y354228D01*
X187325Y354678D02*Y354228D01*
X186375Y354678D02*Y354228D01*
Y357378D02*Y356928D01*
X188275Y357378D02*Y356928D01*
G54D150*X190246Y361439D02*Y361287D01*
X188265Y361439D02*Y361287D01*
X189255Y363522D02*Y363370D01*
G54D151*X185208Y350883D02*X185408D01*
X185208Y352683D02*X185408D01*
X185285Y362947D02*X185484D01*
X185285Y361147D02*X185484D01*
X130787Y346019D02*Y345419D01*
X127787Y346019D02*Y345419D01*
X130787Y343149D02*Y342549D01*
X127838Y348080D02*Y347880D01*
X129638Y348080D02*Y347880D01*
X129613Y350137D02*Y349938D01*
X127813Y350137D02*Y349938D01*
X107596Y351685D02*X107796D01*
X107596Y349885D02*X107796D01*
X104878Y342438D02*Y341838D01*
Y345359D02*Y344759D01*
X104902Y347699D02*Y347499D01*
Y349985D02*Y349785D01*
X103102Y347699D02*Y347499D01*
Y349985D02*Y349785D01*
X119645Y350112D02*Y349912D01*
X117845Y350112D02*Y349912D01*
Y348207D02*Y348007D01*
X119645Y348207D02*Y348007D01*
X115216Y349990D02*X115416D01*
X115216Y351790D02*X115416D01*
X115546Y346248D02*Y345648D01*
X120880Y346248D02*Y345648D01*
X117880Y346248D02*Y345648D01*
X127787Y343149D02*Y342549D01*
X125529Y349990D02*X125728D01*
X125529Y351790D02*X125728D01*
X149633D02*X149833D01*
X149633Y349990D02*X149833D01*
X146761Y343149D02*Y342549D01*
X143761Y343149D02*Y342549D01*
Y345816D02*Y345216D01*
X146761Y345816D02*Y345216D01*
X146707Y347927D02*Y347728D01*
X146736Y350112D02*Y349912D01*
X144907Y347927D02*Y347728D01*
X144936Y350112D02*Y349912D01*
X154581Y347902D02*Y347702D01*
X152781Y347902D02*Y347702D01*
X155727Y343683D02*Y343083D01*
X152728Y343683D02*Y343083D01*
X152781Y345870D02*Y345670D01*
X154581Y345870D02*Y345670D01*
X152716Y351736D02*X152916D01*
X152716Y349936D02*X152916D01*
X154663Y336850D02*Y336250D01*
X158115Y336523D02*Y336323D01*
X152756Y340965D02*Y340365D01*
X155755Y340965D02*Y340365D01*
X154638Y334386D02*Y333786D01*
X151638Y334386D02*Y333786D01*
X151663Y336850D02*Y336250D01*
X159915Y336523D02*Y336323D01*
X159666Y334289D02*X159866D01*
X161720D02*X161920D01*
X113077Y343503D02*Y343303D01*
X114877Y343503D02*Y343303D01*
X112546Y346248D02*Y345648D01*
X127898Y331661D02*Y331462D01*
X126098Y331661D02*Y331462D01*
X126139Y329149D02*Y328950D01*
X124339Y329149D02*Y328950D01*
X119927Y329182D02*Y328983D01*
X121727Y329182D02*Y328983D01*
X131393Y331697D02*Y331497D01*
X133193Y331697D02*Y331497D01*
X109435Y331432D02*X109635D01*
X109435Y333232D02*X109635D01*
X107482Y331432D02*X107682D01*
X107482Y333232D02*X107682D01*
X105226Y332006D02*X105426D01*
X105226Y333806D02*X105426D01*
X154635Y330300D02*Y330100D01*
X152835Y330300D02*Y330100D01*
X152857Y332256D02*Y332056D01*
X154657Y332256D02*Y332056D01*
X152857Y328496D02*Y328297D01*
X154657Y328496D02*Y328297D01*
X163832Y328934D02*X164031D01*
X159666Y328854D02*X159866D01*
X163832Y330733D02*X164031D01*
X159666Y330654D02*X159866D01*
X142625Y331494D02*Y331294D01*
X144424Y331494D02*Y331294D01*
X159666Y332490D02*X159866D01*
X161720D02*X161920D01*
X137114Y344649D02*X137313D01*
X137114Y342849D02*X137313D01*
X136939Y327160D02*X137139D01*
X139334Y334905D02*Y334705D01*
X137534Y334905D02*Y334705D01*
X136823Y329337D02*Y329138D01*
X138623Y329337D02*Y329138D01*
X64937Y276093D02*X65137D01*
X64937Y274293D02*X65137D01*
X62884Y300554D02*Y300354D01*
X64684Y300554D02*Y300354D01*
X62902Y298801D02*Y298602D01*
X64701Y298801D02*Y298602D01*
X63659Y269545D02*X63859D01*
X85318Y250736D02*X85517D01*
X85318Y252536D02*X85517D01*
X87352Y250735D02*X87552D01*
X87352Y252534D02*X87552D01*
X77713Y250731D02*X77913D01*
X77713Y252531D02*X77913D01*
X63659Y267745D02*X63859D01*
X61338Y260655D02*X61537D01*
X61338Y262455D02*X61537D01*
X55031Y255164D02*X55231D01*
X55031Y253364D02*X55231D01*
X71249Y267693D02*X71448D01*
X68782Y267712D02*X68982D01*
X66202Y267727D02*X66401D01*
X84225Y298644D02*Y298444D01*
X82425Y298644D02*Y298444D01*
X92580Y298247D02*X92779D01*
X92580Y296447D02*X92779D01*
X94492Y298227D02*X94692D01*
X94492Y296427D02*X94692D01*
X71249Y269493D02*X71448D01*
X68782Y269512D02*X68982D01*
X66202Y269527D02*X66401D01*
X75224Y274921D02*X75424D01*
X78610Y276103D02*X78809D01*
X78610Y274304D02*X78809D01*
X75224Y273121D02*X75424D01*
X84932Y267605D02*X85131D01*
X82422Y267620D02*X82622D01*
X79896Y267668D02*X80096D01*
X77360Y267669D02*X77560D01*
X84932Y269405D02*X85131D01*
X82422Y269420D02*X82622D01*
X79896Y269468D02*X80096D01*
X77360Y269469D02*X77560D01*
X76066Y298563D02*Y298363D01*
X77866Y298563D02*Y298363D01*
G54D152*X75695Y295976D02*X77219D01*
G54D153*X84148Y293218D02*Y292608D01*
X82598Y293218D02*Y292608D01*
X81049Y293218D02*Y292608D01*
G54D152*X81836Y296012D02*X83360D01*
G54D151*X79334Y286165D02*Y285965D01*
X77534Y286165D02*Y285965D01*
G54D153*X78006Y293182D02*Y292572D01*
X76457Y293182D02*Y292572D01*
X74907Y293182D02*Y292572D01*
G54D151*X81493Y286165D02*Y285965D01*
X83293Y286165D02*Y285965D01*
X70017Y276093D02*X70217D01*
X70017Y274293D02*X70217D01*
X72572Y276077D02*X72772D01*
X72572Y274277D02*X72772D01*
X67477Y276093D02*X67677D01*
X67477Y274293D02*X67677D01*
X89108Y275556D02*X89307D01*
X86230Y276103D02*X86429D01*
X86230Y274304D02*X86429D01*
X89108Y273756D02*X89307D01*
X97251Y265674D02*X97450D01*
X97251Y267474D02*X97450D01*
X95427Y265682D02*X95627D01*
X95427Y267482D02*X95627D01*
X99433Y265680D02*X99632D01*
X99433Y267480D02*X99632D01*
X104642Y266218D02*X104842D01*
X106644Y266211D02*X106843D01*
X104642Y268018D02*X104842D01*
X106644Y268011D02*X106843D01*
X90888Y264402D02*X91088D01*
X90888Y266202D02*X91088D01*
X90868Y270838D02*X91067D01*
X90868Y269038D02*X91067D01*
X90880Y260620D02*X91080D01*
X90880Y262420D02*X91080D01*
X83690Y276103D02*X83889D01*
X83690Y274304D02*X83889D01*
X81150Y276103D02*X81349D01*
X81150Y274304D02*X81349D01*
X89562Y319935D02*X89762D01*
X89562Y318135D02*X89762D01*
X82211Y332246D02*X82411D01*
X80459Y332253D02*X80658D01*
X78666Y332271D02*X78865D01*
X82211Y334046D02*X82411D01*
X80459Y334053D02*X80658D01*
X78666Y334071D02*X78865D01*
X76882Y334068D02*X77082D01*
X76882Y332269D02*X77082D01*
X76560Y325511D02*X76760D01*
X76560Y327311D02*X76760D01*
X81676Y327658D02*Y327459D01*
X79876Y327658D02*Y327459D01*
X81676Y325847D02*Y325648D01*
X79876Y325847D02*Y325648D01*
X81656Y324016D02*Y323816D01*
X79856Y324016D02*Y323816D01*
X81642Y322309D02*Y322109D01*
X81636Y320564D02*Y320364D01*
X81625Y318875D02*Y318675D01*
X79842Y322309D02*Y322109D01*
X79836Y320564D02*Y320364D01*
X79826Y318875D02*Y318675D01*
X83983Y332251D02*X84182D01*
X89207Y332200D02*X89406D01*
X87462Y332197D02*X87661D01*
X85760Y332233D02*X85959D01*
X83983Y334051D02*X84182D01*
X89207Y334000D02*X89406D01*
X87462Y333997D02*X87661D01*
X85760Y334033D02*X85959D01*
X62902Y311019D02*Y310819D01*
X64701Y311019D02*Y310819D01*
X62886Y309297D02*Y309097D01*
X64686Y309297D02*Y309097D01*
X62885Y307536D02*Y307337D01*
X64685Y307536D02*Y307337D01*
X62883Y305794D02*Y305594D01*
X64683Y305794D02*Y305594D01*
X62900Y304026D02*Y303826D01*
X64700Y304026D02*Y303826D01*
X62901Y302273D02*Y302074D01*
X64700Y302273D02*Y302074D01*
X58801Y344651D02*Y344451D01*
X60601Y344651D02*Y344451D01*
X58757Y339571D02*Y339371D01*
X60557Y339571D02*Y339371D01*
X58733Y334618D02*Y334418D01*
X60533Y334618D02*Y334418D01*
X79275Y341249D02*X79475D01*
X72798Y338676D02*X72998D01*
X72798Y340476D02*X72998D01*
G54D154*X82931Y340741D02*X83185D01*
G54D151*X79275Y343049D02*X79475D01*
G54D154*X82931Y343027D02*X83185D01*
G54D151*X101472Y329380D02*X101672D01*
X101472Y327580D02*X101672D01*
X99800Y322680D02*Y322480D01*
G54D155*X83984Y313177D02*X84034D01*
X86233D02*X86283D01*
G54D151*X81317Y315030D02*X81517D01*
X81317Y313230D02*X81517D01*
X79572Y314105D02*Y313905D01*
X77772Y314105D02*Y313905D01*
X81624Y317209D02*Y317009D01*
X79824Y317209D02*Y317009D01*
G54D155*X83984Y315717D02*X84034D01*
X86233D02*X86283D01*
G54D151*X69882Y313045D02*X70082D01*
X69882Y311245D02*X70082D01*
X101878Y342438D02*Y341838D01*
Y345359D02*Y344759D01*
X96826Y345359D02*Y344759D01*
X96853Y342540D02*Y341940D01*
X91673Y336664D02*X91873D01*
X91673Y334864D02*X91873D01*
X93959Y333197D02*X94159D01*
X99504Y331387D02*X99703D01*
X99504Y333187D02*X99703D01*
X97642Y331409D02*X97842D01*
X97642Y333209D02*X97842D01*
X95795Y331374D02*X95995D01*
X95795Y333174D02*X95995D01*
X93959Y331397D02*X94159D01*
X101465Y331377D02*X101664D01*
X101465Y333177D02*X101664D01*
X93842Y347699D02*Y347499D01*
X93853Y349985D02*Y349785D01*
X93826Y345359D02*Y344759D01*
X93853Y342540D02*Y341940D01*
X95642Y347699D02*Y347499D01*
X95653Y349985D02*Y349785D01*
X90324Y351663D02*X90524D01*
X90324Y349863D02*X90524D01*
X118480Y310831D02*X118680D01*
X118480Y312631D02*X118680D01*
G54D155*X117844Y315725D02*X117894D01*
G54D151*X117756Y323088D02*X117956D01*
X117756Y321288D02*X117956D01*
G54D155*X117844Y318265D02*X117894D01*
G54D151*X119865Y326241D02*Y326041D01*
G54D155*X120093Y318265D02*X120143D01*
X120093Y315725D02*X120143D01*
G54D151*X121665Y326241D02*Y326041D01*
X107420Y320267D02*Y320067D01*
X98066Y320267D02*Y320067D01*
X96266Y320267D02*Y320067D01*
X98000Y322680D02*Y322480D01*
X105421Y322680D02*Y322480D01*
X103621Y322680D02*Y322480D01*
X96382Y315314D02*Y315114D01*
X96244Y312266D02*Y312066D01*
X103024Y310388D02*X103224D01*
X103024Y308588D02*X103224D01*
X96255Y308075D02*Y307875D01*
X98055Y308075D02*Y307875D01*
X106961Y310399D02*X107161D01*
X106961Y308599D02*X107161D01*
X110136Y309604D02*X110336D01*
X110136Y311404D02*X110336D01*
X109220Y320267D02*Y320067D01*
X108944Y322553D02*Y322353D01*
X105243Y315324D02*Y315124D01*
X107043Y315324D02*Y315124D01*
X98182Y315314D02*Y315114D01*
X98044Y312266D02*Y312066D01*
X110744Y322553D02*Y322353D01*
X88011Y309853D02*Y309653D01*
X86211Y309853D02*Y309653D01*
X129034Y306527D02*X129233D01*
X129034Y308327D02*X129233D01*
X129034Y315138D02*X129233D01*
X129034Y313338D02*X129233D01*
X139067Y313262D02*X139266D01*
X139067Y315062D02*X139266D01*
X139067Y309778D02*X139266D01*
X139067Y307979D02*X139266D01*
X142777Y309243D02*Y309044D01*
X144577Y309243D02*Y309044D01*
X159995Y324559D02*Y324360D01*
X161794Y324559D02*Y324360D01*
X161698Y322682D02*X161898D01*
X159692Y319278D02*X159891D01*
X159692Y317478D02*X159891D01*
X161698Y320882D02*X161898D01*
X163857Y317123D02*X164057D01*
X163857Y318922D02*X164057D01*
X159692Y320878D02*X159891D01*
X159692Y322678D02*X159891D01*
X160024Y313790D02*Y313590D01*
X161823Y313790D02*Y313590D01*
X161724Y311836D02*X161923D01*
X161724Y310036D02*X161923D01*
X159692Y310058D02*X159891D01*
X159692Y311858D02*X159891D01*
X163832Y306023D02*X164031D01*
X163832Y307823D02*X164031D01*
X159692Y308178D02*X159891D01*
X159692Y306378D02*X159891D01*
X159998Y302360D02*Y302160D01*
X161798Y302360D02*Y302160D01*
X123471Y316495D02*X123671D01*
X123471Y318295D02*X123671D01*
X144492Y321779D02*X144692D01*
X144492Y319979D02*X144692D01*
X132051Y324692D02*Y324492D01*
X133850Y324692D02*Y324492D01*
X136939Y325360D02*X137139D01*
X124325Y324311D02*Y324111D01*
X126125Y324311D02*Y324111D01*
X124338Y326254D02*Y326054D01*
X126138Y326254D02*Y326054D01*
X145012Y285748D02*Y285549D01*
X145063Y273455D02*Y273255D01*
X142777Y298042D02*Y297842D01*
X144577Y298042D02*Y297842D01*
X146812Y285748D02*Y285549D01*
X152574Y255680D02*Y255480D01*
X154374Y255680D02*Y255480D01*
X146863Y273455D02*Y273255D01*
X144617Y256805D02*Y256605D01*
X146417Y256805D02*Y256605D01*
X160034Y290701D02*Y290502D01*
X161834Y290701D02*Y290502D01*
X159717Y284175D02*X159917D01*
X159717Y282375D02*X159917D01*
X159717Y286541D02*X159917D01*
X161724Y286552D02*X161923D01*
X159717Y288341D02*X159917D01*
X161724Y288352D02*X161923D01*
X163806Y282401D02*X164006D01*
X163806Y284201D02*X164006D01*
X160024Y278687D02*Y278487D01*
X159793Y276682D02*X159993D01*
X159793Y274882D02*X159993D01*
X159793Y272821D02*X159993D01*
X159793Y271022D02*X159993D01*
X161724Y274857D02*X161923D01*
X163781Y271072D02*X163981D01*
X163781Y272872D02*X163981D01*
X159717Y298606D02*X159917D01*
X159717Y296875D02*X159917D01*
X159717Y300406D02*X159917D01*
X161724D02*X161923D01*
X161724Y298606D02*X161923D01*
X163806Y294644D02*X164006D01*
X163806Y296443D02*X164006D01*
X159717Y295075D02*X159917D01*
X161823Y278687D02*Y278487D01*
X161724Y276657D02*X161923D01*
X156261Y247822D02*X156460D01*
X156261Y249622D02*X156460D01*
X156786Y241834D02*X156985D01*
X156786Y243634D02*X156985D01*
X156558Y232010D02*X156757D01*
X156558Y233810D02*X156757D01*
X123904Y267084D02*Y266885D01*
X125704Y267084D02*Y266885D01*
X123928Y262882D02*X124128D01*
X123928Y264682D02*X124128D01*
X124369Y261067D02*Y260867D01*
X126168Y261067D02*Y260867D01*
X123210Y291407D02*Y291208D01*
X125010Y291407D02*Y291208D01*
X123108Y269433D02*X123308D01*
X123243Y281904D02*X123442D01*
X123243Y283704D02*X123442D01*
X123331Y279708D02*Y279508D01*
X125131Y279708D02*Y279508D01*
X123354Y273142D02*Y272943D01*
X125153Y273142D02*Y272943D01*
X123108Y271233D02*X123308D01*
X123283Y275847D02*X123483D01*
X123283Y277646D02*X123483D01*
X123303Y285512D02*Y285312D01*
X125103Y285512D02*Y285312D01*
X123029Y287617D02*X123229D01*
X123029Y289417D02*X123229D01*
X132368Y248433D02*Y248233D01*
X132738Y254430D02*Y254230D01*
X134325Y250231D02*X134524D01*
X134325Y252031D02*X134524D01*
X122381Y248166D02*Y247967D01*
X124181Y248166D02*Y247967D01*
X123972Y244376D02*X124171D01*
X123972Y246176D02*X124171D01*
X122492Y254758D02*Y254558D01*
X124292Y254758D02*Y254558D01*
X124035Y250998D02*X124235D01*
X124035Y252798D02*X124235D01*
X134168Y248433D02*Y248233D01*
X134810Y243606D02*X135009D01*
X134810Y245406D02*X135009D01*
X134538Y254430D02*Y254230D01*
X140052Y257380D02*X140252D01*
X140052Y255580D02*X140252D01*
X124274Y257297D02*X124473D01*
X124274Y259097D02*X124473D01*
M02*
