G04 start of page 8 for group -4063 idx -4063 *
G04 Title: (unknown), componentmask *
G04 Creator: pcb 20140316 *
G04 CreationDate: Thu 01 Jun 2017 04:27:31 PM GMT UTC *
G04 For: sumit *
G04 Format: Gerber/RS-274X *
G04 PCB-Dimensions (mm): 381.00 381.00 *
G04 PCB-Coordinate-Origin: lower left *
%MOMM*%
%FSLAX43Y43*%
%LNTOPMASK*%
%ADD143R,0.552X0.552*%
%ADD142R,1.500X1.500*%
%ADD141R,1.245X1.245*%
%ADD140R,0.900X0.900*%
%ADD139R,0.356X0.356*%
%ADD138R,3.250X3.250*%
%ADD137R,1.702X1.702*%
%ADD136R,1.016X1.016*%
%ADD135R,0.710X0.710*%
%ADD134R,0.584X0.584*%
%ADD133R,0.855X0.855*%
%ADD132R,0.762X0.762*%
%ADD131R,1.562X1.562*%
%ADD130R,1.452X1.452*%
%ADD129R,1.340X1.340*%
%ADD128C,2.997*%
%ADD127C,1.930*%
%ADD126C,0.002*%
%ADD125C,1.676*%
%ADD124C,0.254*%
G54D124*X192943Y219707D02*Y369791D01*
X192824Y369910D01*
X40488D01*
X40389Y219781D02*X40564Y219606D01*
X192781D01*
X192783Y219608D01*
X192842Y219606D02*X192943Y219707D01*
X40488Y369910D02*X40348Y369771D01*
Y219822D01*
X40419Y219751D01*
G54D125*X83185Y304165D03*
Y301625D03*
X80645Y304165D03*
Y301625D03*
G54D126*G36*
X87427Y305003D02*Y303327D01*
X89103D01*
Y305003D01*
X87427D01*
G37*
G54D125*X88265Y301625D03*
X85725Y304165D03*
Y301625D03*
X78105Y304165D03*
Y301625D03*
G54D126*G36*
X73000Y289479D02*Y287548D01*
X74930D01*
Y289479D01*
X73000D01*
G37*
G54D127*X76505Y288514D03*
X79045D03*
X81585D03*
G54D125*X187114Y263301D03*
Y265841D03*
Y268381D03*
G54D126*G36*
X186083Y274757D02*Y273080D01*
X187759D01*
Y274757D01*
X186083D01*
G37*
G54D125*X186921Y276459D03*
Y278999D03*
Y281539D03*
G54D126*G36*
X186108Y287693D02*Y286017D01*
X187785D01*
Y287693D01*
X186108D01*
G37*
G36*
X130178Y292806D02*Y291130D01*
X131854D01*
Y292806D01*
X130178D01*
G37*
G54D125*X133556Y291968D03*
Y289428D03*
Y286888D03*
X131016Y289428D03*
Y286888D03*
Y284348D03*
Y281808D03*
Y279268D03*
Y276728D03*
X133556Y284348D03*
Y281808D03*
Y279268D03*
Y276728D03*
X131016Y274188D03*
Y271648D03*
Y269108D03*
X133556Y274188D03*
Y271648D03*
Y269108D03*
G54D126*G36*
X93429Y228242D02*Y226565D01*
X95105D01*
Y228242D01*
X93429D01*
G37*
G54D125*X91727Y227404D03*
X89187D03*
X94267Y224864D03*
X91727D03*
X89187D03*
X86647D03*
X84107D03*
X81567D03*
X86647Y227404D03*
X84107D03*
X81567D03*
X79027D03*
G54D126*G36*
X97904Y225664D02*Y223733D01*
X99835D01*
Y225664D01*
X97904D01*
G37*
G54D127*X101410Y224699D03*
X103950D03*
X106490D03*
G54D125*X79027Y224864D03*
X76487Y227404D03*
X73947D03*
X71407D03*
X76487Y224864D03*
X73947D03*
X71407D03*
X68867D03*
X66327D03*
X63787D03*
X68867Y227404D03*
X66327D03*
X63787D03*
X61247D03*
G54D126*G36*
X124257Y225692D02*Y223761D01*
X126187D01*
Y225692D01*
X124257D01*
G37*
G36*
X110914Y225704D02*Y223774D01*
X112845D01*
Y225704D01*
X110914D01*
G37*
G54D127*X114419Y224739D03*
X116959D03*
X119499D03*
X127762Y224726D03*
X130302D03*
X132842D03*
G54D126*G36*
X139286Y225722D02*Y223792D01*
X141216D01*
Y225722D01*
X139286D01*
G37*
G54D127*X142791Y224757D03*
X145331D03*
X147871D03*
G54D125*X61247Y224864D03*
X58707D03*
X56167D03*
X53627D03*
X51087D03*
X58707Y227404D03*
X56167D03*
X53627D03*
X51087D03*
G54D126*G36*
X43571Y233713D02*Y231783D01*
X45502D01*
Y233713D01*
X43571D01*
G37*
G54D127*X44536Y230208D03*
Y227668D03*
Y225128D03*
G54D126*G36*
X152824Y225715D02*Y223784D01*
X154755D01*
Y225715D01*
X152824D01*
G37*
G54D127*X156329Y224749D03*
X158869D03*
X161409D03*
G54D126*G36*
X186540Y223644D02*Y221968D01*
X188217D01*
Y223644D01*
X186540D01*
G37*
G54D125*X187378Y225346D03*
Y227886D03*
Y230426D03*
X186947Y289395D03*
Y291935D03*
Y294475D03*
G54D126*G36*
X186174Y300911D02*Y299235D01*
X187851D01*
Y300911D01*
X186174D01*
G37*
G54D125*X187013Y302613D03*
Y305153D03*
Y307693D03*
G54D126*G36*
X186200Y313306D02*Y311630D01*
X187876D01*
Y313306D01*
X186200D01*
G37*
G54D125*X187038Y315008D03*
Y317548D03*
Y320088D03*
G54D126*G36*
X186075Y326024D02*Y324348D01*
X187752D01*
Y326024D01*
X186075D01*
G37*
G54D125*X186914Y327726D03*
Y330266D03*
Y332806D03*
G54D126*G36*
X186129Y339019D02*Y337342D01*
X187805D01*
Y339019D01*
X186129D01*
G37*
G54D125*X186967Y340721D03*
Y343261D03*
Y345801D03*
G54D126*G36*
X146355Y360601D02*Y358925D01*
X148032D01*
Y360601D01*
X146355D01*
G37*
G54D125*X147193Y362303D03*
X149733Y359763D03*
Y362303D03*
X152273Y359763D03*
Y362303D03*
X154813Y359763D03*
Y362303D03*
X157353D03*
X159893D03*
X157353Y359763D03*
X159893D03*
X162433D03*
X164973D03*
X167513D03*
X170053D03*
X162433Y362303D03*
X164973D03*
X167513D03*
X170053D03*
X172593Y359763D03*
Y362303D03*
X175133D03*
X177673D03*
X175133Y359763D03*
X177673D03*
G54D126*G36*
X186533Y248803D02*Y247127D01*
X188209D01*
Y248803D01*
X186533D01*
G37*
G54D125*X187371Y250505D03*
Y253045D03*
Y255585D03*
G54D126*G36*
X186276Y261600D02*Y259923D01*
X187952D01*
Y261600D01*
X186276D01*
G37*
G36*
X186533Y236139D02*Y234462D01*
X188209D01*
Y236139D01*
X186533D01*
G37*
G54D125*X187371Y237841D03*
Y240381D03*
Y242921D03*
G54D126*G36*
X142941Y243279D02*Y241602D01*
X144617D01*
Y243279D01*
X142941D01*
G37*
G54D125*X143779Y244980D03*
X146319Y242440D03*
Y244980D03*
X148859Y242440D03*
X151399D03*
Y244980D03*
X148859D03*
G54D126*G36*
X43655Y245819D02*Y243888D01*
X45585D01*
Y245819D01*
X43655D01*
G37*
G36*
X96169Y243291D02*Y241615D01*
X97846D01*
Y243291D01*
X96169D01*
G37*
G54D125*X99548Y242453D03*
X102088D03*
X104628D03*
X107168D03*
G54D127*X44620Y242313D03*
Y239773D03*
Y237233D03*
G54D126*G36*
X43635Y282824D02*Y280894D01*
X45565D01*
Y282824D01*
X43635D01*
G37*
G54D127*X44600Y279319D03*
Y276779D03*
Y274239D03*
G54D126*G36*
X43668Y271267D02*Y269337D01*
X45598D01*
Y271267D01*
X43668D01*
G37*
G54D127*X44633Y267762D03*
Y265222D03*
Y262682D03*
G54D126*G36*
X43698Y259039D02*Y257109D01*
X45629D01*
Y259039D01*
X43698D01*
G37*
G54D127*X44663Y255534D03*
Y252994D03*
Y250454D03*
G54D126*G36*
X73602Y334467D02*Y332791D01*
X75278D01*
Y334467D01*
X73602D01*
G37*
G54D125*X71900Y333629D03*
G54D126*G36*
X73596Y336989D02*Y335313D01*
X75273D01*
Y336989D01*
X73596D01*
G37*
G54D125*X71895Y336151D03*
G54D126*G36*
X73622Y328666D02*Y326989D01*
X75298D01*
Y328666D01*
X73622D01*
G37*
G54D125*X71920Y327828D03*
G54D126*G36*
X73622Y331203D02*Y329527D01*
X75298D01*
Y331203D01*
X73622D01*
G37*
G54D125*X71920Y330365D03*
G54D126*G36*
X67437Y323390D02*Y321714D01*
X69113D01*
Y323390D01*
X67437D01*
G37*
G36*
X67440Y325946D02*Y324269D01*
X69116D01*
Y325946D01*
X67440D01*
G37*
G36*
X67422Y317447D02*Y315770D01*
X69098D01*
Y317447D01*
X67422D01*
G37*
G36*
X67419Y319997D02*Y318320D01*
X69096D01*
Y319997D01*
X67419D01*
G37*
G54D125*X65735Y322552D03*
X65738Y325107D03*
X65720Y316608D03*
X65717Y319159D03*
G54D126*G36*
X79931Y354749D02*Y353073D01*
X81608D01*
Y354749D01*
X79931D01*
G37*
G36*
X82474Y354747D02*Y353070D01*
X84150D01*
Y354747D01*
X82474D01*
G37*
G54D125*X80769Y351371D03*
X83312Y351368D03*
G54D126*G36*
X99954Y352316D02*Y350639D01*
X101630D01*
Y352316D01*
X99954D01*
G37*
G54D125*X98252Y351478D03*
G54D126*G36*
X51574Y346007D02*Y343410D01*
X54171D01*
Y346007D01*
X51574D01*
G37*
G54D128*X52873Y339628D03*
Y334548D03*
Y329468D03*
G54D126*G36*
X99959Y354853D02*Y353177D01*
X101636D01*
Y354853D01*
X99959D01*
G37*
G54D125*X98257Y354015D03*
G54D126*G36*
X91737Y360586D02*Y358910D01*
X93414D01*
Y360586D01*
X91737D01*
G37*
G54D125*X92576Y362288D03*
X95116Y359748D03*
Y362288D03*
X97656Y359748D03*
Y362288D03*
X100196Y359748D03*
X102736D03*
X105276D03*
X100196Y362288D03*
X102736D03*
X105276D03*
X107816D03*
X110356D03*
X112896D03*
X107816Y359748D03*
X110356D03*
X112896D03*
X115436Y362288D03*
X117976D03*
X120516D03*
X115436Y359748D03*
X117976D03*
X120516D03*
X123056D03*
Y362288D03*
G54D129*X167918Y351663D02*X169218D01*
X176527D02*X177827D01*
X167918Y349123D02*X169218D01*
X176527D02*X177827D01*
X167918Y346583D02*X169218D01*
X176527D02*X177827D01*
X167918Y344043D02*X169218D01*
X167918Y341503D02*X169218D01*
X167918Y338963D02*X169218D01*
X176527Y344043D02*X177827D01*
X176527Y341503D02*X177827D01*
X176527Y338963D02*X177827D01*
G54D130*X181421Y327774D02*X181621D01*
X181546Y338916D02*X181745D01*
X181546Y340716D02*X181745D01*
G54D131*X187174Y350761D02*X188374D01*
X190174D02*X191374D01*
G54D132*X130683Y338328D02*X132334D01*
X130683Y339598D02*X132334D01*
X130683Y340868D02*X132334D01*
X130683Y342138D02*X132334D01*
X130683Y343408D02*X132334D01*
G54D133*X103475Y340515D02*Y339115D01*
G54D132*X125476Y342138D02*X127127D01*
X125476Y340868D02*X127127D01*
X125476Y339598D02*X127127D01*
X125476Y343408D02*X127127D01*
X125476Y338328D02*X127127D01*
X125476Y337058D02*X127127D01*
G54D130*X150220Y345745D02*X150820D01*
X150220Y348745D02*X150820D01*
X147630D02*X148230D01*
X147630Y345745D02*X148230D01*
X153164Y347570D02*X153363D01*
X157126Y347548D02*X157326D01*
X153164Y345770D02*X153363D01*
X157126Y345748D02*X157326D01*
X157198Y350046D02*Y349846D01*
X155398Y350046D02*Y349846D01*
G54D132*X153463Y333955D02*X155114D01*
G54D130*X159666Y334289D02*X159866D01*
X161720D02*X161920D01*
G54D132*X110871Y343408D02*X112522D01*
X110871Y342138D02*X112522D01*
X110871Y340868D02*X112522D01*
X110871Y339598D02*X112522D01*
X110871Y338328D02*X112522D01*
X116078D02*X117729D01*
X116078Y339598D02*X117729D01*
X116078Y340868D02*X117729D01*
X116078Y342138D02*X117729D01*
X116078Y343408D02*X117729D01*
X125476Y335788D02*X127127D01*
G54D130*X124623Y330302D02*Y330103D01*
X122823Y330302D02*Y330103D01*
X124642Y327577D02*Y327377D01*
X122842Y327577D02*Y327377D01*
X124611Y332141D02*Y331942D01*
X122812Y332141D02*Y331942D01*
G54D132*X130683Y335788D02*X132334D01*
X130683Y337058D02*X132334D01*
G54D134*X130554Y329760D02*X131724D01*
X130554Y329110D02*X131724D01*
X130554Y328460D02*X131724D01*
X130554Y327810D02*X131724D01*
X130554Y327160D02*X131724D01*
G54D132*X110871Y337058D02*X112522D01*
X110871Y335788D02*X112522D01*
X116078D02*X117729D01*
X116078Y337058D02*X117729D01*
G54D133*X103475Y331115D02*Y329715D01*
G54D132*X153463Y330145D02*X155114D01*
X153463Y331415D02*X155114D01*
X153463Y332685D02*X155114D01*
G54D130*X151587Y328090D02*Y327890D01*
X153387Y328090D02*Y327890D01*
X159666Y328854D02*X159866D01*
X159666Y330654D02*X159866D01*
G54D132*X148256Y333955D02*X149907D01*
G54D130*X143521Y334973D02*Y334774D01*
X141721Y334973D02*Y334774D01*
G54D132*X148256Y332685D02*X149907D01*
G54D130*X141710Y332789D02*Y332589D01*
X143510Y332789D02*Y332589D01*
G54D132*X148256Y331415D02*X149907D01*
X148256Y330145D02*X149907D01*
G54D130*X159666Y332490D02*X159866D01*
X161720D02*X161920D01*
X137578Y346705D02*X137778D01*
X137578Y344905D02*X137778D01*
X136125Y343192D02*X136325D01*
X136125Y341392D02*X136325D01*
X140360Y338891D02*X140559D01*
X142432Y338879D02*X142632D01*
X142432Y337079D02*X142632D01*
X138302Y338902D02*X138502D01*
X138302Y337102D02*X138502D01*
X136110Y338897D02*X136310D01*
X136110Y337097D02*X136310D01*
G54D134*X136454Y327160D02*X137624D01*
X136454Y327810D02*X137624D01*
G54D130*X140360Y337091D02*X140559D01*
X139036Y332483D02*X139236D01*
X139036Y334283D02*X139236D01*
G54D134*X136454Y328460D02*X137624D01*
X136454Y329110D02*X137624D01*
X136454Y329760D02*X137624D01*
G54D129*X50539Y279608D02*X51839D01*
X59148D02*X60449D01*
X50539Y277068D02*X51839D01*
X59148D02*X60449D01*
X50539Y274528D02*X51839D01*
X59148D02*X60449D01*
G54D133*X65049Y275133D02*Y273733D01*
X63779Y275133D02*Y273733D01*
G54D130*X45384Y295762D02*X45584D01*
X45384Y293962D02*X45584D01*
G54D131*X48222Y291762D02*Y289962D01*
Y286963D02*Y285162D01*
G54D130*X59819Y297307D02*X60018D01*
G54D133*X63973Y301125D02*X65372D01*
G54D130*X59819Y295507D02*X60018D01*
X51337Y294054D02*Y293854D01*
X53137Y294054D02*Y293854D01*
X55604Y294054D02*Y293854D01*
G54D131*X57229Y290383D02*Y288583D01*
Y285583D02*Y283783D01*
G54D130*X51359Y298778D02*Y298579D01*
X53159Y298778D02*Y298579D01*
X55550Y298804D02*Y298604D01*
X57350Y298804D02*Y298604D01*
X57404Y294054D02*Y293854D01*
G54D129*X50539Y271988D02*X51839D01*
X59148D02*X60449D01*
X59148Y269448D02*X60449D01*
X50539D02*X51839D01*
X50539Y266908D02*X51839D01*
G54D133*X87960Y251405D02*Y250005D01*
X86690Y251405D02*Y250005D01*
X85420Y251405D02*Y250005D01*
X84150Y251405D02*Y250005D01*
X82880Y251405D02*Y250005D01*
X81610Y251405D02*Y250005D01*
X80340Y251405D02*Y250005D01*
X79070Y251405D02*Y250005D01*
X77800Y251405D02*Y250005D01*
G54D130*X90022Y244814D02*X90222D01*
X90022Y246614D02*X90222D01*
G54D133*X77800Y242005D02*Y240605D01*
X79070Y242005D02*Y240605D01*
X80340Y242005D02*Y240605D01*
X81610Y242005D02*Y240605D01*
X82880Y242005D02*Y240605D01*
X84150Y242005D02*Y240605D01*
X85420Y242005D02*Y240605D01*
X86690Y242005D02*Y240605D01*
X87960Y242005D02*Y240605D01*
G54D134*X67046Y253699D02*X68216D01*
X67046Y254348D02*X68216D01*
X67046Y254998D02*X68216D01*
X67046Y255648D02*X68216D01*
X67046Y256298D02*X68216D01*
X67046Y256948D02*X68216D01*
X67046Y257598D02*X68216D01*
G54D129*X52299Y236307D02*Y235007D01*
Y244916D02*Y243616D01*
X54839Y236307D02*Y235007D01*
Y244916D02*Y243616D01*
X57379Y236307D02*Y235007D01*
Y244916D02*Y243616D01*
X59919Y236307D02*Y235007D01*
Y244916D02*Y243616D01*
X62459Y236307D02*Y235007D01*
Y244916D02*Y243616D01*
X64999Y244916D02*Y243616D01*
Y236307D02*Y235007D01*
X59148Y266908D02*X60449D01*
G54D133*X63779Y265733D02*Y264333D01*
X65049Y265733D02*Y264333D01*
X66319Y265733D02*Y264333D01*
X67589Y265733D02*Y264333D01*
X68859Y265733D02*Y264333D01*
X70129Y265733D02*Y264333D01*
X71399Y265733D02*Y264333D01*
X72669Y265733D02*Y264333D01*
X73939Y265733D02*Y264333D01*
G54D134*X61146Y257598D02*X62316D01*
X61146Y256948D02*X62316D01*
X61146Y256298D02*X62316D01*
X61146Y255648D02*X62316D01*
X61146Y254998D02*X62316D01*
X61146Y254348D02*X62316D01*
X61146Y253699D02*X62316D01*
X56307Y253686D02*X57477D01*
X50407Y257586D02*X51577D01*
X50407Y256936D02*X51577D01*
X50407Y256286D02*X51577D01*
X50407Y255636D02*X51577D01*
X50407Y254986D02*X51577D01*
X50407Y254336D02*X51577D01*
X50407Y253686D02*X51577D01*
X56307Y254336D02*X57477D01*
X56307Y254986D02*X57477D01*
X56307Y255636D02*X57477D01*
X56307Y256286D02*X57477D01*
X56307Y256936D02*X57477D01*
X56307Y257586D02*X57477D01*
G54D130*X90057Y298649D02*Y298449D01*
X90112Y296729D02*Y296529D01*
X90053Y294745D02*Y294545D01*
X90142Y292881D02*Y292681D01*
X88257Y298649D02*Y298449D01*
X88312Y296729D02*Y296529D01*
X88253Y294745D02*Y294545D01*
X88342Y292881D02*Y292681D01*
X85989Y294747D02*Y294548D01*
X86037Y292883D02*Y292683D01*
X86025Y298644D02*Y298444D01*
X84225Y298644D02*Y298444D01*
X86015Y296731D02*Y296532D01*
G54D133*X78699Y275112D02*Y273712D01*
X77429Y275112D02*Y273712D01*
X73939Y275133D02*Y273733D01*
X79969Y275112D02*Y273712D01*
G54D130*X84215Y296731D02*Y296532D01*
G54D133*X73372Y301125D02*X74772D01*
G54D130*X84189Y294747D02*Y294548D01*
X84238Y292883D02*Y292683D01*
G54D133*X68859Y275133D02*Y273733D01*
X72669Y275133D02*Y273733D01*
X71399Y275133D02*Y273733D01*
X70129Y275133D02*Y273733D01*
X67589Y275133D02*Y273733D01*
X66319Y275133D02*Y273733D01*
X87589Y275112D02*Y273712D01*
X86319Y275112D02*Y273712D01*
G54D130*X104558Y254639D02*X104758D01*
X104558Y252839D02*X104758D01*
X101960Y254624D02*X102160D01*
X101960Y252824D02*X102160D01*
X99476Y254675D02*X99675D01*
X99476Y252875D02*X99675D01*
X96913Y254695D02*X97113D01*
X96913Y252895D02*X97113D01*
G54D134*X100800Y269287D02*X101970D01*
X100800Y269937D02*X101970D01*
X100800Y270587D02*X101970D01*
X100800Y271237D02*X101970D01*
X100800Y271887D02*X101970D01*
X100800Y272537D02*X101970D01*
X100800Y273187D02*X101970D01*
X100800Y273837D02*X101970D01*
X100800Y274487D02*X101970D01*
X100800Y275137D02*X101970D01*
X94900D02*X96070D01*
X94900Y274487D02*X96070D01*
X94900Y273837D02*X96070D01*
X94900Y273187D02*X96070D01*
X94900Y272537D02*X96070D01*
X94900Y271887D02*X96070D01*
X94900Y271237D02*X96070D01*
X94900Y270587D02*X96070D01*
X94900Y269937D02*X96070D01*
X94900Y269287D02*X96070D01*
G54D133*X77429Y265712D02*Y264313D01*
X78699Y265712D02*Y264313D01*
X79969Y265712D02*Y264313D01*
X81239Y265712D02*Y264313D01*
X82509Y265712D02*Y264313D01*
X83779Y265712D02*Y264313D01*
X85049Y265712D02*Y264313D01*
X86319Y265712D02*Y264313D01*
X87589Y265712D02*Y264313D01*
X83779Y275112D02*Y273712D01*
X85049Y275112D02*Y273712D01*
X82509Y275112D02*Y273712D01*
X81239Y275112D02*Y273712D01*
X82783Y317833D02*X84183D01*
X82783Y319103D02*X84183D01*
X82783Y320373D02*X84183D01*
X82783Y321643D02*X84183D01*
X82783Y322913D02*X84183D01*
X82783Y324183D02*X84183D01*
G54D135*X76845Y346290D02*Y344850D01*
X78115Y346290D02*Y344850D01*
G54D133*X80523Y331125D02*Y329725D01*
X81793Y331125D02*Y329725D01*
X83063Y331125D02*Y329725D01*
X84333Y331125D02*Y329725D01*
X85603Y331125D02*Y329725D01*
X86873Y331125D02*Y329725D01*
X88143Y331125D02*Y329725D01*
X89413Y331125D02*Y329725D01*
Y340525D02*Y339125D01*
X88143Y340525D02*Y339125D01*
X86873Y340525D02*Y339125D01*
X85603Y340525D02*Y339125D01*
X84333Y340525D02*Y339125D01*
X83063Y340525D02*Y339125D01*
X81793Y340525D02*Y339125D01*
X80523Y340525D02*Y339125D01*
G54D130*X57393Y317449D02*Y317249D01*
X59193Y317449D02*Y317249D01*
X54655Y317483D02*Y317283D01*
X52855Y317483D02*Y317283D01*
G54D131*X47513Y322741D02*Y320940D01*
Y317941D02*Y316141D01*
G54D130*X59204Y313028D02*Y312828D01*
X57404Y313028D02*Y312828D01*
X54602Y313028D02*Y312828D01*
X52802Y313028D02*Y312828D01*
G54D131*X52774Y308606D02*Y306806D01*
Y303806D02*Y302006D01*
G54D133*X63973Y311285D02*X65372D01*
X63973Y310015D02*X65372D01*
X63973Y308745D02*X65372D01*
X63973Y306205D02*X65372D01*
X63973Y304935D02*X65372D01*
X63973Y303665D02*X65372D01*
X63973Y302395D02*X65372D01*
X63973Y307475D02*X65372D01*
G54D131*X55613Y353695D02*X56813D01*
G54D130*X60225Y356721D02*X60425D01*
G54D131*X52613Y353695D02*X53813D01*
G54D136*X47517Y352628D02*Y352476D01*
X49498Y352628D02*Y352476D01*
X48508Y354711D02*Y354559D01*
G54D130*X54737Y358621D02*Y358421D01*
X56537Y358621D02*Y358421D01*
X52462Y358621D02*Y358421D01*
X50662Y358621D02*Y358421D01*
G54D131*X60463Y347707D02*X61663D01*
X63463D02*X64663D01*
X63487Y341122D02*X64687D01*
X60487D02*X61687D01*
G54D130*X78005Y339979D02*X78205D01*
X78005Y341779D02*X78205D01*
X82931Y348842D02*Y348642D01*
X81131Y348842D02*Y348642D01*
X82931Y345286D02*Y345086D01*
X81131Y345286D02*Y345086D01*
X68734Y351652D02*X68934D01*
X68734Y353452D02*X68934D01*
G54D135*X68829Y357635D02*Y356195D01*
G54D130*X71655Y357113D02*X71855D01*
X71655Y358913D02*X71855D01*
G54D137*X75692Y356616D02*X75946D01*
X75692Y358902D02*X75946D01*
G54D135*X73035Y346290D02*Y344850D01*
X74305Y346290D02*Y344850D01*
X75575Y346290D02*Y344850D01*
G54D138*Y350569D02*Y350399D01*
G54D130*X60225Y358521D02*X60425D01*
G54D135*X63749Y357635D02*Y356195D01*
X65019Y357635D02*Y356195D01*
X66289Y357635D02*Y356195D01*
X67559Y357635D02*Y356195D01*
G54D138*X66289Y361914D02*Y361744D01*
G54D130*X74030Y364740D02*Y364540D01*
X72230Y364740D02*Y364540D01*
X76524Y364724D02*Y364525D01*
X78324Y364724D02*Y364525D01*
G54D139*X101612Y326598D02*Y325735D01*
X101112Y326598D02*Y325735D01*
X100612Y326598D02*Y325735D01*
X100112Y326598D02*Y325735D01*
X97612Y326598D02*Y325735D01*
X97112Y326598D02*Y325735D01*
X96612Y326598D02*Y325735D01*
X96112Y326598D02*Y325735D01*
X95612Y326598D02*Y325735D01*
X95112Y326598D02*Y325735D01*
X94612Y326598D02*Y325735D01*
X94112Y326598D02*Y325735D01*
X93612Y326598D02*Y325735D01*
X91232Y317218D02*X92095D01*
X91232Y316718D02*X92095D01*
X91232Y316218D02*X92095D01*
X91232Y315718D02*X92095D01*
X91232Y315218D02*X92095D01*
X91232Y314718D02*X92095D01*
X91232Y314218D02*X92095D01*
X91232Y313718D02*X92095D01*
X91232Y313218D02*X92095D01*
G54D133*X73372Y302395D02*X74772D01*
X73372Y303665D02*X74772D01*
X73372Y304935D02*X74772D01*
X73372Y306205D02*X74772D01*
X73372Y307475D02*X74772D01*
X73372Y308745D02*X74772D01*
X73372Y310015D02*X74772D01*
X73383Y324183D02*X74783D01*
X73383Y322913D02*X74783D01*
X73383Y321643D02*X74783D01*
X73383Y320373D02*X74783D01*
X73383Y319103D02*X74783D01*
X73383Y317833D02*X74783D01*
X73383Y316563D02*X74783D01*
X73383Y315293D02*X74783D01*
X73383Y314023D02*X74783D01*
G54D139*X91232Y312718D02*X92095D01*
G54D133*X82783Y314023D02*X84183D01*
X82783Y315293D02*X84183D01*
X82783Y316563D02*X84183D01*
X73372Y311285D02*X74772D01*
X102205Y340515D02*Y339115D01*
X100935Y340515D02*Y339115D01*
X99665Y340515D02*Y339115D01*
X98395Y340515D02*Y339115D01*
X97125Y340515D02*Y339115D01*
X95855Y340515D02*Y339115D01*
X94585Y340515D02*Y339115D01*
X93315Y340515D02*Y339115D01*
Y331115D02*Y329715D01*
X94585Y331115D02*Y329715D01*
X95855Y331115D02*Y329715D01*
X90683Y331125D02*Y329725D01*
X97125Y331115D02*Y329715D01*
X98395Y331115D02*Y329715D01*
X99665Y331115D02*Y329715D01*
X100935Y331115D02*Y329715D01*
X102205Y331115D02*Y329715D01*
X90683Y340525D02*Y339125D01*
G54D130*X122569Y321671D02*Y321472D01*
X122561Y323569D02*Y323369D01*
X122867Y325555D02*Y325355D01*
G54D139*X112629Y308218D02*X113492D01*
X112629Y308718D02*X113492D01*
X112629Y309218D02*X113492D01*
X112629Y309718D02*X113492D01*
X112629Y310218D02*X113492D01*
X112629Y310718D02*X113492D01*
X112629Y311218D02*X113492D01*
X112629Y311718D02*X113492D01*
X112629Y312218D02*X113492D01*
X112629Y312718D02*X113492D01*
X112629Y313218D02*X113492D01*
X112629Y313718D02*X113492D01*
X112629Y314218D02*X113492D01*
X112629Y314718D02*X113492D01*
X112629Y315218D02*X113492D01*
X112629Y315718D02*X113492D01*
X91232Y324218D02*X92095D01*
X91232Y323718D02*X92095D01*
X91232Y323218D02*X92095D01*
X91232Y322718D02*X92095D01*
X91232Y322218D02*X92095D01*
X91232Y321718D02*X92095D01*
X91232Y321218D02*X92095D01*
X91232Y320718D02*X92095D01*
X91232Y320218D02*X92095D01*
X91232Y319718D02*X92095D01*
X91232Y319218D02*X92095D01*
X91232Y318718D02*X92095D01*
X91232Y318218D02*X92095D01*
X91232Y317718D02*X92095D01*
X91232Y308718D02*X92095D01*
X91232Y308218D02*X92095D01*
X91232Y307718D02*X92095D01*
X91232Y307218D02*X92095D01*
X91232Y306718D02*X92095D01*
X93612Y305201D02*Y304338D01*
X94112Y305201D02*Y304338D01*
X94612Y305201D02*Y304338D01*
G54D130*X90959Y304165D02*X91159D01*
X90959Y302365D02*X91159D01*
G54D139*X95112Y305201D02*Y304338D01*
X95612Y305201D02*Y304338D01*
X96112Y305201D02*Y304338D01*
X96612Y305201D02*Y304338D01*
X97112Y305201D02*Y304338D01*
X97612Y305201D02*Y304338D01*
X98112Y305201D02*Y304338D01*
X98612Y305201D02*Y304338D01*
X99112Y305201D02*Y304338D01*
X99612Y305201D02*Y304338D01*
X100112Y305201D02*Y304338D01*
X100612Y305201D02*Y304338D01*
X101112Y305201D02*Y304338D01*
X101612Y305201D02*Y304338D01*
X102112Y305201D02*Y304338D01*
X102612Y305201D02*Y304338D01*
X103112Y305201D02*Y304338D01*
X103612Y305201D02*Y304338D01*
X104112Y305201D02*Y304338D01*
X104612Y305201D02*Y304338D01*
X105112Y305201D02*Y304338D01*
X105612Y305201D02*Y304338D01*
X106112Y305201D02*Y304338D01*
X106612Y305201D02*Y304338D01*
X107112Y305201D02*Y304338D01*
X107612Y305201D02*Y304338D01*
X108112Y305201D02*Y304338D01*
X108612Y305201D02*Y304338D01*
X109112Y305201D02*Y304338D01*
X109612Y305201D02*Y304338D01*
X110112Y305201D02*Y304338D01*
X110612Y305201D02*Y304338D01*
X111112Y305201D02*Y304338D01*
X112629Y306718D02*X113492D01*
X112629Y307218D02*X113492D01*
X112629Y307718D02*X113492D01*
X112629Y318718D02*X113492D01*
X112629Y319218D02*X113492D01*
X112629Y319718D02*X113492D01*
X112629Y320218D02*X113492D01*
X112629Y320718D02*X113492D01*
X112629Y321218D02*X113492D01*
X112629Y321718D02*X113492D01*
X112629Y322218D02*X113492D01*
X112629Y322718D02*X113492D01*
X112629Y323218D02*X113492D01*
X112629Y323718D02*X113492D01*
X112629Y324218D02*X113492D01*
X111112Y326598D02*Y325735D01*
X110612Y326598D02*Y325735D01*
X110112Y326598D02*Y325735D01*
X109612Y326598D02*Y325735D01*
X109112Y326598D02*Y325735D01*
X108612Y326598D02*Y325735D01*
X108112Y326598D02*Y325735D01*
X107612Y326598D02*Y325735D01*
X107112Y326598D02*Y325735D01*
X106612Y326598D02*Y325735D01*
X106112Y326598D02*Y325735D01*
X105612Y326598D02*Y325735D01*
X105112Y326598D02*Y325735D01*
X104612Y326598D02*Y325735D01*
X104112Y326598D02*Y325735D01*
X103612Y326598D02*Y325735D01*
X103112Y326598D02*Y325735D01*
X102612Y326598D02*Y325735D01*
X102112Y326598D02*Y325735D01*
X99612Y326598D02*Y325735D01*
X99112Y326598D02*Y325735D01*
X98612Y326598D02*Y325735D01*
X98112Y326598D02*Y325735D01*
X91232Y312218D02*X92095D01*
X91232Y311718D02*X92095D01*
X91232Y311218D02*X92095D01*
X91232Y310718D02*X92095D01*
X91232Y310218D02*X92095D01*
X91232Y309718D02*X92095D01*
X91232Y309218D02*X92095D01*
G54D130*X86551Y308321D02*Y308122D01*
X84751Y308321D02*Y308122D01*
G54D139*X112629Y316218D02*X113492D01*
X112629Y316718D02*X113492D01*
X112629Y317218D02*X113492D01*
X112629Y317718D02*X113492D01*
X112629Y318218D02*X113492D01*
G54D130*X126623Y308837D02*Y308637D01*
X128422Y308837D02*Y308637D01*
X126608Y306779D02*Y306580D01*
X128408Y306779D02*Y306580D01*
G54D134*X130602Y315717D02*X131772D01*
X130602Y315067D02*X131772D01*
G54D130*X133147Y311224D02*Y311025D01*
X134947Y311224D02*Y311025D01*
X133147Y313206D02*Y313006D01*
X134947Y313206D02*Y313006D01*
X126619Y313155D02*Y312955D01*
X126623Y315161D02*Y314962D01*
X128419Y313155D02*Y312955D01*
X128422Y315161D02*Y314962D01*
G54D134*X136502Y315067D02*X137672D01*
X136502Y315717D02*X137672D01*
G54D130*X143710Y312799D02*Y312600D01*
X141910Y312799D02*Y312600D01*
X141913Y310539D02*Y310339D01*
X143713Y310539D02*Y310339D01*
X143662Y301318D02*Y301119D01*
Y299312D02*Y299112D01*
X141863Y301318D02*Y301119D01*
Y299312D02*Y299112D01*
G54D134*X136481Y302778D02*X137651D01*
G54D130*X134954Y298075D02*Y297875D01*
X133154Y298075D02*Y297875D01*
X133125Y300556D02*Y300357D01*
X134925Y300556D02*Y300357D01*
G54D134*X136481Y303428D02*X137651D01*
X136481Y304078D02*X137651D01*
X136481Y304728D02*X137651D01*
X136481Y305378D02*X137651D01*
X136481Y306028D02*X137651D01*
X136481Y306678D02*X137651D01*
X130581D02*X131751D01*
X130581Y306028D02*X131751D01*
X130581Y305378D02*X131751D01*
X130581Y304728D02*X131751D01*
X130581Y304078D02*X131751D01*
X130581Y303428D02*X131751D01*
X130581Y302778D02*X131751D01*
G54D130*X126572Y300683D02*Y300484D01*
X128372Y300683D02*Y300484D01*
X126572Y302868D02*Y302668D01*
X128372Y302868D02*Y302668D01*
G54D132*X153949Y318694D02*X155600D01*
X148742D02*X150393D01*
G54D130*X151613Y315847D02*Y315648D01*
X153412Y315847D02*Y315648D01*
G54D132*X153949Y319964D02*X155600D01*
X148742D02*X150393D01*
X153949Y321234D02*X155600D01*
X153949Y322504D02*X155600D01*
X148742D02*X150393D01*
X148742Y321234D02*X150393D01*
X153949Y307899D02*X155600D01*
X148742D02*X150393D01*
G54D130*X151562Y305713D02*Y305513D01*
X153362Y305713D02*Y305513D01*
G54D132*X153949Y309169D02*X155600D01*
X148742D02*X150393D01*
X153949Y310439D02*X155600D01*
X153949Y311709D02*X155600D01*
X148742D02*X150393D01*
X148742Y310439D02*X150393D01*
G54D130*X161698Y322682D02*X161898D01*
X159692Y317478D02*X159891D01*
X159692Y319278D02*X159891D01*
X161698Y320882D02*X161898D01*
X159692Y322678D02*X159891D01*
X159692Y320878D02*X159891D01*
X181421Y325974D02*X181621D01*
X161724Y311836D02*X161923D01*
X161724Y310036D02*X161923D01*
X159692Y310058D02*X159891D01*
X159692Y311858D02*X159891D01*
X181386Y313229D02*X181585D01*
X181386Y315029D02*X181585D01*
X159692Y306378D02*X159891D01*
X159692Y308178D02*X159891D01*
G54D134*X130602Y318967D02*X131772D01*
X130602Y318317D02*X131772D01*
X130602Y317667D02*X131772D01*
X130602Y317017D02*X131772D01*
X130602Y316367D02*X131772D01*
X136502D02*X137672D01*
X136502Y317017D02*X137672D01*
X136502Y317667D02*X137672D01*
X136502Y318317D02*X137672D01*
X136502Y318967D02*X137672D01*
G54D130*X143735Y323416D02*Y323217D01*
X141935Y323416D02*Y323217D01*
X141939Y321334D02*Y321134D01*
X143739Y321334D02*Y321134D01*
X126659Y321334D02*Y321134D01*
X128459Y321334D02*Y321134D01*
X124369Y321671D02*Y321472D01*
X126648Y319073D02*Y318873D01*
X128448Y319073D02*Y318873D01*
G54D134*X130554Y326510D02*X131724D01*
X130554Y325860D02*X131724D01*
X136454D02*X137624D01*
X136454Y326510D02*X137624D01*
G54D130*X124361Y323569D02*Y323369D01*
X124667Y325555D02*Y325355D01*
X143887Y289203D02*Y289003D01*
X143902Y286993D02*Y286793D01*
X142088Y289203D02*Y289003D01*
X142102Y286993D02*Y286793D01*
X143989Y276858D02*Y276659D01*
X142189Y276858D02*Y276659D01*
X142193Y274750D02*Y274550D01*
X143993Y274750D02*Y274550D01*
G54D132*X148688Y288184D02*X150339D01*
X148688Y286914D02*X150339D01*
X148688Y285644D02*X150339D01*
X148688Y284374D02*X150339D01*
X153895D02*X155546D01*
X153895Y285644D02*X155546D01*
X153895Y286914D02*X155546D01*
X153895Y288184D02*X155546D01*
X153949Y296672D02*X155600D01*
X148742D02*X150393D01*
X153949Y297942D02*X155600D01*
X153949Y299212D02*X155600D01*
X153949Y300482D02*X155600D01*
X148742D02*X150393D01*
X148742Y299212D02*X150393D01*
X148742Y297942D02*X150393D01*
G54D130*X151562Y293673D02*Y293473D01*
X153362Y293673D02*Y293473D01*
X151642Y281379D02*Y281180D01*
X153441Y281379D02*Y281180D01*
X151692Y269238D02*Y269039D01*
X153492Y269238D02*Y269039D01*
G54D132*X154051Y272110D02*X155702D01*
X154051Y273380D02*X155702D01*
X154051Y274650D02*X155702D01*
X154051Y275920D02*X155702D01*
X148844D02*X150495D01*
X148844Y274650D02*X150495D01*
X148844Y273380D02*X150495D01*
X148844Y272110D02*X150495D01*
G54D140*X150252Y263792D02*X151252D01*
X150252Y261252D02*X151252D01*
X150252Y258712D02*X151252D01*
G54D141*X149859Y253649D02*X150229D01*
X149859Y251729D02*X150229D01*
X151858D02*X152229D01*
X151858Y253649D02*X152229D01*
G54D140*X146519Y264980D02*X147519D01*
X146519Y259900D02*X147519D01*
G54D141*X144394Y253657D02*X144764D01*
X144394Y251737D02*X144764D01*
X146394D02*X146764D01*
X146394Y253657D02*X146764D01*
G54D130*X181183Y224586D02*X181382D01*
X181203Y233511D02*X181402D01*
X181203Y235311D02*X181402D01*
X181183Y222786D02*X181382D01*
X181322Y274649D02*X181522D01*
X181322Y276449D02*X181522D01*
X181218Y246175D02*X181418D01*
X181218Y247975D02*X181418D01*
X181213Y259007D02*X181413D01*
X181213Y260807D02*X181413D01*
X159717Y282375D02*X159917D01*
X159717Y284175D02*X159917D01*
X161724Y286552D02*X161923D01*
X159717Y286541D02*X159917D01*
X161724Y288352D02*X161923D01*
X159717Y288341D02*X159917D01*
X159793Y276682D02*X159993D01*
X159793Y271022D02*X159993D01*
X159793Y272821D02*X159993D01*
X159793Y274882D02*X159993D01*
X161724Y274857D02*X161923D01*
G54D140*X157952Y265062D02*X158952D01*
G54D130*X159717Y296875D02*X159917D01*
X159717Y298606D02*X159917D01*
X161724Y300406D02*X161923D01*
X161724Y298606D02*X161923D01*
X159717Y300406D02*X159917D01*
X159717Y295075D02*X159917D01*
X181335Y300823D02*X181535D01*
X181335Y302623D02*X181535D01*
X181373Y287623D02*X181573D01*
X181373Y289423D02*X181573D01*
X161724Y276657D02*X161923D01*
G54D140*X162005Y263809D02*X163005D01*
X169705Y265079D02*X170705D01*
X162005Y261269D02*X163005D01*
X162005Y258729D02*X163005D01*
X169705Y259999D02*X170705D01*
X157952Y259982D02*X158952D01*
G54D142*X170014Y247630D02*X170264D01*
X170014Y252130D02*X170264D01*
G54D141*X158272Y249847D02*Y249477D01*
X156352Y249847D02*Y249477D01*
X158308Y241849D02*Y241479D01*
X156388Y241849D02*Y241479D01*
X156352Y247847D02*Y247477D01*
X158272Y247847D02*Y247477D01*
G54D142*X162064Y252130D02*X162314D01*
X162064Y247630D02*X162314D01*
X161894Y244149D02*X162144D01*
X161894Y239650D02*X162144D01*
X161976Y236311D02*X162225D01*
X161976Y231811D02*X162225D01*
X169844Y239650D02*X170094D01*
X169844Y244149D02*X170094D01*
X169925Y231811D02*X170175D01*
X169925Y236311D02*X170175D01*
G54D141*X156576Y231947D02*Y231576D01*
X158495Y231947D02*Y231576D01*
Y233946D02*Y233576D01*
X156576Y233946D02*Y233576D01*
X156388Y239849D02*Y239479D01*
X158308Y239849D02*Y239479D01*
G54D143*X122200Y264706D02*X123020D01*
X122200Y265356D02*X123020D01*
X122172Y270025D02*X122992D01*
X122172Y270675D02*X122992D01*
X122172Y271325D02*X122992D01*
X122172Y271975D02*X122992D01*
X119552D02*X120372D01*
X119552Y271325D02*X120372D01*
X119552Y270675D02*X120372D01*
X119552Y270025D02*X120372D01*
X119638Y278141D02*X120458D01*
X119638Y277491D02*X120458D01*
X119638Y276841D02*X120458D01*
X119638Y276191D02*X120458D01*
X122258D02*X123077D01*
X122258Y276841D02*X123077D01*
X122258Y277491D02*X123077D01*
X122258Y278141D02*X123077D01*
X122363Y282131D02*X123183D01*
X122363Y282781D02*X123183D01*
X122363Y283431D02*X123183D01*
X122363Y284081D02*X123183D01*
X119743D02*X120563D01*
X119743Y283431D02*X120563D01*
X119743Y282781D02*X120563D01*
X119743Y282131D02*X120563D01*
X122346Y287822D02*X123166D01*
X122346Y288472D02*X123166D01*
X122346Y289122D02*X123166D01*
X122346Y289772D02*X123166D01*
X119726D02*X120546D01*
X119726Y289122D02*X120546D01*
X119726Y288472D02*X120546D01*
X119726Y287822D02*X120546D01*
X133993Y253331D02*X134813D01*
X133993Y251382D02*X134813D01*
X133993Y252032D02*X134813D01*
X133993Y252681D02*X134813D01*
X131374Y253331D02*X132194D01*
X131374Y252681D02*X132194D01*
X131374Y252032D02*X132194D01*
X131374Y251382D02*X132194D01*
X122247Y244856D02*X123067D01*
X122247Y245506D02*X123067D01*
X122247Y246156D02*X123067D01*
X122247Y246806D02*X123067D01*
X119628D02*X120448D01*
X119628Y246156D02*X120448D01*
X119628Y245506D02*X120448D01*
X119628Y244856D02*X120448D01*
X122254Y251361D02*X123073D01*
X122254Y252011D02*X123073D01*
X122254Y252661D02*X123073D01*
X122254Y253311D02*X123073D01*
X119634D02*X120454D01*
X119634Y252661D02*X120454D01*
X119634Y252011D02*X120454D01*
X119634Y251361D02*X120454D01*
X134009Y246610D02*X134829D01*
X134009Y244660D02*X134829D01*
X134009Y245310D02*X134829D01*
X134009Y245960D02*X134829D01*
X131390Y246610D02*X132210D01*
X131390Y245960D02*X132210D01*
X131390Y245310D02*X132210D01*
X131390Y244660D02*X132210D01*
G54D140*X138820Y263710D02*X139820D01*
X138820Y261170D02*X139820D01*
X138820Y258630D02*X139820D01*
G54D141*X138662Y253563D02*X139032D01*
X140662D02*X141032D01*
X138662Y251643D02*X139032D01*
X140662D02*X141032D01*
G54D143*X122226Y257277D02*X123045D01*
X122226Y257927D02*X123045D01*
X122226Y258577D02*X123045D01*
X122226Y259227D02*X123045D01*
X119606D02*X120426D01*
X119606Y258577D02*X120426D01*
X119606Y257927D02*X120426D01*
X119606Y257277D02*X120426D01*
X122200Y263406D02*X123020D01*
X122200Y264056D02*X123020D01*
X119580Y265356D02*X120400D01*
X119580Y264706D02*X120400D01*
X119580Y264056D02*X120400D01*
X119580Y263406D02*X120400D01*
M02*
