G04 start of page 2 for group 0 idx 0 *
G04 Title: (unknown), top *
G04 Creator: pcb 20140316 *
G04 CreationDate: Thu 01 Jun 2017 04:27:30 PM GMT UTC *
G04 For: sumit *
G04 Format: Gerber/RS-274X *
G04 PCB-Dimensions (mm): 381.00 381.00 *
G04 PCB-Coordinate-Origin: lower left *
%MOMM*%
%FSLAX43Y43*%
%LNTOP*%
%ADD51C,1.803*%
%ADD50C,1.295*%
%ADD49C,0.965*%
%ADD48C,2.540*%
%ADD47C,1.314*%
%ADD46C,1.168*%
%ADD45C,1.422*%
%ADD44C,3.581*%
%ADD43C,0.914*%
%ADD42R,0.400X0.400*%
%ADD41R,0.940X0.940*%
%ADD40R,0.700X0.700*%
%ADD39R,0.280X0.280*%
%ADD38R,3.050X3.050*%
%ADD37R,1.118X1.118*%
%ADD36R,0.864X0.864*%
%ADD35R,0.510X0.510*%
%ADD34R,0.330X0.330*%
%ADD33R,0.550X0.550*%
%ADD32R,0.508X0.508*%
%ADD31R,1.308X1.308*%
%ADD30R,1.300X1.300*%
%ADD29R,1.140X1.140*%
%ADD28C,2.743*%
%ADD27C,1.778*%
%ADD26C,0.002*%
%ADD25C,1.524*%
%ADD24C,1.270*%
%ADD23C,1.143*%
%ADD22C,1.016*%
%ADD21C,1.054*%
%ADD20C,0.908*%
%ADD19C,0.708*%
%ADD18C,0.762*%
%ADD17C,0.854*%
%ADD16C,0.454*%
%ADD15C,0.635*%
%ADD14C,0.381*%
%ADD13C,0.508*%
%ADD12C,0.654*%
%ADD11C,0.254*%
G54D11*X192943Y219707D02*Y369791D01*
X192824Y369910D01*
X40488D01*
X40389Y219781D02*X40564Y219606D01*
X192781D01*
X192783Y219608D01*
X192842Y219606D02*X192943Y219707D01*
X40488Y369910D02*X40348Y369771D01*
Y219822D01*
X40419Y219751D01*
X159766Y332490D02*Y330654D01*
X161823Y329489D02*Y332486D01*
X165151Y336067D02*Y326542D01*
X164516Y325907D01*
X164643Y326034D02*X163906Y325298D01*
X164046Y325438D02*X163906Y325298D01*
X162509D01*
X165862Y336347D02*Y313487D01*
X162509Y325298D02*X161798Y324587D01*
Y323262D01*
X163957Y320878D02*X161802D01*
X161798Y320882D01*
X159258Y324764D02*X159791Y324231D01*
Y323313D01*
X158064Y322504D02*X158090Y322478D01*
X159791Y323672D02*Y322678D01*
X154775Y322504D02*X158064D01*
X156540Y321843D02*X153111D01*
X152502Y321234D01*
X159791Y319278D02*Y320878D01*
X159842Y317478D02*X158264D01*
X157683Y318059D01*
X157709Y318084D01*
Y319735D01*
X156210Y321234D01*
X149568Y297942D02*X146507D01*
X146482Y297967D01*
X149568Y300482D02*X146482D01*
X143662Y299212D02*X149568D01*
X141863D02*Y301219D01*
X143662D02*X145745D01*
X146456Y300507D01*
X141863Y301219D02*X141859Y301222D01*
X149509Y288188D02*X146456D01*
X143887Y289103D02*X145542D01*
X146456Y288188D01*
X140510Y335719D02*Y331409D01*
X149493Y286893D02*X143902D01*
X142088Y289103D02*Y286908D01*
Y292252D02*Y289103D01*
X138572Y283268D02*Y284361D01*
X142088Y286908D02*X142102Y286893D01*
X138049Y286517D02*Y283479D01*
X141859Y301222D02*Y307213D01*
X140157Y307823D02*Y294183D01*
X138049Y295191D02*Y289982D01*
X137046Y295387D02*X137495Y294937D01*
Y286139D01*
X140157Y294183D02*X142088Y292252D01*
X139421Y303682D02*Y283185D01*
X138572Y295577D02*Y283741D01*
Y297233D01*
X136944Y294295D02*Y291549D01*
X136080Y290685D01*
X136406Y294833D02*X136944Y294295D01*
X136286Y296639D02*X136738Y297091D01*
X136865Y295567D02*X137226Y295206D01*
X136473Y294766D02*X136086Y295153D01*
X133154Y297975D02*Y296969D01*
X130703Y297038D02*X132174Y295567D01*
X130528Y296629D02*X131999Y295158D01*
X133154Y296969D02*X133485Y296639D01*
X136286D01*
X132174Y295567D02*X136865D01*
X136086Y295153D02*X132024D01*
X129987Y296194D02*X131016Y295166D01*
Y291968D01*
X141913Y310439D02*X141910Y310442D01*
X141859Y307213D02*X139979Y309093D01*
X140272Y308800D02*X139852Y309220D01*
X141910Y310442D02*Y312699D01*
X131242Y315067D02*X128428D01*
X128422Y315062D01*
X137087Y315717D02*X136139D01*
X135966Y315544D01*
Y315265D01*
X136164Y315067D01*
X137087D01*
Y314303D01*
X137084Y314300D01*
X134947Y313106D02*X136576D01*
X133147D03*
X136576D02*X137087Y313617D01*
Y314506D01*
X131187Y315067D02*X132238D01*
X132359Y315189D01*
X131187Y315717D02*X132237D01*
X132372Y315582D01*
Y315201D01*
X133147Y313106D02*Y311125D01*
X134947D02*X136474D01*
X136627Y311277D01*
Y312039D01*
X128419Y313055D02*Y311883D01*
X127127Y310591D01*
X127144Y310608D02*X127819D01*
X128412Y310015D01*
Y308747D01*
X128422Y308737D01*
X126619Y313533D02*Y311490D01*
X139852Y309220D02*X133909D01*
X134341Y308559D02*X139421D01*
X132963Y305378D02*X131166D01*
X139421Y308559D02*X140157Y307823D01*
X131166Y306678D02*X132259D01*
X132436Y306502D01*
Y306324D01*
X132080Y305968D01*
X131293D01*
X133401Y305816D02*X132963Y305378D01*
X134087Y304698D02*Y307772D01*
X133909Y309220D02*X133401Y308712D01*
Y305968D01*
Y308712D02*Y305816D01*
X134087Y307721D02*Y308305D01*
X134341Y308559D01*
X131115Y306678D02*X128409D01*
X128408Y306680D01*
X126608Y308722D02*Y306680D01*
Y306654D02*Y305330D01*
Y305841D02*Y304449D01*
X137066Y304078D02*X139025D01*
X139421Y303682D01*
X137066Y304728D02*X138714D01*
X139167Y305181D01*
X137066Y303428D02*X135915D01*
X135738Y303251D01*
Y302971D01*
X135941Y302768D01*
X135951Y302778D01*
X137066D01*
X131166Y304078D02*X133467D01*
X134087Y304698D01*
X131166Y304728D02*X129138D01*
X129134Y304724D01*
X132065Y302778D02*X132207Y302920D01*
Y303200D01*
Y302920D02*Y303301D01*
X132080Y303428D01*
X131166D01*
D03*
X132065Y302778D02*X128382D01*
X134925Y300457D02*X136677D01*
X137033Y300812D01*
X137109Y302778D02*Y300888D01*
X136982Y300761D01*
X134954Y297975D02*X137831D01*
X138389Y297416D01*
X138572Y297233D02*X138274Y297532D01*
X134954Y297975D02*Y299076D01*
X128382Y302778D02*X128372Y302768D01*
X126608Y304449D02*X126083Y303924D01*
X125646Y304368D02*X125219Y303941D01*
X125426Y304148D02*X125194Y303916D01*
X125202Y304564D02*X124780Y304142D01*
X126083Y303924D02*X125890D01*
X112349Y303670D02*Y299281D01*
X112743Y303484D02*Y299121D01*
X113132Y303322D02*Y298961D01*
X113518Y298798D02*Y303159D01*
X113899Y298635D02*Y302989D01*
X114285Y302821D02*Y298478D01*
X114676Y302659D02*Y298320D01*
X122728Y304594D02*X124295Y303027D01*
X122227Y304330D02*X123807Y302750D01*
X122892Y303049D02*X123350Y302590D01*
X121811Y304129D02*X123132Y302809D01*
X121402Y303936D02*X122921Y302417D01*
X120978Y303738D02*X122494Y302222D01*
X120574Y303545D02*X121912Y302207D01*
X122494Y300167D02*X121669Y299342D01*
X121912Y302207D02*Y301622D01*
X121224Y300934D01*
X118105Y298628D02*X118643Y298089D01*
Y296840D01*
X116911Y298389D02*X117676Y299154D01*
X117251Y299319D02*X116487Y298554D01*
X120147Y303347D02*X120353Y303141D01*
X119723Y303654D02*X119510Y303441D01*
X120353Y303141D02*Y302346D01*
X119510Y303441D02*Y300985D01*
X118506Y303075D02*Y299809D01*
X119088Y299227D01*
X118105Y303357D02*Y298628D01*
X117676Y299154D02*Y303558D01*
X119311Y303881D02*X118506Y303075D01*
X118867Y304119D02*X118105Y303357D01*
X118435Y304320D02*X118029Y303914D01*
X117676Y303558D02*X118214Y304096D01*
X117833Y304366D02*X117251Y303784D01*
Y299319D01*
X109492Y297002D02*Y284940D01*
X109908Y296840D02*Y284798D01*
X110300Y296677D02*Y284615D01*
X110698Y296527D02*Y284455D01*
X111084Y284300D02*Y296365D01*
X111468Y284137D02*Y296205D01*
X111857Y296050D02*Y283980D01*
X112243Y295887D02*Y283797D01*
X112349Y299281D02*X109908Y296840D01*
X112743Y299121D02*X110300Y296677D01*
X113132Y298961D02*X110698Y296527D01*
X111084Y296365D02*X113518Y298798D01*
X111468Y296205D02*X113899Y298635D01*
X114285Y298478D02*X111857Y296050D01*
X114676Y298320D02*X112243Y295887D01*
X116911Y288971D02*Y298389D01*
X116487Y298554D02*Y288343D01*
X107312Y302771D02*Y301013D01*
X106924Y302613D02*Y301178D01*
X106533Y302450D02*Y301338D01*
X106761Y288694D02*Y298102D01*
X107160Y288524D02*Y297917D01*
X107556Y288356D02*Y297749D01*
X107973Y297536D02*Y288166D01*
X108433Y297365D02*Y287970D01*
X105540Y298661D02*Y289194D01*
X107312Y301013D02*X105115Y298816D01*
X106924Y301178D02*X104694Y298948D01*
X107714Y300835D02*X105540Y298661D01*
X106142Y301508D02*Y302290D01*
X105504Y302928D01*
X105753Y301673D02*Y302092D01*
X105357Y302489D01*
X105951Y298493D02*X108115Y300657D01*
X106355Y298280D02*X108610Y300535D01*
X106761Y298102D02*X109112Y300453D01*
X108115Y300657D02*Y301894D01*
X108112Y301897D01*
X109612Y300733D02*Y300371D01*
X107160Y297919D01*
X107556Y297749D02*X110117Y300309D01*
X110612Y300175D02*X107973Y297536D01*
X111112Y300045D02*X108433Y297365D01*
X114430Y305750D02*X112349Y303670D01*
X114818Y305559D02*X112743Y303484D01*
X115202Y305392D02*X113132Y303322D01*
X113518Y303159D02*X115595Y305237D01*
X113899Y302989D02*X115981Y305072D01*
X116368Y304904D02*X114285Y302821D01*
X116764Y304747D02*X114676Y302659D01*
X114021Y307020D02*Y305920D01*
X114430Y307208D02*Y305750D01*
X114818Y307393D02*Y305559D01*
X115202Y307556D02*Y305392D01*
X115595Y305237D02*Y307716D01*
X115981Y305072D02*Y307876D01*
X116368Y308036D02*Y304904D01*
X116764Y308201D02*Y304747D01*
X113060Y307718D02*X113919D01*
X114430Y307208D01*
X113993Y308218D02*X114818Y307393D01*
X115595Y307716D02*X114093Y309218D01*
X115981Y307876D02*X114139Y309718D01*
X114185Y310218D02*X116368Y308036D01*
X113060Y308218D02*X113993D01*
X113060Y308718D02*X114039D01*
X115202Y307556D01*
X114093Y309218D02*X113060D01*
X114139Y309718D02*X113060D01*
Y310218D02*X114185D01*
X113060Y310718D02*X114247D01*
X116764Y308201D01*
X120002Y308552D02*Y308422D01*
X120574Y307851D01*
X119563Y308249D02*X120147Y307665D01*
X117886Y307569D02*X118435Y307020D01*
X117455Y307421D02*X117833Y307043D01*
X120574Y307851D02*Y303545D01*
X120147Y307665D02*Y303347D01*
X119723Y307492D02*Y303654D01*
X119311Y307330D02*Y303881D01*
X119151Y308064D02*X119723Y307492D01*
X118750Y308122D02*Y307891D01*
X119311Y307330D01*
X118313Y307716D02*X118867Y307162D01*
Y304119D01*
X118435Y307020D02*Y304320D01*
X117833Y307043D02*Y304366D01*
X109492Y284940D02*X107231Y282679D01*
X109908Y284798D02*X107381Y282270D01*
X110300Y284615D02*X107564Y281879D01*
X110698Y284455D02*X107734Y281490D01*
X107886Y281102D02*X111084Y284300D01*
X108049Y280718D02*X111468Y284137D01*
X112243Y283797D02*X108387Y279941D01*
X111857Y283980D02*X108209Y280332D01*
X108410Y280533D02*X107963Y280086D01*
X108257Y280927D02*X107566Y280236D01*
X108078Y281294D02*X107178Y280393D01*
X105115Y298816D02*Y289344D01*
X104694Y298948D02*Y289499D01*
X105951Y289024D02*Y298493D01*
X106355Y288859D02*Y298280D01*
X104310Y299115D02*Y289684D01*
X103886Y289819D02*Y299253D01*
X103492Y289999D02*Y299413D01*
X103086Y299588D02*Y290142D01*
X102692Y299750D02*Y290304D01*
X102291Y299910D02*Y290695D01*
X101834Y290238D01*
X101135Y290660D02*X101892Y291417D01*
Y300071D01*
X101458Y291554D02*Y300203D01*
X106533Y301338D02*X104310Y299115D01*
X103886Y299253D02*X106142Y301508D01*
X103492Y299413D02*X105753Y301673D01*
X105057Y302214D02*Y301559D01*
X104412Y302290D02*Y301470D01*
X105057Y301559D02*X103086Y299588D01*
X104412Y301470D02*X102692Y299750D01*
X103335Y302217D02*Y300954D01*
X102291Y299910D01*
X102951Y302044D02*Y301386D01*
Y302044D02*Y301130D01*
X102123Y300302D01*
X102550Y301295D02*Y301884D01*
X101892Y300071D02*X102288Y300467D01*
X101458Y300203D02*X102550Y301295D01*
X103543Y286616D02*X105951Y289024D01*
X103708Y286212D02*X106355Y288859D01*
X103878Y285811D02*X106761Y288694D01*
X105540Y289194D02*X103360Y287015D01*
X108793Y280347D02*X108359Y279913D01*
Y275400D01*
X107276Y274316D01*
X107963Y275763D02*X107008Y274808D01*
X107963Y280086D02*Y275763D01*
X107566Y280236D02*Y276017D01*
X107178Y280393D02*Y276382D01*
X107566Y276017D02*X106681Y275132D01*
X107178Y276382D02*X106234Y275439D01*
X132372Y295981D02*X137259D01*
X138049Y295191D01*
X133125Y300457D02*Y299615D01*
X133370Y299369D01*
X133280Y299460D02*X133436Y299303D01*
X133293Y299447D02*X133482Y299258D01*
X134770D01*
X134945Y299082D01*
X131681Y297975D02*X133154D01*
X126572Y302768D02*Y300584D01*
X128372Y299060D02*Y300584D01*
X126572D02*Y299581D01*
X125633Y303667D02*Y297665D01*
X125194Y303916D02*Y297505D01*
X124780Y304142D02*Y297264D01*
X123807Y302750D02*Y301653D01*
X126572Y299581D02*X126025Y299034D01*
Y297851D01*
X126436Y297439D01*
X127102Y298577D02*X127889D01*
X125633Y297665D02*X126261Y297038D01*
X124780Y297264D02*X125849Y296194D01*
X124295Y303027D02*Y293891D01*
X124297Y291732D02*Y294129D01*
X126436Y297439D02*X130914D01*
X127102Y298577D02*X131079D01*
X131681Y297975D01*
X130914Y297439D02*X132293Y296060D01*
X131928Y296426D02*X132372Y295981D01*
X127889Y298577D02*X128372Y299060D01*
Y298983D02*X128134Y298746D01*
X128058D01*
X128372Y299197D02*Y298648D01*
X128443Y298577D01*
X128372Y299009D02*Y298928D01*
X128722Y298577D01*
X128257Y291899D02*X130978D01*
X126261Y297038D02*X130703D01*
X126070Y296629D02*X130528D01*
X125849Y296194D02*X129987D01*
X125194Y297505D02*X126070Y296629D01*
X123403Y295087D02*X123807Y295491D01*
X123350Y297086D02*X122839Y296575D01*
X122921Y298722D02*X122278Y298079D01*
X123807Y295491D02*Y302265D01*
X123350Y302590D02*Y297086D01*
X122921Y302417D02*Y298722D01*
X122494Y302222D02*Y300167D01*
X186921Y276459D02*X186897Y276435D01*
X181422Y276449D02*X186911D01*
X186921Y276459D01*
X181473Y287623D02*X181496Y287600D01*
Y285730D01*
X181473Y289423D02*X186919D01*
X181435Y300823D02*Y298933D01*
X106112Y304770D02*Y303971D01*
X105612Y304770D02*Y303925D01*
X105112Y304770D02*Y303871D01*
X104612Y304770D02*Y303820D01*
X105658Y302774D01*
X106112Y303971D02*X107312Y302771D01*
Y302671D01*
X105612Y303925D02*X106924Y302613D01*
X105112Y303871D02*X106533Y302450D01*
X106612Y304770D02*Y304063D01*
X107714Y302961D01*
X108112Y301897D02*Y304770D01*
X108610Y300535D02*Y304764D01*
X109112Y300453D02*Y304770D01*
X107714Y302961D02*Y300835D01*
X109612Y300392D02*Y304770D01*
X110117Y300309D02*Y304767D01*
X110612Y304770D02*Y300175D01*
X111112Y304770D02*Y300045D01*
X104112Y304770D02*Y303733D01*
X103612Y304770D02*Y303659D01*
X102612Y304770D02*Y304090D01*
X101612Y304770D02*Y303939D01*
X101112Y304770D02*Y303883D01*
X100612Y303822D02*Y304770D01*
X104112Y303733D02*X105373Y302472D01*
X103612Y303659D02*X105057Y302214D01*
X102612Y304090D02*X104412Y302290D01*
X100112Y303682D02*X101425Y302369D01*
X101612Y303939D02*X103335Y302217D01*
X101112Y303883D02*X102951Y302044D01*
X102550Y301884D02*X100612Y303822D01*
X101425Y302369D02*Y301630D01*
X99612Y303562D02*X100409Y302765D01*
X99112Y304770D02*Y302947D01*
X99459Y302600D01*
Y301597D01*
X100409Y302765D02*Y300459D01*
X125890Y303924D02*X125633Y303667D01*
X125646Y310518D02*Y304368D01*
X125202Y311498D02*Y304564D01*
X126619Y311490D02*X125722Y310594D01*
X126619Y311490D02*X125646Y310518D01*
X124348Y312351D02*X125202Y311498D01*
X123891Y312146D02*X124348Y311688D01*
X124080Y311956D02*X124811Y311226D01*
X123500Y311930D02*X124379Y311051D01*
X124811Y311226D02*Y305598D01*
X124379Y311051D02*Y307053D01*
X123947Y306621D01*
X123904Y310845D02*Y308516D01*
X123533Y308145D01*
X123081Y311008D02*Y309453D01*
X124348Y305135D02*X124257Y305044D01*
X124811Y305598D02*X124257Y305044D01*
X122728Y308717D02*Y304594D01*
X122227Y308051D02*Y304330D01*
X121811Y308384D02*Y304129D01*
X121402Y308168D02*Y303936D01*
X120978Y308011D02*Y303738D01*
X100112Y304770D02*Y303682D01*
X99612Y304770D02*Y303562D01*
X97612Y304770D02*Y303850D01*
X98400Y303063D01*
X97112Y304770D02*Y303705D01*
X97495Y303322D01*
X98400Y303063D02*Y302433D01*
X97373Y303444D02*X97678Y303139D01*
Y301661D01*
X97846Y301493D01*
Y300848D01*
X98612Y327488D02*X98029Y328071D01*
X97112Y327276D02*Y326166D01*
Y327043D02*Y327815D01*
X97434Y328069D02*X97996D01*
X103462Y330346D02*Y332242D01*
X103477Y332257D01*
X106200Y330985D02*Y329479D01*
X105811Y329090D01*
X103045Y333538D02*X102993Y333486D01*
X103462Y333954D01*
Y335135D01*
X102192Y336032D02*X102189Y336029D01*
X98382D02*X98372Y336019D01*
X97125Y339815D02*Y336027D01*
X98834Y348910D02*X98331D01*
X97859Y348437D01*
Y343024D01*
X98382Y342501D01*
Y341810D01*
X124348Y315613D02*Y312351D01*
X123891Y316481D02*Y312146D01*
X123500Y315956D02*Y311930D01*
X124690Y315954D02*X124348Y315613D01*
X122993Y317379D02*X123891Y316481D01*
X123500Y315829D02*Y316255D01*
X122453Y317302D01*
X121186Y317929D02*X123055Y316060D01*
Y311694D01*
X122608Y315874D02*Y311480D01*
X122169Y315686D02*Y309275D01*
X121709Y315504D02*Y309159D01*
X123055Y311694D02*X123904Y310845D01*
X122608Y311480D02*X123081Y311008D01*
X122169Y309275D02*X122728Y308717D01*
X121709Y309159D02*X122227Y308640D01*
Y307360D01*
X121232Y315311D02*Y308963D01*
X120815Y315090D02*Y308755D01*
X120419Y314899D02*Y308569D01*
X121232Y308963D02*X121811Y308384D01*
X120815Y308755D02*X121402Y308168D01*
X120419Y308569D02*X120978Y308011D01*
X120002Y314729D02*Y308409D01*
X119563Y314556D02*Y308249D01*
X119151Y314378D02*Y308064D01*
X118750Y314188D02*Y307894D01*
X118313Y313982D02*Y307716D01*
X117886Y313832D02*Y307569D01*
X117455Y313652D02*Y307421D01*
X120741Y317741D02*X122608Y315874D01*
X120332Y317523D02*X122169Y315686D01*
X119888Y317325D02*X121709Y315504D01*
X119464Y317078D02*X121232Y315311D01*
X119017Y316888D02*X120815Y315090D01*
X118585Y316733D02*X120419Y314899D01*
X118166Y316565D02*X120002Y314729D01*
X117749Y316370D02*X119563Y314556D01*
X117335Y316194D02*X119151Y314378D01*
X116937Y316001D02*X118750Y314188D01*
X116507Y315788D02*X118313Y313982D01*
X116075Y315643D02*X117886Y313832D01*
X115656Y315450D02*X117455Y313652D01*
X115448Y314521D02*Y313007D01*
X115263Y315707D02*Y315278D01*
X116522Y314018D01*
X114343Y312730D02*Y311724D01*
X113931Y313718D02*X115372Y312278D01*
Y310723D01*
X115448Y312811D02*X116017Y312242D01*
X116665D01*
X122823Y330345D02*X121968D01*
X121186Y329562D01*
X119488Y329617D02*X120741Y328364D01*
X122156Y325455D02*X121991D01*
X121592Y325056D01*
Y318160D01*
X122461Y317292D01*
X121186Y329562D02*Y317929D01*
X120741Y328364D02*Y317741D01*
X119113Y323878D02*X120332Y322659D01*
X118854Y323454D02*X119888Y322420D01*
X118485Y323099D02*X119464Y322120D01*
X120332Y322659D02*Y317523D01*
X119888Y322420D02*Y317325D01*
X119464Y322120D02*Y317078D01*
X118118Y322600D02*X119017Y321701D01*
X117648Y322012D02*X118585Y321075D01*
X117335Y321516D02*X118166Y320685D01*
X116426Y321218D02*X117000D01*
X117749Y320469D01*
X119017Y321701D02*Y316888D01*
X118585Y321075D02*Y316733D01*
X118166Y320685D02*Y316565D01*
X116197Y320718D02*X116919D01*
X115613Y319218D02*X116379D01*
X116937Y318661D01*
X113060Y318718D02*X116107D01*
X116507Y318318D01*
X116919Y320718D02*X117335Y320302D01*
X117749Y320469D02*Y316370D01*
X117335Y320302D02*Y316194D01*
X116937Y318661D02*Y316001D01*
X116507Y318318D02*Y315788D01*
X115718Y318218D02*X116073Y317863D01*
X113060Y316718D02*X114315D01*
X114864Y316169D01*
X113060Y318218D02*X115718D01*
X113060Y317718D02*X115298D01*
X115656Y317360D01*
X113060Y317218D02*X114849D01*
X115263Y316804D01*
X116073Y317863D02*Y315643D01*
X116075D01*
X115656Y317360D02*Y315450D01*
X115263Y316804D02*Y315278D01*
X114864Y316169D02*Y315199D01*
Y315501D02*Y315102D01*
X115263Y315590D02*Y315280D01*
X114864Y315506D02*Y315105D01*
X113060Y314718D02*X111869D01*
X111422Y314272D01*
X113060Y314218D02*X113076Y314234D01*
X113060Y313218D02*X113855D01*
X114343Y312730D01*
X113060Y313718D02*X113931D01*
X114755Y314234D02*X113076D01*
X116522Y314018D02*Y313522D01*
X114864Y315105D02*X115448Y314521D01*
Y313609D02*Y312811D01*
X154775Y300482D02*X157886D01*
X157937Y298577D02*X159791D01*
X156642D02*X156007Y299212D01*
X154775D01*
X157886Y298577D02*X156616Y299847D01*
X155905D01*
X159791Y298581D02*Y296850D01*
X161413Y295075D02*X159817D01*
X159842D01*
X159817Y300406D02*Y302514D01*
X160680Y303378D01*
X159820Y295075D02*X158873D01*
X156642Y297307D01*
Y298577D01*
X158039Y310058D02*X157023Y311074D01*
X156312D01*
X153362Y293573D02*X156540D01*
X156947Y293980D01*
X151562Y293573D02*Y296266D01*
X151155Y296672D01*
X156947Y293980D02*Y296164D01*
X156616Y296494D01*
X156718Y296393D02*X156489Y296621D01*
X154775D01*
X151155Y296672D02*X149568D01*
X153416Y299822D02*X152883Y299288D01*
Y298323D01*
X153264Y297942D01*
X154775D01*
X155981Y299847D02*X153441D01*
X165329Y300406D02*X161823D01*
X160680Y303378D02*X165278D01*
X165125Y300406D02*X165430D01*
X166446Y301422D01*
X167335Y290474D02*X165202Y288341D01*
X165191Y288352D01*
X161823Y298606D02*Y295478D01*
X161417Y295072D01*
X161413Y295075D01*
X163881Y298628D02*X161845D01*
X161823Y298606D01*
X165191Y288352D02*X161823D01*
X165303Y290627D02*X160452D01*
X159817Y289992D02*Y288366D01*
X160452Y290627D02*X159817Y289992D01*
Y286541D02*X159813Y286537D01*
X157912D01*
X157933Y288184D02*X157937Y288188D01*
X163906Y286537D02*X161823D01*
X159817Y286541D02*Y284175D01*
X161823Y286552D02*Y282981D01*
X161217Y282375D01*
X158645D01*
X157734Y283286D02*Y285115D01*
X156743Y286106D01*
Y286512D01*
X156337Y286918D01*
X157912Y286537D02*X156896Y287553D01*
X156362Y284378D02*X156743Y283997D01*
X159893Y276682D02*Y277774D01*
X160401Y278282D01*
X165329D01*
X158645Y282375D02*X157734Y283286D01*
X156743Y283997D02*Y281838D01*
X156185Y281280D01*
X156337Y286918D02*X154762D01*
X156896Y287553D02*X153365D01*
X152933Y287122D01*
X154720Y288184D02*X157933D01*
X149514D02*X149509Y288188D01*
X152933Y287122D02*Y286182D01*
X153471Y285644D01*
X154720D01*
Y284374D02*X154725Y284378D01*
X156362D01*
X156185Y281280D02*X153441D01*
X151642D02*Y283765D01*
X151028Y284378D01*
X151024Y284374D01*
X149514Y285644D02*X151938D01*
X151943Y285648D01*
X151257Y272110D02*X149670D01*
X151943Y273355D02*X149695D01*
X149670Y275920D02*X146431D01*
X149670Y274650D02*X143993D01*
X142189Y276758D02*Y274654D01*
X142193Y274650D01*
X146431Y275920D02*X145593Y276758D01*
X143989D01*
X142189Y280416D02*Y276758D01*
X151024Y284374D02*X149514D01*
X139421Y283185D02*X142189Y280416D01*
D03*
X137790Y280502D02*X138572Y281285D01*
Y283782D01*
X138049Y283479D02*X137653Y283083D01*
X138049Y285976D02*Y287010D01*
Y285976D02*Y290424D01*
X137495Y286139D02*X136954Y285598D01*
X132265D01*
X131016Y284348D01*
X136080Y290685D02*X132288D01*
X131036Y289433D01*
X128869Y289382D02*X130960D01*
X128740Y286888D02*X131016D01*
X128935D02*X128707D01*
X131016Y284348D02*X128824D01*
X131016Y281808D02*X128920D01*
X131016Y279268D02*Y279288D01*
X128420Y277975D02*X135466D01*
X131016Y279288D02*X132230Y280502D01*
X135466Y277975D02*X135771Y277670D01*
X135799Y276449D02*Y277642D01*
X135555Y277886D01*
X132230Y280502D02*X137790D01*
X137653Y283083D02*X132291D01*
X131016Y281808D01*
Y271648D02*X132316Y272948D01*
X135024D01*
X135799Y273723D01*
Y277360D01*
X131016Y271648D02*X129405D01*
X161798Y323520D02*Y322682D01*
Y320882D02*Y318110D01*
X166446Y336804D02*Y301422D01*
X167335Y336855D02*Y290474D01*
X168021Y336728D02*Y278181D01*
X166497Y276657D01*
X161823D01*
X159893Y274882D02*X157738D01*
X157734Y274879D01*
X157328Y275285D01*
X159893Y274882D02*Y272821D01*
X161823Y274857D02*Y271628D01*
Y274857D02*Y271526D01*
X161319Y271022D01*
X158721D01*
X157912Y271831D01*
Y273431D01*
X161823Y274857D02*X161827Y274853D01*
X163881D01*
X157328Y275285D02*X153467D01*
X153035Y274853D01*
Y273660D01*
X153314Y273380D01*
X154876D01*
X157912Y273431D02*X156693Y274650D01*
X154876D01*
Y272110D02*X156743D01*
X157226Y271628D01*
Y269799D01*
X156566Y269138D01*
X153492D01*
X151692D02*Y271675D01*
X151257Y272110D01*
X154876Y275920D02*X156997D01*
X157759Y276682D01*
X175209Y250888D02*Y330886D01*
X177046Y261348D02*X178643Y262946D01*
X171907Y270957D02*X174358Y268506D01*
X162189Y252130D02*X164857D01*
X164876Y252110D01*
X162505Y258729D02*X164399D01*
X164414Y258745D01*
X162505Y263809D02*X165169D01*
X166908Y262070D01*
Y258727D01*
X162505Y261269D02*X162469Y261234D01*
X171907Y334373D02*Y270957D01*
X140817Y253581D02*Y254560D01*
X138817Y253581D02*Y256117D01*
X141336Y258635D01*
X140817Y254560D02*X141864Y255608D01*
X143347Y255577D02*Y253893D01*
X139320Y261170D02*X139345Y261196D01*
X141237D01*
X122610Y263406D02*X124960D01*
X125225Y263141D01*
X126185D01*
X143347Y253893D02*X143604Y253636D01*
X144562D01*
X144556Y251711D02*X144562Y251717D01*
X147886Y255588D02*Y254025D01*
X147498Y253636D01*
X146562D01*
X150063Y255605D02*Y253653D01*
X150059Y253649D01*
X150084Y251705D02*X150059Y251730D01*
X150752Y261252D02*X148869D01*
X148859Y261242D01*
X153911Y251059D02*X157584D01*
X153190Y263792D02*X155103Y261879D01*
Y258689D01*
X152059Y253649D02*X152071Y253637D01*
X154402D01*
X162469Y261234D02*X160462D01*
X179111Y262915D02*Y334564D01*
X178643Y262946D02*Y334719D01*
X179111Y263197D02*Y261767D01*
G54D12*X187013Y300073D02*X189596D01*
G54D11*X186919Y289423D02*X186947Y289395D01*
X187013Y302613D02*X187002Y302623D01*
G54D12*X189596Y300073D02*X190754Y301231D01*
G54D11*X187002Y302623D02*X181435D01*
X181506Y315008D02*X187038D01*
X181422Y274649D02*X181447Y274623D01*
Y272887D01*
G54D12*X190754Y277752D02*X186921Y273919D01*
X186947Y286855D02*X189418D01*
X190754Y288191D01*
G54D11*X187114Y260761D02*X181359D01*
X181313Y260807D01*
X179111Y261767D02*X180111Y260767D01*
X181785D01*
X181313Y259007D02*Y257879D01*
X182062Y257129D01*
X183502D01*
G54D12*X190754Y357033D02*Y277752D01*
G54D11*Y341968D02*Y342974D01*
G54D12*X186967Y338181D02*X189695D01*
X190754Y339240D01*
X186914Y325186D02*X189901D01*
X190744Y326029D01*
X187038Y312468D02*X189847D01*
X190754Y313375D01*
G54D11*X181486Y313229D02*Y311196D01*
X181488Y311193D01*
X181486Y315029D02*X181506Y315008D01*
X181521Y325974D02*Y324081D01*
X181546Y324056D01*
X181646Y340716D02*X186962D01*
X186967Y340721D01*
X181646Y338916D02*Y336946D01*
X181521Y327774D02*X181569Y327726D01*
X179225Y342435D02*X181698Y344908D01*
X179662Y337830D02*Y342227D01*
X181569Y327726D02*X186914D01*
X178643Y334211D02*Y337505D01*
X179225Y338087D01*
Y342435D01*
X179111Y333924D02*Y337279D01*
X179662Y337830D01*
Y342227D02*X182061Y344626D01*
X107231Y282679D02*X96327D01*
X107381Y282270D02*X96490D01*
X107564Y281879D02*X96652D01*
X107734Y281490D02*X96807D01*
X96327Y282679D02*X91463Y277815D01*
X96490Y282270D02*X91869Y277650D01*
X96652Y281879D02*X92258Y277485D01*
X92799Y278026D02*X92258Y277485D01*
X91990Y277771D02*X91859Y277640D01*
X96807Y281490D02*X92649Y277332D01*
X101514Y287416D02*X93952D01*
X103010Y287815D02*X93790D01*
X102840Y288214D02*X93599D01*
X93439Y288608D02*X102674D01*
X93266Y289016D02*X102509D01*
X102367Y289423D02*X93099D01*
X102205Y289817D02*X92916D01*
X101834Y290238D02*X92746D01*
X92583Y290660D02*X101135D01*
X92415Y291074D02*X100978D01*
X94270Y286616D02*X103543D01*
X94432Y286212D02*X103708D01*
X94587Y285811D02*X103878D01*
X94755Y285410D02*X104046D01*
X94915Y285011D02*X104211D01*
X104397Y284589D02*X95095D01*
X104602Y284140D02*X95260D01*
X103360Y287015D02*X94112D01*
X86330Y274304D02*Y276426D01*
X85060Y274304D02*Y275714D01*
X86330Y274323D02*X86319Y274312D01*
X83790Y274304D02*Y275610D01*
X83965Y275786D01*
X84562D01*
X84430Y276210D02*X83134D01*
X82768Y275844D01*
X83790Y274330D02*X83782Y274323D01*
X82520Y275595D02*X82965Y276041D01*
X91455Y277807D02*Y274409D01*
X81250Y274304D02*Y275963D01*
X81912Y276626D01*
X81250Y274282D02*Y271927D01*
X82527Y272557D02*Y274315D01*
X82520Y274323D01*
X83782D02*Y271917D01*
X85060Y274340D02*Y272600D01*
X85039Y272580D01*
X86319Y274312D02*Y271917D01*
X87600Y272489D02*X87620Y272468D01*
X79969Y276433D02*Y274412D01*
Y274838D02*Y272585D01*
X79980Y272575D01*
X88986Y278481D02*Y260703D01*
X89413Y278293D02*Y260477D01*
X89860Y277447D02*Y257967D01*
X90310Y276352D02*Y258150D01*
X90759Y267416D02*Y258326D01*
X91260Y265829D02*Y258460D01*
X85060Y265299D02*Y261534D01*
X86330Y265299D02*Y262202D01*
X89413Y260477D02*X86693Y257757D01*
G54D13*X87600Y265299D02*Y262992D01*
G54D11*X87617Y262974D01*
X87600Y274304D02*Y272489D01*
X92649Y275801D02*X93313Y275137D01*
X91859Y274996D02*X93018Y273837D01*
X91455Y274409D02*X91758Y274107D01*
X92678Y273187D02*X91581Y274283D01*
X92337Y268994D02*X90759Y267416D01*
X93279Y267848D02*X91260Y265829D01*
X93655Y270279D02*Y268811D01*
X94385Y269937D02*X94160Y269712D01*
Y268953D01*
X93655Y268811D02*X94343Y268122D01*
Y267244D01*
X93312Y266212D01*
X94160Y268953D02*X97013Y266101D01*
X92649Y277332D02*Y275882D01*
X93313Y275137D02*X95485D01*
X92258Y277485D02*Y275412D01*
X91859Y277640D02*Y274996D01*
X92258Y275412D02*X92504Y275166D01*
X93184Y274487D02*X92403Y275267D01*
X94750Y285405D02*X94521Y285176D01*
X94351Y285006D02*X94757Y285412D01*
X93956Y286302D02*X94270Y286616D01*
X93826Y285606D02*X94432Y286212D01*
X94322Y285546D02*X94587Y285811D01*
X94610Y285265D02*X94755Y285410D01*
X86330Y276426D02*X94912Y285008D01*
X85060Y275714D02*X94752Y285407D01*
X93952Y287416D02*X83970Y277434D01*
X84562Y275786D02*X94582Y285806D01*
X94435Y286215D02*X84430Y276210D01*
X94280Y286626D02*X84280Y276626D01*
X95095Y284589D02*X88986Y278481D01*
X95260Y284140D02*X89413Y278293D01*
X94112Y287015D02*X84125Y277028D01*
X94588Y284684D02*X94915Y285011D01*
X90302Y277889D02*X89860Y277447D01*
X91059Y278623D02*Y277101D01*
X90310Y276352D01*
X92649Y276349D02*Y275801D01*
X91710Y278063D02*X91455Y277807D01*
X95485Y274487D02*X93184D01*
X93018Y273837D02*X95485D01*
Y273187D02*X92678D01*
X95485Y272537D02*X96738D01*
X97592Y273390D01*
X98161Y273114D02*X96934Y271887D01*
X95485D01*
Y271237D02*X97120D01*
X95485Y270587D02*X93963D01*
X93655Y270279D01*
X95485Y269937D02*X94385D01*
X95485Y269287D02*X97695D01*
X93790Y287815D02*X83810Y277835D01*
X92263Y279827D02*X91059Y278623D01*
X93599Y288214D02*X83642Y278257D01*
X83482Y278651D02*X93439Y288608D01*
X83292Y279042D02*X89431Y285181D01*
X89209Y284959D02*X93266Y289016D01*
X93099Y289423D02*X83124Y279448D01*
X92916Y289817D02*X82969Y279870D01*
X92746Y290238D02*X82804Y280297D01*
X82652Y280728D02*X92583Y290660D01*
X82512Y281170D02*X92415Y291074D01*
X83429Y288867D02*Y287487D01*
X84125Y277028D02*X80564D01*
X79969Y276433D01*
X84225Y291705D02*X83233Y290713D01*
X82128Y290167D02*X81283Y291013D01*
X81585Y288514D02*X78882Y291216D01*
X77264D01*
X81898Y290397D02*X83429Y288867D01*
X76505Y288514D02*X78252Y286766D01*
X80714D01*
X83429Y287487D02*X82707Y286766D01*
X80195D01*
X72426Y231938D02*X68867Y228379D01*
X67262Y229718D02*X69621D01*
X69451Y230144D02*X65908D01*
X72890Y231813D02*X71407Y230330D01*
Y227404D01*
X68867Y228379D02*Y227404D01*
X72014Y232103D02*X69632Y229720D01*
X71600Y232293D02*X69451Y230144D01*
X71168Y232499D02*X69243Y230574D01*
X70709Y232697D02*X69058Y231046D01*
X70287Y232870D02*X68920Y231503D01*
X69853Y233042D02*X68773Y231963D01*
X69426Y233208D02*X68608Y232390D01*
X66327Y227404D02*Y228783D01*
X67262Y229718D01*
X63787Y228808D02*X65113Y230134D01*
X65999D01*
X69243Y230574D02*X62131D01*
X63787Y227404D02*Y228808D01*
X62131Y230574D02*X61636Y230078D01*
X61247Y229690D02*X61699Y230142D01*
X61247Y227404D02*Y229690D01*
X69058Y231046D02*X60101D01*
X68920Y231503D02*X57640D01*
X68773Y231963D02*X55098D01*
X68608Y232390D02*X53406D01*
X52954Y232908D02*X56632D01*
X58707Y227404D02*Y229652D01*
X56167Y227404D02*Y230030D01*
X56632Y232908D02*X57379Y233655D01*
Y235657D01*
X58707Y229652D02*X59260Y230204D01*
X60101Y231046D02*X58956Y229900D01*
X57640Y231503D02*X56571Y230434D01*
X56167Y230030D02*X57222Y231085D01*
X55098Y231963D02*X53627Y230492D01*
Y227404D01*
G54D14*X58958Y239136D02*X59919Y238176D01*
G54D11*X54859Y238036D02*X54839Y238016D01*
Y235657D01*
X52311Y237985D02*X52299Y237973D01*
Y235657D01*
G54D14*X59919Y238176D02*Y235657D01*
X62459D02*Y238133D01*
X62438Y238153D01*
X64999Y238237D02*Y235657D01*
G54D11*X73713Y239418D02*X75974Y237157D01*
X73302Y239047D02*X73657Y238691D01*
X73947Y227404D02*Y238402D01*
X73533Y238816D01*
X53406Y232390D02*X51087Y230071D01*
Y227404D01*
X49294Y229248D02*X52954Y232908D01*
X49294Y227663D02*Y229248D01*
X44536Y225128D02*X47605D01*
X49294Y226817D01*
Y227637D01*
X44620Y237233D02*X46772D01*
X49083Y239545D01*
X42779Y226886D02*X44536Y225128D01*
G54D13*X63520Y259065D02*X64976Y257609D01*
G54D11*X63614Y256403D02*X63889Y256129D01*
X62639Y256298D02*X62895Y256042D01*
Y254841D01*
X63848Y253888D01*
G54D14*X52311Y246924D02*X52299Y246911D01*
G54D15*Y244266D01*
X59919D02*X52307D01*
G54D14*X52299Y244274D01*
G54D15*X58204Y244266D02*X64999D01*
G54D14*X50676Y239136D02*X58958D01*
X55560Y246601D02*X65644D01*
G54D11*X59362Y256195D02*Y255504D01*
Y255179D02*Y255567D01*
X61731Y254998D02*X59542D01*
X59362Y255179D01*
X60510Y255648D02*X61731D01*
Y253698D02*X60646D01*
X60307Y253360D01*
Y252578D01*
X58682Y255758D02*Y254241D01*
X61731Y256298D02*X62639D01*
X62614Y256948D02*X60554D01*
X60068Y257434D01*
X52570Y250454D02*X54130Y252014D01*
X53787Y251597D02*X53802D01*
X54193Y251206D01*
X92558Y254516D02*Y237343D01*
X93233Y254343D02*Y238018D01*
X89860Y257967D02*X93017Y254810D01*
X90119Y257023D02*X90493Y256649D01*
X90310Y258150D02*X94399Y254061D01*
X90759Y258326D02*X94866Y254218D01*
X89759Y257023D02*X90119D01*
X90368Y256774D02*X92560Y254582D01*
Y253426D01*
X93233Y253964D02*Y254594D01*
X92746Y255082D01*
X94399Y254061D02*Y238587D01*
X94866Y254218D02*Y238763D01*
X95301Y254419D02*Y238917D01*
X91260Y258460D02*X95301Y254419D01*
X77803Y250711D02*Y251831D01*
X78219Y252247D01*
X80025D01*
X80521Y252743D01*
X80406Y252628D02*X81054Y253276D01*
Y255524D01*
X85695Y260165D01*
G54D13*X57477Y257586D02*X55706D01*
X55075Y256954D01*
G54D11*X56892Y256936D02*X58621D01*
X50992Y257586D02*X53563D01*
X53409D02*X54000D01*
X50992Y256286D02*X51994D01*
X56892D02*X58154D01*
X54000Y257586D02*X54803Y258389D01*
X57770D01*
X53200Y259009D02*X49395D01*
G54D13*X51759Y253686D02*X52301Y253144D01*
Y252237D01*
G54D11*X50048Y249883D02*X53510D01*
G54D14*X54752Y254986D02*X56892D01*
X53505Y255636D02*X56892D01*
G54D11*X58293Y260485D02*Y259578D01*
Y259210D02*Y259895D01*
X54239Y260048D02*X53200Y259009D01*
G54D14*X54125Y252311D02*Y254358D01*
X54752Y254986D01*
X56698Y252329D02*X55667Y253360D01*
Y254081D01*
X56892Y254336D02*X55921D01*
X55667Y254081D01*
X54125Y252837D02*Y251369D01*
X54752Y250741D01*
Y247409D01*
X55560Y246601D01*
G54D11*X58621Y256936D02*X59362Y256195D01*
X58154Y256286D02*X58682Y255758D01*
X57770Y258389D02*X60510Y255648D01*
X60440Y256298D02*X58492Y258246D01*
X57874Y258864D02*X58760Y257978D01*
X60165Y257338D02*X58293Y259210D01*
G54D13*X61430Y259065D02*X63520D01*
G54D11*X61731Y257598D02*X63099D01*
X63523Y257175D01*
X62614Y256948D02*X62918Y256644D01*
X62931D01*
X63172Y256403D01*
X63614D01*
X61699Y256298D02*X60440D01*
X61219Y260474D02*X63807D01*
G54D14*X50992Y254986D02*X49426D01*
X49055Y254615D01*
Y253134D01*
X49210Y252979D01*
Y251752D01*
X50165Y248592D02*X49665Y248092D01*
G54D11*X49083Y248917D02*X50048Y249883D01*
G54D14*X49665Y248092D02*Y240147D01*
X50676Y239136D01*
G54D11*X49083Y239545D02*Y248917D01*
X42779Y250965D02*Y226886D01*
G54D14*X53497Y255628D02*X53505Y255636D01*
G54D11*X51994Y256286D02*X52415Y255864D01*
Y254709D01*
X50992Y255636D02*X49119D01*
X44663Y250454D02*X52570D01*
X49119Y255636D02*X45207Y251724D01*
X43538D01*
X42779Y250965D01*
X81567Y227404D02*Y232735D01*
X84115Y230795D02*Y227396D01*
X86647Y228818D02*Y227404D01*
X86619Y229438D02*X87828D01*
X89187Y228079D01*
Y227404D01*
X86693Y234135D02*X89327Y231501D01*
X85423Y234775D02*X89126Y231071D01*
X91727Y228470D02*X89023Y231174D01*
X88938Y231889D02*X91232Y229596D01*
X92791D01*
X81567Y232735D02*X76043Y238260D01*
X76355Y238554D02*X84115Y230795D01*
X76507Y238958D02*X86647Y228818D01*
X76516Y239541D02*X86619Y229438D01*
X76487Y227404D02*Y236652D01*
X75714Y237418D02*X76490Y236642D01*
Y236571D01*
X75608Y238122D02*X79027Y234704D01*
Y227404D01*
X91727D02*Y228470D01*
X94267Y227404D02*Y228577D01*
X93248Y229596D01*
X92621D01*
X106490Y224699D02*Y229347D01*
X105253Y230584D01*
X98870Y224699D02*Y230058D01*
X91664Y237264D01*
X92558Y237343D02*X103950Y225951D01*
Y224699D01*
X93929Y237322D02*X94218Y237034D01*
X93233Y238018D02*X94176Y237076D01*
X94218Y237034D02*X114687D01*
X95451Y237536D02*X116746D01*
X95560Y238069D02*X117170D01*
X95715Y238503D02*X117422D01*
X94399Y238587D02*X95451Y237536D01*
X94866Y238763D02*X95560Y238069D01*
X95301Y238917D02*X95715Y238503D01*
X70117Y265289D02*Y261539D01*
X68847Y265289D02*Y262151D01*
X71168Y259829D01*
X67577Y265289D02*Y262735D01*
X70709Y259603D01*
X66307Y265289D02*Y263324D01*
X70287Y259344D01*
X65037Y263888D02*X69853Y259072D01*
X65105Y262758D02*X65557D01*
X69426Y258890D01*
X70117Y261539D02*X71600Y260055D01*
X72657Y265289D02*Y253870D01*
X71387Y265289D02*Y260883D01*
X72014Y260256D01*
G54D13*X64976Y257609D02*X67607D01*
G54D11*X63889Y256129D02*Y255532D01*
X67631Y257598D02*X68644D01*
X68931Y257312D01*
Y254645D01*
X68634Y254348D01*
X67631D01*
X65037Y265289D02*Y263888D01*
X63767Y265289D02*Y264096D01*
X65105Y262758D01*
X63548Y262783D02*X62240Y264091D01*
Y265181D01*
X61778Y267111D02*Y265504D01*
X61498Y265224D01*
X60447D01*
X59698Y264475D01*
Y261996D01*
X61219Y260474D01*
X83790Y265299D02*Y263662D01*
X81250Y265299D02*Y259502D01*
X82520Y265299D02*Y260177D01*
X83790Y264241D02*Y260850D01*
X78710Y265299D02*Y263713D01*
Y264462D02*Y258120D01*
X77440Y265299D02*Y257439D01*
X79534Y258368D02*X79980Y258813D01*
Y265299D01*
X76754Y254500D02*X74922Y252669D01*
X75743Y252362D02*X77059Y253677D01*
X76926Y254104D02*X75324Y252501D01*
Y251501D01*
X77803Y250711D02*X77795Y250703D01*
X76566Y254919D02*X74516Y252870D01*
X76406Y255334D02*X74120Y253048D01*
X76264Y255750D02*X73713Y253200D01*
X76126Y256179D02*X73302Y253355D01*
X75966Y256604D02*X72890Y253528D01*
X76604Y256604D02*X75966D01*
X76768Y256178D02*X76125D01*
X76120Y255606D02*X76266Y255753D01*
X76919D01*
X77081Y255334D02*X76406D01*
X83790Y260850D02*X77452Y254513D01*
X85060Y261534D02*X77625Y254099D01*
X86330Y262202D02*X77805Y253677D01*
X88986Y260703D02*X85423Y257139D01*
Y250711D01*
X86693Y257757D02*Y250711D01*
X77440Y257439D02*X76604Y256604D01*
X81250Y259502D02*X77081Y255334D01*
X82520Y260177D02*X77260Y254918D01*
X78710Y258120D02*X76768Y256178D01*
X76919Y255753D02*X79972Y258806D01*
X77260Y254918D02*X76564D01*
X77452Y254513D02*X76766D01*
X77625Y254099D02*X76921D01*
X77805Y253677D02*X77059D01*
X49390Y271602D02*Y257294D01*
X47950Y262542D02*X48943Y261549D01*
X49390Y259418D02*Y259563D01*
Y257294D02*X49749Y256936D01*
X50992D01*
X48943Y256799D02*X49457Y256286D01*
X50992D01*
X50808Y256936D02*X50808Y256936D01*
X48943Y261549D02*Y256799D01*
X49395Y259009D02*X49390Y259004D01*
X49799Y259009D02*X49390Y259418D01*
X49713Y259009D02*X49710D01*
X49390Y258689D01*
Y271018D02*Y271783D01*
X51189Y274528D02*X56995D01*
X58293Y273230D01*
Y259692D01*
X51189Y271988D02*X56632D01*
X57874Y270746D01*
Y258864D01*
X51189Y277068D02*X56756D01*
X56764Y277076D01*
X51189Y279608D02*X55677D01*
X55684Y279616D01*
X86693Y241706D02*Y234135D01*
X85423Y241706D02*Y234775D01*
X77800Y247498D02*X77803Y247495D01*
Y241706D01*
X77795Y250703D02*Y249029D01*
G54D13*X87963Y241706D02*Y243370D01*
G54D11*X87975Y243383D01*
G54D13*X89654D01*
X90117Y243845D01*
Y244884D01*
G54D11*X85423Y248730D02*X85430Y248722D01*
X86233Y247348D02*X86708Y247823D01*
Y251087D01*
G54D13*X90122Y246614D02*Y247800D01*
G54D11*X91664Y237264D02*Y253213D01*
X87963Y250711D02*Y248326D01*
G54D13*X89596D01*
G54D11*X90122Y247686D02*Y247866D01*
G54D13*X89662Y248326D01*
G54D11*X85423Y250774D02*Y248730D01*
X91664Y254439D02*X90851Y255252D01*
X91664Y252473D02*Y254439D01*
X90851Y255252D02*X87820D01*
X87831Y257023D02*X90117D01*
X76848Y239210D02*X75743Y240314D01*
X75324Y240142D02*X76670Y238796D01*
X74922Y239987D02*X76512Y238397D01*
X74516Y239786D02*X76322Y237980D01*
X74120Y239611D02*X76154Y237576D01*
X75743Y240314D02*Y252362D01*
X75324Y251899D02*Y240142D01*
X74922Y252669D02*Y239987D01*
X74516Y252870D02*Y239786D01*
X74120Y253048D02*Y239611D01*
X73713Y253200D02*Y239418D01*
X73302Y253355D02*Y239212D01*
Y240579D02*Y239047D01*
X72890Y253528D02*Y231813D01*
X72426Y253639D02*Y231938D01*
X72014Y260256D02*Y232103D01*
X71600Y260055D02*Y232293D01*
X71168Y259829D02*Y232499D01*
X70709Y259603D02*Y232697D01*
X70287Y259344D02*Y232870D01*
X69853Y259072D02*Y233042D01*
X69426Y258890D02*Y233208D01*
X72657Y253870D02*X72426Y253639D01*
G54D14*X65644Y246601D02*X66657Y245588D01*
Y239895D01*
X64999Y238237D01*
G54D11*X82520Y274304D02*Y275595D01*
X70117Y274294D02*Y276255D01*
Y274294D02*X70109Y274286D01*
X71387Y274294D02*Y276253D01*
G54D14*X76848Y276177D02*X75875Y275204D01*
G54D11*X78710Y274304D02*Y276802D01*
X79080Y277172D01*
X77440Y274304D02*Y276796D01*
X78039Y277396D01*
X72657Y274294D02*Y276286D01*
X73424Y277053D01*
X71387Y276253D02*X73784Y278651D01*
X72903Y279042D02*X73861D01*
G54D14*X76848Y277419D02*Y276385D01*
Y276583D02*Y276177D01*
G54D11*X73614Y279042D02*X83292D01*
X71925Y279453D02*X82702D01*
X82969Y279870D02*X71222D01*
X82804Y280297D02*X70566D01*
X70206Y280728D02*X82652D01*
X69243Y281170D02*X82512D01*
X74630Y278257D02*X73254Y276880D01*
X76782Y283136D02*X78232D01*
X78892Y282476D01*
X76939Y283599D02*X79804D01*
X80592Y282811D01*
X72657Y274295D02*Y272222D01*
X71387Y274330D02*Y271193D01*
X71379Y271186D01*
G54D13*X73927Y274294D02*Y271389D01*
G54D11*X73942Y271374D01*
X77440Y272575D02*Y274378D01*
X78710Y274317D02*Y271930D01*
X78707Y271927D01*
X84280Y276626D02*X82644D01*
X81912D02*X82903D01*
X83124Y279448D02*X82438D01*
X83970Y277434D02*X79342D01*
X83810Y277835D02*X78478D01*
X83642Y278257D02*X74630D01*
X73784Y278651D02*X83482D01*
X79342Y277434D02*X78984Y277076D01*
X78478Y277835D02*X77920Y277277D01*
G54D14*X75621Y277228D02*X75184Y276791D01*
G54D11*X70117Y276255D02*X72903Y279042D01*
X68847Y276375D02*X71925Y279453D01*
X71222Y279870D02*X67577Y276225D01*
X70566Y280297D02*X66307Y276037D01*
X65037Y275560D02*X70206Y280728D01*
X63767Y275694D02*X69243Y281170D01*
G54D14*X64900Y281996D02*X72009D01*
X64638Y283497D02*X72436D01*
X73939Y281993D01*
X64910Y284089D02*X73724D01*
G54D11*X65176Y284617D02*X74663D01*
X65400Y285054D02*X74864D01*
X68392Y285493D02*X75044D01*
G54D14*X73724Y284089D02*X75822Y281991D01*
G54D11*X74663Y284617D02*X77282Y281998D01*
X74864Y285054D02*X76782Y283136D01*
X75044Y285493D02*X76939Y283599D01*
X68847Y274294D02*Y276375D01*
X67577Y276225D02*Y274294D01*
X66307Y276037D02*Y274294D01*
X67577Y274429D02*X67582Y274424D01*
X65037Y274294D02*Y275560D01*
X63767Y274294D02*Y275694D01*
X65037Y274462D02*X65024Y274450D01*
Y272212D01*
X63767Y274604D02*Y271175D01*
X63754Y271163D01*
X68847Y271191D02*X68852Y271186D01*
X66307Y274462D02*Y271181D01*
X66314Y271173D01*
X44633Y262682D02*X47810D01*
X48246Y262246D01*
X49390Y271783D02*X46960Y274213D01*
X44595D01*
X70109Y274286D02*Y272232D01*
X68847Y274450D02*Y271191D01*
X67582Y274424D02*Y272212D01*
G54D15*X59799Y269448D02*Y281764D01*
Y269596D02*Y266908D01*
G54D11*X63325Y263007D02*X65255Y261076D01*
X61778Y289039D02*Y266804D01*
X62238Y288915D02*Y264986D01*
X64671Y288158D02*Y285123D01*
X65103Y287073D02*Y285351D01*
X64671Y285123D02*X65176Y284617D01*
G54D14*X75184Y276791D02*Y259697D01*
X73896Y258409D01*
X75875Y275204D02*Y258526D01*
X75936Y258465D01*
G54D13*X73926Y265388D02*Y262901D01*
G54D11*X73923Y262897D01*
X64643Y291320D02*X62238Y288915D01*
X64360Y291037D02*X64668Y291346D01*
G54D14*X68461Y294312D02*X62969Y288821D01*
X69096Y294152D02*X63523Y288580D01*
X69748Y293972D02*X64097Y288320D01*
G54D11*X70284Y293771D02*X64671Y288158D01*
X71285Y288491D02*Y286451D01*
G54D16*X70907Y291617D02*X74077Y288447D01*
G54D14*X62969Y283926D02*X64900Y281996D01*
X63523Y284612D02*X64638Y283497D01*
X64097Y284902D02*X64910Y284089D01*
G54D12*X59538Y285679D02*X58542Y284683D01*
X57229D01*
X59924Y286065D02*X59051Y285192D01*
G54D11*X69477Y288511D02*Y286476D01*
X69451Y286451D01*
G54D14*X62969Y288821D02*Y283926D01*
X63523Y288580D02*Y284612D01*
X64097Y288320D02*Y284902D01*
G54D11*X66076Y288046D02*X65103Y287073D01*
Y285351D02*X65400Y285054D01*
X67716Y288323D02*Y286169D01*
X68392Y285493D01*
X64229Y291490D02*X61778Y289039D01*
G54D12*X54153Y292075D02*X56388D01*
X57239Y291224D01*
Y289552D01*
X59924Y294665D02*Y286065D01*
X57404Y293954D02*X62408D01*
G54D11*X60500D02*X60820D01*
G54D16*X59924Y293558D02*X59527Y293954D01*
G54D11*X59299D01*
X59924Y293576D02*X60025D01*
G54D16*X60404Y293954D01*
G54D17*X48222Y290862D02*Y293934D01*
G54D11*X48219Y293936D01*
X48222Y293202D02*X48163D01*
X48222Y293009D02*X48151D01*
X48227Y293967D02*X48214Y293954D01*
X48217Y290845D02*X48227Y290835D01*
G54D12*X48222Y293149D02*X49027Y293954D01*
G54D11*X49113D01*
G54D17*X46129Y286167D02*X48118D01*
G54D11*X48222Y286062D01*
X151562Y348745D02*X151737D01*
X159947Y345748D02*X159995Y345796D01*
X159947Y345748D02*X153285D01*
X157226Y349918D02*Y347548D01*
X158984Y349931D02*Y350827D01*
X158501Y351310D01*
X155674D01*
X155398Y351034D01*
Y349946D01*
X139878Y355422D02*X169926D01*
X137846Y354914D02*X169697D01*
X135865Y354355D02*X139344D01*
X135865D02*X169443D01*
X164828Y352549D02*X163497D01*
X161747Y351795D02*X160266Y353276D01*
X157226Y347548D02*X153285D01*
X153264Y345770D02*X153238Y345745D01*
X150520D01*
X151994Y348437D02*Y347802D01*
X152248Y347548D01*
X153619D01*
X151737Y348745D02*X147930D01*
Y345745D02*Y342925D01*
X145763Y343408D02*X145471Y343700D01*
X147930Y342925D02*X148742Y342113D01*
X160020D01*
X160045Y342138D01*
X151737Y348745D02*X151994Y348488D01*
Y348259D01*
X161820Y349932D02*X163551Y351663D01*
X162446Y353184D02*X162443Y353187D01*
X162446Y353184D02*X161818Y353812D01*
X165473Y353195D02*X164828Y352549D01*
X163497D02*X162743Y351795D01*
X169012Y344018D02*X165329D01*
X163779Y349123D02*X162865Y348209D01*
X168568Y346583D02*X164668D01*
X163576Y345491D01*
X162743Y351795D02*X161747D01*
G54D18*X177177Y351663D02*X180340D01*
G54D11*X175057Y352400D02*X177673Y355016D01*
X175133Y353365D02*X174447Y352679D01*
X172593Y353720D02*X173888Y352425D01*
X177673Y355016D02*Y359664D01*
X181430Y366639D02*X154196D01*
X181211Y366222D02*X156472D01*
X154992Y364743D02*X154374Y364124D01*
X154371D01*
X175133Y359664D02*Y353365D01*
X172593Y359664D02*Y353720D01*
X169926Y355422D02*X173304Y352044D01*
X169697Y354914D02*X172796Y351815D01*
X169443Y354355D02*X170637Y353162D01*
Y352450D01*
X169875Y351688D01*
X168656D01*
X163551Y351663D02*X168568D01*
Y349123D02*X163779D01*
G54D18*X177165Y351612D02*Y338951D01*
G54D11*X173304Y347421D02*X172491Y346608D01*
X172796Y351815D02*Y350266D01*
X174447Y352679D02*Y342519D01*
X175057Y340284D02*Y352400D01*
X173431Y341503D02*X168568D01*
Y338963D02*X173736D01*
X175057Y340284D01*
X174447Y342519D02*X173431Y341503D01*
X173888Y345592D02*X172314Y344018D01*
X168580D01*
X173888Y352425D02*Y345592D01*
X173304Y352044D02*Y347421D01*
X172491Y346608D02*X168605D01*
X172796Y350266D02*X171653Y349123D01*
X168568D01*
G54D13*X187774Y350761D02*X186139D01*
X185298Y349921D01*
Y349138D01*
G54D11*X190774Y357005D02*X190764Y357015D01*
X181884Y344449D02*X182903Y345468D01*
Y365166D01*
X181430Y366639D01*
X182413Y365021D02*X181211Y366222D01*
X181369Y344579D02*X182413Y345623D01*
Y365021D01*
X154196Y366639D02*X152303Y364747D01*
X152649Y365092D02*X151986Y364429D01*
X151966D01*
X156472Y366222D02*X154683Y364434D01*
X149082Y332685D02*X143515D01*
X143510Y332689D01*
X141710Y334863D02*Y332689D01*
X143521Y334874D02*X145694D01*
X146583Y333985D01*
X159766Y338760D02*Y334239D01*
X156997Y333934D02*X158090D01*
X158115Y333959D01*
X159029Y339674D02*X147081D01*
X145763Y340992D01*
Y343408D01*
X154289Y332685D02*X155935D01*
X163953Y332490D02*X163957Y332486D01*
X161820Y332490D02*X163953D01*
X161823Y332486D02*X161820Y332490D01*
X162865Y338353D02*X165151Y336067D01*
X159766Y332486D02*X158090D01*
X158140D02*Y332511D01*
X157353Y333299D01*
X155804D01*
X161820Y334289D02*Y349932D01*
X159766Y338607D02*Y339293D01*
X159385Y339674D01*
X158725D01*
X162865Y348209D02*Y338353D01*
X163576Y345491D02*Y338633D01*
X165862Y336347D01*
X164287Y338963D02*X166446Y336804D01*
X165125Y339090D02*X165684Y338531D01*
Y338506D01*
X165329Y344018D02*X164287Y342976D01*
Y338963D01*
X168783Y341503D02*X165760D01*
X165125Y340868D01*
Y339090D01*
X165684Y338506D02*X167335Y336855D01*
X168568Y338963D02*Y337274D01*
X168021Y336728D01*
X161818Y353812D02*X135557D01*
X160266Y353276D02*X135821D01*
X145895Y357325D02*X154061D01*
X154813Y358076D01*
Y359664D01*
X135557Y353812D02*X133868Y352123D01*
X135821Y353276D02*X134442Y351897D01*
X144932Y358902D02*X146091Y357744D01*
X151503D01*
X152273Y358513D02*X151503Y357744D01*
X144523Y358696D02*X145895Y357325D01*
X152273Y359664D02*Y358513D01*
X141818Y366392D02*X144144Y364067D01*
X141448Y363459D02*X141798Y363108D01*
X148562Y365524D02*X148847Y365239D01*
X143510Y364701D02*X143657Y364554D01*
X142763Y364292D02*X143129Y363926D01*
X144144Y364067D02*X144146D01*
X142565Y364493D02*X142911Y364147D01*
X149061Y331394D02*X146126D01*
X150830Y330145D02*X149082D01*
X156515Y327990D02*X153387D01*
X151587D02*Y329387D01*
X150830Y330145D01*
X152171Y332943D02*Y331876D01*
X152629Y331419D01*
X154284D01*
X154289Y331415D01*
Y330145D02*X156291D01*
X146528Y326039D02*X155250D01*
X156291Y330145D02*X156921Y329514D01*
Y328397D01*
X161188Y328854D02*X161823Y329489D01*
X161188Y328854D02*X158598D01*
X156921Y328397D02*X156515Y327990D01*
X155935Y332685D02*X157201Y331419D01*
X157709Y330937D02*X156921Y331724D01*
X158598Y328854D02*X157709Y329743D01*
Y330937D01*
X148692Y324180D02*X149276Y324764D01*
X159258D01*
X152502Y321234D02*Y320548D01*
X158115Y320878D02*X157150Y321843D01*
X156312D01*
X156210Y321234D02*X154788D01*
X143739D02*X149568D01*
X141939D02*X141935Y321237D01*
X141939Y321234D02*X134645D01*
X134061Y320650D01*
X149568Y322504D02*X146533D01*
X149568Y319964D02*X146482D01*
X159791Y320878D02*X159776Y320863D01*
X158130D01*
X141710Y332890D02*Y325357D01*
X140696Y327160D02*X140719Y327182D01*
X140518Y332133D02*X140510Y332141D01*
Y331803D02*X140508Y331800D01*
Y329959D01*
X139009Y328460D02*X140533Y329984D01*
X139136Y332483D02*Y330220D01*
X138676Y329760D01*
X139324Y327810D02*X140119Y328605D01*
X140879D01*
X136223Y333733D02*X134338Y331848D01*
X136754Y333512D02*X134869Y331627D01*
Y331056D01*
X134338Y331848D02*Y327645D01*
X137302Y333304D02*X135405Y331406D01*
X135835Y329110D02*X137039D01*
X135766Y329735D02*X135487Y329457D01*
X135413Y329760D02*X138325D01*
X138676D02*X137942D01*
X134331Y325860D02*X134869Y326398D01*
Y331343D01*
X135405Y331406D02*Y329540D01*
X135835Y329110D01*
X135413Y329760D02*X135405Y329768D01*
X135745Y329760D02*X135405Y330100D01*
Y330119D01*
X135766Y329760D02*Y329735D01*
X137004Y325859D02*X135141D01*
X137039Y327160D02*X140696D01*
X140721Y325849D02*X140710Y325860D01*
X137039D01*
X136052D02*X135814Y326098D01*
X137039Y325860D02*X137056D01*
X136052D01*
X137039Y328460D02*X139009D01*
X137039Y327810D02*X139324D01*
X137005Y325860D02*X137004Y325859D01*
X152502Y320548D02*X153086Y319964D01*
X154775D01*
Y318694D02*X156362D01*
X156972Y318084D01*
X156362Y318694D02*X157023Y318033D01*
Y316535D01*
X156235Y315747D01*
X153412D01*
X151613D02*Y318338D01*
X141137Y316367D02*X141910Y315595D01*
Y312623D01*
X144412Y317017D02*X148453Y312976D01*
X153787D01*
X151613Y318338D02*X151257Y318694D01*
X149568D01*
X150012Y314046D02*X150038Y314071D01*
X158979D01*
X161798Y318110D02*X161167Y317478D01*
X159791D01*
X161823Y310036D02*Y306883D01*
X161319Y306378D01*
X159766D01*
X159842D01*
X158569D01*
X159817Y310007D02*Y308153D01*
X158569Y306378D02*X157607Y307340D01*
Y309118D01*
X158979Y314071D02*X159791Y313258D01*
Y310058D02*X158039D01*
X154775Y311709D02*X158064D01*
X156388Y311074D02*X153238D01*
X157607Y309118D02*X156286Y310439D01*
X154775D01*
X153238Y311074D02*X152933Y310769D01*
Y309524D01*
X153289Y309169D01*
X154775D01*
X156591Y307899D02*X157023Y307467D01*
Y306045D01*
X156591Y305613D01*
X153362D01*
X151562D02*Y307467D01*
X151130Y307899D01*
X161823Y310036D02*X163852D01*
X159791Y313258D02*Y311858D01*
X165862Y313665D02*Y312776D01*
X164922Y311836D01*
X161823D01*
X154775Y307899D02*X156591D01*
X151130D02*X149568D01*
Y309169D02*X146482D01*
X149568Y311709D02*X149542Y311734D01*
X146482D01*
X143713Y310439D02*X149568D01*
X143710Y312699D02*X145517D01*
X146482Y311734D01*
X134061Y320650D02*Y317195D01*
X133614Y316367D02*X134061Y316814D01*
Y317475D01*
X133081Y321643D02*Y318343D01*
X137087Y316367D02*X141137D01*
X138811Y317017D02*X137087D01*
X138702D02*X144412D01*
X146533Y322504D02*X146507Y322478D01*
X141935Y321237D02*Y323317D01*
X143735D02*X145771D01*
X146583Y322504D01*
X141710Y325357D02*X139578Y323225D01*
X134663D01*
X133081Y321643D01*
X135141Y325859D02*X132672Y323390D01*
X137039Y326510D02*X136099D01*
X137039D02*X135952D01*
X135814Y326372D01*
Y326113D01*
X131187Y316367D02*X133614D01*
X131187Y317017D02*X129134D01*
X128448Y318973D02*X131182D01*
X131187Y318967D01*
X128459Y321234D02*X129367D01*
X130150Y322016D01*
X131187Y318967D02*X132213D01*
X132359Y318821D01*
X132385Y318491D02*Y318795D01*
X131187Y318317D02*X132212D01*
X132385Y318491D01*
X133081Y318343D02*X132405Y317667D01*
X131187D01*
X131318Y311120D02*X131323Y311125D01*
X133147D01*
X131139Y327810D02*X128364D01*
X131139Y328460D02*X129848D01*
X129634Y328673D01*
X127399Y326525D02*X126446Y327477D01*
X128364Y327810D02*X128341Y327787D01*
X129634Y328673D02*Y329090D01*
X129388Y329336D01*
X128336D01*
X128974Y332064D02*X129466Y331572D01*
X131139Y329110D02*X133193D01*
X131139Y329760D02*X132558D01*
X126484Y330203D02*X126843Y330561D01*
X128925D01*
X129726Y329760D01*
X131139D01*
X133193Y329110D02*X133200Y329103D01*
X134338Y327645D02*X133853Y327160D01*
X131133D01*
X131139Y325860D02*X134331D01*
X132131Y326510D02*X132781Y325860D01*
X131139Y326510D02*X132131D01*
X132558Y329760D02*X133208Y329110D01*
X124667Y325455D02*X129085D01*
X129929Y324612D01*
X132672Y323390D02*X126896D01*
X125915Y323469D02*X127074Y324627D01*
X129916D01*
X126896Y323390D02*X125669Y322163D01*
X131153Y326510D02*X127414D01*
X127116Y326808D01*
X131508Y335788D02*X129540D01*
X128905Y336423D01*
X121920D01*
X131508Y337058D02*X130226D01*
X130023Y337261D01*
X129337D01*
X131508Y339598D02*X133858D01*
X126238D02*X128270D01*
X129540Y338328D01*
X131508D01*
X126302D02*X123673D01*
X123215Y337871D01*
X131508Y340868D02*X133609D01*
X134036Y341295D01*
X121920Y336423D02*X121285Y335788D01*
X126302D02*X124714D01*
X126302Y340868D02*X121285D01*
X119888Y339471D01*
X126302Y339598D02*X123190D01*
X116904Y340868D02*X118364D01*
X118618Y340614D01*
X119253D01*
X127889Y343408D02*X129159Y342138D01*
X131508D01*
X123190Y343408D02*X127889D01*
X126302Y342138D02*X124358D01*
X124054Y341833D01*
X123165D01*
X131508Y343408D02*X132931D01*
X132613D02*X133429D01*
X133977Y342859D01*
X133477Y334391D02*X123063D01*
X139136Y334283D02*X138246D01*
X137909Y333946D01*
X124623Y332064D02*X128974D01*
X154310Y333934D02*X157226D01*
X156032Y333299D02*X152527D01*
X152171Y332943D01*
X149082Y333955D02*X146613D01*
X137909Y333946D02*Y332575D01*
X137505Y332171D01*
X133858Y339598D02*X134239Y339217D01*
X142532Y338879D02*X142520Y338891D01*
X140459D01*
X134239Y339217D02*Y335153D01*
X133477Y334391D01*
X136223Y337084D02*Y333733D01*
X136754Y335239D02*Y333512D01*
X137048Y335534D02*X136754Y335239D01*
X138133Y335951D02*X137465D01*
X137053Y335539D01*
X140459Y337091D02*Y336385D01*
X139507Y335432D01*
X137698D01*
X137302Y335036D01*
Y333304D01*
X148618Y348745D02*X148615Y348742D01*
X140741Y349936D02*Y348437D01*
X145644Y343535D01*
X147996Y348745D02*X144437D01*
X143236Y349946D01*
X119663Y349759D02*X117406Y347502D01*
X119090Y349824D02*X117188Y347922D01*
X117406Y347502D02*X110564D01*
X117188Y347922D02*X110404D01*
X110564Y347502D02*X106200Y343139D01*
X110404Y347922D02*X105786Y343304D01*
X106200Y343139D02*Y339702D01*
X119090Y351231D02*Y349824D01*
X120272Y350368D02*X120584Y350680D01*
X139040Y349936D02*Y348869D01*
X137312Y349936D02*Y349098D01*
X139040Y348869D02*X144907Y343002D01*
X144564Y343344D02*X144983Y342925D01*
X137312Y349098D02*X144140Y342270D01*
X133868Y352123D02*Y347932D01*
X136225Y345575D01*
X134442Y351897D02*Y348516D01*
X135131Y347828D01*
X136787D01*
X137422D02*X135999D01*
X137678Y344905D02*Y342024D01*
X138918Y340784D01*
X136225Y345575D02*Y343192D01*
X137678Y346705D02*Y347571D01*
X137422Y347828D01*
X138918Y340784D02*X141910D01*
X144983Y342925D02*Y337439D01*
X146050Y336372D01*
X148692D01*
X145880Y335425D02*X150045D01*
X145285Y335453D02*X146728D01*
X146733Y335458D01*
X144140Y342270D02*Y336598D01*
X145285Y335453D01*
X149291Y365920D02*X151008Y364203D01*
X148562Y365524D02*X149733Y364353D01*
X143688Y365105D02*X144932Y363860D01*
X143513Y364701D02*X144523Y363690D01*
X146962Y368249D02*X149880Y365331D01*
X146787Y367299D02*X148970Y365116D01*
X151008Y364203D02*Y361447D01*
X149733Y364353D02*Y362204D01*
X147193D02*X148466Y360931D01*
X150492D01*
X151008Y361447D01*
X144932Y363860D02*Y358902D01*
X144523Y363690D02*Y358696D01*
X142532Y338879D02*Y340190D01*
X141938Y340784D01*
X136225Y341392D02*Y338912D01*
X138402Y338902D02*X136215D01*
X136210Y338897D01*
X142532Y337079D02*Y336212D01*
X142334Y336014D01*
X141143D01*
X141379D02*X140805D01*
X140589Y335798D02*X140510Y335719D01*
X140805Y336014D02*X140538Y335747D01*
X138402Y337102D02*Y336220D01*
X138133Y335951D01*
X129271Y363459D02*X141448D01*
X136642Y354355D02*X123302D01*
X138430Y354914D02*X125350D01*
X140155Y355422D02*X127493D01*
X116721Y357950D02*X119093Y355577D01*
Y350746D01*
X120584Y350680D02*Y352803D01*
X116606Y363459D02*X115436Y362288D01*
X107135Y365397D02*X109037Y367299D01*
X109468Y365015D02*X111285Y366832D01*
X112017Y364548D02*X113861Y366392D01*
X112685Y364007D02*X113170Y364493D01*
X123302Y354355D02*X117937Y359720D01*
X125350Y354914D02*X120516Y359748D01*
X127493Y355422D02*X123152Y359763D01*
X115446Y362298D02*X116721Y361023D01*
Y357950D01*
X129830Y363459D02*X116606D01*
X107107Y368249D02*X146962D01*
X109037Y367299D02*X146787D01*
X111285Y366832D02*X141961D01*
X144082Y364711D01*
X113861Y366392D02*X141818D01*
X113170Y364493D02*X142565D01*
X106200Y330507D02*Y340147D01*
X105786Y343304D02*Y332123D01*
X105288Y330540D02*X105786Y331038D01*
Y332298D01*
X101112Y326166D02*Y327355D01*
X101920Y328163D01*
X102192Y330346D02*Y328435D01*
X101886Y328129D01*
X100612Y326166D02*Y328077D01*
X100112Y326166D02*Y327960D01*
X100612Y328077D02*X100805Y328270D01*
X100112Y327960D02*X99819Y328252D01*
X100922Y330346D02*Y328386D01*
X99652Y330346D02*Y328419D01*
X99868Y328204D01*
X100922Y328386D02*X100739Y328204D01*
X98382Y330346D02*Y328986D01*
X99454Y327914D01*
X97112Y330346D02*Y328958D01*
X97544Y328526D01*
X98222D01*
X98938Y327810D01*
X99612Y326166D02*Y327756D01*
X99433Y327934D01*
X99112Y326166D02*Y327649D01*
X98867Y327894D01*
X98612Y326166D02*Y327488D01*
X96388Y362534D02*X98768Y364914D01*
X101229D01*
X102842Y363985D02*X104778Y365920D01*
X106606Y358158D02*Y364868D01*
X107262Y365524D01*
X104628Y365770D02*X107107Y368249D01*
X109065Y358308D02*Y364612D01*
X111506Y358305D02*Y364038D01*
X114160Y358816D02*Y363471D01*
X112652Y363974D02*X112969Y364292D01*
X109065Y364612D02*X109558Y365105D01*
X111506Y364038D02*X112169Y364701D01*
X108836Y352903D02*Y355636D01*
X111506Y358305D01*
X110541Y352958D02*Y355044D01*
Y354660D02*Y355196D01*
X114160Y358816D01*
X97612Y326166D02*Y324409D01*
X98112Y326166D02*Y325433D01*
X98425Y325120D01*
X99060D01*
X97612Y324409D02*X97663Y324358D01*
X99060Y325120D02*X99822Y324358D01*
X101612Y326166D02*Y324624D01*
X101346Y324358D01*
X99822D01*
X102612Y326166D02*Y324481D01*
X107612Y326166D02*Y324274D01*
X107569Y324231D01*
X108112Y326166D02*Y325339D01*
X109220Y324231D01*
X110617D01*
X102612Y324481D02*X101854Y323723D01*
Y322580D01*
X113060Y320218D02*X110922D01*
X110871Y320167D01*
X113060Y319718D02*X112327D01*
X106612Y326166D02*Y340165D01*
X107112Y326166D02*Y336093D01*
X108077Y337058D01*
X108612Y326166D02*Y335688D01*
X108077Y337058D02*X111570D01*
X108612Y335688D02*X109347Y336423D01*
X113157D01*
X113792Y335788D01*
X111570D02*X110236D01*
X109112Y333140D02*X110744Y334772D01*
X110236Y335788D02*X109601Y335153D01*
X110871Y334010D02*X109601Y332740D01*
X110744Y333248D02*X110109Y332613D01*
X111252Y332486D02*X110617Y331851D01*
X111506Y339598D02*X109220D01*
X108052Y338328D02*X111696D01*
X111760Y331724D02*X111125Y331089D01*
Y326180D01*
X111112Y326166D01*
X103462Y334838D02*Y339350D01*
X102192Y339517D02*Y336032D01*
X100922Y339350D02*Y336029D01*
X99652Y339350D02*X99662Y339340D01*
Y336029D01*
X98382Y339362D02*Y336029D01*
X109112Y326166D02*Y333140D01*
X109601Y332740D02*Y326177D01*
X110109Y332613D02*Y326169D01*
X110617Y331851D02*Y326172D01*
X109601Y326177D02*X109612Y326166D01*
X110109Y326169D02*X110112Y326166D01*
X110617Y326172D02*X110612Y326166D01*
X112327Y319718D02*X111379Y318770D01*
X105791D01*
X105537Y319024D01*
Y320167D01*
X104662Y316218D02*X103668Y315224D01*
X113060Y315718D02*X109582D01*
X109426Y315562D01*
X113060Y316218D02*X110517D01*
X110061Y316674D01*
X109626Y314300D02*X108481D01*
X108478Y314302D01*
X110061Y316674D02*X105115D01*
X104506Y316065D01*
X106612Y340165D02*X107315Y340868D01*
X111570D01*
X111379Y339598D02*X113919D01*
X110744Y334772D02*X118491D01*
X119126Y335407D01*
X118745Y334010D02*X110871D01*
X119126Y333248D02*X110744D01*
X120015Y332486D02*X111252D01*
X120396Y331724D02*X111760D01*
X119126Y339217D02*X118745Y339598D01*
X116776D01*
X113919D02*X114300Y339217D01*
Y338582D01*
X114554Y338328D01*
X116916Y337058D02*X114351D01*
X113792Y335788D02*X116776D01*
X114554Y338328D02*X116776D01*
X114681Y342138D02*X116776D01*
Y343408D02*X119634D01*
X119253Y340614D02*X120015Y341376D01*
X120396Y350492D02*X119027Y349123D01*
X126302Y337058D02*X121412D01*
X119126Y335407D02*Y339217D01*
X119888Y339471D02*Y335153D01*
X118745Y334010D01*
X121412Y337058D02*X120523Y336169D01*
Y334645D01*
X121285Y335788D02*Y333756D01*
X120523Y334645D02*X119126Y333248D01*
X121285Y333756D02*X120015Y332486D01*
X123063Y334391D02*X120396Y331724D01*
X124714Y335788D02*X124206Y335280D01*
X122823Y330203D02*Y332039D01*
X122810Y332052D01*
X126659Y321234D02*X126648Y321223D01*
Y317912D02*X124496Y315760D01*
X122569Y317804D02*X123873Y316499D01*
X126648Y321223D02*Y318973D01*
X126623Y315062D02*X126619Y315058D01*
Y313055D01*
X126648Y319799D02*Y317912D01*
X124623Y330203D02*X126484D01*
X124610Y332052D02*X124623Y332064D01*
X122842Y327477D02*X122867Y327452D01*
X126446Y327477D02*X124642D01*
X122867Y327452D02*Y325455D01*
X122569Y323461D02*X122561Y323469D01*
X122569Y323461D02*Y317804D01*
X122867Y325455D02*X122009D01*
X125821Y322316D02*X125562Y322057D01*
Y321869D01*
X125265Y321572D01*
X124369D01*
X124361Y323469D02*X125915D01*
X117236Y330604D02*X118501D01*
X119921Y329184D01*
X113060Y324218D02*X118618D01*
X113060Y323718D02*X118590D01*
X113060Y323218D02*X118315D01*
X117427D02*X118366D01*
X118171Y324218D02*X118773D01*
X119360Y323632D01*
X119375Y323616D02*X119290Y323701D01*
X118590Y323718D02*X118991Y323317D01*
X118366Y323218D02*X118585Y322999D01*
X118000Y322718D02*X118199Y322519D01*
X113060Y322718D02*X118000D01*
X113060Y322218D02*X117442D01*
X117806Y321855D01*
X113060Y321718D02*X117133D01*
X117405Y321446D01*
X113060Y321218D02*X116670D01*
X113060Y320718D02*X116385D01*
X113060Y319218D02*X115858D01*
X113060Y315218D02*X110545D01*
X109626Y314300D01*
X110236Y311671D02*Y313436D01*
X113060Y311218D02*X110694D01*
X110233Y311678D01*
X113060Y311718D02*X112203D01*
X111486Y312435D01*
X113060Y307218D02*X113822D01*
X114021Y307020D01*
Y305920D02*X111945Y303845D01*
Y299456D01*
X109492Y297002D01*
X111570Y343408D02*X109220D01*
X111633D02*X113411D01*
X114681Y342138D01*
X107315D02*X111570D01*
X98382Y339350D02*Y342041D01*
X99652Y339350D02*Y347383D01*
X100922Y339350D02*Y346916D01*
X102192Y339350D02*Y346250D01*
X98298Y351841D02*X98273Y351815D01*
X98806Y346456D02*X98781D01*
X102154Y349753D02*X103406Y351005D01*
X99652Y347383D02*X100749Y348480D01*
X100922Y346916D02*X102050Y348044D01*
X102192Y346250D02*X103505Y347563D01*
X98097Y349336D02*X103114D01*
X105110Y351333D01*
X104069Y348910D02*X106703Y351544D01*
X103505Y347563D02*X108547D01*
X98387Y348910D02*X104069D01*
X100749Y348480D02*X105783D01*
X102050Y348044D02*X107305D01*
X105783Y348480D02*X108836Y351533D01*
X107305Y348044D02*X110541Y351279D01*
Y353250D01*
X108547Y347563D02*X112199Y351216D01*
X116573Y355046D02*X112738Y351211D01*
X112194D01*
X91664Y320218D02*X93929D01*
X93980Y320167D01*
X91664Y319718D02*X93159D01*
X94361Y318516D01*
X98044D01*
X94857Y316218D02*X95250Y316611D01*
X91664Y315218D02*X93849D01*
X93853Y315214D01*
X91664Y316218D02*X94857D01*
G54D14*X91664Y315718D02*X89666D01*
X89662Y315722D01*
G54D11*X91664Y312218D02*X93928D01*
X93980Y312166D01*
X91664Y311718D02*X92396D01*
X93599Y310515D01*
X94742D01*
X91664Y308718D02*X94609D01*
X94925Y309034D01*
X98112Y304770D02*Y306383D01*
X98044Y306451D01*
X98612Y304770D02*Y305622D01*
X99695Y306705D01*
X96121Y306413D02*Y304779D01*
X99695Y306705D02*Y309118D01*
X98933Y309880D01*
X96121Y304779D02*X96112Y304770D01*
X96612D02*Y303207D01*
X96937Y302882D01*
Y302072D01*
X95612Y304770D02*Y305751D01*
X95112Y304770D02*Y305598D01*
X95612Y305751D02*X95057Y306306D01*
X95112Y305598D02*X94562Y306149D01*
X94084D01*
X95057Y306306D02*Y306766D01*
X90521Y310632D02*Y312928D01*
X90112Y313113D02*Y310810D01*
X89703Y310975D02*Y313312D01*
X90427Y314035D01*
X90521Y312928D02*X90810Y313218D01*
X91664D01*
X90716Y313718D02*X90112Y313113D01*
X91664Y313718D02*X90716D01*
X91664Y314218D02*X90609D01*
X90282Y313891D01*
X90525Y314718D02*X91664D01*
X103112Y304770D02*Y306693D01*
X103124Y306705D01*
X102112Y304770D02*Y306955D01*
X101473Y307594D01*
X107112Y304770D02*Y306654D01*
X107061Y306705D01*
X107612Y304770D02*Y305732D01*
X107823Y305943D01*
X108458D01*
X108712Y306197D01*
Y307213D01*
G54D19*X54505Y317373D02*X57369D01*
G54D20*X54602Y312928D02*X57404D01*
G54D11*X57369Y317373D02*X57393Y317349D01*
G54D19*X59193D02*Y320156D01*
G54D11*X59182Y320167D01*
G54D19*X59204Y312928D02*Y317859D01*
G54D11*X59193Y317870D01*
X53162Y296850D02*X53137Y296824D01*
G54D17*X51337Y293954D02*X45486D01*
G54D11*X45484Y293957D01*
X48151Y293009D02*X47440Y293721D01*
G54D17*X46629Y290845D02*X48217D01*
G54D20*X53137Y296824D02*Y293954D01*
X53162Y296850D02*Y298679D01*
G54D11*X52774Y302906D02*X52792Y302887D01*
G54D17*X55161D01*
G54D21*X45479Y302656D02*Y298061D01*
Y298712D02*Y295767D01*
G54D11*X45484Y295762D01*
X45512Y298679D02*X45496Y298663D01*
G54D17*X51359Y298679D02*X45512D01*
G54D11*X46591D02*X46492D01*
X46322D02*Y298600D01*
X46492Y298679D02*X45479Y299692D01*
X46322Y298600D02*X45738Y298016D01*
G54D21*X45479Y325031D02*Y301843D01*
G54D17*X52802Y312928D02*X45474D01*
G54D11*X45471Y312925D01*
X46723Y312928D02*X46543D01*
X45479Y313992D01*
X46420Y313051D02*Y312901D01*
X45715Y312196D01*
G54D17*X49807Y321899D02*X47610D01*
G54D11*X47544Y321833D01*
G54D17*X52873Y317350D02*X47823D01*
G54D11*X52802Y312928D02*X52774Y312900D01*
G54D17*Y307706D01*
G54D11*X81788Y303657D02*X82550Y302895D01*
X82039Y303406D02*X81796Y303649D01*
Y306006D01*
Y305636D02*Y306527D01*
X83480Y308211D01*
X81062Y306426D02*X84054Y309418D01*
X83657Y309618D02*X80876Y306837D01*
X80724Y307249D02*X83690Y310215D01*
X88943D01*
X83505Y310617D02*X88760D01*
X83320Y311015D02*X87432D01*
X82982Y311851D02*X87099D01*
X82781Y312290D02*X86957D01*
X80538Y307650D02*X83505Y310617D01*
X80366Y308061D02*X83320Y311015D01*
X83160Y311445D02*X80190Y308475D01*
X80005Y308874D02*X82982Y311851D01*
X80490Y309999D02*X82781Y312290D01*
X84856Y320352D02*X83443D01*
X85362Y320281D02*Y319720D01*
X85006Y319082D02*X85362Y319438D01*
Y319837D01*
X85796Y318917D02*Y320139D01*
X86205Y318719D02*Y319923D01*
X87301Y319218D02*X91664D01*
X87387Y318718D02*X91664D01*
X83443Y319082D02*X85006D01*
X83443Y317812D02*X84691D01*
X85796Y318917D01*
X85019Y317533D02*X86205Y318719D01*
X85451Y317368D02*X86634Y318552D01*
X85862Y317193D02*X87387Y318718D01*
X83443Y315272D02*X84668D01*
X85451Y316055D01*
X84541Y314002D02*X85862Y315323D01*
X83443Y316542D02*X84595D01*
X85019Y316967D01*
Y317533D01*
X85451Y316055D02*Y317368D01*
X85862Y315323D02*Y317193D01*
X86397Y318314D02*X87301Y319218D01*
X83443Y314002D02*X84541D01*
X81056Y315590D02*Y311826D01*
X91664Y307718D02*X88381D01*
X86550Y308221D02*X91660D01*
X91664Y308218D01*
X88381Y307718D02*X87851Y307188D01*
X86604Y308221D02*Y306870D01*
X86330Y306596D01*
X83480Y308211D02*X84732D01*
X84054Y309418D02*X89306D01*
X89118Y309816D02*X83856D01*
X83469Y309430D01*
X89306Y309418D02*X90521Y310632D01*
X90112Y310810D02*X89118Y309816D01*
X88943Y310215D02*X89703Y310975D01*
X88760Y310617D02*X89289Y311145D01*
X87432Y311015D02*X88641Y312224D01*
X88337Y311921D02*X88682Y312265D01*
X88285Y312461D02*X87269Y311445D01*
X83160D01*
X87099Y311851D02*X87874Y312626D01*
X86957Y312290D02*X87470Y312804D01*
X89289Y311145D02*Y313482D01*
X90525Y314718D01*
X88682Y312265D02*Y316362D01*
X89037Y316718D01*
X91664D01*
Y317218D02*X88918D01*
X88285Y316586D01*
Y312461D01*
X87874Y312626D02*Y316746D01*
X87470Y312804D02*Y316939D01*
X87874Y316746D02*X88846Y317718D01*
X87470Y316939D02*X88749Y318218D01*
X88846Y317718D02*X91664D01*
X88749Y318218D02*X91664D01*
X73865Y301109D02*X76030D01*
X73865Y302379D02*X75583D01*
X76030Y301109D02*X76759Y301838D01*
X76352Y303149D02*X75748Y302544D01*
X75583Y302379D02*X75888Y302684D01*
X76822Y305542D02*X77706Y306426D01*
X77523Y306837D02*X76352Y305666D01*
X75941Y305824D02*X77366Y307249D01*
X75552Y305257D02*Y305996D01*
X77206Y307650D01*
X76896Y305615D02*X76758Y305477D01*
Y301837D01*
X76352Y305666D02*Y303149D01*
X75941Y304099D02*Y305824D01*
X73865Y303649D02*X75491D01*
X75941Y304099D01*
X73865Y304919D02*X75214D01*
X75552Y305257D01*
X73865Y306189D02*X75148D01*
X75816Y307459D02*X73865D01*
X75148Y306189D02*X77020Y308061D01*
X76832Y308475D02*X75816Y307459D01*
X73865Y308729D02*X76507D01*
X76652Y308874D01*
X77706Y306426D02*X81062D01*
X80876Y306837D02*X77523D01*
X77366Y307249D02*X80724D01*
X77206Y307650D02*X80538D01*
X77020Y308061D02*X80366D01*
X80190Y308475D02*X76832D01*
X76652Y308874D02*X80005D01*
X73865Y309999D02*X80490D01*
X73865Y311269D02*X75999D01*
X76020Y311290D01*
X78417Y311699D02*X79261Y310855D01*
X74438Y320352D02*X74444Y320358D01*
X76289D01*
X74438Y319082D02*X76276D01*
X74438Y317812D02*X74441Y317810D01*
X76289D01*
X74438Y316542D02*X76284D01*
X76289Y316548D01*
X77808Y315029D01*
X76289Y317810D02*X78417Y315681D01*
X76276Y319082D02*X79398Y315961D01*
X76289Y320358D02*X81056Y315590D01*
X74438Y315272D02*X74441Y315275D01*
X76309D01*
X74438Y314002D02*X76299D01*
X76309Y313992D01*
X77808Y315029D02*Y310848D01*
X78417Y315681D02*Y311699D01*
X79398Y315961D02*Y312387D01*
X91059Y304165D02*X88265D01*
Y306197D01*
X83185Y304165D02*X85616Y306596D01*
X86330D01*
X88265Y306197D02*X89281Y307213D01*
X91659D01*
X91664Y307218D01*
Y306718D02*X91072D01*
X90297Y305943D01*
X82550Y302895D02*X84455D01*
X85725Y301625D01*
X88257Y298549D02*X86030D01*
X86025Y298544D01*
X88309Y296631D02*X86015D01*
X88253Y294645D02*X85992D01*
X88340Y292783D02*X86037D01*
X85992Y294645D02*X85989Y294648D01*
X84225Y298544D02*Y291705D01*
X91059Y302365D02*Y300863D01*
X90805Y300609D01*
X89281D01*
X88265Y301625D01*
X93612Y298758D02*X91483Y296629D01*
X91407Y298549D02*X90057D01*
X88312Y296629D02*X88309Y296631D01*
X91483Y296629D02*X90112D01*
X91658Y294645D02*X90053D01*
X91981Y292781D02*X90142D01*
X88342D02*X88340Y292783D01*
X94112Y304770D02*Y297099D01*
X94612Y304770D02*Y295412D01*
X94112Y297099D02*X91658Y294645D01*
X94612Y295412D02*X91981Y292781D01*
X93612Y304770D02*Y298758D01*
X92311Y300779D02*Y299453D01*
X91407Y298549D01*
G54D20*X53159Y298679D02*X55524D01*
G54D11*X53159D02*X53184Y298704D01*
X55550D01*
G54D20*X53137Y293954D02*X55604D01*
G54D11*X54305Y294005D02*X54254Y293954D01*
X54305Y293903D01*
X65717Y319159D02*X64478Y320398D01*
G54D13*X68257Y319159D02*Y312997D01*
G54D16*X65720Y316608D02*X67046Y317934D01*
G54D13*X68257Y312997D02*X66530Y311269D01*
G54D12*X61648Y310538D02*Y320716D01*
G54D16*X67046Y317934D02*Y320426D01*
X67490Y320871D01*
X69350D01*
X70907Y319314D01*
G54D13*X66530Y311269D02*X64860D01*
G54D11*Y309999D02*X64863Y310002D01*
X66670D01*
X64860Y308729D02*X66683D01*
X66688Y308734D01*
G54D12*X61648Y311379D02*Y302494D01*
G54D11*X64860Y307459D02*X64868Y307452D01*
X66688D01*
X64860Y306189D02*X66667D01*
X66688Y306210D01*
G54D14*Y307452D02*Y307429D01*
X69078Y305039D01*
X66688Y306210D02*X68461Y304437D01*
X68477Y305640D02*X69096Y305021D01*
X66688Y308684D02*X69723Y305648D01*
X69050Y306372D02*X69748Y305674D01*
G54D11*X66670Y310002D02*X70284Y306388D01*
X64860Y304919D02*X64863Y304917D01*
X66680D01*
X64860Y303649D02*X66683D01*
X66690Y303657D01*
X63721Y303649D02*X64860D01*
X66708Y304917D02*X67950Y303675D01*
X64860Y302379D02*X64863Y302377D01*
X66690D01*
X64860Y301109D02*X66680D01*
X66690Y301120D01*
X67950Y303675D02*Y299860D01*
G54D14*X69096Y305021D02*Y294152D01*
X69748Y305674D02*Y293972D01*
G54D11*X70284Y306388D02*Y293771D01*
G54D16*X70907Y319314D02*Y291617D01*
G54D11*X63177Y301805D02*Y297498D01*
Y301323D02*Y303106D01*
X63721Y303649D01*
X67950Y300556D02*Y295661D01*
X64668Y291983D02*X67950Y295265D01*
Y295844D01*
G54D14*X68461Y304437D02*Y294312D01*
G54D11*X63177Y297498D02*X64229Y296446D01*
Y291490D01*
X64668Y291346D02*Y291983D01*
G54D12*X62408Y293954D02*X63424Y294970D01*
X61648Y302494D02*X59919Y300764D01*
Y297307D01*
G54D11*Y299504D02*Y299596D01*
X59921Y297980D02*Y297734D01*
X59919Y295507D02*X59924Y295502D01*
G54D12*Y293954D01*
G54D11*Y294521D02*Y294442D01*
G54D16*X59436Y293954D01*
X59924Y294531D02*X60500Y293954D01*
G54D12*X57350Y298704D02*X59914D01*
G54D11*X59919Y298699D01*
X59118Y298704D02*X59919Y299504D01*
X59197Y298704D02*X59921Y297980D01*
G54D22*X60325Y358521D02*X63373D01*
G54D18*X68453Y358902D02*X75819D01*
X78359D01*
G54D22*X61214Y358521D02*X56537D01*
X54737D02*X52462D01*
X63373D02*X63754Y358140D01*
G54D23*X68834Y356635D02*Y353452D01*
G54D18*X67564Y356635D02*Y358013D01*
X68453Y358902D01*
X71755Y357113D02*Y356235D01*
X73279Y354711D01*
X75819Y356616D02*Y355346D01*
X75184Y354711D01*
X73279D01*
G54D22*X65024Y354330D02*X63754Y353060D01*
X66294Y352679D02*X65278Y351663D01*
G54D24*X68834Y351652D02*Y349758D01*
G54D22*X63754Y356635D02*Y353060D01*
X65024Y356635D02*Y354330D01*
X66294Y356635D02*Y352679D01*
X63754Y358140D02*Y356635D01*
G54D11*X66289Y361829D02*X66237Y361881D01*
G54D22*X61905D01*
G54D18*X70347Y364640D02*X72230D01*
G54D11*X74030D02*X74045Y364625D01*
G54D18*X76524D01*
X78324D02*X80200D01*
G54D11*X80216Y364640D01*
G54D24*X64063Y347707D02*X68053D01*
G54D11*X66421Y345948D02*Y346056D01*
G54D18*X64770Y347707D01*
X66421Y346075D02*X67691Y347345D01*
G54D24*X68053Y347707D02*X68834Y348488D01*
Y350012D01*
G54D18*X75575Y345570D02*Y350484D01*
G54D24*X64087Y341122D02*X65659D01*
X66421Y341884D01*
Y347707D01*
G54D11*X59436Y340106D02*X75921D01*
G54D17*X61087Y341122D02*X58445D01*
X57302Y339979D01*
G54D11*X59604Y339712D02*X75740D01*
X75540Y339301D02*X60315D01*
X62525Y338884D02*X75362D01*
G54D24*X60325Y356721D02*Y354203D01*
X53213Y353695D02*X50641D01*
X49498Y352552D01*
X61063Y347707D02*X56623D01*
G54D22*X45667Y353146D02*Y357741D01*
X46449Y358524D01*
G54D11*X46452Y358521D01*
G54D22*X50662D01*
G54D18*X56213Y353695D02*X58293D01*
X58801Y354203D01*
X60325D01*
G54D11*X58610Y354012D02*X58864D01*
X58928Y354330D02*X59309D01*
X60325Y355346D01*
G54D22*X47498Y340741D02*X48641Y339598D01*
G54D11*X47517Y340722D02*X47525Y340714D01*
G54D22*X48641Y339598D02*X52578D01*
G54D11*X52705Y344805D02*X52578Y344678D01*
X52832Y339852D02*X52578Y339598D01*
G54D24*X56623Y347707D02*X55499Y346583D01*
X52578Y344678D02*X51181D01*
X49530Y346329D01*
Y352584D01*
G54D22*X47517Y352552D02*Y340722D01*
Y352542D02*X46271D01*
X45667Y353146D01*
G54D24*X55499Y346583D02*Y337439D01*
G54D11*X60292Y339278D02*X59489Y338475D01*
X58356Y339026D02*X59436Y340106D01*
X58773Y338882D02*X59604Y339712D01*
X60315Y339301D02*X59914Y338900D01*
G54D17*X57302Y339979D02*Y335854D01*
G54D24*X55499Y337439D02*X52578Y334518D01*
G54D11*X52705Y329372D02*X52809Y329476D01*
G54D17*X52873Y329468D02*Y317541D01*
G54D11*X52705Y317373D01*
G54D17*X52873Y331424D02*Y329468D01*
G54D11*X57282Y332786D02*Y334137D01*
X58356Y335211D01*
X58402Y331536D02*Y334670D01*
X58773Y335041D01*
G54D17*X57302Y335854D02*X52873Y331424D01*
G54D11*X59489Y338475D02*Y332801D01*
X59474Y332786D01*
X60681Y331516D02*X61940Y332776D01*
Y338300D01*
X62525Y338884D01*
G54D12*X61648Y320716D02*X52873Y329491D01*
G54D11*X58356Y335211D02*Y339026D01*
X58773Y335041D02*Y338869D01*
Y338638D02*Y338882D01*
G54D21*X52873Y334548D02*X45479Y327155D01*
Y324348D01*
G54D11*X97112Y327815D02*X96302Y328625D01*
X95758Y327812D02*X96112Y327459D01*
X96612Y327736D02*X96129Y328219D01*
X94790Y329171D02*X95755D01*
X96423Y328503D01*
X96364Y327984D02*X95573Y328775D01*
X96472Y329032D02*X97434Y328069D01*
X95842Y327729D02*X95212Y328358D01*
X86873Y328712D02*Y330333D01*
X85603Y328572D02*Y330333D01*
X87025Y327149D02*X85603Y328572D01*
X88328Y325173D02*X84333Y329169D01*
X87600Y324754D02*X83063Y329291D01*
X87572Y324218D02*X83457Y328333D01*
X84333Y329169D02*Y330333D01*
X83063Y329291D02*Y330333D01*
X83457Y328333D02*X82471D01*
X81793Y330333D02*Y329011D01*
X82471Y328333D01*
X87455Y323718D02*X83256Y327917D01*
X83443Y324162D02*X85768D01*
X85783Y324147D01*
X83256Y327917D02*X82608D01*
X83025D02*X81699D01*
X81346Y328270D01*
X83443Y322892D02*X85949D01*
X86236Y323179D01*
X80523Y330333D02*Y329093D01*
X81410Y328206D01*
G54D13*X74460Y327828D02*Y330365D01*
G54D11*X76683Y328994D02*X76672Y329004D01*
X76683Y327287D02*Y328994D01*
G54D13*X71900Y333629D02*X73218Y332311D01*
Y329120D01*
X71928Y327830D01*
G54D11*X81793Y339338D02*Y337571D01*
X83063Y339338D02*X83055Y339330D01*
X85603Y339338D02*X85598Y339333D01*
X83055Y339330D02*Y337579D01*
X81354Y335877D01*
X82194Y335437D02*X84336Y337579D01*
X84333Y339338D02*Y337581D01*
X84336Y337579D01*
X85598Y339333D02*Y337571D01*
G54D13*X90683Y337896D02*X90244Y337457D01*
Y336649D01*
G54D11*X90683Y330333D02*Y331772D01*
X90950Y332039D01*
X91722D01*
G54D13*X71920Y327828D02*X65636D01*
G54D11*X65603Y327795D01*
X65738Y325107D02*X67363Y326733D01*
X68179D01*
X64478Y320398D02*Y323842D01*
X66434Y325798D01*
X70500Y325709D02*X69477Y326733D01*
X67942D01*
G54D13*X68275Y322552D02*Y325105D01*
G54D11*X68278Y325107D01*
X68275Y325110D01*
Y325133D01*
G54D13*X69718D01*
X70688Y324162D01*
X74438D01*
G54D11*X74454Y322908D02*X76269D01*
X74438Y321622D02*X76264D01*
X76279Y321638D01*
G54D13*X74183Y324155D02*X76078D01*
G54D11*X74435Y336151D02*X74440Y336146D01*
G54D13*Y333629D01*
G54D11*X78463Y337563D02*X76742Y339284D01*
X75362Y338884D02*X78809Y335437D01*
X80523Y339338D02*Y337566D01*
X80521Y337563D01*
X78463D01*
X81793Y337525D02*X80556Y336288D01*
X79202D01*
X81354Y335877D02*X79037D01*
X78809Y335437D02*X82194D01*
X75740Y339712D02*X79164Y336288D01*
X79370Y335877D02*X78964D01*
X75540Y339301D01*
G54D18*X75565Y345605D02*Y341376D01*
X73025Y345605D02*Y342646D01*
G54D11*X72898Y342519D01*
G54D18*X74295Y345605D02*Y343916D01*
G54D11*X73025Y344170D02*Y344043D01*
X73724Y343344D01*
G54D18*X74295Y343916D02*X72898Y342519D01*
X78105Y345605D02*Y341779D01*
Y339979D02*X77089D01*
X75565Y341503D01*
X76835Y345605D02*Y343027D01*
X81131Y348742D02*X77978D01*
X76835Y347599D01*
Y345605D01*
G54D13*X79685Y346860D02*Y345547D01*
G54D11*X75921Y340106D02*X76929Y339098D01*
G54D18*X82931Y348742D02*Y345186D01*
G54D11*X86053Y345262D02*Y346123D01*
X85603Y345925D02*Y346311D01*
X86053Y345884D02*Y346156D01*
G54D13*X79685Y345547D02*X80038Y345194D01*
X81105D01*
G54D11*X85603Y339338D02*Y345956D01*
X86053Y345775D02*Y341607D01*
X86644Y341015D01*
X86873Y339338D02*Y340787D01*
X86346Y341314D01*
X85603Y344655D02*Y346273D01*
Y346311D02*X87252Y347960D01*
X86053Y346156D02*X87681Y347784D01*
X89413Y330333D02*Y329082D01*
X88143Y330333D02*Y329288D01*
X88994Y327955D02*X88143Y328806D01*
Y329374D01*
X88034Y327551D02*X86873Y328712D01*
X95842Y330346D02*Y331330D01*
X96012Y331500D01*
X96296D01*
X96472Y331325D01*
Y329032D01*
X95844Y336014D02*Y339377D01*
X94572Y330346D02*Y329390D01*
X94564Y339621D02*Y336042D01*
X93302Y329308D02*Y330346D01*
X93309Y336055D02*Y339565D01*
X86873Y339338D02*Y337591D01*
X86893Y337571D01*
X88143Y339338D02*X88138Y339333D01*
Y337571D01*
X89413Y339329D02*Y337571D01*
X89411Y337569D01*
G54D13*X90683Y339338D02*Y337896D01*
G54D11*X96612Y326166D02*Y327736D01*
X96112Y327459D02*Y326166D01*
X95612Y326895D02*Y327364D01*
X95021Y327955D01*
X95112Y327255D02*X94816Y327551D01*
X95612Y326948D02*Y326166D01*
X95112D02*Y327255D01*
X94612Y326166D02*Y326855D01*
X94318Y327149D01*
X93612Y326166D02*Y325425D01*
X94112Y326166D02*Y325262D01*
X93604Y324754D01*
X93612Y325425D02*X93360Y325173D01*
X94572Y329390D02*X94790Y329171D01*
X95573Y328775D02*X93835D01*
X93302Y329308D01*
X95212Y328358D02*X90127D01*
X95021Y327955D02*X88994D01*
X94816Y327551D02*X88034D01*
X94318Y327149D02*X87025D01*
X90127Y328358D02*X89413Y329072D01*
X93360Y325173D02*X88328D01*
X93604Y324754D02*X87600D01*
X91664Y324218D02*X87572D01*
X91664Y323718D02*X87455D01*
X91664Y323218D02*X86271D01*
X86195Y323141D01*
X91664Y322718D02*X86628D01*
X85532Y321622D01*
X83443D01*
X91664Y322218D02*X86722D01*
X91664Y321718D02*X86798D01*
X91664Y321218D02*X86875D01*
X87000Y320718D02*X91664D01*
X86722Y322218D02*X84856Y320352D01*
X86798Y321718D02*X85362Y320281D01*
X85796Y320139D02*X86276Y320619D01*
X86875Y321218D02*X86194Y320537D01*
X86205Y319923D02*X87000Y320718D01*
X88143Y347647D02*X90782Y350286D01*
X89413Y348328D02*X90038Y348953D01*
X89955Y348870D02*X90648Y349562D01*
X93302Y348663D02*X96030Y351391D01*
X94572Y349308D02*X96441Y351178D01*
X97112Y348351D02*X98097Y349336D01*
X95844Y348582D02*X97015Y349753D01*
X88143Y339338D02*Y347647D01*
X89413Y339338D02*Y348328D01*
X93302Y339350D02*Y348663D01*
X94572Y339350D02*Y349308D01*
X97112Y339350D02*Y348351D01*
Y339350D02*X97125Y339338D01*
X95844Y339377D02*X95842Y339380D01*
X94572Y339628D02*X94564Y339621D01*
X93309Y339565D02*X93302Y339573D01*
X95844Y339171D02*Y348582D01*
X90782Y350286D02*X93739D01*
X95176Y351724D01*
Y356212D01*
X90648Y349562D02*X93591D01*
X87252Y347960D02*Y359837D01*
X89703Y362288D01*
X92576D01*
X87681Y347784D02*Y359202D01*
X89517Y361038D01*
X93886D01*
X95156Y362308D01*
X92576Y359748D02*X93246D01*
X94280Y360782D01*
X94120Y360622D02*X94508Y361010D01*
X93591Y349562D02*X95593Y351564D01*
X97023Y349753D02*X102154D01*
X103406Y351005D02*Y353228D01*
X105110Y351333D02*Y353207D01*
X106703Y351544D02*Y353228D01*
X108836Y351533D02*Y353228D01*
X95593Y351564D02*Y356024D01*
X96030Y351391D02*Y355849D01*
X96441Y351178D02*Y355694D01*
X95593Y356535D02*Y355349D01*
X96030Y355564D02*Y356189D01*
X96441Y355445D02*Y355884D01*
X100196Y359748D02*X98527Y358079D01*
X97137D01*
X97470Y357629D02*X100157D01*
X101580Y359052D01*
Y361378D01*
X100196Y362288D02*X101049D01*
X101580Y361757D01*
Y361000D01*
X97760Y357203D02*X102403D01*
X104028Y358828D01*
X105228Y356780D02*X106606Y358158D01*
X106703Y355945D02*X109065Y358308D01*
X104028Y358828D02*Y360995D01*
X105110Y353113D02*Y356662D01*
X105286Y356837D01*
X106703Y352920D02*Y355945D01*
X104028Y360995D02*X102736Y362288D01*
X97656Y359748D02*X95176Y357269D01*
Y355653D01*
X97137Y358079D02*X95593Y356535D01*
X96030Y356189D02*X97470Y357629D01*
X96441Y355884D02*X97760Y357203D01*
X94508Y361010D02*X95951D01*
X96388Y361447D01*
Y362534D01*
X122715Y289776D02*X126881D01*
X125003Y289126D02*X125004Y289126D01*
X127665Y290561D02*Y291308D01*
X128257Y291899D01*
X122715Y288476D02*Y287826D01*
X125011Y287609D02*X124061D01*
X123828Y287843D01*
X122715D01*
Y289126D02*X124927D01*
X123566Y291000D02*X124297Y291732D01*
X126881Y289776D02*X127665Y290561D01*
X127330Y287843D02*X128869Y289382D01*
X126553Y284068D02*X127330Y284846D01*
Y287843D01*
X127841Y283068D02*Y286019D01*
X128707Y286888D02*X127841Y286022D01*
X128824Y284348D02*X128402Y283926D01*
Y282351D01*
X122618Y282769D02*Y282080D01*
Y282120D02*X123896D01*
X124130Y281887D01*
X125123Y283317D02*X125021Y283418D01*
X122618D01*
X124130Y281887D02*X125125D01*
X124963Y280190D02*X127841Y283068D01*
X128920Y281808D02*X127102Y279989D01*
X126705Y279593D02*X127456Y280344D01*
X127655Y279268D02*X127213Y278826D01*
X131016Y279268D02*X127655D01*
X122618Y284068D02*X126553D01*
X120000Y285869D02*X119999Y285868D01*
Y282118D02*X117279D01*
X116492Y282905D01*
Y289006D01*
X119999Y285868D02*Y284068D01*
X121669Y287995D02*Y283538D01*
X121298Y289613D02*X121303Y289608D01*
X120820Y289126D01*
X120095D01*
X120129Y289810D02*Y291506D01*
X121248Y289554D02*X122695Y291000D01*
X124927Y289126D02*X125021Y289032D01*
X122695Y291000D02*X123566D01*
X120095Y288476D02*X117406D01*
X116911Y288971D01*
X120053Y288476D02*X121188D01*
X121669Y287995D01*
X116487Y288343D02*X116987Y287843D01*
X120145D01*
X124421Y278132D02*X124963Y278674D01*
Y280190D01*
X119924Y279827D02*Y278135D01*
X119920Y278132D01*
X121669Y283538D02*X120899Y282768D01*
X119999D01*
X116492Y277515D02*Y283347D01*
X118684Y277470D02*X119908D01*
X119920Y277482D01*
X118280Y283977D02*X118839Y283418D01*
X119999D01*
X119910Y271970D02*Y273612D01*
X119895Y270655D02*X119910Y270670D01*
Y271320D02*X118176D01*
X119891Y270652D02*X121078D01*
X121445Y270284D01*
X118176Y271320D02*X117899Y271597D01*
X119920Y276832D02*X120884D01*
X121669Y277617D01*
Y284051D01*
Y278425D02*Y275473D01*
X120884Y274688D01*
X122540Y276832D02*Y276182D01*
Y277482D02*X122549Y277472D01*
X122540Y276182D02*X123784D01*
X124109Y275857D01*
X125113D01*
X122540Y278132D02*X124421D01*
X122549Y277472D02*X125128D01*
X128402Y282351D02*X126258Y280208D01*
Y272877D01*
X125344Y271963D01*
X125337Y271970D01*
X126705Y267089D02*Y279593D01*
X129405Y271648D02*X127757Y269999D01*
X131016Y269108D02*X129328D01*
X128263Y268042D01*
X125337Y271970D02*X122530D01*
Y271320D02*X124806D01*
X125166Y270960D01*
X124582Y270020D02*X125169Y269433D01*
X122530Y270020D02*Y270670D01*
Y270020D02*X123655D01*
X122530D02*X124582D01*
X124736Y265358D02*X122563D01*
Y264708D02*X126144D01*
X126149Y264704D01*
X124579Y265358D02*X124975D01*
X126705Y267089D01*
X121445Y270284D02*Y264528D01*
X121166Y264249D01*
X122563Y264058D02*Y263408D01*
X119943Y264058D02*X120975D01*
X121247Y264330D01*
X127213Y278826D02*Y260058D01*
X126180Y253319D02*X122593D01*
X122564Y251372D02*Y252022D01*
X126223Y252458D02*X126010Y252671D01*
X122564D01*
X126213Y250975D02*X125821Y251366D01*
X122570D01*
X122636Y245504D02*Y244854D01*
X128263Y248151D02*X126903Y246791D01*
X127932Y244574D02*Y246449D01*
X120016Y244854D02*X113792D01*
X134419Y244671D02*X135898D01*
X126903Y246791D02*X122643D01*
X122636Y246154D02*X126080D01*
X126234Y245999D01*
X122636Y245504D02*X125180D01*
X126254Y244430D01*
X127932Y246449D02*X128788Y247305D01*
X134419Y252024D02*Y251374D01*
Y252674D02*X134421Y252677D01*
X136357D01*
X134419Y251376D02*X136119D01*
X131799Y252674D02*X131794Y252669D01*
X136119Y251376D02*X136345Y251150D01*
Y250238D01*
X136357Y250226D01*
X118425Y252677D02*X114747D01*
X119945Y251372D02*X114244D01*
X114219Y254655D02*X116345D01*
X116944Y255255D01*
X127757Y269999D02*Y254897D01*
X128263Y268042D02*Y248151D01*
X121448Y258394D02*Y264942D01*
X119970Y257927D02*X120965D01*
X121450Y258412D01*
X119945Y252022D02*X120864D01*
X121448Y252606D01*
Y259062D01*
X120016Y245504D02*X120897D01*
X121448Y246055D01*
Y253180D01*
X119920Y276182D02*X117825D01*
X118895D02*X114178D01*
X117825D02*X116492Y277515D01*
X113751Y270655D02*X119895D01*
X113769Y268978D02*X114811Y270020D01*
X119910D01*
X116944Y270007D02*X116931Y270020D01*
X116944Y269657D02*X116581Y270020D01*
X116375D01*
X116944Y269687D02*X117277Y270020D01*
X120884Y274688D02*X113576D01*
X112332Y273444D01*
X114178Y276182D02*X111879Y273883D01*
X119943Y263408D02*X117401D01*
X116944Y263865D01*
Y270007D01*
Y269654D02*Y269687D01*
X119970Y257277D02*X117688D01*
X116944Y258021D01*
Y264737D01*
Y255255D02*Y258806D01*
X112332Y273444D02*Y244699D01*
X111879Y273883D02*Y244488D01*
X127213Y260058D02*X126382Y259227D01*
X125974Y258577D02*X126197Y258354D01*
X126382Y259227D02*X122590D01*
Y258577D02*X125974D01*
X122590Y257927D02*Y257277D01*
X126215Y256847D02*X125785Y257277D01*
X122590D01*
X127757Y254897D02*X126180Y253319D01*
X113706Y251910D02*Y254142D01*
X114219Y254655D01*
X134419Y253324D02*X133528D01*
X133266Y253586D01*
Y255115D01*
X132291Y256090D01*
X131799Y253324D02*X130666D01*
X129629Y254361D01*
X131794Y252669D02*X129639D01*
X97013Y254695D02*Y261252D01*
X99583Y261638D02*Y254726D01*
X102060Y254624D02*Y262659D01*
X104676Y260330D02*Y254657D01*
X119918Y266984D02*Y265382D01*
X119943Y265358D01*
Y264708D02*X119928Y264693D01*
X117993D01*
X119965Y258572D02*X118110D01*
X119952Y260972D02*Y259245D01*
X119970Y259227D01*
Y258577D02*X119965Y258572D01*
X119954Y254952D02*X119945Y254943D01*
Y253321D01*
X120023Y248533D02*Y246811D01*
X119945Y252671D02*X119939Y252677D01*
X118300D01*
X99545Y242456D02*X99548Y242453D01*
X97013Y242458D02*X97008Y242453D01*
X102088Y252796D02*Y242453D01*
X99545Y242456D02*Y252844D01*
X97013Y252895D02*Y242458D01*
X104658Y252839D02*Y242484D01*
X97013Y266101D02*Y260896D01*
X99583Y267398D02*Y261153D01*
X104676Y259822D02*Y268768D01*
X102060Y262397D02*Y263530D01*
X103607Y265077D01*
Y268473D01*
G54D16*X101915Y267480D02*X101054Y268341D01*
X99916D01*
G54D11*X120016Y246154D02*X114020D01*
X113995Y246129D01*
X114244Y251372D02*X113706Y251910D01*
X113176Y250400D02*X113706Y250929D01*
Y252534D01*
X113792Y244854D02*X112730Y245915D01*
X112332Y244699D02*X113355Y243675D01*
X111879Y244488D02*X113139Y243228D01*
X112730Y245915D02*Y249954D01*
X113248Y250472D01*
X113355Y243675D02*X127033D01*
X127612Y244254D01*
X127373Y244015D02*X127932Y244574D01*
X113139Y243228D02*X128133D01*
X128760Y243855D01*
X134419Y245314D02*Y244664D01*
X130698Y246809D02*Y248313D01*
X130680Y248331D01*
X134419Y246614D02*X136152D01*
X137236Y247698D01*
X134419Y245964D02*X137221D01*
X137236Y245948D01*
X131799Y246614D02*X130894D01*
X130698Y246809D01*
X131799Y245964D02*X131796Y245961D01*
X129675D01*
X135898Y244671D02*X136284Y244284D01*
X137208D01*
X119499Y224739D02*X125926Y231165D01*
X119184Y232537D02*Y227236D01*
X121149Y233135D02*Y227621D01*
X125926Y231165D02*X132057D01*
X120439Y234800D02*X134643D01*
X120663Y235262D02*X138112D01*
X112911Y235806D02*X116959Y231757D01*
X111841Y235100D02*Y224777D01*
X116916Y231800D02*Y224874D01*
X111841Y224777D02*X111879Y224739D01*
X116218Y232499D02*X116916Y231800D01*
X114480Y237034D02*X116399D01*
X119184Y234249D01*
Y232181D01*
X118135Y236146D02*X118138D01*
X116746Y237536D02*X118135Y236146D01*
X118138D02*X121149Y233135D01*
X117170Y238069D02*X120439Y234800D01*
X117422Y238503D02*X120663Y235262D01*
X105115Y289344D02*X103188Y287416D01*
X100823D01*
X104694Y289499D02*X103010Y287815D01*
X104046Y285410D02*X107160Y288524D01*
X104211Y285011D02*X107556Y288356D01*
X107973Y288166D02*X104397Y284589D01*
X108433Y287970D02*X104602Y284140D01*
X104310Y289684D02*X102840Y288214D01*
X102674Y288608D02*X103886Y289819D01*
X102509Y289016D02*X103492Y289999D01*
X103086Y290142D02*X102367Y289423D01*
X102692Y290304D02*X102205Y289817D01*
X100978Y291074D02*X101458Y291554D01*
X100487Y280449D02*Y280452D01*
X100462Y280383D02*X97726Y277647D01*
X102032Y280238D02*X98161Y276367D01*
X103683Y280017D02*X98616Y274950D01*
X105095Y279664D02*X104422Y278991D01*
X103297D01*
X99129Y274823D01*
X98161Y276367D02*Y273114D01*
X97120Y271237D02*X98217Y272334D01*
X98616Y272732D02*X98148Y272265D01*
X98616Y274508D02*Y272732D01*
G54D16*X99230Y269027D02*Y270820D01*
G54D11*X97726Y277647D02*Y273525D01*
X97384Y273182D01*
X98616Y274950D02*Y274503D01*
X99129Y274823D02*Y273040D01*
X99632Y272537D01*
X101385D01*
G54D16*Y271887D02*X103102D01*
X104402Y270587D01*
G54D11*X97695Y269287D02*X99583Y267398D01*
X104676Y268768D02*X103506Y269937D01*
X101385D01*
X103607Y268473D02*X102792Y269287D01*
X101385D01*
G54D16*X99916Y268341D02*X99230Y269027D01*
G54D11*X106307Y275511D02*X105932Y275137D01*
X106036Y274487D02*X106700Y275151D01*
X106037Y273837D02*X106710Y274510D01*
X107089Y274889D02*X106573Y274373D01*
X107485Y274526D02*X106995Y274036D01*
X106146Y273187D02*X107177Y274217D01*
X105932Y275137D02*X101385D01*
Y274487D02*X106036D01*
X101385Y273837D02*X106037D01*
X101385Y273187D02*X106146D01*
G54D16*X101385Y270587D02*X108240D01*
G54D11*X108242Y270589D01*
G54D16*X99230Y270820D02*X99647Y271237D01*
X101385D01*
G54D11*X129002Y229837D02*X159073D01*
X140675Y235262D02*X145245Y230693D01*
X154041Y233853D02*X156615D01*
X156658Y233810D01*
Y231811D02*X156655Y231808D01*
X153492D01*
X131399Y228503D02*X146281D01*
X132057Y231165D02*X133721Y232829D01*
X134021Y234800D02*X136200D01*
X140284Y230716D01*
X137163Y235262D02*X140675D01*
X152415Y238473D02*X154051Y240109D01*
X154269Y238872D02*X155052Y239654D01*
X156365D01*
X154051Y240109D02*Y244140D01*
X154762Y244851D01*
X154562Y247617D02*X154567Y247622D01*
X156360D01*
X140817Y246548D02*X142385Y244980D01*
X143779D01*
X154762Y244851D02*X156809D01*
X158270Y243390D01*
Y241593D01*
X154866Y243634D02*Y242159D01*
X155432Y241593D01*
X156350D01*
X133327Y251640D02*Y245974D01*
X133002Y245648D01*
X131799Y245314D02*X132668D01*
X133106Y245753D01*
X131799Y251374D02*X130043D01*
X129522Y250853D01*
X129352Y250081D02*Y250683D01*
X129703Y251033D01*
X128788Y250850D02*X129962Y252024D01*
X132943D02*X129962D01*
X129352Y248199D02*Y250215D01*
Y248783D02*Y246944D01*
X128788Y247305D02*Y250850D01*
X140817Y251661D02*Y246548D01*
X138867Y249723D02*X138817Y249773D01*
Y251661D02*Y249773D01*
X138871Y249719D01*
X146562Y251717D02*Y248078D01*
X152059Y251730D02*Y248180D01*
X148859Y244980D01*
X150084Y249855D02*Y251705D01*
X144556Y249702D02*Y251711D01*
X146319Y244980D02*Y247839D01*
X146562Y248082D01*
X131799Y244664D02*X129178D01*
X129611D01*
X129548D02*X129029D01*
X129169D02*X128810D01*
X129352Y246944D02*X128760Y246352D01*
Y244937D01*
X128897Y244800D01*
X129029Y244664D02*X128844Y244848D01*
X128760Y243855D02*Y245471D01*
X128810Y244664D02*X128760Y244615D01*
X129141Y244664D02*X128760Y244283D01*
Y244173D01*
X132943Y252024D02*X133327Y251640D01*
X139320Y258630D02*X139325Y258635D01*
X141315D01*
X150569Y258656D02*X150602Y258689D01*
X152839D01*
X139320Y263710D02*X142286D01*
X143866Y262131D01*
Y258643D01*
X150752Y263792D02*X153190D01*
X158326Y239650D02*X162019D01*
X146975Y236982D02*X143779Y240177D01*
Y242440D01*
X147757Y238597D02*X146304Y240050D01*
X147260Y239094D02*X147881Y238473D01*
X146304Y240050D02*Y242423D01*
X148857Y240660D02*Y242428D01*
X153411Y240731D02*Y250558D01*
X162019Y244149D02*X162024Y244145D01*
X164849D01*
X152326Y239822D02*X150020D01*
X151011D02*X149695D01*
X148857Y240660D01*
X152014Y239822D02*X152502D01*
X153411Y240731D01*
X147881Y238473D02*X152415D01*
X159073Y229837D02*X161414Y227495D01*
X146281Y228503D02*X147897Y226888D01*
Y224160D01*
X161414Y227495D02*Y224747D01*
X158577Y231811D02*X162100D01*
X162100Y231811D01*
X158577Y233810D02*X155406Y236982D01*
X146975D01*
X162100Y236311D02*X162141Y236271D01*
X164833D01*
X183540Y244597D02*X183556Y244582D01*
X181318Y246175D02*Y245168D01*
X181905Y244582D01*
X183556D01*
X174358Y268506D02*Y225984D01*
X183533Y257129D02*X183507Y257104D01*
X178111Y247986D02*X175209Y250888D01*
X178128Y247965D02*X177736Y248356D01*
X162189Y247630D02*X158288D01*
X158280Y247622D01*
X154541Y249631D02*X154551Y249622D01*
X156360D01*
X153411Y250558D02*X153911Y251059D01*
X157584D02*X158290Y250353D01*
Y249560D01*
X187371Y247965D02*X178128D01*
X187378Y222806D02*X181303D01*
X181282Y222786D01*
X184173Y226390D02*X184193Y226411D01*
X181282Y224586D02*Y225547D01*
X181823Y226088D01*
X184193Y226411D02*X182146D01*
X181775Y226040D01*
X174358Y225984D02*X177556Y222786D01*
X181282D01*
X187371Y235301D02*X187283Y235388D01*
X187361Y235311D02*X187371Y235301D01*
X181303Y235311D02*X187361D01*
X181303Y233511D02*Y232443D01*
X182169Y231577D01*
X183911Y231610D02*X183919Y231602D01*
X182169Y231577D02*X183893D01*
X171147Y227899D02*X171990D01*
X171569D02*Y226213D01*
X172496Y227688D02*Y226424D01*
Y227688D02*X172707Y227899D01*
X173129D01*
X173339Y227688D01*
Y226424D01*
X173129Y226213D02*X173339Y226424D01*
X172707Y226213D02*X173129D01*
X172496Y226424D02*X172707Y226213D01*
X174056Y227899D02*Y226213D01*
X173845Y227899D02*X174689D01*
X174899Y227688D01*
Y227267D01*
X174689Y227056D02*X174899Y227267D01*
X174056Y227056D02*X174689D01*
G54D25*X83185Y304165D03*
Y301625D03*
X80645Y304165D03*
Y301625D03*
G54D26*G36*
X87503Y304927D02*Y303403D01*
X89027D01*
Y304927D01*
X87503D01*
G37*
G54D25*X88265Y301625D03*
X85725Y304165D03*
Y301625D03*
X78105Y304165D03*
Y301625D03*
G54D26*G36*
X73076Y289403D02*Y287625D01*
X74854D01*
Y289403D01*
X73076D01*
G37*
G54D27*X76505Y288514D03*
X79045D03*
X81585D03*
G54D25*X187114Y263301D03*
Y265841D03*
Y268381D03*
G54D26*G36*
X186159Y274681D02*Y273157D01*
X187683D01*
Y274681D01*
X186159D01*
G37*
G54D25*X186921Y276459D03*
Y278999D03*
Y281539D03*
G54D26*G36*
X186185Y287617D02*Y286093D01*
X187709D01*
Y287617D01*
X186185D01*
G37*
G36*
X130254Y292730D02*Y291206D01*
X131778D01*
Y292730D01*
X130254D01*
G37*
G54D25*X133556Y291968D03*
Y289428D03*
Y286888D03*
X131016Y289428D03*
Y286888D03*
Y284348D03*
Y281808D03*
Y279268D03*
Y276728D03*
X133556Y284348D03*
Y281808D03*
Y279268D03*
Y276728D03*
X131016Y274188D03*
Y271648D03*
Y269108D03*
X133556Y274188D03*
Y271648D03*
Y269108D03*
G54D26*G36*
X93505Y228166D02*Y226642D01*
X95029D01*
Y228166D01*
X93505D01*
G37*
G54D25*X91727Y227404D03*
X89187D03*
X94267Y224864D03*
X91727D03*
X89187D03*
X86647D03*
X84107D03*
X81567D03*
X86647Y227404D03*
X84107D03*
X81567D03*
X79027D03*
G54D26*G36*
X97980Y225588D02*Y223810D01*
X99758D01*
Y225588D01*
X97980D01*
G37*
G54D27*X101410Y224699D03*
X103950D03*
X106490D03*
G54D25*X79027Y224864D03*
X76487Y227404D03*
X73947D03*
X71407D03*
X76487Y224864D03*
X73947D03*
X71407D03*
X68867D03*
X66327D03*
X63787D03*
X68867Y227404D03*
X66327D03*
X63787D03*
X61247D03*
G54D26*G36*
X124333Y225616D02*Y223838D01*
X126111D01*
Y225616D01*
X124333D01*
G37*
G36*
X110990Y225628D02*Y223850D01*
X112768D01*
Y225628D01*
X110990D01*
G37*
G54D27*X114419Y224739D03*
X116959D03*
X119499D03*
X127762Y224726D03*
X130302D03*
X132842D03*
G54D26*G36*
X139362Y225646D02*Y223868D01*
X141140D01*
Y225646D01*
X139362D01*
G37*
G54D27*X142791Y224757D03*
X145331D03*
X147871D03*
G54D25*X61247Y224864D03*
X58707D03*
X56167D03*
X53627D03*
X51087D03*
X58707Y227404D03*
X56167D03*
X53627D03*
X51087D03*
G54D26*G36*
X43647Y233637D02*Y231859D01*
X45425D01*
Y233637D01*
X43647D01*
G37*
G54D27*X44536Y230208D03*
Y227668D03*
Y225128D03*
G54D26*G36*
X152900Y225638D02*Y223860D01*
X154678D01*
Y225638D01*
X152900D01*
G37*
G54D27*X156329Y224749D03*
X158869D03*
X161409D03*
G54D26*G36*
X186616Y223568D02*Y222044D01*
X188140D01*
Y223568D01*
X186616D01*
G37*
G54D25*X187378Y225346D03*
Y227886D03*
Y230426D03*
X186947Y289395D03*
Y291935D03*
Y294475D03*
G54D26*G36*
X186251Y300835D02*Y299311D01*
X187775D01*
Y300835D01*
X186251D01*
G37*
G54D25*X187013Y302613D03*
Y305153D03*
Y307693D03*
G54D26*G36*
X186276Y313230D02*Y311706D01*
X187800D01*
Y313230D01*
X186276D01*
G37*
G54D25*X187038Y315008D03*
Y317548D03*
Y320088D03*
G54D26*G36*
X186152Y325948D02*Y324424D01*
X187676D01*
Y325948D01*
X186152D01*
G37*
G54D25*X186914Y327726D03*
Y330266D03*
Y332806D03*
G54D26*G36*
X186205Y338943D02*Y337419D01*
X187729D01*
Y338943D01*
X186205D01*
G37*
G54D25*X186967Y340721D03*
Y343261D03*
Y345801D03*
G54D26*G36*
X146431Y360525D02*Y359001D01*
X147955D01*
Y360525D01*
X146431D01*
G37*
G54D25*X147193Y362303D03*
X149733Y359763D03*
Y362303D03*
X152273Y359763D03*
Y362303D03*
X154813Y359763D03*
Y362303D03*
X157353D03*
X159893D03*
X157353Y359763D03*
X159893D03*
X162433D03*
X164973D03*
X167513D03*
X170053D03*
X162433Y362303D03*
X164973D03*
X167513D03*
X170053D03*
X172593Y359763D03*
Y362303D03*
X175133D03*
X177673D03*
X175133Y359763D03*
X177673D03*
G54D26*G36*
X186609Y248727D02*Y247203D01*
X188133D01*
Y248727D01*
X186609D01*
G37*
G54D25*X187371Y250505D03*
Y253045D03*
Y255585D03*
G54D26*G36*
X186352Y261523D02*Y259999D01*
X187876D01*
Y261523D01*
X186352D01*
G37*
G36*
X186609Y236063D02*Y234539D01*
X188133D01*
Y236063D01*
X186609D01*
G37*
G54D25*X187371Y237841D03*
Y240381D03*
Y242921D03*
G54D26*G36*
X143017Y243202D02*Y241678D01*
X144541D01*
Y243202D01*
X143017D01*
G37*
G54D25*X143779Y244980D03*
X146319Y242440D03*
Y244980D03*
X148859Y242440D03*
X151399D03*
Y244980D03*
X148859D03*
G54D26*G36*
X43731Y245742D02*Y243964D01*
X45509D01*
Y245742D01*
X43731D01*
G37*
G36*
X96246Y243215D02*Y241691D01*
X97770D01*
Y243215D01*
X96246D01*
G37*
G54D25*X99548Y242453D03*
X102088D03*
X104628D03*
X107168D03*
G54D27*X44620Y242313D03*
Y239773D03*
Y237233D03*
G54D26*G36*
X43711Y282748D02*Y280970D01*
X45489D01*
Y282748D01*
X43711D01*
G37*
G54D27*X44600Y279319D03*
Y276779D03*
Y274239D03*
G54D26*G36*
X43744Y271191D02*Y269413D01*
X45522D01*
Y271191D01*
X43744D01*
G37*
G54D27*X44633Y267762D03*
Y265222D03*
Y262682D03*
G54D26*G36*
X43774Y258963D02*Y257185D01*
X45552D01*
Y258963D01*
X43774D01*
G37*
G54D27*X44663Y255534D03*
Y252994D03*
Y250454D03*
G54D26*G36*
X73678Y334391D02*Y332867D01*
X75202D01*
Y334391D01*
X73678D01*
G37*
G54D25*X71900Y333629D03*
G54D26*G36*
X73673Y336913D02*Y335389D01*
X75197D01*
Y336913D01*
X73673D01*
G37*
G54D25*X71895Y336151D03*
G54D26*G36*
X73698Y328590D02*Y327066D01*
X75222D01*
Y328590D01*
X73698D01*
G37*
G54D25*X71920Y327828D03*
G54D26*G36*
X73698Y331127D02*Y329603D01*
X75222D01*
Y331127D01*
X73698D01*
G37*
G54D25*X71920Y330365D03*
G54D26*G36*
X67513Y323314D02*Y321790D01*
X69037D01*
Y323314D01*
X67513D01*
G37*
G36*
X67516Y325869D02*Y324345D01*
X69040D01*
Y325869D01*
X67516D01*
G37*
G36*
X67498Y317370D02*Y315846D01*
X69022D01*
Y317370D01*
X67498D01*
G37*
G36*
X67495Y319921D02*Y318397D01*
X69019D01*
Y319921D01*
X67495D01*
G37*
G54D25*X65735Y322552D03*
X65738Y325107D03*
X65720Y316608D03*
X65717Y319159D03*
G54D26*G36*
X80007Y354673D02*Y353149D01*
X81531D01*
Y354673D01*
X80007D01*
G37*
G36*
X82550Y354670D02*Y353146D01*
X84074D01*
Y354670D01*
X82550D01*
G37*
G54D25*X80769Y351371D03*
X83312Y351368D03*
G54D26*G36*
X100030Y352240D02*Y350716D01*
X101554D01*
Y352240D01*
X100030D01*
G37*
G54D25*X98252Y351478D03*
G54D26*G36*
X51701Y345880D02*Y343537D01*
X54044D01*
Y345880D01*
X51701D01*
G37*
G54D28*X52873Y339628D03*
Y334548D03*
Y329468D03*
G54D26*G36*
X100035Y354777D02*Y353253D01*
X101559D01*
Y354777D01*
X100035D01*
G37*
G54D25*X98257Y354015D03*
G54D26*G36*
X91814Y360510D02*Y358986D01*
X93338D01*
Y360510D01*
X91814D01*
G37*
G54D25*X92576Y362288D03*
X95116Y359748D03*
Y362288D03*
X97656Y359748D03*
Y362288D03*
X100196Y359748D03*
X102736D03*
X105276D03*
X100196Y362288D03*
X102736D03*
X105276D03*
X107816D03*
X110356D03*
X112896D03*
X107816Y359748D03*
X110356D03*
X112896D03*
X115436Y362288D03*
X117976D03*
X120516D03*
X115436Y359748D03*
X117976D03*
X120516D03*
X123056D03*
Y362288D03*
G54D29*X167918Y351663D02*X169218D01*
X176527D02*X177827D01*
X167918Y349123D02*X169218D01*
X176527D02*X177827D01*
X167918Y346583D02*X169218D01*
X176527D02*X177827D01*
X167918Y344043D02*X169218D01*
X167918Y341503D02*X169218D01*
X167918Y338963D02*X169218D01*
X176527Y344043D02*X177827D01*
X176527Y341503D02*X177827D01*
X176527Y338963D02*X177827D01*
G54D30*X181421Y327774D02*X181621D01*
X181546Y338916D02*X181745D01*
X181546Y340716D02*X181745D01*
G54D31*X187174Y350761D02*X188374D01*
X190174D02*X191374D01*
G54D32*X130683Y338328D02*X132334D01*
X130683Y339598D02*X132334D01*
X130683Y340868D02*X132334D01*
X130683Y342138D02*X132334D01*
X130683Y343408D02*X132334D01*
G54D33*X103475Y340515D02*Y339115D01*
G54D32*X125476Y342138D02*X127127D01*
X125476Y340868D02*X127127D01*
X125476Y339598D02*X127127D01*
X125476Y343408D02*X127127D01*
X125476Y338328D02*X127127D01*
X125476Y337058D02*X127127D01*
G54D30*X150220Y345745D02*X150820D01*
X150220Y348745D02*X150820D01*
X147630D02*X148230D01*
X147630Y345745D02*X148230D01*
X153164Y347570D02*X153363D01*
X157126Y347548D02*X157326D01*
X153164Y345770D02*X153363D01*
X157126Y345748D02*X157326D01*
X157198Y350046D02*Y349846D01*
X155398Y350046D02*Y349846D01*
G54D32*X153463Y333955D02*X155114D01*
G54D30*X159666Y334289D02*X159866D01*
X161720D02*X161920D01*
G54D32*X110871Y343408D02*X112522D01*
X110871Y342138D02*X112522D01*
X110871Y340868D02*X112522D01*
X110871Y339598D02*X112522D01*
X110871Y338328D02*X112522D01*
X116078D02*X117729D01*
X116078Y339598D02*X117729D01*
X116078Y340868D02*X117729D01*
X116078Y342138D02*X117729D01*
X116078Y343408D02*X117729D01*
X125476Y335788D02*X127127D01*
G54D30*X124623Y330302D02*Y330103D01*
X122823Y330302D02*Y330103D01*
X124642Y327577D02*Y327377D01*
X122842Y327577D02*Y327377D01*
X124611Y332141D02*Y331942D01*
X122812Y332141D02*Y331942D01*
G54D32*X130683Y335788D02*X132334D01*
X130683Y337058D02*X132334D01*
G54D34*X130554Y329760D02*X131724D01*
X130554Y329110D02*X131724D01*
X130554Y328460D02*X131724D01*
X130554Y327810D02*X131724D01*
X130554Y327160D02*X131724D01*
G54D32*X110871Y337058D02*X112522D01*
X110871Y335788D02*X112522D01*
X116078D02*X117729D01*
X116078Y337058D02*X117729D01*
G54D33*X103475Y331115D02*Y329715D01*
G54D32*X153463Y330145D02*X155114D01*
X153463Y331415D02*X155114D01*
X153463Y332685D02*X155114D01*
G54D30*X151587Y328090D02*Y327890D01*
X153387Y328090D02*Y327890D01*
X159666Y328854D02*X159866D01*
X159666Y330654D02*X159866D01*
G54D32*X148256Y333955D02*X149907D01*
G54D30*X143521Y334973D02*Y334774D01*
X141721Y334973D02*Y334774D01*
G54D32*X148256Y332685D02*X149907D01*
G54D30*X141710Y332789D02*Y332589D01*
X143510Y332789D02*Y332589D01*
G54D32*X148256Y331415D02*X149907D01*
X148256Y330145D02*X149907D01*
G54D30*X159666Y332490D02*X159866D01*
X161720D02*X161920D01*
X137578Y346705D02*X137778D01*
X137578Y344905D02*X137778D01*
X136125Y343192D02*X136325D01*
X136125Y341392D02*X136325D01*
X140360Y338891D02*X140559D01*
X142432Y338879D02*X142632D01*
X142432Y337079D02*X142632D01*
X138302Y338902D02*X138502D01*
X138302Y337102D02*X138502D01*
X136110Y338897D02*X136310D01*
X136110Y337097D02*X136310D01*
G54D34*X136454Y327160D02*X137624D01*
X136454Y327810D02*X137624D01*
G54D30*X140360Y337091D02*X140559D01*
X139036Y332483D02*X139236D01*
X139036Y334283D02*X139236D01*
G54D34*X136454Y328460D02*X137624D01*
X136454Y329110D02*X137624D01*
X136454Y329760D02*X137624D01*
G54D29*X50539Y279608D02*X51839D01*
X59148D02*X60449D01*
X50539Y277068D02*X51839D01*
X59148D02*X60449D01*
X50539Y274528D02*X51839D01*
X59148D02*X60449D01*
G54D33*X65049Y275133D02*Y273733D01*
X63779Y275133D02*Y273733D01*
G54D30*X45384Y295762D02*X45584D01*
X45384Y293962D02*X45584D01*
G54D31*X48222Y291762D02*Y289962D01*
Y286963D02*Y285162D01*
G54D30*X59819Y297307D02*X60018D01*
G54D33*X63973Y301125D02*X65372D01*
G54D30*X59819Y295507D02*X60018D01*
X51337Y294054D02*Y293854D01*
X53137Y294054D02*Y293854D01*
X55604Y294054D02*Y293854D01*
G54D31*X57229Y290383D02*Y288583D01*
Y285583D02*Y283783D01*
G54D30*X51359Y298778D02*Y298579D01*
X53159Y298778D02*Y298579D01*
X55550Y298804D02*Y298604D01*
X57350Y298804D02*Y298604D01*
X57404Y294054D02*Y293854D01*
G54D29*X50539Y271988D02*X51839D01*
X59148D02*X60449D01*
X59148Y269448D02*X60449D01*
X50539D02*X51839D01*
X50539Y266908D02*X51839D01*
G54D33*X87960Y251405D02*Y250005D01*
X86690Y251405D02*Y250005D01*
X85420Y251405D02*Y250005D01*
X84150Y251405D02*Y250005D01*
X82880Y251405D02*Y250005D01*
X81610Y251405D02*Y250005D01*
X80340Y251405D02*Y250005D01*
X79070Y251405D02*Y250005D01*
X77800Y251405D02*Y250005D01*
G54D30*X90022Y244814D02*X90222D01*
X90022Y246614D02*X90222D01*
G54D33*X77800Y242005D02*Y240605D01*
X79070Y242005D02*Y240605D01*
X80340Y242005D02*Y240605D01*
X81610Y242005D02*Y240605D01*
X82880Y242005D02*Y240605D01*
X84150Y242005D02*Y240605D01*
X85420Y242005D02*Y240605D01*
X86690Y242005D02*Y240605D01*
X87960Y242005D02*Y240605D01*
G54D34*X67046Y253699D02*X68216D01*
X67046Y254348D02*X68216D01*
X67046Y254998D02*X68216D01*
X67046Y255648D02*X68216D01*
X67046Y256298D02*X68216D01*
X67046Y256948D02*X68216D01*
X67046Y257598D02*X68216D01*
G54D29*X52299Y236307D02*Y235007D01*
Y244916D02*Y243616D01*
X54839Y236307D02*Y235007D01*
Y244916D02*Y243616D01*
X57379Y236307D02*Y235007D01*
Y244916D02*Y243616D01*
X59919Y236307D02*Y235007D01*
Y244916D02*Y243616D01*
X62459Y236307D02*Y235007D01*
Y244916D02*Y243616D01*
X64999Y244916D02*Y243616D01*
Y236307D02*Y235007D01*
X59148Y266908D02*X60449D01*
G54D33*X63779Y265733D02*Y264333D01*
X65049Y265733D02*Y264333D01*
X66319Y265733D02*Y264333D01*
X67589Y265733D02*Y264333D01*
X68859Y265733D02*Y264333D01*
X70129Y265733D02*Y264333D01*
X71399Y265733D02*Y264333D01*
X72669Y265733D02*Y264333D01*
X73939Y265733D02*Y264333D01*
G54D34*X61146Y257598D02*X62316D01*
X61146Y256948D02*X62316D01*
X61146Y256298D02*X62316D01*
X61146Y255648D02*X62316D01*
X61146Y254998D02*X62316D01*
X61146Y254348D02*X62316D01*
X61146Y253699D02*X62316D01*
X56307Y253686D02*X57477D01*
X50407Y257586D02*X51577D01*
X50407Y256936D02*X51577D01*
X50407Y256286D02*X51577D01*
X50407Y255636D02*X51577D01*
X50407Y254986D02*X51577D01*
X50407Y254336D02*X51577D01*
X50407Y253686D02*X51577D01*
X56307Y254336D02*X57477D01*
X56307Y254986D02*X57477D01*
X56307Y255636D02*X57477D01*
X56307Y256286D02*X57477D01*
X56307Y256936D02*X57477D01*
X56307Y257586D02*X57477D01*
G54D30*X90057Y298649D02*Y298449D01*
X90112Y296729D02*Y296529D01*
X90053Y294745D02*Y294545D01*
X90142Y292881D02*Y292681D01*
X88257Y298649D02*Y298449D01*
X88312Y296729D02*Y296529D01*
X88253Y294745D02*Y294545D01*
X88342Y292881D02*Y292681D01*
X85989Y294747D02*Y294548D01*
X86037Y292883D02*Y292683D01*
X86025Y298644D02*Y298444D01*
X84225Y298644D02*Y298444D01*
X86015Y296731D02*Y296532D01*
G54D33*X78699Y275112D02*Y273712D01*
X77429Y275112D02*Y273712D01*
X73939Y275133D02*Y273733D01*
X79969Y275112D02*Y273712D01*
G54D30*X84215Y296731D02*Y296532D01*
G54D33*X73372Y301125D02*X74772D01*
G54D30*X84189Y294747D02*Y294548D01*
X84238Y292883D02*Y292683D01*
G54D33*X68859Y275133D02*Y273733D01*
X72669Y275133D02*Y273733D01*
X71399Y275133D02*Y273733D01*
X70129Y275133D02*Y273733D01*
X67589Y275133D02*Y273733D01*
X66319Y275133D02*Y273733D01*
X87589Y275112D02*Y273712D01*
X86319Y275112D02*Y273712D01*
G54D30*X104558Y254639D02*X104758D01*
X104558Y252839D02*X104758D01*
X101960Y254624D02*X102160D01*
X101960Y252824D02*X102160D01*
X99476Y254675D02*X99675D01*
X99476Y252875D02*X99675D01*
X96913Y254695D02*X97113D01*
X96913Y252895D02*X97113D01*
G54D34*X100800Y269287D02*X101970D01*
X100800Y269937D02*X101970D01*
X100800Y270587D02*X101970D01*
X100800Y271237D02*X101970D01*
X100800Y271887D02*X101970D01*
X100800Y272537D02*X101970D01*
X100800Y273187D02*X101970D01*
X100800Y273837D02*X101970D01*
X100800Y274487D02*X101970D01*
X100800Y275137D02*X101970D01*
X94900D02*X96070D01*
X94900Y274487D02*X96070D01*
X94900Y273837D02*X96070D01*
X94900Y273187D02*X96070D01*
X94900Y272537D02*X96070D01*
X94900Y271887D02*X96070D01*
X94900Y271237D02*X96070D01*
X94900Y270587D02*X96070D01*
X94900Y269937D02*X96070D01*
X94900Y269287D02*X96070D01*
G54D33*X77429Y265712D02*Y264313D01*
X78699Y265712D02*Y264313D01*
X79969Y265712D02*Y264313D01*
X81239Y265712D02*Y264313D01*
X82509Y265712D02*Y264313D01*
X83779Y265712D02*Y264313D01*
X85049Y265712D02*Y264313D01*
X86319Y265712D02*Y264313D01*
X87589Y265712D02*Y264313D01*
X83779Y275112D02*Y273712D01*
X85049Y275112D02*Y273712D01*
X82509Y275112D02*Y273712D01*
X81239Y275112D02*Y273712D01*
X82783Y317833D02*X84183D01*
X82783Y319103D02*X84183D01*
X82783Y320373D02*X84183D01*
X82783Y321643D02*X84183D01*
X82783Y322913D02*X84183D01*
X82783Y324183D02*X84183D01*
G54D35*X76845Y346290D02*Y344850D01*
X78115Y346290D02*Y344850D01*
G54D33*X80523Y331125D02*Y329725D01*
X81793Y331125D02*Y329725D01*
X83063Y331125D02*Y329725D01*
X84333Y331125D02*Y329725D01*
X85603Y331125D02*Y329725D01*
X86873Y331125D02*Y329725D01*
X88143Y331125D02*Y329725D01*
X89413Y331125D02*Y329725D01*
Y340525D02*Y339125D01*
X88143Y340525D02*Y339125D01*
X86873Y340525D02*Y339125D01*
X85603Y340525D02*Y339125D01*
X84333Y340525D02*Y339125D01*
X83063Y340525D02*Y339125D01*
X81793Y340525D02*Y339125D01*
X80523Y340525D02*Y339125D01*
G54D30*X57393Y317449D02*Y317249D01*
X59193Y317449D02*Y317249D01*
X54655Y317483D02*Y317283D01*
X52855Y317483D02*Y317283D01*
G54D31*X47513Y322741D02*Y320940D01*
Y317941D02*Y316141D01*
G54D30*X59204Y313028D02*Y312828D01*
X57404Y313028D02*Y312828D01*
X54602Y313028D02*Y312828D01*
X52802Y313028D02*Y312828D01*
G54D31*X52774Y308606D02*Y306806D01*
Y303806D02*Y302006D01*
G54D33*X63973Y311285D02*X65372D01*
X63973Y310015D02*X65372D01*
X63973Y308745D02*X65372D01*
X63973Y306205D02*X65372D01*
X63973Y304935D02*X65372D01*
X63973Y303665D02*X65372D01*
X63973Y302395D02*X65372D01*
X63973Y307475D02*X65372D01*
G54D31*X55613Y353695D02*X56813D01*
G54D30*X60225Y356721D02*X60425D01*
G54D31*X52613Y353695D02*X53813D01*
G54D36*X47517Y352628D02*Y352476D01*
X49498Y352628D02*Y352476D01*
X48508Y354711D02*Y354559D01*
G54D30*X54737Y358621D02*Y358421D01*
X56537Y358621D02*Y358421D01*
X52462Y358621D02*Y358421D01*
X50662Y358621D02*Y358421D01*
G54D31*X60463Y347707D02*X61663D01*
X63463D02*X64663D01*
X63487Y341122D02*X64687D01*
X60487D02*X61687D01*
G54D30*X78005Y339979D02*X78205D01*
X78005Y341779D02*X78205D01*
X82931Y348842D02*Y348642D01*
X81131Y348842D02*Y348642D01*
X82931Y345286D02*Y345086D01*
X81131Y345286D02*Y345086D01*
X68734Y351652D02*X68934D01*
X68734Y353452D02*X68934D01*
G54D35*X68829Y357635D02*Y356195D01*
G54D30*X71655Y357113D02*X71855D01*
X71655Y358913D02*X71855D01*
G54D37*X75692Y356616D02*X75946D01*
X75692Y358902D02*X75946D01*
G54D35*X73035Y346290D02*Y344850D01*
X74305Y346290D02*Y344850D01*
X75575Y346290D02*Y344850D01*
G54D38*Y350569D02*Y350399D01*
G54D30*X60225Y358521D02*X60425D01*
G54D35*X63749Y357635D02*Y356195D01*
X65019Y357635D02*Y356195D01*
X66289Y357635D02*Y356195D01*
X67559Y357635D02*Y356195D01*
G54D38*X66289Y361914D02*Y361744D01*
G54D30*X74030Y364740D02*Y364540D01*
X72230Y364740D02*Y364540D01*
X76524Y364724D02*Y364525D01*
X78324Y364724D02*Y364525D01*
G54D39*X101612Y326598D02*Y325735D01*
X101112Y326598D02*Y325735D01*
X100612Y326598D02*Y325735D01*
X100112Y326598D02*Y325735D01*
X97612Y326598D02*Y325735D01*
X97112Y326598D02*Y325735D01*
X96612Y326598D02*Y325735D01*
X96112Y326598D02*Y325735D01*
X95612Y326598D02*Y325735D01*
X95112Y326598D02*Y325735D01*
X94612Y326598D02*Y325735D01*
X94112Y326598D02*Y325735D01*
X93612Y326598D02*Y325735D01*
X91232Y317218D02*X92095D01*
X91232Y316718D02*X92095D01*
X91232Y316218D02*X92095D01*
X91232Y315718D02*X92095D01*
X91232Y315218D02*X92095D01*
X91232Y314718D02*X92095D01*
X91232Y314218D02*X92095D01*
X91232Y313718D02*X92095D01*
X91232Y313218D02*X92095D01*
G54D33*X73372Y302395D02*X74772D01*
X73372Y303665D02*X74772D01*
X73372Y304935D02*X74772D01*
X73372Y306205D02*X74772D01*
X73372Y307475D02*X74772D01*
X73372Y308745D02*X74772D01*
X73372Y310015D02*X74772D01*
X73383Y324183D02*X74783D01*
X73383Y322913D02*X74783D01*
X73383Y321643D02*X74783D01*
X73383Y320373D02*X74783D01*
X73383Y319103D02*X74783D01*
X73383Y317833D02*X74783D01*
X73383Y316563D02*X74783D01*
X73383Y315293D02*X74783D01*
X73383Y314023D02*X74783D01*
G54D39*X91232Y312718D02*X92095D01*
G54D33*X82783Y314023D02*X84183D01*
X82783Y315293D02*X84183D01*
X82783Y316563D02*X84183D01*
X73372Y311285D02*X74772D01*
X102205Y340515D02*Y339115D01*
X100935Y340515D02*Y339115D01*
X99665Y340515D02*Y339115D01*
X98395Y340515D02*Y339115D01*
X97125Y340515D02*Y339115D01*
X95855Y340515D02*Y339115D01*
X94585Y340515D02*Y339115D01*
X93315Y340515D02*Y339115D01*
Y331115D02*Y329715D01*
X94585Y331115D02*Y329715D01*
X95855Y331115D02*Y329715D01*
X90683Y331125D02*Y329725D01*
X97125Y331115D02*Y329715D01*
X98395Y331115D02*Y329715D01*
X99665Y331115D02*Y329715D01*
X100935Y331115D02*Y329715D01*
X102205Y331115D02*Y329715D01*
X90683Y340525D02*Y339125D01*
G54D30*X122569Y321671D02*Y321472D01*
X122561Y323569D02*Y323369D01*
X122867Y325555D02*Y325355D01*
G54D39*X112629Y308218D02*X113492D01*
X112629Y308718D02*X113492D01*
X112629Y309218D02*X113492D01*
X112629Y309718D02*X113492D01*
X112629Y310218D02*X113492D01*
X112629Y310718D02*X113492D01*
X112629Y311218D02*X113492D01*
X112629Y311718D02*X113492D01*
X112629Y312218D02*X113492D01*
X112629Y312718D02*X113492D01*
X112629Y313218D02*X113492D01*
X112629Y313718D02*X113492D01*
X112629Y314218D02*X113492D01*
X112629Y314718D02*X113492D01*
X112629Y315218D02*X113492D01*
X112629Y315718D02*X113492D01*
X91232Y324218D02*X92095D01*
X91232Y323718D02*X92095D01*
X91232Y323218D02*X92095D01*
X91232Y322718D02*X92095D01*
X91232Y322218D02*X92095D01*
X91232Y321718D02*X92095D01*
X91232Y321218D02*X92095D01*
X91232Y320718D02*X92095D01*
X91232Y320218D02*X92095D01*
X91232Y319718D02*X92095D01*
X91232Y319218D02*X92095D01*
X91232Y318718D02*X92095D01*
X91232Y318218D02*X92095D01*
X91232Y317718D02*X92095D01*
X91232Y308718D02*X92095D01*
X91232Y308218D02*X92095D01*
X91232Y307718D02*X92095D01*
X91232Y307218D02*X92095D01*
X91232Y306718D02*X92095D01*
X93612Y305201D02*Y304338D01*
X94112Y305201D02*Y304338D01*
X94612Y305201D02*Y304338D01*
G54D30*X90959Y304165D02*X91159D01*
X90959Y302365D02*X91159D01*
G54D39*X95112Y305201D02*Y304338D01*
X95612Y305201D02*Y304338D01*
X96112Y305201D02*Y304338D01*
X96612Y305201D02*Y304338D01*
X97112Y305201D02*Y304338D01*
X97612Y305201D02*Y304338D01*
X98112Y305201D02*Y304338D01*
X98612Y305201D02*Y304338D01*
X99112Y305201D02*Y304338D01*
X99612Y305201D02*Y304338D01*
X100112Y305201D02*Y304338D01*
X100612Y305201D02*Y304338D01*
X101112Y305201D02*Y304338D01*
X101612Y305201D02*Y304338D01*
X102112Y305201D02*Y304338D01*
X102612Y305201D02*Y304338D01*
X103112Y305201D02*Y304338D01*
X103612Y305201D02*Y304338D01*
X104112Y305201D02*Y304338D01*
X104612Y305201D02*Y304338D01*
X105112Y305201D02*Y304338D01*
X105612Y305201D02*Y304338D01*
X106112Y305201D02*Y304338D01*
X106612Y305201D02*Y304338D01*
X107112Y305201D02*Y304338D01*
X107612Y305201D02*Y304338D01*
X108112Y305201D02*Y304338D01*
X108612Y305201D02*Y304338D01*
X109112Y305201D02*Y304338D01*
X109612Y305201D02*Y304338D01*
X110112Y305201D02*Y304338D01*
X110612Y305201D02*Y304338D01*
X111112Y305201D02*Y304338D01*
X112629Y306718D02*X113492D01*
X112629Y307218D02*X113492D01*
X112629Y307718D02*X113492D01*
X112629Y318718D02*X113492D01*
X112629Y319218D02*X113492D01*
X112629Y319718D02*X113492D01*
X112629Y320218D02*X113492D01*
X112629Y320718D02*X113492D01*
X112629Y321218D02*X113492D01*
X112629Y321718D02*X113492D01*
X112629Y322218D02*X113492D01*
X112629Y322718D02*X113492D01*
X112629Y323218D02*X113492D01*
X112629Y323718D02*X113492D01*
X112629Y324218D02*X113492D01*
X111112Y326598D02*Y325735D01*
X110612Y326598D02*Y325735D01*
X110112Y326598D02*Y325735D01*
X109612Y326598D02*Y325735D01*
X109112Y326598D02*Y325735D01*
X108612Y326598D02*Y325735D01*
X108112Y326598D02*Y325735D01*
X107612Y326598D02*Y325735D01*
X107112Y326598D02*Y325735D01*
X106612Y326598D02*Y325735D01*
X106112Y326598D02*Y325735D01*
X105612Y326598D02*Y325735D01*
X105112Y326598D02*Y325735D01*
X104612Y326598D02*Y325735D01*
X104112Y326598D02*Y325735D01*
X103612Y326598D02*Y325735D01*
X103112Y326598D02*Y325735D01*
X102612Y326598D02*Y325735D01*
X102112Y326598D02*Y325735D01*
X99612Y326598D02*Y325735D01*
X99112Y326598D02*Y325735D01*
X98612Y326598D02*Y325735D01*
X98112Y326598D02*Y325735D01*
X91232Y312218D02*X92095D01*
X91232Y311718D02*X92095D01*
X91232Y311218D02*X92095D01*
X91232Y310718D02*X92095D01*
X91232Y310218D02*X92095D01*
X91232Y309718D02*X92095D01*
X91232Y309218D02*X92095D01*
G54D30*X86551Y308321D02*Y308122D01*
X84751Y308321D02*Y308122D01*
G54D39*X112629Y316218D02*X113492D01*
X112629Y316718D02*X113492D01*
X112629Y317218D02*X113492D01*
X112629Y317718D02*X113492D01*
X112629Y318218D02*X113492D01*
G54D30*X126623Y308837D02*Y308637D01*
X128422Y308837D02*Y308637D01*
X126608Y306779D02*Y306580D01*
X128408Y306779D02*Y306580D01*
G54D34*X130602Y315717D02*X131772D01*
X130602Y315067D02*X131772D01*
G54D30*X133147Y311224D02*Y311025D01*
X134947Y311224D02*Y311025D01*
X133147Y313206D02*Y313006D01*
X134947Y313206D02*Y313006D01*
X126619Y313155D02*Y312955D01*
X126623Y315161D02*Y314962D01*
X128419Y313155D02*Y312955D01*
X128422Y315161D02*Y314962D01*
G54D34*X136502Y315067D02*X137672D01*
X136502Y315717D02*X137672D01*
G54D30*X143710Y312799D02*Y312600D01*
X141910Y312799D02*Y312600D01*
X141913Y310539D02*Y310339D01*
X143713Y310539D02*Y310339D01*
X143662Y301318D02*Y301119D01*
Y299312D02*Y299112D01*
X141863Y301318D02*Y301119D01*
Y299312D02*Y299112D01*
G54D34*X136481Y302778D02*X137651D01*
G54D30*X134954Y298075D02*Y297875D01*
X133154Y298075D02*Y297875D01*
X133125Y300556D02*Y300357D01*
X134925Y300556D02*Y300357D01*
G54D34*X136481Y303428D02*X137651D01*
X136481Y304078D02*X137651D01*
X136481Y304728D02*X137651D01*
X136481Y305378D02*X137651D01*
X136481Y306028D02*X137651D01*
X136481Y306678D02*X137651D01*
X130581D02*X131751D01*
X130581Y306028D02*X131751D01*
X130581Y305378D02*X131751D01*
X130581Y304728D02*X131751D01*
X130581Y304078D02*X131751D01*
X130581Y303428D02*X131751D01*
X130581Y302778D02*X131751D01*
G54D30*X126572Y300683D02*Y300484D01*
X128372Y300683D02*Y300484D01*
X126572Y302868D02*Y302668D01*
X128372Y302868D02*Y302668D01*
G54D32*X153949Y318694D02*X155600D01*
X148742D02*X150393D01*
G54D30*X151613Y315847D02*Y315648D01*
X153412Y315847D02*Y315648D01*
G54D32*X153949Y319964D02*X155600D01*
X148742D02*X150393D01*
X153949Y321234D02*X155600D01*
X153949Y322504D02*X155600D01*
X148742D02*X150393D01*
X148742Y321234D02*X150393D01*
X153949Y307899D02*X155600D01*
X148742D02*X150393D01*
G54D30*X151562Y305713D02*Y305513D01*
X153362Y305713D02*Y305513D01*
G54D32*X153949Y309169D02*X155600D01*
X148742D02*X150393D01*
X153949Y310439D02*X155600D01*
X153949Y311709D02*X155600D01*
X148742D02*X150393D01*
X148742Y310439D02*X150393D01*
G54D30*X161698Y322682D02*X161898D01*
X159692Y317478D02*X159891D01*
X159692Y319278D02*X159891D01*
X161698Y320882D02*X161898D01*
X159692Y322678D02*X159891D01*
X159692Y320878D02*X159891D01*
X181421Y325974D02*X181621D01*
X161724Y311836D02*X161923D01*
X161724Y310036D02*X161923D01*
X159692Y310058D02*X159891D01*
X159692Y311858D02*X159891D01*
X181386Y313229D02*X181585D01*
X181386Y315029D02*X181585D01*
X159692Y306378D02*X159891D01*
X159692Y308178D02*X159891D01*
G54D34*X130602Y318967D02*X131772D01*
X130602Y318317D02*X131772D01*
X130602Y317667D02*X131772D01*
X130602Y317017D02*X131772D01*
X130602Y316367D02*X131772D01*
X136502D02*X137672D01*
X136502Y317017D02*X137672D01*
X136502Y317667D02*X137672D01*
X136502Y318317D02*X137672D01*
X136502Y318967D02*X137672D01*
G54D30*X143735Y323416D02*Y323217D01*
X141935Y323416D02*Y323217D01*
X141939Y321334D02*Y321134D01*
X143739Y321334D02*Y321134D01*
X126659Y321334D02*Y321134D01*
X128459Y321334D02*Y321134D01*
X124369Y321671D02*Y321472D01*
X126648Y319073D02*Y318873D01*
X128448Y319073D02*Y318873D01*
G54D34*X130554Y326510D02*X131724D01*
X130554Y325860D02*X131724D01*
X136454D02*X137624D01*
X136454Y326510D02*X137624D01*
G54D30*X124361Y323569D02*Y323369D01*
X124667Y325555D02*Y325355D01*
X143887Y289203D02*Y289003D01*
X143902Y286993D02*Y286793D01*
X142088Y289203D02*Y289003D01*
X142102Y286993D02*Y286793D01*
X143989Y276858D02*Y276659D01*
X142189Y276858D02*Y276659D01*
X142193Y274750D02*Y274550D01*
X143993Y274750D02*Y274550D01*
G54D32*X148688Y288184D02*X150339D01*
X148688Y286914D02*X150339D01*
X148688Y285644D02*X150339D01*
X148688Y284374D02*X150339D01*
X153895D02*X155546D01*
X153895Y285644D02*X155546D01*
X153895Y286914D02*X155546D01*
X153895Y288184D02*X155546D01*
X153949Y296672D02*X155600D01*
X148742D02*X150393D01*
X153949Y297942D02*X155600D01*
X153949Y299212D02*X155600D01*
X153949Y300482D02*X155600D01*
X148742D02*X150393D01*
X148742Y299212D02*X150393D01*
X148742Y297942D02*X150393D01*
G54D30*X151562Y293673D02*Y293473D01*
X153362Y293673D02*Y293473D01*
X151642Y281379D02*Y281180D01*
X153441Y281379D02*Y281180D01*
X151692Y269238D02*Y269039D01*
X153492Y269238D02*Y269039D01*
G54D32*X154051Y272110D02*X155702D01*
X154051Y273380D02*X155702D01*
X154051Y274650D02*X155702D01*
X154051Y275920D02*X155702D01*
X148844D02*X150495D01*
X148844Y274650D02*X150495D01*
X148844Y273380D02*X150495D01*
X148844Y272110D02*X150495D01*
G54D40*X150252Y263792D02*X151252D01*
X150252Y261252D02*X151252D01*
X150252Y258712D02*X151252D01*
G54D41*X149859Y253649D02*X150229D01*
X149859Y251729D02*X150229D01*
X151858D02*X152229D01*
X151858Y253649D02*X152229D01*
G54D40*X146519Y264980D02*X147519D01*
X146519Y259900D02*X147519D01*
G54D41*X144394Y253657D02*X144764D01*
X144394Y251737D02*X144764D01*
X146394D02*X146764D01*
X146394Y253657D02*X146764D01*
G54D30*X181183Y224586D02*X181382D01*
X181203Y233511D02*X181402D01*
X181203Y235311D02*X181402D01*
X181183Y222786D02*X181382D01*
X181322Y274649D02*X181522D01*
X181322Y276449D02*X181522D01*
X181218Y246175D02*X181418D01*
X181218Y247975D02*X181418D01*
X181213Y259007D02*X181413D01*
X181213Y260807D02*X181413D01*
X159717Y282375D02*X159917D01*
X159717Y284175D02*X159917D01*
X161724Y286552D02*X161923D01*
X159717Y286541D02*X159917D01*
X161724Y288352D02*X161923D01*
X159717Y288341D02*X159917D01*
X159793Y276682D02*X159993D01*
X159793Y271022D02*X159993D01*
X159793Y272821D02*X159993D01*
X159793Y274882D02*X159993D01*
X161724Y274857D02*X161923D01*
G54D40*X157952Y265062D02*X158952D01*
G54D30*X159717Y296875D02*X159917D01*
X159717Y298606D02*X159917D01*
X161724Y300406D02*X161923D01*
X161724Y298606D02*X161923D01*
X159717Y300406D02*X159917D01*
X159717Y295075D02*X159917D01*
X181335Y300823D02*X181535D01*
X181335Y302623D02*X181535D01*
X181373Y287623D02*X181573D01*
X181373Y289423D02*X181573D01*
X161724Y276657D02*X161923D01*
G54D40*X162005Y263809D02*X163005D01*
X169705Y265079D02*X170705D01*
X162005Y261269D02*X163005D01*
X162005Y258729D02*X163005D01*
X169705Y259999D02*X170705D01*
X157952Y259982D02*X158952D01*
G54D30*X170014Y247630D02*X170264D01*
X170014Y252130D02*X170264D01*
G54D41*X158272Y249847D02*Y249477D01*
X156352Y249847D02*Y249477D01*
X158308Y241849D02*Y241479D01*
X156388Y241849D02*Y241479D01*
X156352Y247847D02*Y247477D01*
X158272Y247847D02*Y247477D01*
G54D30*X162064Y252130D02*X162314D01*
X162064Y247630D02*X162314D01*
X161894Y244149D02*X162144D01*
X161894Y239650D02*X162144D01*
X161976Y236311D02*X162225D01*
X161976Y231811D02*X162225D01*
X169844Y239650D02*X170094D01*
X169844Y244149D02*X170094D01*
X169925Y231811D02*X170175D01*
X169925Y236311D02*X170175D01*
G54D41*X156576Y231947D02*Y231576D01*
X158495Y231947D02*Y231576D01*
Y233946D02*Y233576D01*
X156576Y233946D02*Y233576D01*
X156388Y239849D02*Y239479D01*
X158308Y239849D02*Y239479D01*
G54D42*X122200Y264706D02*X123020D01*
X122200Y265356D02*X123020D01*
X122172Y270025D02*X122992D01*
X122172Y270675D02*X122992D01*
X122172Y271325D02*X122992D01*
X122172Y271975D02*X122992D01*
X119552D02*X120372D01*
X119552Y271325D02*X120372D01*
X119552Y270675D02*X120372D01*
X119552Y270025D02*X120372D01*
X119638Y278141D02*X120458D01*
X119638Y277491D02*X120458D01*
X119638Y276841D02*X120458D01*
X119638Y276191D02*X120458D01*
X122258D02*X123077D01*
X122258Y276841D02*X123077D01*
X122258Y277491D02*X123077D01*
X122258Y278141D02*X123077D01*
X122363Y282131D02*X123183D01*
X122363Y282781D02*X123183D01*
X122363Y283431D02*X123183D01*
X122363Y284081D02*X123183D01*
X119743D02*X120563D01*
X119743Y283431D02*X120563D01*
X119743Y282781D02*X120563D01*
X119743Y282131D02*X120563D01*
X122346Y287822D02*X123166D01*
X122346Y288472D02*X123166D01*
X122346Y289122D02*X123166D01*
X122346Y289772D02*X123166D01*
X119726D02*X120546D01*
X119726Y289122D02*X120546D01*
X119726Y288472D02*X120546D01*
X119726Y287822D02*X120546D01*
X133993Y253331D02*X134813D01*
X133993Y251382D02*X134813D01*
X133993Y252032D02*X134813D01*
X133993Y252681D02*X134813D01*
X131374Y253331D02*X132194D01*
X131374Y252681D02*X132194D01*
X131374Y252032D02*X132194D01*
X131374Y251382D02*X132194D01*
X122247Y244856D02*X123067D01*
X122247Y245506D02*X123067D01*
X122247Y246156D02*X123067D01*
X122247Y246806D02*X123067D01*
X119628D02*X120448D01*
X119628Y246156D02*X120448D01*
X119628Y245506D02*X120448D01*
X119628Y244856D02*X120448D01*
X122254Y251361D02*X123073D01*
X122254Y252011D02*X123073D01*
X122254Y252661D02*X123073D01*
X122254Y253311D02*X123073D01*
X119634D02*X120454D01*
X119634Y252661D02*X120454D01*
X119634Y252011D02*X120454D01*
X119634Y251361D02*X120454D01*
X134009Y246610D02*X134829D01*
X134009Y244660D02*X134829D01*
X134009Y245310D02*X134829D01*
X134009Y245960D02*X134829D01*
X131390Y246610D02*X132210D01*
X131390Y245960D02*X132210D01*
X131390Y245310D02*X132210D01*
X131390Y244660D02*X132210D01*
G54D40*X138820Y263710D02*X139820D01*
X138820Y261170D02*X139820D01*
X138820Y258630D02*X139820D01*
G54D41*X138662Y253563D02*X139032D01*
X140662D02*X141032D01*
X138662Y251643D02*X139032D01*
X140662D02*X141032D01*
G54D42*X122226Y257277D02*X123045D01*
X122226Y257927D02*X123045D01*
X122226Y258577D02*X123045D01*
X122226Y259227D02*X123045D01*
X119606D02*X120426D01*
X119606Y258577D02*X120426D01*
X119606Y257927D02*X120426D01*
X119606Y257277D02*X120426D01*
X122200Y263406D02*X123020D01*
X122200Y264056D02*X123020D01*
X119580Y265356D02*X120400D01*
X119580Y264706D02*X120400D01*
X119580Y264056D02*X120400D01*
X119580Y263406D02*X120400D01*
G54D43*X125113Y275857D03*
X125166Y270977D03*
X125169Y269433D03*
X126149Y264704D03*
X126169Y263136D03*
X119924Y279827D03*
X118684Y277470D03*
X119885Y273637D03*
X117899Y271597D03*
X119918Y266984D03*
X117993Y264693D03*
X119952Y260972D03*
X113751Y270655D03*
X113769Y268978D03*
X102032Y280238D03*
X103683Y280017D03*
X105095Y279664D03*
X118110Y258572D03*
X119954Y254952D03*
X114747Y252677D03*
X120023Y248533D03*
X126197Y258354D03*
X132291Y256090D03*
X129639Y254353D03*
X126215Y256847D03*
X126223Y252458D03*
X126213Y250975D03*
X126234Y245999D03*
X126254Y244430D03*
X141315Y258635D03*
X138821Y249735D03*
X141237Y261196D03*
X143866Y258643D03*
X141864Y255577D03*
X143347D03*
X137236Y247698D03*
X130680Y248331D03*
X136357Y252677D03*
X137236Y245948D03*
X136357Y250226D03*
X129675Y245961D03*
X137249Y244279D03*
X129639Y252669D03*
X129002Y229837D03*
X131399Y228503D03*
X133721Y232829D03*
X113995Y246129D03*
X119187Y227239D03*
X121149Y227621D03*
X140284Y230716D03*
X145245Y230693D03*
X144556Y249702D03*
X122799Y296548D03*
X118656Y296827D03*
X122278Y298079D03*
X121750Y299438D03*
X121234Y300949D03*
X120391Y302339D03*
X119510Y300985D03*
X119088Y299227D03*
X141280Y295209D03*
X111440Y314272D03*
X116522Y313522D03*
X116665Y312242D03*
X101432Y301595D03*
X100409Y300464D03*
X99464Y301622D03*
X96937Y302072D03*
X98397Y302468D03*
X97846Y300848D03*
X94742Y310515D03*
X92311Y300779D03*
X94849Y308988D03*
X95067Y306796D03*
X94074Y306161D03*
X71285Y288491D03*
X69451Y286451D03*
X71285D03*
X77264Y291216D03*
X79505Y294244D03*
X81283Y291013D03*
X46129Y286167D03*
X0Y137503D03*
Y140566D03*
X82527Y272557D03*
X83782Y271917D03*
X85039Y272580D03*
X83233Y290713D03*
X87975Y243383D03*
G54D44*X48250Y221833D03*
G54D43*X87963Y248326D03*
X87617Y262974D03*
X93312Y266212D03*
X92799Y270218D03*
X93662Y260627D03*
X81252Y271722D03*
X70109Y272232D03*
X68852Y271186D03*
X67582Y272212D03*
X66314Y271173D03*
X72657Y272222D03*
X71379Y271186D03*
X74196Y267741D03*
X73896Y258409D03*
X75936Y258465D03*
X73923Y262897D03*
X61427Y264086D03*
X79980Y272575D03*
X77800Y247498D03*
X63889Y255532D03*
X63848Y253888D03*
X63746Y260472D03*
X65255Y261056D03*
X59182Y320167D03*
X55161Y302887D03*
X53162Y296850D03*
X54153Y292075D03*
X46629Y290845D03*
X66688Y308734D03*
Y307452D03*
Y306210D03*
X66680Y304917D03*
X66690Y303657D03*
Y302377D03*
Y301120D03*
X49807Y321899D03*
X63424Y294970D03*
X66076Y288046D03*
X67716Y288323D03*
X69477Y288511D03*
X59802Y281846D03*
X55684Y279616D03*
X55105Y256969D03*
X61430Y259065D03*
X53497Y255628D03*
X63523Y257175D03*
X55133Y251574D03*
X60307Y252578D03*
X56698Y252329D03*
X58682Y254241D03*
X52301Y252237D03*
X53495Y249878D03*
X52311Y246924D03*
X49210Y251752D03*
X50165Y248592D03*
X52415Y254709D03*
X59908Y238155D03*
X54859Y238036D03*
X52311Y237985D03*
X62438Y238153D03*
X54239Y260048D03*
X73942Y271374D03*
X74181Y276695D03*
X77440Y272575D03*
X78707Y271927D03*
X56764Y277076D03*
X75621Y277228D03*
X73939Y281993D03*
X72009Y281996D03*
X75822Y281991D03*
X65024Y272212D03*
X63754Y271163D03*
X65042Y278714D03*
X119634Y343408D03*
X120015Y341376D03*
X123190Y343408D03*
Y339598D03*
X124206Y335280D03*
X123165Y341833D03*
X123215Y337871D03*
X129337Y337261D03*
X146126Y331394D03*
X146583Y333985D03*
X148692Y336372D03*
Y324180D03*
X129929Y324612D03*
X135336Y324457D03*
X140721Y325849D03*
X142291Y317017D03*
X116573Y355046D03*
X151978Y364439D03*
X154371Y364124D03*
X141798Y363108D03*
X143142Y363934D03*
X120584Y352803D03*
X128341Y327787D03*
X128311Y329324D03*
X129466Y331572D03*
X133200Y329103D03*
X133843Y327160D03*
X140508Y329959D03*
X117236Y330604D03*
X140719Y327182D03*
X140879Y328605D03*
X136428Y331089D03*
X137516Y332186D03*
X132979Y346893D03*
X141674Y342842D03*
X133977Y342859D03*
X133993Y341252D03*
X134699Y344325D03*
G54D45*X68199Y344551D03*
G54D43*X70500Y325709D03*
X72898Y342519D03*
X60549Y336542D03*
X76672Y329004D03*
X57282Y332786D03*
X59474D03*
X58402Y331536D03*
X60681Y331516D03*
X94564Y336042D03*
X92652Y333228D03*
X93309Y336055D03*
X89411Y337569D03*
X90234Y336629D03*
X88138Y337571D03*
X86893D03*
X85598D03*
X84336Y337579D03*
X83055D03*
X81793Y337571D03*
X80521Y337563D03*
X85783Y324147D03*
X64389Y335534D03*
X65603Y327795D03*
X66670Y310002D03*
X68262Y313042D03*
X68278Y311247D03*
X75565Y341376D03*
X76279Y321638D03*
X76020Y311290D03*
X76289Y317810D03*
Y316548D03*
X76309Y315275D03*
Y313992D03*
X77808Y310848D03*
X79228Y310838D03*
X79398Y312387D03*
X81056Y311848D03*
X76269Y322908D03*
X76289Y320358D03*
X76284Y319075D03*
X76078Y324155D03*
X63754Y353060D03*
X65278Y351663D03*
X68834Y349758D03*
X60325Y354203D03*
X73279Y354711D03*
X61905Y361881D03*
X70347Y364640D03*
X80216D03*
G54D44*X44107Y366207D03*
G54D46*X78194Y358912D03*
G54D43*X93853Y315214D03*
X93980Y320167D03*
X95250Y316611D03*
X93928Y312218D03*
X96121Y306413D03*
X98044Y318516D03*
X97663Y324358D03*
X99822D03*
X101854Y322580D03*
X100462Y280383D03*
X101915Y267480D03*
X89662Y315722D03*
X90297Y305943D03*
X87851Y307221D03*
G54D45*X85743Y290713D03*
X88257Y290733D03*
G54D43*X90302Y277889D03*
X92263Y279827D03*
X92337Y268994D03*
X93279Y267848D03*
X98044Y306451D03*
X98933Y309880D03*
X103124Y306705D03*
X101473Y307594D03*
X107061Y306705D03*
X108712Y307213D03*
X114343Y311724D03*
X110871Y320167D03*
X105537D03*
X107569Y324231D03*
X105811Y329090D03*
X105288Y330540D03*
X110617Y324231D03*
X108478Y314302D03*
X103668Y315224D03*
X110236Y313436D03*
X109426Y315562D03*
X111448Y312453D03*
X108242Y270589D03*
X105253Y230584D03*
X111841Y235100D03*
X112911Y235806D03*
X86319Y271917D03*
X87620Y272468D03*
X86568Y267668D03*
X88080Y277023D03*
X85430Y248722D03*
X86233Y247348D03*
X77795Y249029D03*
X79604Y253992D03*
X87820Y255252D03*
X87831Y257023D03*
X85695Y260165D03*
X76848Y277419D03*
X77307Y282001D03*
X78892Y282476D03*
X80554Y282801D03*
X150012Y314046D03*
X146482Y309169D03*
Y311734D03*
Y297967D03*
Y300482D03*
X146431Y275920D03*
X159766Y315341D03*
X158064Y311709D03*
X158039Y310058D03*
X163932Y310032D03*
X153787Y312976D03*
X156903Y314099D03*
X159791Y304267D03*
X157886Y300482D03*
X159817Y292811D03*
X157912Y298577D03*
X165278Y303378D03*
X163881Y298628D03*
X165303Y290627D03*
X163906Y286537D03*
X165329Y278282D03*
X163881Y274853D03*
X157912Y286537D03*
X151943Y285648D03*
X146456Y288188D03*
X157937D03*
X159791Y280441D03*
X157734Y274879D03*
X151943Y273355D03*
X157734Y276657D03*
X159893Y269138D03*
X129134Y317017D03*
X130124Y321970D03*
X131318Y311120D03*
X139167Y305181D03*
X136627Y312039D03*
X139164Y311485D03*
X136718Y297028D03*
X128201Y277983D03*
X136710Y283952D03*
X120129Y291506D03*
X120000Y285869D03*
X125021Y289032D03*
X125011Y287609D03*
X125123Y283317D03*
X125125Y281887D03*
X125128Y277472D03*
X118280Y283977D03*
X181496Y285730D03*
X181447Y272887D03*
X129134Y310591D03*
Y304724D03*
X127127Y310591D03*
X124257Y305044D03*
X123932Y306626D03*
X123533Y308145D03*
X125095Y318282D03*
X123101Y309453D03*
X115372Y310749D03*
X125240Y314866D03*
X114699Y314231D03*
X127102Y298577D03*
X123403Y295087D03*
X184193Y226411D03*
X183919Y231602D03*
X183556Y244582D03*
X183507Y257104D03*
G54D44*X178374Y229552D03*
G54D43*X177046Y261348D03*
X160462Y261234D03*
X148859Y261242D03*
X164833Y236271D03*
X164849Y244145D03*
X164876Y252110D03*
X154541Y249631D03*
X154866Y243634D03*
X154562Y247617D03*
X154402Y253637D03*
X150084Y249855D03*
X154386Y229078D03*
X154041Y233853D03*
X154269Y238872D03*
X154043Y231818D03*
X152839Y258689D03*
X164414Y258745D03*
X155103Y258689D03*
X166908Y258727D03*
X147886Y255588D03*
X150063Y255605D03*
X159995Y345796D03*
X160045Y342138D03*
X166167Y339504D03*
X162852Y337248D03*
X158984Y349931D03*
X137312Y349936D03*
X139040D03*
X140741D03*
X143192Y347221D03*
X143236Y349946D03*
X162446Y353184D03*
X165473Y353195D03*
X158115Y333959D03*
X158090Y332486D03*
X163957D03*
Y334315D03*
X150012Y335458D03*
X159791Y326238D03*
X158090Y322478D03*
X158115Y320878D03*
X163957D03*
X146507Y322478D03*
X146482Y319964D03*
X146528Y326039D03*
X159555Y339463D03*
X180340Y351663D03*
X185301Y349138D03*
X181646Y336946D03*
G54D44*X190807Y367566D03*
G54D47*X190754Y357033D03*
G54D43*X190249Y358460D03*
X185382Y364670D03*
X183960Y354404D03*
X188262Y352501D03*
X183970Y356413D03*
X155250Y326039D03*
X156908Y324820D03*
X181546Y324056D03*
X181488Y311193D03*
X181435Y298933D03*
X171907Y334373D03*
X175176Y330932D03*
G54D47*X76835Y343027D03*
X87122D03*
G54D43*X85115Y349682D03*
X79685Y346860D03*
X89423Y353919D03*
X91722Y332039D03*
X109220Y343408D03*
X107315Y342138D03*
X110617Y345948D03*
X98806Y343535D03*
G54D46*Y346456D03*
G54D43*X109220Y339598D03*
X108052Y338328D03*
X109601Y335153D03*
X114351Y337058D03*
X103477Y332257D03*
X102189Y336029D03*
X100922D03*
X99662D03*
X98372Y336019D03*
X103045Y333538D03*
X97125Y336027D03*
X95844Y336014D03*
X104229Y366773D03*
X103406Y353228D03*
X102842Y363985D03*
X112652Y363974D03*
X101229Y364914D03*
X114160Y363471D03*
G54D13*G54D48*G54D13*G54D48*G54D13*G54D48*G54D13*G54D48*G54D18*G54D13*G54D49*G54D50*G54D49*G54D50*G54D49*G54D50*G54D49*G54D50*G54D49*G54D22*G54D49*G54D50*G54D49*G54D50*G54D49*G54D51*G54D49*G54D22*M02*
