M48
METRIC,000.000
T123C0.762
T122C2.540
T121C0.508
T120C1.803
T119C1.016
T118C1.295
T117C0.965
%
T121
X000000Y140566
X000000Y137503
X046129Y286167
X046629Y290845
X049210Y251752
X049807Y321899
X050165Y248592
X052301Y252237
X052311Y246924
X052311Y237985
X052415Y254709
X053162Y296850
X053495Y249878
X053497Y255628
X054153Y292075
X054239Y260048
X054859Y238036
X055105Y256969
X055133Y251574
X055161Y302887
X055684Y279616
X056698Y252329
X056764Y277076
X057282Y332786
X058402Y331536
X058682Y254241
X059182Y320167
X059474Y332786
X059802Y281846
X059908Y238155
X060307Y252578
X060325Y354203
X060549Y336542
X060681Y331516
X061427Y264086
X061430Y259065
X061905Y361881
X062438Y238153
X063424Y294970
X063523Y257175
X063746Y260472
X063754Y353060
X063754Y271163
X063848Y253888
X063889Y255532
X064389Y335534
X065024Y272212
X065042Y278714
X065255Y261056
X065278Y351663
X065603Y327795
X066076Y288046
X066314Y271173
X066670Y310002
X066680Y304917
X066688Y308734
X066688Y307452
X066688Y306210
X066690Y303657
X066690Y302377
X066690Y301120
X067582Y272212
X067716Y288323
X068199Y344551
X068262Y313042
X068278Y311247
X068834Y349758
X068852Y271186
X069451Y286451
X069477Y288511
X070109Y272232
X070347Y364640
X070500Y325709
X071285Y288491
X071285Y286451
X071379Y271186
X072009Y281996
X072657Y272222
X072898Y342519
X073279Y354711
X073896Y258409
X073923Y262897
X073939Y281993
X073942Y271374
X074181Y276695
X074196Y267741
X075565Y341376
X075621Y277228
X075822Y281991
X075936Y258465
X076020Y311290
X076078Y324155
X076269Y322908
X076279Y321638
X076284Y319075
X076289Y320358
X076289Y317810
X076289Y316548
X076309Y315275
X076309Y313992
X076672Y329004
X076835Y343027
X076848Y277419
X077264Y291216
X077307Y282001
X077440Y272575
X077795Y249029
X077800Y247498
X077808Y310848
X078194Y358912
X078707Y271927
X078892Y282476
X079228Y310838
X079398Y312387
X079505Y294244
X079604Y253992
X079685Y346860
X079980Y272575
X080216Y364640
X080521Y337563
X080554Y282801
X081056Y311848
X081252Y271722
X081283Y291013
X081793Y337571
X082527Y272557
X083055Y337579
X083233Y290713
X083782Y271917
X084336Y337579
X085039Y272580
X085115Y349682
X085430Y248722
X085598Y337571
X085695Y260165
X085743Y290713
X085783Y324147
X086233Y247348
X086319Y271917
X086568Y267668
X086893Y337571
X087122Y343027
X087617Y262974
X087620Y272468
X087820Y255252
X087831Y257023
X087851Y307221
X087963Y248326
X087975Y243383
X088080Y277023
X088138Y337571
X088257Y290733
X089411Y337569
X089423Y353919
X089662Y315722
X090234Y336629
X090297Y305943
X090302Y277889
X091722Y332039
X092263Y279827
X092311Y300779
X092337Y268994
X092652Y333228
X092799Y270218
X093279Y267848
X093309Y336055
X093312Y266212
X093662Y260627
X093853Y315214
X093928Y312218
X093980Y320167
X094074Y306161
X094564Y336042
X094742Y310515
X094849Y308988
X095067Y306796
X095250Y316611
X095844Y336014
X096121Y306413
X096937Y302072
X097125Y336027
X097663Y324358
X097846Y300848
X098044Y318516
X098044Y306451
X098372Y336019
X098397Y302468
X098806Y346456
X098806Y343535
X098933Y309880
X099464Y301622
X099662Y336029
X099822Y324358
X100409Y300464
X100462Y280383
X100922Y336029
X101229Y364914
X101432Y301595
X101473Y307594
X101854Y322580
X101915Y267480
X102032Y280238
X102189Y336029
X102842Y363985
X103045Y333538
X103124Y306705
X103406Y353228
X103477Y332257
X103668Y315224
X103683Y280017
X104229Y366773
X105095Y279664
X105253Y230584
X105288Y330540
X105537Y320167
X105811Y329090
X107061Y306705
X107315Y342138
X107569Y324231
X108052Y338328
X108242Y270589
X108478Y314302
X108712Y307213
X109220Y343408
X109220Y339598
X109426Y315562
X109601Y335153
X110236Y313436
X110617Y345948
X110617Y324231
X110871Y320167
X111440Y314272
X111448Y312453
X111841Y235100
X112652Y363974
X112911Y235806
X113751Y270655
X113769Y268978
X113995Y246129
X114160Y363471
X114343Y311724
X114351Y337058
X114699Y314231
X114747Y252677
X115372Y310749
X116522Y313522
X116573Y355046
X116665Y312242
X117236Y330604
X117899Y271597
X117993Y264693
X118110Y258572
X118280Y283977
X118656Y296827
X118684Y277470
X119088Y299227
X119187Y227239
X119510Y300985
X119634Y343408
X119885Y273637
X119918Y266984
X119924Y279827
X119952Y260972
X119954Y254952
X120000Y285869
X120015Y341376
X120023Y248533
X120129Y291506
X120391Y302339
X120584Y352803
X121149Y227621
X121234Y300949
X121750Y299438
X122278Y298079
X122799Y296548
X123101Y309453
X123165Y341833
X123190Y343408
X123190Y339598
X123215Y337871
X123403Y295087
X123533Y308145
X123932Y306626
X124206Y335280
X124257Y305044
X125011Y287609
X125021Y289032
X125095Y318282
X125113Y275857
X125123Y283317
X125125Y281887
X125128Y277472
X125166Y270977
X125169Y269433
X125240Y314866
X126149Y264704
X126169Y263136
X126197Y258354
X126213Y250975
X126215Y256847
X126223Y252458
X126234Y245999
X126254Y244430
X127102Y298577
X127127Y310591
X128201Y277983
X128311Y329324
X128341Y327787
X129002Y229837
X129134Y317017
X129134Y310591
X129134Y304724
X129337Y337261
X129466Y331572
X129639Y254353
X129639Y252669
X129675Y245961
X129929Y324612
X130124Y321970
X130680Y248331
X131318Y311120
X131399Y228503
X132291Y256090
X132979Y346893
X133200Y329103
X133721Y232829
X133843Y327160
X133977Y342859
X133993Y341252
X134699Y344325
X135336Y324457
X136357Y252677
X136357Y250226
X136428Y331089
X136627Y312039
X136710Y283952
X136718Y297028
X137236Y247698
X137236Y245948
X137249Y244279
X137312Y349936
X137516Y332186
X138821Y249735
X139040Y349936
X139164Y311485
X139167Y305181
X140284Y230716
X140508Y329959
X140719Y327182
X140721Y325849
X140741Y349936
X140879Y328605
X141237Y261196
X141280Y295209
X141315Y258635
X141674Y342842
X141798Y363108
X141864Y255577
X142291Y317017
X143142Y363934
X143192Y347221
X143236Y349946
X143347Y255577
X143866Y258643
X144556Y249702
X145245Y230693
X146126Y331394
X146431Y275920
X146456Y288188
X146482Y319964
X146482Y311734
X146482Y309169
X146482Y300482
X146482Y297967
X146507Y322478
X146528Y326039
X146583Y333985
X147886Y255588
X148692Y336372
X148692Y324180
X148859Y261242
X150012Y335458
X150012Y314046
X150063Y255605
X150084Y249855
X151943Y285648
X151943Y273355
X151978Y364439
X152839Y258689
X153787Y312976
X154041Y233853
X154043Y231818
X154269Y238872
X154371Y364124
X154386Y229078
X154402Y253637
X154541Y249631
X154562Y247617
X154866Y243634
X155103Y258689
X155250Y326039
X156903Y314099
X156908Y324820
X157734Y276657
X157734Y274879
X157886Y300482
X157912Y298577
X157912Y286537
X157937Y288188
X158039Y310058
X158064Y311709
X158090Y332486
X158090Y322478
X158115Y333959
X158115Y320878
X158984Y349931
X159555Y339463
X159766Y315341
X159791Y326238
X159791Y304267
X159791Y280441
X159817Y292811
X159893Y269138
X159995Y345796
X160045Y342138
X160462Y261234
X162446Y353184
X162852Y337248
X163881Y298628
X163881Y274853
X163906Y286537
X163932Y310032
X163957Y334315
X163957Y332486
X163957Y320878
X164414Y258745
X164833Y236271
X164849Y244145
X164876Y252110
X165278Y303378
X165303Y290627
X165329Y278282
X165473Y353195
X166167Y339504
X166908Y258727
X171907Y334373
X175176Y330932
X177046Y261348
X180340Y351663
X181435Y298933
X181447Y272887
X181488Y311193
X181496Y285730
X181546Y324056
X181646Y336946
X183507Y257104
X183556Y244582
X183919Y231602
X183960Y354404
X183970Y356413
X184193Y226411
X185301Y349138
X185382Y364670
X188262Y352501
X190249Y358460
T123
X190754Y357033
T117
X051087Y227404
X051087Y224864
X053627Y227404
X053627Y224864
X056167Y227404
X056167Y224864
X058707Y227404
X058707Y224864
X061247Y227404
X061247Y224864
X063787Y227404
X063787Y224864
X065717Y319159
X065720Y316608
X065735Y322552
X065738Y325107
X066327Y227404
X066327Y224864
X068257Y319159
X068260Y316608
X068275Y322552
X068278Y325107
X068867Y227404
X068867Y224864
X071407Y227404
X071407Y224864
X071895Y336151
X071900Y333629
X071920Y330365
X071920Y327828
X073947Y227404
X073947Y224864
X074435Y336151
X074440Y333629
X074460Y330365
X074460Y327828
X076487Y227404
X076487Y224864
X078105Y304165
X078105Y301625
X079027Y227404
X079027Y224864
X080645Y304165
X080645Y301625
X080769Y353911
X080769Y351371
X081567Y227404
X081567Y224864
X083185Y304165
X083185Y301625
X083312Y353908
X083312Y351368
X084107Y227404
X084107Y224864
X085725Y304165
X085725Y301625
X086647Y227404
X086647Y224864
X088265Y304165
X088265Y301625
X089187Y227404
X089187Y224864
X091727Y227404
X091727Y224864
X094267Y227404
X094267Y224864
X097008Y242453
X098252Y351478
X098257Y354015
X099548Y242453
X100792Y351478
X100797Y354015
X102088Y242453
X104628Y242453
X107168Y242453
X131016Y291968
X131016Y289428
X131016Y286888
X131016Y284348
X131016Y281808
X131016Y279268
X131016Y276728
X131016Y274188
X131016Y271648
X131016Y269108
X133556Y291968
X133556Y289428
X133556Y286888
X133556Y284348
X133556Y281808
X133556Y279268
X133556Y276728
X133556Y274188
X133556Y271648
X133556Y269108
X143779Y244980
X143779Y242440
X146319Y244980
X146319Y242440
X148859Y244980
X148859Y242440
X151399Y244980
X151399Y242440
X186914Y332806
X186914Y330266
X186914Y327726
X186914Y325186
X186921Y281539
X186921Y278999
X186921Y276459
X186921Y273919
X186947Y294475
X186947Y291935
X186947Y289395
X186947Y286855
X186967Y345801
X186967Y343261
X186967Y340721
X186967Y338181
X187013Y307693
X187013Y305153
X187013Y302613
X187013Y300073
X187038Y320088
X187038Y317548
X187038Y315008
X187038Y312468
X187114Y268381
X187114Y265841
X187114Y263301
X187114Y260761
X187371Y255585
X187371Y253045
X187371Y250505
X187371Y247965
X187371Y242921
X187371Y240381
X187371Y237841
X187371Y235301
X187378Y230426
X187378Y227886
X187378Y225346
X187378Y222806
T119
X092576Y362288
X092576Y359748
X095116Y362288
X095116Y359748
X097656Y362288
X097656Y359748
X100196Y362288
X100196Y359748
X102736Y362288
X102736Y359748
X105276Y362288
X105276Y359748
X107816Y362288
X107816Y359748
X110356Y362288
X110356Y359748
X112896Y362288
X112896Y359748
X115436Y362288
X115436Y359748
X117976Y362288
X117976Y359748
X120516Y362288
X120516Y359748
X123056Y362288
X123056Y359748
X147193Y362303
X147193Y359763
X149733Y362303
X149733Y359763
X152273Y362303
X152273Y359763
X154813Y362303
X154813Y359763
X157353Y362303
X157353Y359763
X159893Y362303
X159893Y359763
X162433Y362303
X162433Y359763
X164973Y362303
X164973Y359763
X167513Y362303
X167513Y359763
X170053Y362303
X170053Y359763
X172593Y362303
X172593Y359763
X175133Y362303
X175133Y359763
X177673Y362303
X177673Y359763
T118
X044536Y232748
X044536Y230208
X044536Y227668
X044536Y225128
X044600Y281859
X044600Y279319
X044600Y276779
X044600Y274239
X044620Y244853
X044620Y242313
X044620Y239773
X044620Y237233
X044633Y270302
X044633Y267762
X044633Y265222
X044633Y262682
X044663Y258074
X044663Y255534
X044663Y252994
X044663Y250454
X073965Y288514
X076505Y288514
X079045Y288514
X081585Y288514
X098870Y224699
X101410Y224699
X103950Y224699
X106490Y224699
X111879Y224739
X114419Y224739
X116959Y224739
X119499Y224739
X125222Y224726
X127762Y224726
X130302Y224726
X132842Y224726
X140251Y224757
X142791Y224757
X145331Y224757
X147871Y224757
X153789Y224749
X156329Y224749
X158869Y224749
X161409Y224749
T120
X052873Y344708
X052873Y339628
X052873Y334548
X052873Y329468
T122
X044107Y366207
X048250Y221833
X178374Y229552
X190807Y367566
M30
